<svg width="50" height="50" viewBox="0 0 50 50" fill="none" xmlns="http://www.w3.org/2000/svg">
<path d="M0.413087 25C0.413087 11.4213 11.4213 0.413086 25 0.413085C38.5787 0.413084 49.5869 11.4213 49.5869 25C49.5869 38.5787 38.5787 49.5869 25 49.5869C11.4213 49.5869 0.413088 38.5787 0.413087 25Z" fill="white"/>
<path d="M0.413087 25C0.413087 11.4213 11.4213 0.413086 25 0.413085C38.5787 0.413084 49.5869 11.4213 49.5869 25C49.5869 38.5787 38.5787 49.5869 25 49.5869C11.4213 49.5869 0.413088 38.5787 0.413087 25Z" stroke="#E1E1E1" stroke-width="0.827038"/>
<path d="M21.3086 17.6169L28.6918 25.0001L21.3086 32.3833" stroke="#FF4C8E" stroke-width="1.47664" stroke-linecap="round" stroke-linejoin="round"/>
</svg>
