<svg width="363" height="108" viewBox="0 0 363 108" fill="none" xmlns="http://www.w3.org/2000/svg">
<path d="M87.9282 49.2424V35.2598H93.5267C94.5553 35.2598 95.4133 35.4123 96.1006 35.7173C96.7879 36.0222 97.3045 36.4455 97.6504 36.9872C97.9964 37.5243 98.1693 38.1433 98.1693 38.8442C98.1693 39.3904 98.0601 39.8706 97.8416 40.2848C97.6231 40.6945 97.3227 41.0313 96.9404 41.2953C96.5626 41.5547 96.1302 41.7391 95.6432 41.8483V41.9849C96.1757 42.0076 96.6741 42.1578 97.1384 42.4355C97.6072 42.7131 97.9873 43.1023 98.2786 43.603C98.5699 44.0991 98.7155 44.6908 98.7155 45.3781C98.7155 46.12 98.5312 46.7823 98.1625 47.3649C97.7984 47.9429 97.259 48.4004 96.5444 48.7372C95.8298 49.074 94.9491 49.2424 93.9022 49.2424H87.9282ZM90.8845 46.8255H93.2945C94.1184 46.8255 94.7192 46.6685 95.097 46.3544C95.4748 46.0358 95.6637 45.6125 95.6637 45.0845C95.6637 44.6976 95.5704 44.3563 95.3837 44.0604C95.1971 43.7645 94.9309 43.5324 94.5849 43.364C94.2436 43.1956 93.8362 43.1114 93.3628 43.1114H90.8845V46.8255ZM90.8845 41.111H93.0761C93.4812 41.111 93.8407 41.0404 94.1548 40.8993C94.4734 40.7536 94.7238 40.5488 94.9058 40.2848C95.0924 40.0208 95.1857 39.7045 95.1857 39.3358C95.1857 38.8306 95.006 38.4232 94.6464 38.1137C94.2913 37.8042 93.7861 37.6494 93.1307 37.6494H90.8845V41.111ZM113.296 42.2511C113.296 43.7759 113.007 45.0731 112.429 46.1428C111.856 47.2124 111.073 48.0294 110.08 48.5938C109.093 49.1537 107.982 49.4336 106.749 49.4336C105.506 49.4336 104.391 49.1514 103.403 48.587C102.415 48.0226 101.635 47.2056 101.061 46.1359C100.488 45.0663 100.201 43.7714 100.201 42.2511C100.201 40.7263 100.488 39.4291 101.061 38.3595C101.635 37.2899 102.415 36.4751 103.403 35.9153C104.391 35.3509 105.506 35.0687 106.749 35.0687C107.982 35.0687 109.093 35.3509 110.08 35.9153C111.073 36.4751 111.856 37.2899 112.429 38.3595C113.007 39.4291 113.296 40.7263 113.296 42.2511ZM110.299 42.2511C110.299 41.2634 110.151 40.4305 109.855 39.7523C109.564 39.0741 109.152 38.5598 108.619 38.2093C108.087 37.8588 107.463 37.6836 106.749 37.6836C106.034 37.6836 105.41 37.8588 104.878 38.2093C104.345 38.5598 103.931 39.0741 103.635 39.7523C103.344 40.4305 103.198 41.2634 103.198 42.2511C103.198 43.2388 103.344 44.0718 103.635 44.75C103.931 45.4282 104.345 45.9425 104.878 46.293C105.41 46.6435 106.034 46.8187 106.749 46.8187C107.463 46.8187 108.087 46.6435 108.619 46.293C109.152 45.9425 109.564 45.4282 109.855 44.75C110.151 44.0718 110.299 43.2388 110.299 42.2511ZM114.123 37.6972V35.2598H125.607V37.6972H121.326V49.2424H118.404V37.6972H114.123ZM130.262 35.2598V49.2424H127.306V35.2598H130.262ZM144.345 39.2812C144.29 38.7305 144.056 38.3026 143.641 37.9976C143.227 37.6927 142.665 37.5402 141.955 37.5402C141.473 37.5402 141.065 37.6085 140.733 37.745C140.401 37.877 140.146 38.0614 139.968 38.298C139.795 38.5347 139.709 38.8033 139.709 39.1037C139.7 39.354 139.752 39.5725 139.866 39.7591C139.984 39.9457 140.146 40.1073 140.351 40.2439C140.555 40.3759 140.792 40.4919 141.061 40.5921C141.329 40.6877 141.616 40.7696 141.921 40.8379L143.177 41.1383C143.787 41.2748 144.347 41.4569 144.857 41.6845C145.367 41.912 145.808 42.192 146.181 42.5242C146.554 42.8565 146.844 43.2479 147.048 43.6986C147.258 44.1492 147.365 44.6658 147.369 45.2484C147.365 46.1041 147.146 46.846 146.714 47.4741C146.286 48.0977 145.667 48.5824 144.857 48.9284C144.051 49.2697 143.079 49.4404 141.941 49.4404C140.813 49.4404 139.829 49.2675 138.992 48.9215C138.159 48.5756 137.508 48.0636 137.039 47.3854C136.575 46.7026 136.332 45.8583 136.309 44.8524H139.169C139.201 45.3212 139.336 45.7126 139.572 46.0267C139.814 46.3362 140.134 46.5706 140.535 46.7299C140.94 46.8847 141.397 46.9621 141.907 46.9621C142.408 46.9621 142.843 46.8892 143.211 46.7436C143.585 46.5979 143.874 46.3954 144.078 46.1359C144.283 45.8765 144.386 45.5784 144.386 45.2416C144.386 44.9275 144.292 44.6635 144.106 44.4496C143.924 44.2356 143.655 44.0536 143.3 43.9034C142.95 43.7532 142.519 43.6166 142.01 43.4937L140.487 43.1114C139.308 42.8246 138.377 42.3763 137.695 41.7664C137.012 41.1565 136.673 40.3349 136.677 39.3017C136.673 38.4551 136.898 37.7154 137.353 37.0828C137.813 36.4501 138.443 35.9562 139.245 35.6012C140.046 35.2462 140.956 35.0687 141.976 35.0687C143.013 35.0687 143.919 35.2462 144.693 35.6012C145.471 35.9562 146.077 36.4501 146.509 37.0828C146.941 37.7154 147.164 38.4482 147.178 39.2812H144.345ZM153.849 49.4473C152.775 49.4473 151.851 49.2197 151.077 48.7645C150.308 48.3048 149.716 47.6676 149.302 46.8528C148.892 46.0381 148.688 45.1005 148.688 44.0399C148.688 42.9657 148.895 42.0236 149.309 41.2134C149.728 40.3986 150.322 39.7637 151.091 39.3085C151.86 38.8488 152.775 38.6189 153.835 38.6189C154.75 38.6189 155.551 38.7851 156.239 39.1173C156.926 39.4496 157.47 39.9161 157.87 40.517C158.271 41.1178 158.492 41.8233 158.533 42.6335H155.788C155.711 42.11 155.506 41.689 155.174 41.3704C154.846 41.0472 154.416 40.8856 153.883 40.8856C153.433 40.8856 153.039 41.0085 152.702 41.2543C152.37 41.4956 152.11 41.8483 151.924 42.3126C151.737 42.7768 151.644 43.339 151.644 43.999C151.644 44.668 151.735 45.237 151.917 45.7058C152.104 46.1746 152.365 46.5319 152.702 46.7777C153.039 47.0235 153.433 47.1464 153.883 47.1464C154.215 47.1464 154.514 47.0781 154.778 46.9416C155.046 46.805 155.267 46.607 155.44 46.3476C155.617 46.0836 155.733 45.7673 155.788 45.3986H158.533C158.487 46.1997 158.269 46.9052 157.877 47.5151C157.49 48.1205 156.956 48.5938 156.273 48.9352C155.59 49.2766 154.782 49.4473 153.849 49.4473ZM163.111 43.1797V49.2424H160.203V35.2598H163.029V40.6057H163.152C163.389 39.9867 163.771 39.502 164.299 39.1515C164.827 38.7964 165.489 38.6189 166.286 38.6189C167.014 38.6189 167.649 38.7782 168.191 39.0969C168.737 39.4109 169.16 39.8638 169.461 40.4555C169.766 41.0427 169.916 41.7459 169.911 42.5652V49.2424H167.003V43.0841C167.007 42.4378 166.843 41.9348 166.511 41.5752C166.183 41.2156 165.724 41.0358 165.132 41.0358C164.736 41.0358 164.386 41.1201 164.081 41.2885C163.78 41.4569 163.544 41.7027 163.371 42.0258C163.202 42.3444 163.116 42.7291 163.111 43.1797ZM176.746 49.4473C175.686 49.4473 174.768 49.2219 173.995 48.7713C173.225 48.3162 172.631 47.6835 172.213 46.8733C171.794 46.0586 171.585 45.1141 171.585 44.0399C171.585 42.9566 171.794 42.0099 172.213 41.1997C172.631 40.385 173.225 39.7523 173.995 39.3017C174.768 38.8465 175.686 38.6189 176.746 38.6189C177.807 38.6189 178.722 38.8465 179.491 39.3017C180.265 39.7523 180.861 40.385 181.28 41.1997C181.698 42.0099 181.908 42.9566 181.908 44.0399C181.908 45.1141 181.698 46.0586 181.28 46.8733C180.861 47.6835 180.265 48.3162 179.491 48.7713C178.722 49.2219 177.807 49.4473 176.746 49.4473ZM176.76 47.1942C177.242 47.1942 177.645 47.0577 177.968 46.7846C178.291 46.5069 178.535 46.1291 178.699 45.6512C178.867 45.1733 178.951 44.6294 178.951 44.0194C178.951 43.4095 178.867 42.8656 178.699 42.3877C178.535 41.9098 178.291 41.532 177.968 41.2543C177.645 40.9767 177.242 40.8379 176.76 40.8379C176.273 40.8379 175.863 40.9767 175.531 41.2543C175.203 41.532 174.955 41.9098 174.787 42.3877C174.623 42.8656 174.541 43.4095 174.541 44.0194C174.541 44.6294 174.623 45.1733 174.787 45.6512C174.955 46.1291 175.203 46.5069 175.531 46.7846C175.863 47.0577 176.273 47.1942 176.76 47.1942ZM188.345 49.4473C187.284 49.4473 186.367 49.2219 185.593 48.7713C184.824 48.3162 184.23 47.6835 183.811 46.8733C183.393 46.0586 183.183 45.1141 183.183 44.0399C183.183 42.9566 183.393 42.0099 183.811 41.1997C184.23 40.385 184.824 39.7523 185.593 39.3017C186.367 38.8465 187.284 38.6189 188.345 38.6189C189.405 38.6189 190.32 38.8465 191.089 39.3017C191.863 39.7523 192.46 40.385 192.878 41.1997C193.297 42.0099 193.506 42.9566 193.506 44.0399C193.506 45.1141 193.297 46.0586 192.878 46.8733C192.46 47.6835 191.863 48.3162 191.089 48.7713C190.32 49.2219 189.405 49.4473 188.345 49.4473ZM188.359 47.1942C188.841 47.1942 189.244 47.0577 189.567 46.7846C189.89 46.5069 190.134 46.1291 190.298 45.6512C190.466 45.1733 190.55 44.6294 190.55 44.0194C190.55 43.4095 190.466 42.8656 190.298 42.3877C190.134 41.9098 189.89 41.532 189.567 41.2543C189.244 40.9767 188.841 40.8379 188.359 40.8379C187.871 40.8379 187.462 40.9767 187.13 41.2543C186.802 41.532 186.554 41.9098 186.385 42.3877C186.222 42.8656 186.14 43.4095 186.14 44.0194C186.14 44.6294 186.222 45.1733 186.385 45.6512C186.554 46.1291 186.802 46.5069 187.13 46.7846C187.462 47.0577 187.871 47.1942 188.359 47.1942ZM198.114 35.2598V49.2424H195.205V35.2598H198.114Z" fill="#231759"/>
<path d="M88.057 74.2424V62.0077H95.7277V63.5967H89.903V67.3245H95.3274V68.9076H89.903V72.6533H95.7994V74.2424H88.057ZM91.1516 60.783L92.5495 58.029H94.4313L92.5794 60.783H91.1516ZM101.915 74.4276C101.027 74.4276 100.262 74.2265 99.6212 73.8243C98.984 73.418 98.4941 72.8585 98.1516 72.1456C97.8091 71.4327 97.6379 70.6162 97.6379 69.6962C97.6379 68.7643 97.8131 67.9418 98.1636 67.2289C98.514 66.5121 99.0079 65.9525 99.6451 65.5502C100.282 65.148 101.033 64.9469 101.897 64.9469C102.594 64.9469 103.216 65.0763 103.761 65.3352C104.307 65.5901 104.747 65.9485 105.081 66.4105C105.42 66.8725 105.621 67.4121 105.685 68.0295H103.946C103.851 67.5993 103.632 67.2289 103.289 66.9183C102.951 66.6076 102.497 66.4523 101.927 66.4523C101.429 66.4523 100.993 66.5838 100.619 66.8466C100.249 67.1055 99.9598 67.4759 99.7527 67.9578C99.5456 68.4357 99.442 69.0012 99.442 69.6544C99.442 70.3235 99.5436 70.901 99.7467 71.3869C99.9498 71.8727 100.237 72.2491 100.607 72.5159C100.981 72.7828 101.421 72.9162 101.927 72.9162C102.266 72.9162 102.572 72.8545 102.847 72.731C103.126 72.6036 103.359 72.4224 103.546 72.1874C103.737 71.9524 103.871 71.6696 103.946 71.3391H105.685C105.621 71.9325 105.428 72.4622 105.105 72.9281C104.783 73.3941 104.351 73.7605 103.809 74.0274C103.271 74.2942 102.64 74.4276 101.915 74.4276ZM111.46 74.4276C110.6 74.4276 109.849 74.2305 109.208 73.8362C108.567 73.4419 108.069 72.8903 107.715 72.1814C107.36 71.4725 107.183 70.6441 107.183 69.6962C107.183 68.7444 107.36 67.912 107.715 67.1991C108.069 66.4862 108.567 65.9326 109.208 65.5383C109.849 65.144 110.6 64.9469 111.46 64.9469C112.32 64.9469 113.071 65.144 113.712 65.5383C114.354 65.9326 114.851 66.4862 115.206 67.1991C115.56 67.912 115.738 68.7444 115.738 69.6962C115.738 70.6441 115.56 71.4725 115.206 72.1814C114.851 72.8903 114.354 73.4419 113.712 73.8362C113.071 74.2305 112.32 74.4276 111.46 74.4276ZM111.466 72.9281C112.024 72.9281 112.486 72.7808 112.852 72.4861C113.219 72.1914 113.489 71.7991 113.665 71.3092C113.844 70.8193 113.933 70.2797 113.933 69.6902C113.933 69.1048 113.844 68.5671 113.665 68.0773C113.489 67.5834 113.219 67.1871 112.852 66.8884C112.486 66.5897 112.024 66.4404 111.466 66.4404C110.905 66.4404 110.439 66.5897 110.068 66.8884C109.702 67.1871 109.429 67.5834 109.25 68.0773C109.075 68.5671 108.987 69.1048 108.987 69.6902C108.987 70.2797 109.075 70.8193 109.25 71.3092C109.429 71.7991 109.702 72.1914 110.068 72.4861C110.439 72.7808 110.905 72.9281 111.466 72.9281ZM119.518 62.0077V74.2424H117.731V62.0077H119.518ZM125.876 74.4276C124.971 74.4276 124.193 74.2345 123.54 73.8481C122.89 73.4578 122.389 72.9102 122.034 72.2053C121.684 71.4964 121.509 70.666 121.509 69.7141C121.509 68.7742 121.684 67.9458 122.034 67.2289C122.389 66.5121 122.883 65.9525 123.516 65.5502C124.153 65.148 124.898 64.9469 125.75 64.9469C126.268 64.9469 126.77 65.0325 127.256 65.2038C127.741 65.375 128.177 65.6438 128.564 66.0102C128.95 66.3767 129.255 66.8526 129.478 67.438C129.701 68.0195 129.812 68.7264 129.812 69.5588V70.1921H122.518V68.8539H128.062C128.062 68.3839 127.966 67.9677 127.775 67.6053C127.584 67.2389 127.315 66.9502 126.969 66.7391C126.626 66.528 126.224 66.4225 125.762 66.4225C125.26 66.4225 124.822 66.5459 124.448 66.7928C124.077 67.0358 123.791 67.3544 123.587 67.7487C123.388 68.139 123.289 68.5631 123.289 69.0211V70.0666C123.289 70.6799 123.396 71.2017 123.611 71.6318C123.83 72.0619 124.135 72.3905 124.525 72.6175C124.916 72.8405 125.372 72.952 125.893 72.952C126.232 72.952 126.541 72.9043 126.819 72.8087C127.098 72.7091 127.339 72.5617 127.542 72.3666C127.745 72.1714 127.901 71.9305 128.008 71.6437L129.699 71.9484C129.563 72.4462 129.321 72.8823 128.97 73.2567C128.624 73.6271 128.187 73.9159 127.662 74.123C127.14 74.3261 126.545 74.4276 125.876 74.4276ZM138.67 67.3066L137.051 67.5934C136.984 67.3863 136.876 67.1891 136.729 67.0019C136.585 66.8147 136.39 66.6614 136.143 66.5419C135.896 66.4225 135.588 66.3627 135.217 66.3627C134.712 66.3627 134.289 66.4762 133.951 66.7032C133.612 66.9263 133.443 67.215 133.443 67.5695C133.443 67.8761 133.557 68.1231 133.784 68.3102C134.011 68.4974 134.377 68.6508 134.883 68.7702L136.34 69.1048C137.185 69.2999 137.814 69.6006 138.228 70.0069C138.642 70.4131 138.85 70.9408 138.85 71.59C138.85 72.1396 138.69 72.6294 138.372 73.0596C138.057 73.4857 137.617 73.8203 137.051 74.0632C136.49 74.3062 135.839 74.4276 135.098 74.4276C134.07 74.4276 133.232 74.2086 132.583 73.7705C131.934 73.3284 131.535 72.7011 131.388 71.8887L133.115 71.6258C133.222 72.0759 133.443 72.4164 133.778 72.6474C134.112 72.8744 134.548 72.9879 135.086 72.9879C135.671 72.9879 136.139 72.8664 136.49 72.6235C136.84 72.3765 137.016 72.0759 137.016 71.7214C137.016 71.4346 136.908 71.1937 136.693 70.9985C136.482 70.8034 136.157 70.656 135.719 70.5565L134.166 70.2159C133.31 70.0208 132.676 69.7102 132.266 69.284C131.86 68.8579 131.657 68.3182 131.657 67.665C131.657 67.1234 131.808 66.6495 132.111 66.2432C132.414 65.837 132.832 65.5204 133.365 65.2934C133.899 65.0624 134.51 64.9469 135.199 64.9469C136.191 64.9469 136.972 65.1619 137.541 65.5921C138.111 66.0182 138.487 66.5897 138.67 67.3066ZM149.22 74.4276C148.316 74.4276 147.538 74.2345 146.885 73.8481C146.235 73.4578 145.734 72.9102 145.379 72.2053C145.029 71.4964 144.853 70.666 144.853 69.7141C144.853 68.7742 145.029 67.9458 145.379 67.2289C145.734 66.5121 146.227 65.9525 146.861 65.5502C147.498 65.148 148.243 64.9469 149.095 64.9469C149.613 64.9469 150.115 65.0325 150.6 65.2038C151.086 65.375 151.522 65.6438 151.909 66.0102C152.295 66.3767 152.6 66.8526 152.823 67.438C153.046 68.0195 153.157 68.7264 153.157 69.5588V70.1921H145.863V68.8539H151.407C151.407 68.3839 151.311 67.9677 151.12 67.6053C150.929 67.2389 150.66 66.9502 150.314 66.7391C149.971 66.528 149.569 66.4225 149.107 66.4225C148.605 66.4225 148.167 66.5459 147.793 66.7928C147.422 67.0358 147.136 67.3544 146.932 67.7487C146.733 68.139 146.634 68.5631 146.634 69.0211V70.0666C146.634 70.6799 146.741 71.2017 146.956 71.6318C147.175 72.0619 147.48 72.3905 147.87 72.6175C148.261 72.8405 148.717 72.952 149.238 72.952C149.577 72.952 149.886 72.9043 150.164 72.8087C150.443 72.7091 150.684 72.5617 150.887 72.3666C151.09 72.1714 151.246 71.9305 151.353 71.6437L153.044 71.9484C152.908 72.4462 152.665 72.8823 152.315 73.2567C151.968 73.6271 151.532 73.9159 151.007 74.123C150.485 74.3261 149.89 74.4276 149.22 74.4276ZM148.288 63.8417L149.686 61.0877H151.568L149.716 63.8417H148.288ZM156.925 62.0077V74.2424H155.139V62.0077H156.925ZM163.283 74.4276C162.379 74.4276 161.601 74.2345 160.947 73.8481C160.298 73.4578 159.796 72.9102 159.442 72.2053C159.091 71.4964 158.916 70.666 158.916 69.7141C158.916 68.7742 159.091 67.9458 159.442 67.2289C159.796 66.5121 160.29 65.9525 160.924 65.5502C161.561 65.148 162.306 64.9469 163.158 64.9469C163.676 64.9469 164.177 65.0325 164.663 65.2038C165.149 65.375 165.585 65.6438 165.972 66.0102C166.358 66.3767 166.663 66.8526 166.886 67.438C167.109 68.0195 167.22 68.7264 167.22 69.5588V70.1921H159.926V68.8539H165.47C165.47 68.3839 165.374 67.9677 165.183 67.6053C164.992 67.2389 164.723 66.9502 164.376 66.7391C164.034 66.528 163.632 66.4225 163.17 66.4225C162.668 66.4225 162.23 66.5459 161.855 66.7928C161.485 67.0358 161.198 67.3544 160.995 67.7487C160.796 68.139 160.697 68.5631 160.697 69.0211V70.0666C160.697 70.6799 160.804 71.2017 161.019 71.6318C161.238 72.0619 161.543 72.3905 161.933 72.6175C162.323 72.8405 162.779 72.952 163.301 72.952C163.64 72.952 163.948 72.9043 164.227 72.8087C164.506 72.7091 164.747 72.5617 164.95 72.3666C165.153 72.1714 165.308 71.9305 165.416 71.6437L167.107 71.9484C166.971 72.4462 166.728 72.8823 166.378 73.2567C166.031 73.6271 165.595 73.9159 165.069 74.123C164.548 74.3261 163.952 74.4276 163.283 74.4276ZM162.351 63.8417L163.749 61.0877H165.631L163.779 63.8417H162.351ZM169.202 74.2424V65.0664H170.917V66.5599H171.03C171.221 66.0541 171.534 65.6598 171.968 65.377C172.402 65.0903 172.922 64.9469 173.527 64.9469C174.141 64.9469 174.654 65.0903 175.068 65.377C175.487 65.6638 175.795 66.058 175.994 66.5599H176.09C176.309 66.07 176.658 65.6797 177.135 65.3889C177.613 65.0942 178.183 64.9469 178.844 64.9469C179.676 64.9469 180.355 65.2077 180.881 65.7295C181.411 66.2512 181.676 67.0378 181.676 68.0892V74.2424H179.89V68.2565C179.89 67.6352 179.72 67.1851 179.382 66.9063C179.043 66.6276 178.639 66.4882 178.169 66.4882C177.588 66.4882 177.135 66.6674 176.813 67.0258C176.49 67.3803 176.329 67.8363 176.329 68.3939V74.2424H174.549V68.143C174.549 67.6451 174.393 67.2449 174.083 66.9422C173.772 66.6395 173.368 66.4882 172.87 66.4882C172.532 66.4882 172.219 66.5778 171.932 66.757C171.649 66.9322 171.42 67.1772 171.245 67.4918C171.074 67.8064 170.988 68.1708 170.988 68.585V74.2424H169.202ZM188.025 74.4276C187.121 74.4276 186.342 74.2345 185.689 73.8481C185.04 73.4578 184.538 72.9102 184.183 72.2053C183.833 71.4964 183.658 70.666 183.658 69.7141C183.658 68.7742 183.833 67.9458 184.183 67.2289C184.538 66.5121 185.032 65.9525 185.665 65.5502C186.302 65.148 187.047 64.9469 187.899 64.9469C188.417 64.9469 188.919 65.0325 189.405 65.2038C189.891 65.375 190.327 65.6438 190.713 66.0102C191.099 66.3767 191.404 66.8526 191.627 67.438C191.85 68.0195 191.961 68.7264 191.961 69.5588V70.1921H184.667V68.8539H190.211C190.211 68.3839 190.116 67.9677 189.924 67.6053C189.733 67.2389 189.464 66.9502 189.118 66.7391C188.775 66.528 188.373 66.4225 187.911 66.4225C187.409 66.4225 186.971 66.5459 186.597 66.7928C186.226 67.0358 185.94 67.3544 185.737 67.7487C185.537 68.139 185.438 68.5631 185.438 69.0211V70.0666C185.438 70.6799 185.545 71.2017 185.76 71.6318C185.98 72.0619 186.284 72.3905 186.674 72.6175C187.065 72.8405 187.521 72.952 188.043 72.952C188.381 72.952 188.69 72.9043 188.969 72.8087C189.247 72.7091 189.488 72.5617 189.691 72.3666C189.894 72.1714 190.05 71.9305 190.157 71.6437L191.848 71.9484C191.713 72.4462 191.47 72.8823 191.119 73.2567C190.773 73.6271 190.337 73.9159 189.811 74.123C189.289 74.3261 188.694 74.4276 188.025 74.4276ZM195.73 68.7941V74.2424H193.943V65.0664H195.658V66.5599H195.771C195.982 66.074 196.313 65.6837 196.763 65.3889C197.217 65.0942 197.789 64.9469 198.478 64.9469C199.103 64.9469 199.651 65.0783 200.12 65.3412C200.59 65.6 200.955 65.9864 201.214 66.5001C201.473 67.0139 201.602 67.6491 201.602 68.4058V74.2424H199.816V68.6209C199.816 67.9558 199.643 67.436 199.296 67.0617C198.95 66.6833 198.474 66.4941 197.868 66.4941C197.454 66.4941 197.086 66.5838 196.763 66.763C196.444 66.9422 196.192 67.205 196.004 67.5515C195.821 67.8941 195.73 68.3082 195.73 68.7941ZM208.281 65.0664V66.5001H203.269V65.0664H208.281ZM204.613 62.8679H206.399V71.5482C206.399 71.8946 206.451 72.1555 206.554 72.3307C206.658 72.502 206.791 72.6195 206.955 72.6832C207.122 72.743 207.303 72.7728 207.498 72.7728C207.642 72.7728 207.767 72.7629 207.875 72.743C207.982 72.723 208.066 72.7071 208.126 72.6952L208.448 74.1707C208.345 74.2106 208.197 74.2504 208.006 74.2902C207.815 74.334 207.576 74.3579 207.289 74.3619C206.819 74.3699 206.381 74.2862 205.975 74.111C205.569 73.9358 205.24 73.6649 204.989 73.2985C204.738 72.9321 204.613 72.4721 204.613 71.9185V62.8679ZM212.927 74.4455C212.346 74.4455 211.82 74.338 211.35 74.123C210.88 73.9039 210.508 73.5873 210.233 73.1731C209.962 72.7589 209.827 72.2511 209.827 71.6497C209.827 71.132 209.926 70.7058 210.125 70.3713C210.325 70.0367 210.593 69.7719 210.932 69.5767C211.27 69.3816 211.649 69.2342 212.067 69.1347C212.485 69.0351 212.911 68.9594 213.345 68.9076C213.895 68.8439 214.341 68.7921 214.684 68.7523C215.026 68.7085 215.275 68.6388 215.43 68.5432C215.586 68.4476 215.663 68.2923 215.663 68.0773V68.0354C215.663 67.5137 215.516 67.1095 215.221 66.8227C214.931 66.536 214.496 66.3926 213.919 66.3926C213.318 66.3926 212.844 66.526 212.497 66.7928C212.155 67.0557 211.918 67.3484 211.786 67.671L210.108 67.2887C210.307 66.7311 210.597 66.2811 210.98 65.9386C211.366 65.5921 211.81 65.3412 212.312 65.1858C212.814 65.0265 213.341 64.9469 213.895 64.9469C214.261 64.9469 214.65 64.9907 215.06 65.0783C215.474 65.1619 215.861 65.3173 216.219 65.5443C216.581 65.7713 216.878 66.0959 217.109 66.518C217.34 66.9362 217.456 67.4799 217.456 68.1489V74.2424H215.711V72.9879H215.639C215.524 73.2189 215.351 73.4459 215.12 73.6689C214.889 73.892 214.592 74.0772 214.23 74.2245C213.867 74.3719 213.433 74.4455 212.927 74.4455ZM213.316 73.0118C213.809 73.0118 214.232 72.9142 214.582 72.7191C214.937 72.5239 215.205 72.269 215.389 71.9544C215.576 71.6358 215.669 71.2953 215.669 70.9328V69.75C215.606 69.8137 215.482 69.8734 215.299 69.9292C215.12 69.981 214.915 70.0268 214.684 70.0666C214.453 70.1024 214.228 70.1363 214.009 70.1682C213.79 70.196 213.606 70.2199 213.459 70.2398C213.112 70.2837 212.796 70.3573 212.509 70.4609C212.226 70.5644 211.999 70.7138 211.828 70.9089C211.661 71.1001 211.577 71.355 211.577 71.6736C211.577 72.1157 211.74 72.4502 212.067 72.6772C212.394 72.9003 212.81 73.0118 213.316 73.0118ZM219.835 74.2424V65.0664H221.621V74.2424H219.835ZM220.737 63.6505C220.426 63.6505 220.159 63.547 219.936 63.3399C219.717 63.1288 219.608 62.8779 219.608 62.5871C219.608 62.2924 219.717 62.0415 219.936 61.8344C220.159 61.6233 220.426 61.5178 220.737 61.5178C221.047 61.5178 221.312 61.6233 221.531 61.8344C221.754 62.0415 221.866 62.2924 221.866 62.5871C221.866 62.8779 221.754 63.1288 221.531 63.3399C221.312 63.547 221.047 63.6505 220.737 63.6505ZM224.024 74.2424V65.0664H225.75V66.524H225.846C226.013 66.0302 226.308 65.6418 226.73 65.3591C227.156 65.0723 227.638 64.929 228.176 64.929C228.287 64.929 228.419 64.9329 228.57 64.9409C228.726 64.9489 228.847 64.9588 228.935 64.9708V66.6793C228.863 66.6594 228.735 66.6375 228.552 66.6136C228.369 66.5857 228.186 66.5718 228.003 66.5718C227.581 66.5718 227.204 66.6614 226.874 66.8406C226.547 67.0159 226.288 67.2608 226.097 67.5754C225.906 67.8861 225.81 68.2405 225.81 68.6388V74.2424H224.024ZM234.107 74.4276C233.203 74.4276 232.424 74.2345 231.771 73.8481C231.122 73.4578 230.62 72.9102 230.265 72.2053C229.915 71.4964 229.74 70.666 229.74 69.7141C229.74 68.7742 229.915 67.9458 230.265 67.2289C230.62 66.5121 231.114 65.9525 231.747 65.5502C232.384 65.148 233.129 64.9469 233.981 64.9469C234.499 64.9469 235.001 65.0325 235.487 65.2038C235.973 65.375 236.409 65.6438 236.795 66.0102C237.181 66.3767 237.486 66.8526 237.709 67.438C237.932 68.0195 238.044 68.7264 238.044 69.5588V70.1921H230.749V68.8539H236.293C236.293 68.3839 236.198 67.9677 236.006 67.6053C235.815 67.2389 235.546 66.9502 235.2 66.7391C234.857 66.528 234.455 66.4225 233.993 66.4225C233.491 66.4225 233.053 66.5459 232.679 66.7928C232.308 67.0358 232.022 67.3544 231.819 67.7487C231.619 68.139 231.52 68.5631 231.52 69.0211V70.0666C231.52 70.6799 231.627 71.2017 231.842 71.6318C232.062 72.0619 232.366 72.3905 232.757 72.6175C233.147 72.8405 233.603 72.952 234.125 72.952C234.463 72.952 234.772 72.9043 235.051 72.8087C235.329 72.7091 235.57 72.5617 235.773 72.3666C235.976 72.1714 236.132 71.9305 236.239 71.6437L237.93 71.9484C237.795 72.4462 237.552 72.8823 237.201 73.2567C236.855 73.6271 236.419 73.9159 235.893 74.123C235.371 74.3261 234.776 74.4276 234.107 74.4276ZM246.901 67.3066L245.283 67.5934C245.215 67.3863 245.107 67.1891 244.96 67.0019C244.817 66.8147 244.621 66.6614 244.374 66.5419C244.128 66.4225 243.819 66.3627 243.448 66.3627C242.943 66.3627 242.521 66.4762 242.182 66.7032C241.843 66.9263 241.674 67.215 241.674 67.5695C241.674 67.8761 241.788 68.1231 242.015 68.3102C242.242 68.4974 242.608 68.6508 243.114 68.7702L244.572 69.1048C245.416 69.2999 246.045 69.6006 246.459 70.0069C246.874 70.4131 247.081 70.9408 247.081 71.59C247.081 72.1396 246.921 72.6294 246.603 73.0596C246.288 73.4857 245.848 73.8203 245.283 74.0632C244.721 74.3062 244.07 74.4276 243.329 74.4276C242.301 74.4276 241.463 74.2086 240.814 73.7705C240.165 73.3284 239.767 72.7011 239.619 71.8887L241.346 71.6258C241.453 72.0759 241.674 72.4164 242.009 72.6474C242.343 72.8744 242.779 72.9879 243.317 72.9879C243.903 72.9879 244.37 72.8664 244.721 72.6235C245.071 72.3765 245.247 72.0759 245.247 71.7214C245.247 71.4346 245.139 71.1937 244.924 70.9985C244.713 70.8034 244.388 70.656 243.95 70.5565L242.397 70.2159C241.541 70.0208 240.908 69.7102 240.497 69.284C240.091 68.8579 239.888 68.3182 239.888 67.665C239.888 67.1234 240.039 66.6495 240.342 66.2432C240.645 65.837 241.063 65.5204 241.597 65.2934C242.13 65.0624 242.742 64.9469 243.431 64.9469C244.422 64.9469 245.203 65.1619 245.772 65.5921C246.342 66.0182 246.718 66.5897 246.901 67.3066Z" fill="#C7C7C7"/>
<path d="M76.1698 56.7451C75.5621 48.2921 68.2799 41.8062 59.6653 41.8062H47.9971C47.3211 41.8062 46.696 42.1216 46.3013 42.6396C46.0929 42.914 45.8822 43.1883 45.6658 43.4581C45.631 43.5082 45.5917 43.5561 45.55 43.6016C45.5465 43.6073 45.5431 43.6107 45.5373 43.6153C45.2305 43.95 44.786 44.1629 44.2906 44.1629C43.6817 44.1629 43.1458 43.8395 42.8529 43.358C42.8494 43.3511 42.846 43.3477 42.8436 43.3409C42.8193 43.2999 42.7962 43.2578 42.7753 43.2145C42.773 43.2111 42.773 43.2088 42.7719 43.2077L41.3261 40.5437L37.9888 34.602C38.2203 34.4358 38.4136 34.2207 38.5502 33.9702C38.6857 33.7197 38.7667 33.4351 38.7713 33.1334C38.7899 32.1486 37.9946 31.2982 36.9933 31.2458C36.8093 31.2356 36.6264 31.2527 36.4551 31.2902L36.4319 31.2424V31.2959C36.021 31.3973 35.661 31.6306 35.4063 31.9471C35.1516 32.2636 35 32.6632 35 33.0981C35 33.533 35.1528 33.9338 35.4086 34.2491C35.6633 34.5645 36.021 34.7979 36.4319 34.898V59.1132C36.4319 67.2987 43.2418 73.9951 51.5647 73.9951H59.8459C64.3465 73.9951 68.4373 72.1839 71.4042 69.2682C74.6268 66.0954 76.5206 61.6223 76.1698 56.744V56.7451ZM71.7792 57.9007C71.7792 63.716 66.9418 68.4736 61.0289 68.4736H51.4119C45.4991 68.4736 40.6616 63.716 40.6616 57.9007C40.6616 52.0854 45.4991 47.3278 51.4119 47.3278H61.0289C66.9418 47.3255 71.7792 52.0854 71.7792 57.9007Z" fill="url(#paint0_linear_3012_1712)"/>
<path d="M60.8658 60.5147C62.3336 60.5147 63.5235 59.3444 63.5235 57.9008C63.5235 56.4572 62.3336 55.2869 60.8658 55.2869C59.3979 55.2869 58.208 56.4572 58.208 57.9008C58.208 59.3444 59.3979 60.5147 60.8658 60.5147Z" fill="#171557"/>
<path d="M51.5738 60.5147C53.0416 60.5147 54.2315 59.3444 54.2315 57.9008C54.2315 56.4572 53.0416 55.2869 51.5738 55.2869C50.1059 55.2869 48.916 56.4572 48.916 57.9008C48.916 59.3444 50.1059 60.5147 51.5738 60.5147Z" fill="#171557"/>
<defs>
<linearGradient id="paint0_linear_3012_1712" x1="35" y1="52.6194" x2="76.2115" y2="52.6194" gradientUnits="userSpaceOnUse">
<stop stop-color="#FB7725"/>
<stop offset="1" stop-color="#EA2287"/>
</linearGradient>
</defs>
</svg>
