<svg width="140" height="140" viewBox="0 0 140 140" fill="none" xmlns="http://www.w3.org/2000/svg">
<circle cx="69.6369" cy="69.6369" r="69.3503" fill="white" fill-opacity="0.22" stroke="url(#paint0_linear_528_14992)" stroke-width="0.573229"/>
<circle cx="69.6365" cy="69.6369" r="53.7122" fill="url(#paint1_radial_528_14992)" stroke="url(#paint2_linear_528_14992)" stroke-width="0.485274"/>
<ellipse opacity="0.8" cx="75.3167" cy="42.3998" rx="34.9038" ry="20.4439" transform="rotate(12.196 75.3167 42.3998)" fill="url(#paint3_linear_528_14992)"/>
<g clip-path="url(#clip0_528_14992)">
<path d="M105.746 78.2074C105.679 77.8925 105.618 77.5763 105.542 77.2641C104.907 74.6327 103.364 72.5919 100.917 71.1471C100.702 71.0215 100.626 70.8877 100.602 70.6565C100.273 67.4278 99.4223 64.322 98.0023 61.3568C96.2367 57.6685 93.7652 54.4452 90.5998 51.684C88.5872 49.9284 86.3654 48.4404 83.9371 47.2214C81.4898 45.9928 78.913 45.0725 76.2066 44.4737C74.769 44.1561 73.3152 43.9372 71.8453 43.798C70.3335 43.6547 68.8203 43.6439 67.3058 43.6885C66.5391 43.7115 65.771 43.7845 65.0097 43.8804C64.0851 43.998 63.1875 44.8022 63.1794 45.9482C63.1713 46.9619 64.0014 47.8687 65.0786 47.9931C65.5146 48.0444 65.9668 47.9958 66.4109 47.9701C67.5501 47.9052 68.6894 47.8093 69.8313 47.9052C70.733 47.9809 71.6347 48.0431 72.535 48.1296C73.7229 48.2417 74.8838 48.4891 76.0311 48.7837C79.4192 49.6527 82.5251 51.0678 85.322 53.0491C89.0408 55.6818 91.8768 58.9768 93.8016 62.9408C94.8342 65.0667 95.5348 67.2832 95.8993 69.5916C96.0747 70.7011 96.18 71.8134 96.2016 72.9338C96.207 73.1987 96.1598 73.519 96.3002 73.7096C96.4365 73.8961 96.7807 73.9542 97.0358 74.0651C97.5191 74.2745 98.0333 74.4367 98.4815 74.6962C100.077 75.6179 100.98 76.9573 101.2 78.7021C101.548 81.4565 99.4439 84.0284 96.5526 84.5068C95.8102 84.6298 95.0664 84.6082 94.3267 84.5339C93.5694 84.4568 93.56 84.4325 93.2036 85.0528C92.2048 86.7895 91.0574 88.433 89.6806 89.9318C86.9931 92.8578 83.767 95.1175 79.9942 96.7029C77.7872 97.63 75.4858 98.2612 73.1006 98.6234C71.4808 98.8693 69.8462 98.9531 68.2034 98.9288C64.9935 98.8828 61.8957 98.3166 58.9018 97.2489C55.0358 95.8717 51.6829 93.7728 48.8266 90.99C47.084 89.2912 45.6491 87.3855 44.4397 85.3285C44.4046 85.2677 44.3614 85.2096 44.333 85.1461C44.2494 84.9582 44.0968 84.9109 43.8876 84.9096C43.3666 84.9042 42.8442 84.8961 42.3258 84.8555C40.1418 84.6812 38.0874 83.204 37.4152 81.0172C36.7173 78.744 37.7121 76.3072 39.8638 75.0435C40.2417 74.8219 40.6318 74.6178 41.0273 74.4232C41.219 74.3286 41.2824 74.2097 41.2851 74.011C41.3013 73.1447 41.3 72.277 41.3715 71.4147C41.5079 69.7673 41.8102 68.1441 42.2894 66.5507C43.1533 63.676 44.5153 61.0243 46.3807 58.5957C46.6979 58.1835 46.9396 57.7523 46.9463 57.2306C46.9585 56.3035 46.3443 55.4818 45.4143 55.1831C44.4802 54.8844 43.4354 55.1642 42.8671 55.9345C42.1922 56.8468 41.5281 57.7699 40.9328 58.7281C39.421 61.1608 38.3412 63.7598 37.6487 66.4952C37.3531 67.6629 37.1182 68.8415 36.9954 70.0376C36.94 70.5768 36.8847 71.1174 36.8523 71.658C36.8415 71.8499 36.7295 71.9432 36.5904 72.0459C35.4836 72.8582 34.5873 73.8353 33.9151 74.9881C33.2874 76.0653 32.8878 77.21 32.7421 78.4291C32.4329 81.0064 33.116 83.3364 34.8167 85.3853C36.4406 87.3396 38.5882 88.5249 41.2055 88.9601C41.4512 89.0006 41.5996 89.1047 41.7279 89.2952C43.1776 91.4374 44.8932 93.3781 46.8829 95.1054C50.9702 98.6531 55.7283 101.057 61.156 102.31C62.5166 102.624 63.8961 102.845 65.2932 102.978C66.5782 103.101 67.8646 103.185 69.1578 103.162C71.3593 103.123 73.5366 102.895 75.6869 102.448C80.5058 101.447 84.8455 99.5126 88.702 96.6501C91.5218 94.5567 93.8948 92.0847 95.8142 89.2412C95.8601 89.1722 95.9141 89.1074 95.9519 89.0357C96.0491 88.8492 96.2097 88.7762 96.427 88.76C98.225 88.6262 99.8664 88.0694 101.336 87.1058C103.68 85.5705 105.123 83.4891 105.623 80.855C105.66 80.6645 105.704 80.4739 105.745 80.2834V78.2034V78.2074H105.746Z" fill="#EE717F"/>
<path d="M86.1482 74.5367C86.5032 74.6151 86.8542 74.3529 86.8555 73.9894V73.9826C86.8582 71.7188 85.0441 69.4753 82.3565 69.4767C79.7554 69.4767 77.8738 71.5715 77.8535 73.9826V74.0556C77.863 74.4354 78.2369 74.6935 78.6013 74.5894C80.2171 74.1272 82.7669 73.7867 86.1469 74.5354L86.1482 74.5367Z" fill="#EE717F"/>
<path d="M59.5486 74.5367C59.9036 74.6151 60.2546 74.3529 60.2559 73.9894V73.9826C60.2586 71.7188 58.4445 69.4753 55.7569 69.4767C53.1558 69.4767 51.2742 71.5715 51.2539 73.9826V74.0556C51.2634 74.4354 51.6373 74.6935 52.0017 74.5894C53.6175 74.1272 56.1673 73.7867 59.5473 74.5354L59.5486 74.5367Z" fill="#EE717F"/>
<path d="M63.5683 83.8757C63.2052 83.8757 62.9272 84.1946 62.969 84.5555C63.3065 87.522 65.8212 89.8264 68.8732 89.8264C71.9251 89.8264 74.4412 87.522 74.7773 84.5555C74.8178 84.1946 74.5411 83.8757 74.178 83.8757H63.5683Z" fill="#EE717F"/>
<path d="M53.1569 56.8253C50.6071 56.8253 48.1207 55.8576 46.1972 54.0885C42.6701 50.8435 42.3219 45.8118 45.2429 40.2841C45.965 38.9164 46.8505 37.5298 47.9506 36.0444C48.5972 35.1714 49.8283 34.9876 50.7016 35.6363C51.5736 36.2837 51.7558 37.5162 51.1092 38.3907C50.1293 39.7138 49.3477 40.9356 48.7187 42.1249C45.9542 47.3579 47.6199 50.0515 48.8577 51.1908C50.2265 52.4504 52.046 53.0546 53.8508 52.8505C55.5596 52.6559 57.035 51.772 58.0042 50.3583C58.451 49.7069 58.7938 48.6878 58.4172 47.781C58.0514 46.9025 57.4885 46.3673 56.7893 46.2321C56.2238 46.1227 55.6042 46.2943 55.2465 46.6592C54.4865 47.435 53.2406 47.4471 52.4658 46.6862C51.691 45.9253 51.6789 44.6779 52.4388 43.9021C53.7198 42.5952 55.6717 42.006 57.5331 42.3655C59.5308 42.7506 61.1763 44.1738 62.0469 46.2673C62.8825 48.2743 62.5828 50.638 61.2451 52.5869C59.6442 54.921 57.1106 56.4414 54.2935 56.7617C53.9142 56.805 53.5349 56.8266 53.1569 56.8266V56.8253Z" fill="#EE717F"/>
</g>
<defs>
<linearGradient id="paint0_linear_528_14992" x1="69.6369" y1="0" x2="69.6369" y2="139.274" gradientUnits="userSpaceOnUse">
<stop stop-color="white" stop-opacity="0.6"/>
<stop offset="1" stop-color="#8576D7"/>
</linearGradient>
<radialGradient id="paint1_radial_528_14992" cx="0" cy="0" r="1" gradientUnits="userSpaceOnUse" gradientTransform="translate(94.3854 42.4616) rotate(120.42) scale(61.3388)">
<stop stop-color="white"/>
<stop offset="0.490385" stop-color="white"/>
<stop offset="1" stop-color="#C8C6F1"/>
</radialGradient>
<linearGradient id="paint2_linear_528_14992" x1="79.5846" y1="44.8879" x2="47.0712" y2="115.253" gradientUnits="userSpaceOnUse">
<stop stop-color="white" stop-opacity="0.95"/>
<stop offset="0.5" stop-color="#F2F3FF" stop-opacity="0.975"/>
<stop offset="1" stop-color="#B8BDFF"/>
</linearGradient>
<linearGradient id="paint3_linear_528_14992" x1="75.3167" y1="21.9559" x2="73.762" y2="43.9894" gradientUnits="userSpaceOnUse">
<stop stop-color="white"/>
<stop offset="1" stop-color="#ECD2EB" stop-opacity="0"/>
</linearGradient>
<clipPath id="clip0_528_14992">
<rect width="73.0757" height="67.9175" fill="white" transform="translate(32.6699 35.2484)"/>
</clipPath>
</defs>
</svg>
