<svg width="200" height="200" viewBox="0 0 200 200" fill="none" xmlns="http://www.w3.org/2000/svg">
<circle cx="99.8511" cy="99.8511" r="99.4906" fill="white" fill-opacity="0.22" stroke="url(#paint0_linear_528_14960)" stroke-width="0.720947"/>
<circle cx="99.8513" cy="99.8511" r="77.0045" fill="url(#paint1_radial_528_14960)" fill-opacity="0.8" stroke="url(#paint2_linear_528_14960)" stroke-width="0.720947"/>
<ellipse opacity="0.8" cx="107.993" cy="60.7962" rx="50.048" ry="29.3142" transform="rotate(12.196 107.993 60.7962)" fill="url(#paint3_linear_528_14960)"/>
<path d="M145.675 107.58C144.306 88.5276 127.892 73.9093 108.476 73.9093H82.1769C80.6533 73.9093 79.2444 74.62 78.3547 75.7876C77.8851 76.406 77.4102 77.0244 76.9224 77.6325C76.8441 77.7454 76.7554 77.8532 76.6615 77.9558C76.6536 77.9686 76.6458 77.9763 76.6328 77.9866C75.9414 78.741 74.9395 79.2208 73.8228 79.2208C72.4505 79.2208 71.2425 78.4921 70.5824 77.4067C70.5746 77.3913 70.5668 77.3836 70.5616 77.3682C70.5068 77.2758 70.4546 77.1809 70.4076 77.0834C70.4024 77.0757 70.4024 77.0706 70.3998 77.068L67.1411 71.0636L59.6193 57.6718C60.1411 57.2971 60.5768 56.8121 60.8847 56.2476C61.1899 55.6831 61.3726 55.0416 61.383 54.3616C61.4248 52.1421 59.6324 50.2253 57.3756 50.1072C56.9607 50.0842 56.5485 50.1226 56.1624 50.2073L56.1102 50.0995V50.2201C55.184 50.4485 54.3726 50.9745 53.7986 51.6879C53.2246 52.4012 52.8828 53.3019 52.8828 54.2821C52.8828 55.2623 53.2272 56.1655 53.8038 56.8763C54.3778 57.5871 55.184 58.1131 56.1102 58.3389V112.917C56.1102 131.367 71.4591 146.46 90.218 146.46H108.883C119.027 146.46 128.247 142.377 134.934 135.806C142.198 128.654 146.466 118.573 145.675 107.577V107.58ZM135.779 110.185C135.779 123.292 124.876 134.015 111.549 134.015H89.8736C76.5467 134.015 65.6436 123.292 65.6436 110.185C65.6436 97.0775 76.5467 86.3543 89.8736 86.3543H111.549C124.876 86.3491 135.779 97.0775 135.779 110.185Z" fill="url(#paint4_linear_528_14960)"/>
<path d="M111.182 116.076C114.49 116.076 117.172 113.438 117.172 110.184C117.172 106.931 114.49 104.293 111.182 104.293C107.873 104.293 105.191 106.931 105.191 110.184C105.191 113.438 107.873 116.076 111.182 116.076Z" fill="#171557"/>
<path d="M90.2384 116.076C93.5467 116.076 96.2287 113.438 96.2287 110.184C96.2287 106.931 93.5467 104.293 90.2384 104.293C86.93 104.293 84.248 106.931 84.248 110.184C84.248 113.438 86.93 116.076 90.2384 116.076Z" fill="#171557"/>
<defs>
<linearGradient id="paint0_linear_528_14960" x1="99.8511" y1="0" x2="99.8511" y2="199.702" gradientUnits="userSpaceOnUse">
<stop stop-color="white" stop-opacity="0.6"/>
<stop offset="1" stop-color="#6759FF"/>
</linearGradient>
<radialGradient id="paint1_radial_528_14960" cx="0" cy="0" r="1" gradientUnits="userSpaceOnUse" gradientTransform="translate(135.338 60.8848) rotate(120.42) scale(87.9526)">
<stop stop-color="white"/>
<stop offset="0.490385" stop-color="white"/>
<stop offset="1" stop-color="#C8C6F1"/>
</radialGradient>
<linearGradient id="paint2_linear_528_14960" x1="114.116" y1="64.3639" x2="67.4952" y2="165.259" gradientUnits="userSpaceOnUse">
<stop stop-color="white" stop-opacity="0.95"/>
<stop offset="0.5" stop-color="#F2F3FF" stop-opacity="0.975"/>
<stop offset="1" stop-color="#B8BDFF"/>
</linearGradient>
<linearGradient id="paint3_linear_528_14960" x1="107.993" y1="31.482" x2="105.764" y2="63.0755" gradientUnits="userSpaceOnUse">
<stop stop-color="white"/>
<stop offset="1" stop-color="#ECD2EB" stop-opacity="0"/>
</linearGradient>
<linearGradient id="paint4_linear_528_14960" x1="52.8828" y1="98.2809" x2="145.769" y2="98.2809" gradientUnits="userSpaceOnUse">
<stop stop-color="#FB7725"/>
<stop offset="1" stop-color="#EA2287"/>
</linearGradient>
</defs>
</svg>
