<svg width="363" height="107" viewBox="0 0 363 107" fill="none" xmlns="http://www.w3.org/2000/svg">
<path d="M85.9282 49.4562V35.4736H91.5267C92.5553 35.4736 93.4133 35.6261 94.1006 35.931C94.7879 36.236 95.3045 36.6593 95.6504 37.2009C95.9964 37.738 96.1693 38.357 96.1693 39.058C96.1693 39.6042 96.0601 40.0844 95.8416 40.4986C95.6231 40.9082 95.3227 41.245 94.9404 41.509C94.5626 41.7685 94.1302 41.9528 93.6432 42.0621V42.1986C94.1757 42.2214 94.6741 42.3716 95.1384 42.6492C95.6072 42.9269 95.9873 43.316 96.2786 43.8167C96.5699 44.3128 96.7155 44.9046 96.7155 45.5918C96.7155 46.3338 96.5312 46.996 96.1625 47.5786C95.7984 48.1567 95.259 48.6141 94.5444 48.9509C93.8298 49.2878 92.9491 49.4562 91.9022 49.4562H85.9282ZM88.8845 47.0393H91.2945C92.1184 47.0393 92.7192 46.8822 93.097 46.5682C93.4748 46.2496 93.6637 45.8263 93.6637 45.2983C93.6637 44.9114 93.5704 44.57 93.3837 44.2742C93.1971 43.9783 92.9309 43.7462 92.5849 43.5778C92.2436 43.4093 91.8362 43.3251 91.3628 43.3251H88.8845V47.0393ZM88.8845 41.3247H91.0761C91.4812 41.3247 91.8407 41.2541 92.1548 41.113C92.4734 40.9674 92.7238 40.7626 92.9058 40.4986C93.0924 40.2346 93.1857 39.9182 93.1857 39.5496C93.1857 39.0443 93.006 38.637 92.6464 38.3275C92.2913 38.0179 91.7861 37.8632 91.1307 37.8632H88.8845V41.3247ZM111.296 42.4649C111.296 43.9897 111.007 45.2869 110.429 46.3565C109.856 47.4262 109.073 48.2432 108.08 48.8076C107.093 49.3674 105.982 49.6473 104.749 49.6473C103.506 49.6473 102.391 49.3651 101.403 48.8007C100.415 48.2363 99.6349 47.4193 99.0614 46.3497C98.4879 45.2801 98.2011 43.9851 98.2011 42.4649C98.2011 40.9401 98.4879 39.6429 99.0614 38.5732C99.6349 37.5036 100.415 36.6889 101.403 36.129C102.391 35.5646 103.506 35.2824 104.749 35.2824C105.982 35.2824 107.093 35.5646 108.08 36.129C109.073 36.6889 109.856 37.5036 110.429 38.5732C111.007 39.6429 111.296 40.9401 111.296 42.4649ZM108.299 42.4649C108.299 41.4772 108.151 40.6442 107.855 39.966C107.564 39.2878 107.152 38.7735 106.619 38.423C106.087 38.0726 105.463 37.8973 104.749 37.8973C104.034 37.8973 103.41 38.0726 102.878 38.423C102.345 38.7735 101.931 39.2878 101.635 39.966C101.344 40.6442 101.198 41.4772 101.198 42.4649C101.198 43.4526 101.344 44.2855 101.635 44.9637C101.931 45.6419 102.345 46.1562 102.878 46.5067C103.41 46.8572 104.034 47.0324 104.749 47.0324C105.463 47.0324 106.087 46.8572 106.619 46.5067C107.152 46.1562 107.564 45.6419 107.855 44.9637C108.151 44.2855 108.299 43.4526 108.299 42.4649ZM112.123 37.911V35.4736H123.607V37.911H119.326V49.4562H116.404V37.911H112.123ZM128.262 35.4736V49.4562H125.306V35.4736H128.262ZM134.759 49.4562V35.4736H137.716V41.6388H137.9L142.932 35.4736H146.475L141.286 41.7343L146.537 49.4562H143L139.17 43.7075L137.716 45.4826V49.4562H134.759ZM148.425 49.4562V38.9692H151.334V49.4562H148.425ZM149.886 37.6174C149.454 37.6174 149.083 37.474 148.773 37.1873C148.468 36.896 148.316 36.5478 148.316 36.1427C148.316 35.7421 148.468 35.3985 148.773 35.1117C149.083 34.8204 149.454 34.6748 149.886 34.6748C150.319 34.6748 150.687 34.8204 150.992 35.1117C151.302 35.3985 151.457 35.7421 151.457 36.1427C151.457 36.5478 151.302 36.896 150.992 37.1873C150.687 37.474 150.319 37.6174 149.886 37.6174ZM156.38 43.3934V49.4562H153.471V38.9692H156.243V40.8195H156.366C156.598 40.2095 156.987 39.7271 157.534 39.372C158.08 39.0125 158.742 38.8327 159.52 38.8327C160.249 38.8327 160.884 38.992 161.425 39.3106C161.967 39.6292 162.388 40.0844 162.688 40.6761C162.989 41.2632 163.139 41.9642 163.139 42.7789V49.4562H160.23V43.2978C160.235 42.656 160.071 42.1554 159.739 41.7958C159.407 41.4317 158.949 41.2496 158.366 41.2496C157.975 41.2496 157.629 41.3338 157.329 41.5022C157.033 41.6706 156.801 41.9164 156.632 42.2396C156.468 42.5582 156.384 42.9428 156.38 43.3934ZM169.103 49.6269C168.307 49.6269 167.585 49.422 166.939 49.0124C166.297 48.5982 165.787 47.9906 165.41 47.1895C165.036 46.3838 164.85 45.3961 164.85 44.2264C164.85 43.0247 165.043 42.0256 165.43 41.2291C165.817 40.428 166.331 39.8295 166.973 39.4335C167.619 39.033 168.327 38.8327 169.096 38.8327C169.684 38.8327 170.173 38.9328 170.564 39.1331C170.96 39.3288 171.279 39.5746 171.52 39.8705C171.766 40.1618 171.953 40.4485 172.08 40.7307H172.169V35.4736H175.07V49.4562H172.203V47.7766H172.08C171.943 48.0679 171.75 48.357 171.5 48.6437C171.254 48.9259 170.933 49.1603 170.537 49.3469C170.146 49.5336 169.668 49.6269 169.103 49.6269ZM170.025 47.3124C170.494 47.3124 170.89 47.1849 171.213 46.93C171.541 46.6706 171.791 46.3087 171.964 45.8445C172.141 45.3802 172.23 44.8363 172.23 44.2127C172.23 43.5891 172.144 43.0475 171.971 42.5878C171.798 42.1281 171.547 41.773 171.22 41.5227C170.892 41.2724 170.494 41.1472 170.025 41.1472C169.547 41.1472 169.144 41.2769 168.816 41.5363C168.489 41.7958 168.241 42.1554 168.072 42.6151C167.904 43.0748 167.82 43.6073 167.82 44.2127C167.82 44.8226 167.904 45.362 168.072 45.8308C168.245 46.2951 168.493 46.6592 168.816 46.9232C169.144 47.1826 169.547 47.3124 170.025 47.3124ZM182.049 49.661C180.97 49.661 180.041 49.4425 179.263 49.0056C178.489 48.5641 177.893 47.9405 177.474 47.1348C177.056 46.3247 176.846 45.3665 176.846 44.2605C176.846 43.1818 177.056 42.235 177.474 41.4203C177.893 40.6055 178.482 39.9706 179.243 39.5154C180.007 39.0603 180.904 38.8327 181.933 38.8327C182.624 38.8327 183.269 38.9442 183.865 39.1672C184.466 39.3857 184.989 39.7157 185.435 40.1572C185.886 40.5987 186.236 41.154 186.487 41.8231C186.737 42.4876 186.862 43.266 186.862 44.1581V44.9569H178.007V43.1545H184.124C184.124 42.7357 184.033 42.3647 183.851 42.0416C183.669 41.7184 183.416 41.4658 183.093 41.2837C182.775 41.0971 182.404 41.0038 181.98 41.0038C181.539 41.0038 181.147 41.1062 180.806 41.311C180.469 41.5113 180.205 41.7821 180.014 42.1235C179.823 42.4603 179.725 42.8358 179.721 43.25V44.9637C179.721 45.4826 179.816 45.9309 180.007 46.3087C180.203 46.6865 180.478 46.9778 180.833 47.1826C181.188 47.3875 181.609 47.4899 182.096 47.4899C182.42 47.4899 182.716 47.4444 182.984 47.3533C183.253 47.2623 183.482 47.1257 183.674 46.9437C183.865 46.7616 184.01 46.5386 184.111 46.2746L186.801 46.4521C186.664 47.0984 186.384 47.6628 185.961 48.1453C185.542 48.6232 185 48.9965 184.336 49.265C183.676 49.529 182.913 49.661 182.049 49.661ZM188.568 49.4562V38.9692H191.388V40.799H191.497C191.688 40.1481 192.009 39.6565 192.459 39.3243C192.91 38.9874 193.429 38.819 194.016 38.819C194.162 38.819 194.319 38.8281 194.487 38.8463C194.656 38.8645 194.804 38.8896 194.931 38.9214V41.5022C194.794 41.4612 194.606 41.4248 194.364 41.393C194.123 41.3611 193.902 41.3452 193.702 41.3452C193.274 41.3452 192.892 41.4385 192.555 41.6251C192.223 41.8072 191.959 42.0621 191.763 42.3898C191.572 42.7175 191.476 43.0953 191.476 43.5231V49.4562H188.568Z" fill="#231759"/>
<path d="M96.2188 66.2001H94.3549C94.2833 65.8018 94.1498 65.4514 93.9547 65.1487C93.7595 64.846 93.5206 64.5891 93.2378 64.378C92.955 64.1669 92.6384 64.0076 92.2879 63.9001C91.9414 63.7926 91.573 63.7388 91.1827 63.7388C90.4778 63.7388 89.8466 63.916 89.289 64.2705C88.7354 64.6249 88.2973 65.1447 87.9747 65.8297C87.6561 66.5147 87.4968 67.3511 87.4968 68.3388C87.4968 69.3345 87.6561 70.1748 87.9747 70.8598C88.2973 71.5448 88.7374 72.0626 89.295 72.4131C89.8525 72.7635 90.4798 72.9388 91.1768 72.9388C91.5631 72.9388 91.9295 72.887 92.276 72.7835C92.6265 72.6759 92.9431 72.5186 93.2259 72.3115C93.5086 72.1044 93.7476 71.8515 93.9427 71.5528C94.1419 71.2501 94.2793 70.9036 94.3549 70.5133L96.2188 70.5193C96.1193 71.1207 95.9261 71.6743 95.6394 72.1801C95.3566 72.6819 94.9922 73.116 94.5461 73.4824C94.104 73.8448 93.5982 74.1256 93.0287 74.3247C92.4592 74.5239 91.8379 74.6234 91.1648 74.6234C90.1054 74.6234 89.1615 74.3725 88.3331 73.8707C87.5047 73.3649 86.8516 72.6421 86.3737 71.7022C85.8997 70.7622 85.6628 69.6411 85.6628 68.3388C85.6628 67.0325 85.9017 65.9114 86.3796 64.9754C86.8576 64.0355 87.5107 63.3146 88.3391 62.8128C89.1675 62.307 90.1094 62.0541 91.1648 62.0541C91.814 62.0541 92.4194 62.1477 92.9809 62.3349C93.5465 62.5181 94.0542 62.7889 94.5043 63.1474C94.9543 63.5018 95.3267 63.9359 95.6214 64.4497C95.9161 64.9595 96.1153 65.543 96.2188 66.2001ZM98.2843 74.4562V65.2801H100.011V66.7378H100.106C100.274 66.2439 100.568 65.8556 100.991 65.5728C101.417 65.2861 101.899 65.1427 102.436 65.1427C102.548 65.1427 102.679 65.1467 102.831 65.1546C102.986 65.1626 103.107 65.1726 103.195 65.1845V66.8931C103.123 66.8732 102.996 66.8513 102.813 66.8274C102.629 66.7995 102.446 66.7855 102.263 66.7855C101.841 66.7855 101.465 66.8752 101.134 67.0544C100.807 67.2296 100.548 67.4746 100.357 67.7892C100.166 68.0998 100.071 68.4543 100.071 68.8526V74.4562H98.2843ZM108.367 74.6414C107.463 74.6414 106.684 74.4482 106.031 74.0619C105.382 73.6716 104.88 73.124 104.526 72.419C104.175 71.7101 104 70.8797 104 69.9279C104 68.988 104.175 68.1596 104.526 67.4427C104.88 66.7258 105.374 66.1662 106.007 65.764C106.644 65.3617 107.389 65.1606 108.242 65.1606C108.759 65.1606 109.261 65.2462 109.747 65.4175C110.233 65.5888 110.669 65.8576 111.055 66.224C111.442 66.5904 111.746 67.0663 111.969 67.6518C112.192 68.2333 112.304 68.9402 112.304 69.7726V70.4058H105.01V69.0676H110.553C110.553 68.5977 110.458 68.1815 110.267 67.8191C110.076 67.4526 109.807 67.1639 109.46 66.9528C109.118 66.7417 108.715 66.6362 108.253 66.6362C107.752 66.6362 107.314 66.7597 106.939 67.0066C106.569 67.2495 106.282 67.5681 106.079 67.9624C105.88 68.3527 105.78 68.7769 105.78 69.2349V70.2803C105.78 70.8937 105.888 71.4154 106.103 71.8455C106.322 72.2757 106.627 72.6042 107.017 72.8312C107.407 73.0543 107.863 73.1658 108.385 73.1658C108.723 73.1658 109.032 73.118 109.311 73.0224C109.59 72.9228 109.831 72.7755 110.034 72.5803C110.237 72.3852 110.392 72.1442 110.5 71.8575L112.19 72.1622C112.055 72.66 111.812 73.0961 111.462 73.4705C111.115 73.8409 110.679 74.1296 110.153 74.3367C109.631 74.5398 109.036 74.6414 108.367 74.6414ZM107.477 64.0554L105.631 61.3014H107.513L108.905 64.0554H107.477ZM118.151 74.6414C117.263 74.6414 116.498 74.4402 115.857 74.038C115.22 73.6318 114.73 73.0722 114.387 72.3593C114.045 71.6464 113.874 70.83 113.874 69.91C113.874 68.978 114.049 68.1556 114.399 67.4427C114.75 66.7258 115.244 66.1662 115.881 65.764C116.518 65.3617 117.269 65.1606 118.133 65.1606C118.83 65.1606 119.451 65.2901 119.997 65.5489C120.543 65.8038 120.983 66.1623 121.317 66.6243C121.656 67.0862 121.857 67.6259 121.921 68.2432H120.182C120.086 67.8131 119.867 67.4427 119.525 67.132C119.186 66.8214 118.732 66.6661 118.163 66.6661C117.665 66.6661 117.229 66.7975 116.855 67.0604C116.484 67.3192 116.195 67.6896 115.988 68.1715C115.781 68.6494 115.678 69.215 115.678 69.8681C115.678 70.5372 115.779 71.1147 115.982 71.6006C116.185 72.0865 116.472 72.4628 116.843 72.7297C117.217 72.9965 117.657 73.1299 118.163 73.1299C118.501 73.1299 118.808 73.0682 119.083 72.9448C119.362 72.8173 119.595 72.6361 119.782 72.4011C119.973 72.1661 120.106 71.8834 120.182 71.5528H121.921C121.857 72.1462 121.664 72.6759 121.341 73.1419C121.018 73.6079 120.586 73.9743 120.045 74.2411C119.507 74.508 118.876 74.6414 118.151 74.6414ZM125.617 69.0079V74.4562H123.831V62.2214H125.593V66.7736H125.707C125.922 66.2797 126.25 65.8875 126.692 65.5967C127.134 65.306 127.712 65.1606 128.425 65.1606C129.054 65.1606 129.604 65.2901 130.074 65.5489C130.547 65.8078 130.914 66.1941 131.173 66.7079C131.436 67.2177 131.567 67.8549 131.567 68.6196V74.4562H129.781V68.8346C129.781 68.1616 129.608 67.6398 129.261 67.2694C128.915 66.8951 128.433 66.7079 127.815 66.7079C127.393 66.7079 127.015 66.7975 126.68 66.9767C126.35 67.1559 126.089 67.4188 125.898 67.7653C125.711 68.1078 125.617 68.522 125.617 69.0079ZM137.905 74.6414C137.001 74.6414 136.223 74.4482 135.57 74.0619C134.92 73.6716 134.419 73.124 134.064 72.419C133.714 71.7101 133.538 70.8797 133.538 69.9279C133.538 68.988 133.714 68.1596 134.064 67.4427C134.419 66.7258 134.912 66.1662 135.546 65.764C136.183 65.3617 136.928 65.1606 137.78 65.1606C138.298 65.1606 138.8 65.2462 139.285 65.4175C139.771 65.5888 140.207 65.8576 140.594 66.224C140.98 66.5904 141.285 67.0663 141.508 67.6518C141.731 68.2333 141.842 68.9402 141.842 69.7726V70.4058H134.548V69.0676H140.092C140.092 68.5977 139.996 68.1815 139.805 67.8191C139.614 67.4526 139.345 67.1639 138.999 66.9528C138.656 66.7417 138.254 66.6362 137.792 66.6362C137.29 66.6362 136.852 66.7597 136.478 67.0066C136.107 67.2495 135.821 67.5681 135.617 67.9624C135.418 68.3527 135.319 68.7769 135.319 69.2349V70.2803C135.319 70.8937 135.426 71.4154 135.641 71.8455C135.86 72.2757 136.165 72.6042 136.555 72.8312C136.946 73.0543 137.402 73.1658 137.923 73.1658C138.262 73.1658 138.571 73.118 138.849 73.0224C139.128 72.9228 139.369 72.7755 139.572 72.5803C139.775 72.3852 139.931 72.1442 140.038 71.8575L141.729 72.1622C141.593 72.66 141.35 73.0961 141 73.4705C140.654 73.8409 140.217 74.1296 139.692 74.3367C139.17 74.5398 138.575 74.6414 137.905 74.6414ZM150.7 67.5204L149.081 67.8071C149.014 67.6 148.906 67.4029 148.759 67.2157C148.615 67.0285 148.42 66.8752 148.173 66.7557C147.926 66.6362 147.618 66.5765 147.247 66.5765C146.742 66.5765 146.319 66.69 145.981 66.917C145.642 67.14 145.473 67.4288 145.473 67.7832C145.473 68.0899 145.587 68.3368 145.814 68.524C146.041 68.7112 146.407 68.8645 146.913 68.984L148.37 69.3185C149.215 69.5137 149.844 69.8144 150.258 70.2206C150.672 70.6268 150.88 71.1545 150.88 71.8037C150.88 72.3533 150.72 72.8432 150.402 73.2733C150.087 73.6995 149.647 74.034 149.081 74.277C148.52 74.5199 147.869 74.6414 147.128 74.6414C146.1 74.6414 145.262 74.4223 144.613 73.9842C143.964 73.5422 143.565 72.9149 143.418 72.1024L145.144 71.8396C145.252 72.2896 145.473 72.6301 145.808 72.8611C146.142 73.0881 146.578 73.2016 147.116 73.2016C147.701 73.2016 148.169 73.0802 148.52 72.8372C148.87 72.5903 149.045 72.2896 149.045 71.9351C149.045 71.6484 148.938 71.4074 148.723 71.2123C148.512 71.0171 148.187 70.8698 147.749 70.7702L146.196 70.4297C145.34 70.2345 144.706 69.9239 144.296 69.4977C143.89 69.0716 143.687 68.532 143.687 67.8788C143.687 67.3371 143.838 66.8632 144.141 66.457C144.444 66.0507 144.862 65.7341 145.395 65.5071C145.929 65.2761 146.54 65.1606 147.229 65.1606C148.221 65.1606 149.002 65.3757 149.571 65.8058C150.141 66.232 150.517 66.8035 150.7 67.5204ZM157.296 74.4562V65.2801H159.01V66.7736H159.124C159.315 66.2678 159.627 65.8735 160.062 65.5907C160.496 65.304 161.015 65.1606 161.621 65.1606C162.234 65.1606 162.748 65.304 163.162 65.5907C163.58 65.8775 163.889 66.2718 164.088 66.7736H164.184C164.403 66.2837 164.751 65.8934 165.229 65.6027C165.707 65.308 166.277 65.1606 166.938 65.1606C167.77 65.1606 168.449 65.4215 168.975 65.9432C169.504 66.4649 169.769 67.2515 169.769 68.3029V74.4562H167.983V68.4702C167.983 67.8489 167.814 67.3989 167.475 67.1201C167.137 66.8413 166.733 66.7019 166.263 66.7019C165.681 66.7019 165.229 66.8811 164.906 67.2396C164.584 67.594 164.423 68.05 164.423 68.6076V74.4562H162.642V68.3567C162.642 67.8589 162.487 67.4586 162.176 67.1559C161.866 66.8533 161.461 66.7019 160.964 66.7019C160.625 66.7019 160.312 66.7915 160.026 66.9707C159.743 67.146 159.514 67.3909 159.339 67.7055C159.167 68.0202 159.082 68.3846 159.082 68.7988V74.4562H157.296ZM174.834 74.6593C174.252 74.6593 173.727 74.5518 173.257 74.3367C172.787 74.1176 172.414 73.801 172.14 73.3868C171.869 72.9726 171.733 72.4648 171.733 71.8635C171.733 71.3457 171.833 70.9196 172.032 70.585C172.231 70.2505 172.5 69.9856 172.838 69.7905C173.177 69.5953 173.555 69.448 173.974 69.3484C174.392 69.2488 174.818 69.1732 175.252 69.1214C175.802 69.0577 176.248 69.0059 176.59 68.9661C176.933 68.9223 177.182 68.8526 177.337 68.757C177.492 68.6614 177.57 68.5061 177.57 68.291V68.2492C177.57 67.7275 177.423 67.3232 177.128 67.0365C176.837 66.7497 176.403 66.6063 175.825 66.6063C175.224 66.6063 174.75 66.7397 174.404 67.0066C174.061 67.2694 173.824 67.5622 173.693 67.8848L172.014 67.5024C172.213 66.9449 172.504 66.4948 172.886 66.1523C173.273 65.8058 173.717 65.5549 174.218 65.3996C174.72 65.2403 175.248 65.1606 175.802 65.1606C176.168 65.1606 176.556 65.2044 176.967 65.292C177.381 65.3757 177.767 65.531 178.125 65.758C178.488 65.985 178.785 66.3096 179.016 66.7318C179.247 67.15 179.362 67.6936 179.362 68.3627V74.4562H177.618V73.2016H177.546C177.431 73.4326 177.257 73.6596 177.026 73.8827C176.795 74.1057 176.499 74.2909 176.136 74.4383C175.774 74.5856 175.34 74.6593 174.834 74.6593ZM175.222 73.2255C175.716 73.2255 176.138 73.128 176.489 72.9328C176.843 72.7377 177.112 72.4828 177.295 72.1681C177.482 71.8495 177.576 71.509 177.576 71.1466V69.9637C177.512 70.0274 177.389 70.0872 177.205 70.1429C177.026 70.1947 176.821 70.2405 176.59 70.2803C176.359 70.3162 176.134 70.35 175.915 70.3819C175.696 70.4098 175.513 70.4337 175.365 70.4536C175.019 70.4974 174.702 70.5711 174.416 70.6746C174.133 70.7782 173.906 70.9275 173.735 71.1227C173.567 71.3138 173.484 71.5687 173.484 71.8874C173.484 72.3294 173.647 72.664 173.974 72.891C174.3 73.114 174.716 73.2255 175.222 73.2255ZM186.025 65.2801V66.7139H181.012V65.2801H186.025ZM182.357 63.0817H184.143V71.7619C184.143 72.1084 184.195 72.3693 184.298 72.5445C184.402 72.7157 184.535 72.8332 184.698 72.897C184.866 72.9567 185.047 72.9866 185.242 72.9866C185.385 72.9866 185.511 72.9766 185.618 72.9567C185.726 72.9368 185.81 72.9209 185.869 72.9089L186.192 74.3845C186.088 74.4243 185.941 74.4641 185.75 74.504C185.559 74.5478 185.32 74.5717 185.033 74.5757C184.563 74.5836 184.125 74.5 183.719 74.3247C183.312 74.1495 182.984 73.8787 182.733 73.5123C182.482 73.1459 182.357 72.6859 182.357 72.1323V63.0817ZM191.857 74.6414C190.953 74.6414 190.174 74.4482 189.521 74.0619C188.872 73.6716 188.37 73.124 188.015 72.419C187.665 71.7101 187.49 70.8797 187.49 69.9279C187.49 68.988 187.665 68.1596 188.015 67.4427C188.37 66.7258 188.864 66.1662 189.497 65.764C190.134 65.3617 190.879 65.1606 191.731 65.1606C192.249 65.1606 192.751 65.2462 193.237 65.4175C193.723 65.5888 194.159 65.8576 194.545 66.224C194.931 66.5904 195.236 67.0663 195.459 67.6518C195.682 68.2333 195.794 68.9402 195.794 69.7726V70.4058H188.499V69.0676H194.043C194.043 68.5977 193.948 68.1815 193.756 67.8191C193.565 67.4526 193.296 67.1639 192.95 66.9528C192.607 66.7417 192.205 66.6362 191.743 66.6362C191.241 66.6362 190.803 66.7597 190.429 67.0066C190.059 67.2495 189.772 67.5681 189.569 67.9624C189.37 68.3527 189.27 68.7769 189.27 69.2349V70.2803C189.27 70.8937 189.378 71.4154 189.593 71.8455C189.812 72.2757 190.116 72.6042 190.507 72.8312C190.897 73.0543 191.353 73.1658 191.875 73.1658C192.213 73.1658 192.522 73.118 192.801 73.0224C193.079 72.9228 193.32 72.7755 193.523 72.5803C193.727 72.3852 193.882 72.1442 193.989 71.8575L195.68 72.1622C195.545 72.66 195.302 73.0961 194.951 73.4705C194.605 73.8409 194.169 74.1296 193.643 74.3367C193.121 74.5398 192.526 74.6414 191.857 74.6414ZM197.775 74.4562V65.2801H199.502V66.7378H199.598C199.765 66.2439 200.06 65.8556 200.482 65.5728C200.908 65.2861 201.39 65.1427 201.927 65.1427C202.039 65.1427 202.17 65.1467 202.322 65.1546C202.477 65.1626 202.599 65.1726 202.686 65.1845V66.8931C202.614 66.8732 202.487 66.8513 202.304 66.8274C202.121 66.7995 201.937 66.7855 201.754 66.7855C201.332 66.7855 200.956 66.8752 200.625 67.0544C200.299 67.2296 200.04 67.4746 199.848 67.7892C199.657 68.0998 199.562 68.4543 199.562 68.8526V74.4562H197.775ZM206.018 69.0079V74.4562H204.232V65.2801H205.946V66.7736H206.06C206.271 66.2877 206.602 65.8974 207.052 65.6027C207.506 65.308 208.077 65.1606 208.766 65.1606C209.391 65.1606 209.939 65.292 210.409 65.5549C210.879 65.8138 211.243 66.2001 211.502 66.7139C211.761 67.2276 211.891 67.8629 211.891 68.6196V74.4562H210.104V68.8346C210.104 68.1695 209.931 67.6498 209.585 67.2754C209.238 66.8971 208.762 66.7079 208.157 66.7079C207.743 66.7079 207.374 66.7975 207.052 66.9767C206.733 67.1559 206.48 67.4188 206.293 67.7653C206.11 68.1078 206.018 68.522 206.018 69.0079ZM218.241 74.6414C217.337 74.6414 216.558 74.4482 215.905 74.0619C215.256 73.6716 214.754 73.124 214.4 72.419C214.049 71.7101 213.874 70.8797 213.874 69.9279C213.874 68.988 214.049 68.1596 214.4 67.4427C214.754 66.7258 215.248 66.1662 215.881 65.764C216.518 65.3617 217.263 65.1606 218.116 65.1606C218.633 65.1606 219.135 65.2462 219.621 65.4175C220.107 65.5888 220.543 65.8576 220.929 66.224C221.316 66.5904 221.62 67.0663 221.843 67.6518C222.066 68.2333 222.178 68.9402 222.178 69.7726V70.4058H214.884V69.0676H220.427C220.427 68.5977 220.332 68.1815 220.141 67.8191C219.95 67.4526 219.681 67.1639 219.334 66.9528C218.992 66.7417 218.589 66.6362 218.127 66.6362C217.626 66.6362 217.188 66.7597 216.813 67.0066C216.443 67.2495 216.156 67.5681 215.953 67.9624C215.754 68.3527 215.654 68.7769 215.654 69.2349V70.2803C215.654 70.8937 215.762 71.4154 215.977 71.8455C216.196 72.2757 216.501 72.6042 216.891 72.8312C217.281 73.0543 217.737 73.1658 218.259 73.1658C218.597 73.1658 218.906 73.118 219.185 73.0224C219.464 72.9228 219.705 72.7755 219.908 72.5803C220.111 72.3852 220.266 72.1442 220.374 71.8575L222.064 72.1622C221.929 72.66 221.686 73.0961 221.335 73.4705C220.989 73.8409 220.553 74.1296 220.027 74.3367C219.505 74.5398 218.91 74.6414 218.241 74.6414ZM225.946 62.2214V74.4562H224.16V62.2214H225.946ZM230.135 62.2214V74.4562H228.349V62.2214H230.135ZM236.493 74.6414C235.589 74.6414 234.81 74.4482 234.157 74.0619C233.508 73.6716 233.006 73.124 232.652 72.419C232.301 71.7101 232.126 70.8797 232.126 69.9279C232.126 68.988 232.301 68.1596 232.652 67.4427C233.006 66.7258 233.5 66.1662 234.133 65.764C234.771 65.3617 235.515 65.1606 236.368 65.1606C236.885 65.1606 237.387 65.2462 237.873 65.4175C238.359 65.5888 238.795 65.8576 239.181 66.224C239.568 66.5904 239.872 67.0663 240.095 67.6518C240.318 68.2333 240.43 68.9402 240.43 69.7726V70.4058H233.136V69.0676H238.68C238.68 68.5977 238.584 68.1815 238.393 67.8191C238.202 67.4526 237.933 67.1639 237.586 66.9528C237.244 66.7417 236.842 66.6362 236.38 66.6362C235.878 66.6362 235.44 66.7597 235.065 67.0066C234.695 67.2495 234.408 67.5681 234.205 67.9624C234.006 68.3527 233.906 68.7769 233.906 69.2349V70.2803C233.906 70.8937 234.014 71.4154 234.229 71.8455C234.448 72.2757 234.753 72.6042 235.143 72.8312C235.533 73.0543 235.989 73.1658 236.511 73.1658C236.849 73.1658 237.158 73.118 237.437 73.0224C237.716 72.9228 237.957 72.7755 238.16 72.5803C238.363 72.3852 238.518 72.1442 238.626 71.8575L240.316 72.1622C240.181 72.66 239.938 73.0961 239.588 73.4705C239.241 73.8409 238.805 74.1296 238.279 74.3367C237.758 74.5398 237.162 74.6414 236.493 74.6414ZM249.288 67.5204L247.669 67.8071C247.601 67.6 247.494 67.4029 247.346 67.2157C247.203 67.0285 247.008 66.8752 246.761 66.7557C246.514 66.6362 246.205 66.5765 245.835 66.5765C245.329 66.5765 244.907 66.69 244.568 66.917C244.23 67.14 244.061 67.4288 244.061 67.7832C244.061 68.0899 244.174 68.3368 244.401 68.524C244.628 68.7112 244.995 68.8645 245.5 68.984L246.958 69.3185C247.802 69.5137 248.432 69.8144 248.846 70.2206C249.26 70.6268 249.467 71.1545 249.467 71.8037C249.467 72.3533 249.308 72.8432 248.989 73.2733C248.675 73.6995 248.234 74.034 247.669 74.277C247.107 74.5199 246.456 74.6414 245.715 74.6414C244.688 74.6414 243.85 74.4223 243.2 73.9842C242.551 73.5422 242.153 72.9149 242.006 72.1024L243.732 71.8396C243.84 72.2896 244.061 72.6301 244.395 72.8611C244.73 73.0881 245.166 73.2016 245.703 73.2016C246.289 73.2016 246.757 73.0802 247.107 72.8372C247.458 72.5903 247.633 72.2896 247.633 71.9351C247.633 71.6484 247.526 71.4074 247.31 71.2123C247.099 71.0171 246.775 70.8698 246.337 70.7702L244.783 70.4297C243.927 70.2345 243.294 69.9239 242.884 69.4977C242.478 69.0716 242.274 68.532 242.274 67.8788C242.274 67.3371 242.426 66.8632 242.728 66.457C243.031 66.0507 243.449 65.7341 243.983 65.5071C244.517 65.2761 245.128 65.1606 245.817 65.1606C246.809 65.1606 247.589 65.3757 248.159 65.8058C248.728 66.232 249.105 66.8035 249.288 67.5204Z" fill="#C7C7C7"/>
<g clip-path="url(#clip0_347_5579)">
<path d="M73.8992 57.8628C73.8626 57.6957 73.8296 57.5278 73.7886 57.3621C73.4436 55.9654 72.6064 54.8822 71.2784 54.1154C71.162 54.0487 71.1209 53.9777 71.1078 53.855C70.929 52.1413 70.4676 50.4928 69.697 48.9189C68.7389 46.9613 67.3978 45.2504 65.6802 43.7849C64.588 42.853 63.3824 42.0632 62.0647 41.4162C60.7367 40.7641 59.3384 40.2756 57.8698 39.9578C57.0897 39.7892 56.3009 39.673 55.5032 39.5991C54.6828 39.5231 53.8617 39.5174 53.0399 39.541C52.6239 39.5532 52.2071 39.592 51.794 39.6429C51.2922 39.7053 50.8051 40.1321 50.8007 40.7405C50.7963 41.2785 51.2468 41.7598 51.8313 41.8258C52.0679 41.8531 52.3133 41.8272 52.5543 41.8136C53.1725 41.7792 53.7907 41.7282 54.4104 41.7792C54.8996 41.8193 55.3889 41.8523 55.8775 41.8982C56.5221 41.9578 57.152 42.0891 57.7746 42.2454C59.6131 42.7067 61.2985 43.4578 62.8162 44.5094C64.8341 45.9068 66.3731 47.6557 67.4176 49.7597C67.9779 50.8881 68.3581 52.0645 68.5558 53.2897C68.6511 53.8787 68.7082 54.4691 68.7199 55.0637C68.7228 55.2043 68.6972 55.3743 68.7734 55.4755C68.8474 55.5745 69.0341 55.6053 69.1726 55.6642C69.4348 55.7753 69.7139 55.8614 69.957 55.9992C70.8228 56.4884 71.3129 57.1993 71.4322 58.1254C71.6212 59.5873 70.4793 60.9524 68.9103 61.2064C68.5075 61.2717 68.1039 61.2602 67.7025 61.2207C67.2916 61.1798 67.2865 61.1669 67.0931 61.4962C66.5511 62.418 65.9285 63.2903 65.1813 64.0858C63.723 65.6389 61.9724 66.8383 59.9251 67.6797C58.7275 68.1718 57.4787 68.5068 56.1844 68.6991C55.3054 68.8296 54.4184 68.8741 53.527 68.8612C51.7852 68.8368 50.1042 68.5362 48.4795 67.9695C46.3817 67.2386 44.5623 66.1245 43.0124 64.6475C42.0668 63.7458 41.2881 62.7343 40.6319 61.6425C40.6128 61.6102 40.5894 61.5794 40.574 61.5457C40.5286 61.446 40.4458 61.4209 40.3323 61.4202C40.0495 61.4173 39.7661 61.413 39.4848 61.3915C38.2997 61.2989 37.1848 60.5149 36.8201 59.3542C36.4414 58.1476 36.9812 56.8542 38.1488 56.1835C38.3539 56.0659 38.5656 55.9575 38.7802 55.8542C38.8842 55.804 38.9186 55.7409 38.9201 55.6355C38.9289 55.1756 38.9281 54.7151 38.9669 54.2574C39.0409 53.383 39.205 52.5215 39.465 51.6757C39.9338 50.1499 40.6729 48.7425 41.6851 47.4534C41.8573 47.2346 41.9884 47.0058 41.992 46.7289C41.9986 46.2368 41.6654 45.8006 41.1607 45.6421C40.6538 45.4836 40.0869 45.632 39.7785 46.0409C39.4123 46.5251 39.0519 47.0151 38.7289 47.5237C37.9085 48.8149 37.3225 50.1944 36.9468 51.6463C36.7864 52.2661 36.6589 52.8916 36.5923 53.5265C36.5622 53.8127 36.5322 54.0996 36.5146 54.3866C36.5088 54.4884 36.448 54.5379 36.3725 54.5924C35.7719 55.0236 35.2855 55.5422 34.9208 56.1541C34.5802 56.7258 34.3634 57.3334 34.2843 57.9805C34.1165 59.3485 34.4872 60.5852 35.4101 61.6727C36.2912 62.7099 37.4566 63.3391 38.8769 63.57C39.0102 63.5916 39.0907 63.6468 39.1603 63.7479C39.947 64.8849 40.878 65.9151 41.9576 66.8318C44.1755 68.7149 46.7575 69.991 49.7028 70.656C50.4411 70.8224 51.1897 70.9401 51.9478 71.0104C52.6451 71.0757 53.3431 71.1201 54.0449 71.1079C55.2395 71.0871 56.421 70.9666 57.5878 70.7292C60.2027 70.1976 62.5576 69.1711 64.6503 67.6518C66.1804 66.5406 67.4681 65.2286 68.5097 63.7193C68.5346 63.6827 68.5639 63.6482 68.5844 63.6102C68.6371 63.5112 68.7243 63.4725 68.8422 63.4639C69.8179 63.3929 70.7086 63.0973 71.5062 62.5858C72.7778 61.7709 73.5608 60.6662 73.8326 59.2681C73.8523 59.167 73.8765 59.0658 73.8985 58.9647V57.8607V57.8628H73.8992Z" fill="#EE717F"/>
<path d="M63.2637 55.9145C63.4564 55.9561 63.6468 55.817 63.6475 55.624V55.6204C63.649 54.4188 62.6646 53.228 61.2062 53.2288C59.7947 53.2288 58.7737 54.3407 58.7627 55.6204V55.6591C58.7678 55.8607 58.9707 55.9977 59.1685 55.9425C60.0453 55.6972 61.4289 55.5164 63.263 55.9138L63.2637 55.9145Z" fill="#EE717F"/>
<path d="M48.8301 55.9145C49.0228 55.9561 49.2132 55.817 49.2139 55.624V55.6204C49.2154 54.4188 48.231 53.228 46.7726 53.2288C45.3612 53.2288 44.3401 54.3407 44.3291 55.6204V55.6591C44.3342 55.8607 44.5371 55.9977 44.7349 55.9425C45.6117 55.6972 46.9953 55.5164 48.8294 55.9138L48.8301 55.9145Z" fill="#EE717F"/>
<path d="M51.0111 60.8713C50.814 60.8713 50.6632 61.0406 50.6859 61.2322C50.869 62.8067 52.2336 64.0298 53.8897 64.0298C55.5458 64.0298 56.9111 62.8067 57.0935 61.2322C57.1155 61.0406 56.9653 60.8713 56.7683 60.8713H51.0111Z" fill="#EE717F"/>
<path d="M45.363 46.5137C43.9794 46.5137 42.6302 46.0001 41.5864 45.0611C39.6724 43.3387 39.4835 40.668 41.0685 37.7341C41.4604 37.0081 41.9409 36.2721 42.5379 35.4838C42.8887 35.0204 43.5567 34.9228 44.0306 35.2671C44.5038 35.6107 44.6027 36.265 44.2519 36.7291C43.7201 37.4314 43.296 38.0798 42.9546 38.7111C41.4545 41.4887 42.3584 42.9184 43.0301 43.5231C43.7728 44.1916 44.7602 44.5123 45.7395 44.404C46.6668 44.3007 47.4674 43.8315 47.9933 43.0812C48.2358 42.7354 48.4218 42.1946 48.2174 41.7132C48.0189 41.2469 47.7135 40.9629 47.3341 40.8911C47.0272 40.833 46.691 40.9241 46.4969 41.1178C46.0845 41.5296 45.4084 41.536 44.988 41.1322C44.5675 40.7283 44.561 40.0662 44.9733 39.6544C45.6685 38.9608 46.7276 38.648 47.7377 38.8388C48.8217 39.0432 49.7146 39.7986 50.1871 40.9098C50.6405 41.975 50.4779 43.2297 49.752 44.2641C48.8833 45.503 47.5084 46.31 45.9797 46.48C45.7739 46.5029 45.5681 46.5144 45.363 46.5144V46.5137Z" fill="#EE717F"/>
</g>
<defs>
<clipPath id="clip0_347_5579">
<rect width="39.6538" height="36.0489" fill="white" transform="translate(34.2451 35.0612)"/>
</clipPath>
</defs>
</svg>
