<svg width="363" height="107" viewBox="0 0 363 107" fill="none" xmlns="http://www.w3.org/2000/svg">
<path d="M90.1792 49.2424V35.2598H95.7777C96.8063 35.2598 97.6643 35.4123 98.3516 35.7173C99.0389 36.0222 99.5555 36.4455 99.9014 36.9872C100.247 37.5243 100.42 38.1433 100.42 38.8442C100.42 39.3904 100.311 39.8706 100.093 40.2848C99.8741 40.6945 99.5737 41.0313 99.1914 41.2953C98.8136 41.5547 98.3812 41.7391 97.8942 41.8483V41.9849C98.4267 42.0076 98.9251 42.1578 99.3894 42.4355C99.8582 42.7131 100.238 43.1023 100.53 43.603C100.821 44.0991 100.967 44.6908 100.967 45.3781C100.967 46.12 100.782 46.7823 100.413 47.3649C100.049 47.9429 99.51 48.4004 98.7954 48.7372C98.0808 49.074 97.2 49.2424 96.1532 49.2424H90.1792ZM93.1354 46.8255H95.5455C96.3694 46.8255 96.9702 46.6685 97.348 46.3544C97.7257 46.0358 97.9146 45.6125 97.9146 45.0845C97.9146 44.6976 97.8213 44.3563 97.6347 44.0604C97.4481 43.7645 97.1818 43.5324 96.8359 43.364C96.4945 43.1956 96.0872 43.1114 95.6138 43.1114H93.1354V46.8255ZM93.1354 41.111H95.327C95.7321 41.111 96.0917 41.0404 96.4058 40.8993C96.7244 40.7536 96.9747 40.5488 97.1568 40.2848C97.3434 40.0208 97.4367 39.7045 97.4367 39.3358C97.4367 38.8306 97.2569 38.4232 96.8974 38.1137C96.5423 37.8042 96.0371 37.6494 95.3817 37.6494H93.1354V41.111ZM115.547 42.2511C115.547 43.7759 115.258 45.0731 114.68 46.1428C114.107 47.2124 113.324 48.0294 112.331 48.5938C111.344 49.1537 110.233 49.4336 109 49.4336C107.757 49.4336 106.642 49.1514 105.654 48.587C104.666 48.0226 103.886 47.2056 103.312 46.1359C102.739 45.0663 102.452 43.7714 102.452 42.2511C102.452 40.7263 102.739 39.4291 103.312 38.3595C103.886 37.2899 104.666 36.4751 105.654 35.9153C106.642 35.3509 107.757 35.0687 109 35.0687C110.233 35.0687 111.344 35.3509 112.331 35.9153C113.324 36.4751 114.107 37.2899 114.68 38.3595C115.258 39.4291 115.547 40.7263 115.547 42.2511ZM112.55 42.2511C112.55 41.2634 112.402 40.4305 112.106 39.7523C111.815 39.0741 111.403 38.5598 110.87 38.2093C110.338 37.8588 109.714 37.6836 109 37.6836C108.285 37.6836 107.661 37.8588 107.129 38.2093C106.596 38.5598 106.182 39.0741 105.886 39.7523C105.595 40.4305 105.449 41.2634 105.449 42.2511C105.449 43.2388 105.595 44.0718 105.886 44.75C106.182 45.4282 106.596 45.9425 107.129 46.293C107.661 46.6435 108.285 46.8187 109 46.8187C109.714 46.8187 110.338 46.6435 110.87 46.293C111.403 45.9425 111.815 45.4282 112.106 44.75C112.402 44.0718 112.55 43.2388 112.55 42.2511ZM116.374 37.6972V35.2598H127.858V37.6972H123.577V49.2424H120.655V37.6972H116.374ZM132.513 35.2598V49.2424H129.557V35.2598H132.513ZM151.348 40.1551H148.357C148.303 39.7682 148.191 39.4246 148.023 39.1242C147.854 38.8192 147.638 38.5598 147.374 38.3458C147.11 38.1319 146.805 37.9681 146.459 37.8543C146.118 37.7405 145.747 37.6836 145.346 37.6836C144.623 37.6836 143.992 37.8634 143.455 38.2229C142.918 38.578 142.501 39.0969 142.206 39.7796C141.91 40.4578 141.762 41.2816 141.762 42.2511C141.762 43.2479 141.91 44.0854 142.206 44.7636C142.506 45.4418 142.925 45.9539 143.462 46.2998C143.999 46.6457 144.62 46.8187 145.326 46.8187C145.722 46.8187 146.088 46.7663 146.425 46.6617C146.766 46.557 147.069 46.4045 147.333 46.2042C147.597 45.9994 147.815 45.7513 147.988 45.46C148.166 45.1687 148.289 44.8365 148.357 44.4632L151.348 44.4769C151.27 45.1187 151.077 45.7377 150.767 46.3339C150.462 46.9257 150.05 47.4559 149.531 47.9247C149.017 48.389 148.403 48.7577 147.688 49.0308C146.978 49.2993 146.175 49.4336 145.278 49.4336C144.031 49.4336 142.916 49.1514 141.933 48.587C140.954 48.0226 140.18 47.2056 139.611 46.1359C139.047 45.0663 138.765 43.7714 138.765 42.2511C138.765 40.7263 139.051 39.4291 139.625 38.3595C140.198 37.2899 140.977 36.4751 141.96 35.9153C142.943 35.3509 144.049 35.0687 145.278 35.0687C146.088 35.0687 146.839 35.1825 147.531 35.41C148.227 35.6376 148.844 35.9699 149.381 36.4068C149.918 36.8392 150.355 37.3695 150.692 37.9976C151.033 38.6258 151.252 39.3449 151.348 40.1551ZM156.211 49.4404C155.542 49.4404 154.946 49.3244 154.422 49.0922C153.899 48.8555 153.485 48.5073 153.18 48.0476C152.879 47.5834 152.729 47.0053 152.729 46.3135C152.729 45.7309 152.836 45.2416 153.05 44.8456C153.264 44.4496 153.555 44.131 153.924 43.8897C154.292 43.6485 154.711 43.4664 155.18 43.3435C155.653 43.2206 156.15 43.1341 156.668 43.0841C157.278 43.0204 157.77 42.9612 158.143 42.9066C158.516 42.8474 158.787 42.7609 158.956 42.6471C159.124 42.5333 159.208 42.3649 159.208 42.1419V42.1009C159.208 41.6685 159.072 41.334 158.799 41.0973C158.53 40.8606 158.148 40.7423 157.652 40.7423C157.128 40.7423 156.712 40.8583 156.402 41.0905C156.093 41.3181 155.888 41.6048 155.788 41.9507L153.098 41.7322C153.234 41.095 153.503 40.5443 153.903 40.08C154.304 39.6112 154.82 39.2516 155.453 39.0013C156.09 38.7464 156.828 38.6189 157.665 38.6189C158.248 38.6189 158.805 38.6872 159.338 38.8238C159.875 38.9603 160.351 39.172 160.765 39.4587C161.184 39.7455 161.514 40.1141 161.755 40.5648C161.996 41.0108 162.117 41.5456 162.117 42.1692V49.2424H159.358V47.7882H159.277C159.108 48.1159 158.883 48.4049 158.601 48.6553C158.318 48.9011 157.979 49.0945 157.583 49.2356C157.187 49.3722 156.73 49.4404 156.211 49.4404ZM157.044 47.4332C157.472 47.4332 157.85 47.349 158.177 47.1805C158.505 47.0076 158.762 46.7755 158.949 46.4841C159.135 46.1928 159.229 45.8628 159.229 45.4942V44.3813C159.138 44.4405 159.013 44.4951 158.853 44.5452C158.698 44.5907 158.523 44.6339 158.328 44.6749C158.132 44.7113 157.936 44.7454 157.74 44.7773C157.545 44.8046 157.367 44.8296 157.208 44.8524C156.866 44.9025 156.568 44.9821 156.313 45.0913C156.059 45.2006 155.861 45.3485 155.719 45.5351C155.578 45.7172 155.508 45.9448 155.508 46.2179C155.508 46.6139 155.651 46.9166 155.938 47.1259C156.229 47.3307 156.598 47.4332 157.044 47.4332ZM164.181 49.2424V38.7555H166.953V40.6057H167.076C167.294 39.9913 167.658 39.5065 168.168 39.1515C168.678 38.7964 169.288 38.6189 169.998 38.6189C170.717 38.6189 171.329 38.7987 171.835 39.1583C172.34 39.5133 172.677 39.9958 172.845 40.6057H172.954C173.168 40.0049 173.555 39.5247 174.115 39.1651C174.679 38.801 175.346 38.6189 176.115 38.6189C177.094 38.6189 177.888 38.9307 178.498 39.5543C179.113 40.1733 179.42 41.0518 179.42 42.1897V49.2424H176.518V42.7632C176.518 42.1806 176.363 41.7436 176.054 41.4523C175.744 41.161 175.357 41.0154 174.893 41.0154C174.365 41.0154 173.953 41.1838 173.657 41.5206C173.362 41.8529 173.214 42.2921 173.214 42.8383V49.2424H170.394V42.7017C170.394 42.1874 170.246 41.7778 169.95 41.4728C169.659 41.1678 169.274 41.0154 168.796 41.0154C168.473 41.0154 168.182 41.0973 167.922 41.2612C167.667 41.4205 167.465 41.6458 167.315 41.9371C167.165 42.2238 167.089 42.5606 167.089 42.9475V49.2424H164.181ZM181.525 53.175V38.7555H184.392V40.517H184.522C184.65 40.2348 184.834 39.948 185.075 39.6567C185.321 39.3609 185.64 39.1151 186.031 38.9193C186.427 38.7191 186.919 38.6189 187.506 38.6189C188.27 38.6189 188.976 38.8192 189.622 39.2198C190.269 39.6157 190.785 40.2143 191.172 41.0154C191.559 41.8119 191.752 42.811 191.752 44.0126C191.752 45.1824 191.564 46.1701 191.186 46.9757C190.813 47.7768 190.303 48.3845 189.656 48.7986C189.015 49.2083 188.296 49.4131 187.499 49.4131C186.935 49.4131 186.454 49.3198 186.058 49.1332C185.667 48.9466 185.346 48.7122 185.096 48.43C184.845 48.1432 184.654 47.8542 184.522 47.5629H184.433V53.175H181.525ZM184.372 43.999C184.372 44.6225 184.458 45.1665 184.631 45.6307C184.804 46.095 185.055 46.4568 185.382 46.7163C185.71 46.9712 186.108 47.0986 186.577 47.0986C187.051 47.0986 187.451 46.9689 187.779 46.7095C188.107 46.4455 188.355 46.0813 188.523 45.6171C188.696 45.1482 188.783 44.6089 188.783 43.999C188.783 43.3936 188.698 42.8611 188.53 42.4013C188.362 41.9416 188.113 41.582 187.786 41.3226C187.458 41.0632 187.055 40.9334 186.577 40.9334C186.104 40.9334 185.703 41.0586 185.376 41.3089C185.052 41.5593 184.804 41.9143 184.631 42.374C184.458 42.8337 184.372 43.3754 184.372 43.999ZM200.224 44.7773V38.7555H203.133V49.2424H200.34V47.3376H200.231C199.994 47.952 199.601 48.4459 199.05 48.8191C198.504 49.1924 197.837 49.379 197.049 49.379C196.349 49.379 195.732 49.2197 195.199 48.9011C194.667 48.5824 194.25 48.1296 193.95 47.5424C193.654 46.9552 193.504 46.252 193.499 45.4327V38.7555H196.408V44.9138C196.412 45.5329 196.578 46.0222 196.906 46.3817C197.234 46.7413 197.673 46.9211 198.224 46.9211C198.574 46.9211 198.902 46.8414 199.207 46.6821C199.512 46.5183 199.758 46.277 199.944 45.9584C200.135 45.6398 200.229 45.2461 200.224 44.7773ZM213.992 41.7459L211.33 41.9098C211.284 41.6822 211.186 41.4774 211.036 41.2953C210.886 41.1087 210.688 40.9607 210.442 40.8515C210.201 40.7377 209.912 40.6808 209.575 40.6808C209.124 40.6808 208.744 40.7764 208.435 40.9676C208.125 41.1542 207.971 41.4045 207.971 41.7186C207.971 41.9689 208.071 42.1806 208.271 42.3535C208.471 42.5265 208.815 42.6653 209.302 42.77L211.2 43.1524C212.22 43.3617 212.98 43.6986 213.48 44.1628C213.981 44.6271 214.231 45.237 214.231 45.9926C214.231 46.6799 214.029 47.283 213.624 47.8018C213.223 48.3207 212.672 48.7258 211.971 49.0171C211.275 49.3039 210.472 49.4473 209.561 49.4473C208.173 49.4473 207.067 49.1582 206.243 48.5802C205.424 47.9976 204.944 47.2056 204.803 46.2042L207.663 46.054C207.75 46.4773 207.959 46.8005 208.291 47.0235C208.624 47.242 209.049 47.3512 209.568 47.3512C210.078 47.3512 210.488 47.2534 210.797 47.0577C211.111 46.8574 211.27 46.6002 211.275 46.2862C211.27 46.0222 211.159 45.806 210.941 45.6375C210.722 45.4646 210.385 45.3326 209.93 45.2416L208.114 44.8797C207.09 44.6749 206.327 44.3198 205.827 43.8146C205.331 43.3094 205.083 42.6653 205.083 41.8825C205.083 41.2088 205.265 40.6285 205.629 40.1415C205.997 39.6544 206.514 39.2789 207.179 39.0149C207.848 38.7509 208.631 38.6189 209.527 38.6189C210.852 38.6189 211.894 38.8989 212.654 39.4587C213.419 40.0186 213.865 40.781 213.992 41.7459Z" fill="#231759"/>
<path d="M90.308 74.2424V62.0077H97.9786V63.5967H92.154V67.3245H97.5784V68.9076H92.154V72.6533H98.0503V74.2424H90.308ZM93.4026 60.783L94.8005 58.029H96.6823L94.8303 60.783H93.4026ZM104.166 74.4276C103.278 74.4276 102.513 74.2265 101.872 73.8243C101.235 73.418 100.745 72.8585 100.403 72.1456C100.06 71.4327 99.8888 70.6162 99.8888 69.6962C99.8888 68.7643 100.064 67.9418 100.415 67.2289C100.765 66.5121 101.259 65.9525 101.896 65.5502C102.533 65.148 103.284 64.9469 104.148 64.9469C104.845 64.9469 105.467 65.0763 106.012 65.3352C106.558 65.5901 106.998 65.9485 107.332 66.4105C107.671 66.8725 107.872 67.4121 107.936 68.0295H106.197C106.102 67.5993 105.883 67.2289 105.54 66.9183C105.202 66.6076 104.748 66.4523 104.178 66.4523C103.68 66.4523 103.244 66.5838 102.87 66.8466C102.499 67.1055 102.211 67.4759 102.004 67.9578C101.797 68.4357 101.693 69.0012 101.693 69.6544C101.693 70.3235 101.795 70.901 101.998 71.3869C102.201 71.8727 102.488 72.2491 102.858 72.5159C103.232 72.7828 103.672 72.9162 104.178 72.9162C104.517 72.9162 104.823 72.8545 105.098 72.731C105.377 72.6036 105.61 72.4224 105.797 72.1874C105.988 71.9524 106.122 71.6696 106.197 71.3391H107.936C107.872 71.9325 107.679 72.4622 107.356 72.9281C107.034 73.3941 106.602 73.7605 106.06 74.0274C105.522 74.2942 104.891 74.4276 104.166 74.4276ZM113.711 74.4276C112.851 74.4276 112.1 74.2305 111.459 73.8362C110.818 73.4419 110.32 72.8903 109.965 72.1814C109.611 71.4725 109.434 70.6441 109.434 69.6962C109.434 68.7444 109.611 67.912 109.965 67.1991C110.32 66.4862 110.818 65.9326 111.459 65.5383C112.1 65.144 112.851 64.9469 113.711 64.9469C114.571 64.9469 115.322 65.144 115.963 65.5383C116.605 65.9326 117.102 66.4862 117.457 67.1991C117.811 67.912 117.989 68.7444 117.989 69.6962C117.989 70.6441 117.811 71.4725 117.457 72.1814C117.102 72.8903 116.605 73.4419 115.963 73.8362C115.322 74.2305 114.571 74.4276 113.711 74.4276ZM113.717 72.9281C114.275 72.9281 114.737 72.7808 115.103 72.4861C115.47 72.1914 115.74 71.7991 115.916 71.3092C116.095 70.8193 116.184 70.2797 116.184 69.6902C116.184 69.1048 116.095 68.5671 115.916 68.0773C115.74 67.5834 115.47 67.1871 115.103 66.8884C114.737 66.5897 114.275 66.4404 113.717 66.4404C113.156 66.4404 112.69 66.5897 112.319 66.8884C111.953 67.1871 111.68 67.5834 111.501 68.0773C111.326 68.5671 111.238 69.1048 111.238 69.6902C111.238 70.2797 111.326 70.8193 111.501 71.3092C111.68 71.7991 111.953 72.1914 112.319 72.4861C112.69 72.7808 113.156 72.9281 113.717 72.9281ZM121.769 62.0077V74.2424H119.982V62.0077H121.769ZM128.126 74.4276C127.222 74.4276 126.444 74.2345 125.791 73.8481C125.141 73.4578 124.64 72.9102 124.285 72.2053C123.935 71.4964 123.759 70.666 123.759 69.7141C123.759 68.7742 123.935 67.9458 124.285 67.2289C124.64 66.5121 125.134 65.9525 125.767 65.5502C126.404 65.148 127.149 64.9469 128.001 64.9469C128.519 64.9469 129.021 65.0325 129.506 65.2038C129.992 65.375 130.428 65.6438 130.815 66.0102C131.201 66.3767 131.506 66.8526 131.729 67.438C131.952 68.0195 132.063 68.7264 132.063 69.5588V70.1921H124.769V68.8539H130.313C130.313 68.3839 130.217 67.9677 130.026 67.6053C129.835 67.2389 129.566 66.9502 129.22 66.7391C128.877 66.528 128.475 66.4225 128.013 66.4225C127.511 66.4225 127.073 66.5459 126.699 66.7928C126.328 67.0358 126.042 67.3544 125.838 67.7487C125.639 68.139 125.54 68.5631 125.54 69.0211V70.0666C125.54 70.6799 125.647 71.2017 125.862 71.6318C126.081 72.0619 126.386 72.3905 126.776 72.6175C127.167 72.8405 127.623 72.952 128.144 72.952C128.483 72.952 128.792 72.9043 129.07 72.8087C129.349 72.7091 129.59 72.5617 129.793 72.3666C129.996 72.1714 130.152 71.9305 130.259 71.6437L131.95 71.9484C131.814 72.4462 131.571 72.8823 131.221 73.2567C130.875 73.6271 130.438 73.9159 129.913 74.123C129.391 74.3261 128.796 74.4276 128.126 74.4276ZM140.921 67.3066L139.302 67.5934C139.235 67.3863 139.127 67.1891 138.98 67.0019C138.836 66.8147 138.641 66.6614 138.394 66.5419C138.147 66.4225 137.839 66.3627 137.468 66.3627C136.963 66.3627 136.54 66.4762 136.202 66.7032C135.863 66.9263 135.694 67.215 135.694 67.5695C135.694 67.8761 135.808 68.1231 136.035 68.3102C136.262 68.4974 136.628 68.6508 137.134 68.7702L138.591 69.1048C139.436 69.2999 140.065 69.6006 140.479 70.0069C140.893 70.4131 141.101 70.9408 141.101 71.59C141.101 72.1396 140.941 72.6294 140.623 73.0596C140.308 73.4857 139.868 73.8203 139.302 74.0632C138.741 74.3062 138.09 74.4276 137.349 74.4276C136.321 74.4276 135.483 74.2086 134.834 73.7705C134.185 73.3284 133.786 72.7011 133.639 71.8887L135.365 71.6258C135.473 72.0759 135.694 72.4164 136.029 72.6474C136.363 72.8744 136.799 72.9879 137.337 72.9879C137.922 72.9879 138.39 72.8664 138.741 72.6235C139.091 72.3765 139.267 72.0759 139.267 71.7214C139.267 71.4346 139.159 71.1937 138.944 70.9985C138.733 70.8034 138.408 70.656 137.97 70.5565L136.417 70.2159C135.561 70.0208 134.927 69.7102 134.517 69.284C134.111 68.8579 133.908 68.3182 133.908 67.665C133.908 67.1234 134.059 66.6495 134.362 66.2432C134.665 65.837 135.083 65.5204 135.616 65.2934C136.15 65.0624 136.761 64.9469 137.45 64.9469C138.442 64.9469 139.223 65.1619 139.792 65.5921C140.362 66.0182 140.738 66.5897 140.921 67.3066ZM154.393 67.3066L152.774 67.5934C152.706 67.3863 152.599 67.1891 152.451 67.0019C152.308 66.8147 152.113 66.6614 151.866 66.5419C151.619 66.4225 151.31 66.3627 150.94 66.3627C150.434 66.3627 150.012 66.4762 149.673 66.7032C149.335 66.9263 149.165 67.215 149.165 67.5695C149.165 67.8761 149.279 68.1231 149.506 68.3102C149.733 68.4974 150.099 68.6508 150.605 68.7702L152.063 69.1048C152.907 69.2999 153.536 69.6006 153.951 70.0069C154.365 70.4131 154.572 70.9408 154.572 71.59C154.572 72.1396 154.413 72.6294 154.094 73.0596C153.779 73.4857 153.339 73.8203 152.774 74.0632C152.212 74.3062 151.561 74.4276 150.82 74.4276C149.793 74.4276 148.954 74.2086 148.305 73.7705C147.656 73.3284 147.258 72.7011 147.11 71.8887L148.837 71.6258C148.944 72.0759 149.165 72.4164 149.5 72.6474C149.835 72.8744 150.271 72.9879 150.808 72.9879C151.394 72.9879 151.862 72.8664 152.212 72.6235C152.563 72.3765 152.738 72.0759 152.738 71.7214C152.738 71.4346 152.63 71.1937 152.415 70.9985C152.204 70.8034 151.88 70.656 151.442 70.5565L149.888 70.2159C149.032 70.0208 148.399 69.7102 147.989 69.284C147.582 68.8579 147.379 68.3182 147.379 67.665C147.379 67.1234 147.531 66.6495 147.833 66.2432C148.136 65.837 148.554 65.5204 149.088 65.2934C149.621 65.0624 150.233 64.9469 150.922 64.9469C151.913 64.9469 152.694 65.1619 153.264 65.5921C153.833 66.0182 154.21 66.5897 154.393 67.3066ZM162.349 70.437V65.0664H164.141V74.2424H162.384V72.6533H162.289C162.078 73.1432 161.739 73.5514 161.273 73.878C160.811 74.2006 160.236 74.3619 159.547 74.3619C158.957 74.3619 158.436 74.2325 157.982 73.9736C157.532 73.7107 157.177 73.3224 156.918 72.8087C156.663 72.2949 156.536 71.6597 156.536 70.903V65.0664H158.322V70.6879C158.322 71.3132 158.495 71.811 158.842 72.1814C159.188 72.5518 159.638 72.737 160.192 72.737C160.527 72.737 160.859 72.6533 161.19 72.4861C161.524 72.3188 161.801 72.0659 162.02 71.7274C162.243 71.3888 162.353 70.9587 162.349 70.437ZM166.541 77.6835V65.0664H168.285V66.5539H168.435C168.538 66.3627 168.688 66.1417 168.883 65.8908C169.078 65.6399 169.349 65.4208 169.695 65.2336C170.042 65.0425 170.5 64.9469 171.069 64.9469C171.81 64.9469 172.471 65.1341 173.053 65.5084C173.634 65.8828 174.09 66.4225 174.421 67.1274C174.755 67.8323 174.922 68.6806 174.922 69.6723C174.922 70.664 174.757 71.5143 174.427 72.2232C174.096 72.9281 173.642 73.4718 173.064 73.8541C172.487 74.2325 171.828 74.4217 171.087 74.4217C170.53 74.4217 170.073 74.3281 169.719 74.1409C169.369 73.9537 169.094 73.7346 168.895 73.4837C168.695 73.2328 168.542 73.0098 168.435 72.8146H168.327V77.6835H166.541ZM168.291 69.6544C168.291 70.2996 168.385 70.8651 168.572 71.351C168.759 71.8369 169.03 72.2172 169.384 72.492C169.739 72.7629 170.173 72.8983 170.687 72.8983C171.22 72.8983 171.667 72.7569 172.025 72.4741C172.383 72.1874 172.654 71.7991 172.837 71.3092C173.025 70.8193 173.118 70.2677 173.118 69.6544C173.118 69.049 173.027 68.5054 172.843 68.0235C172.664 67.5416 172.393 67.1612 172.031 66.8825C171.673 66.6037 171.224 66.4643 170.687 66.4643C170.169 66.4643 169.731 66.5977 169.373 66.8645C169.018 67.1314 168.749 67.5037 168.566 67.9817C168.383 68.4596 168.291 69.0172 168.291 69.6544ZM180.878 74.4276C179.974 74.4276 179.196 74.2345 178.543 73.8481C177.893 73.4578 177.392 72.9102 177.037 72.2053C176.687 71.4964 176.511 70.666 176.511 69.7141C176.511 68.7742 176.687 67.9458 177.037 67.2289C177.392 66.5121 177.885 65.9525 178.519 65.5502C179.156 65.148 179.901 64.9469 180.753 64.9469C181.271 64.9469 181.773 65.0325 182.258 65.2038C182.744 65.375 183.18 65.6438 183.567 66.0102C183.953 66.3767 184.258 66.8526 184.481 67.438C184.704 68.0195 184.815 68.7264 184.815 69.5588V70.1921H177.521V68.8539H183.065C183.065 68.3839 182.969 67.9677 182.778 67.6053C182.587 67.2389 182.318 66.9502 181.972 66.7391C181.629 66.528 181.227 66.4225 180.765 66.4225C180.263 66.4225 179.825 66.5459 179.451 66.7928C179.08 67.0358 178.794 67.3544 178.59 67.7487C178.391 68.139 178.292 68.5631 178.292 69.0211V70.0666C178.292 70.6799 178.399 71.2017 178.614 71.6318C178.833 72.0619 179.138 72.3905 179.528 72.6175C179.919 72.8405 180.375 72.952 180.896 72.952C181.235 72.952 181.544 72.9043 181.822 72.8087C182.101 72.7091 182.342 72.5617 182.545 72.3666C182.748 72.1714 182.904 71.9305 183.011 71.6437L184.702 71.9484C184.566 72.4462 184.323 72.8823 183.973 73.2567C183.627 73.6271 183.19 73.9159 182.665 74.123C182.143 74.3261 181.548 74.4276 180.878 74.4276ZM179.947 63.8417L181.344 61.0877H183.226L181.374 63.8417H179.947ZM186.797 74.2424V65.0664H188.524V66.524H188.619C188.787 66.0302 189.081 65.6418 189.503 65.3591C189.93 65.0723 190.412 64.929 190.949 64.929C191.061 64.929 191.192 64.9329 191.343 64.9409C191.499 64.9489 191.62 64.9588 191.708 64.9708V66.6793C191.636 66.6594 191.509 66.6375 191.326 66.6136C191.142 66.5857 190.959 66.5718 190.776 66.5718C190.354 66.5718 189.977 66.6614 189.647 66.8406C189.32 67.0159 189.061 67.2608 188.87 67.5754C188.679 67.8861 188.583 68.2405 188.583 68.6388V74.2424H186.797ZM193.254 74.2424V65.0664H195.04V74.2424H193.254ZM194.156 63.6505C193.845 63.6505 193.578 63.547 193.355 63.3399C193.136 63.1288 193.027 62.8779 193.027 62.5871C193.027 62.2924 193.136 62.0415 193.355 61.8344C193.578 61.6233 193.845 61.5178 194.156 61.5178C194.466 61.5178 194.731 61.6233 194.95 61.8344C195.173 62.0415 195.285 62.2924 195.285 62.5871C195.285 62.8779 195.173 63.1288 194.95 63.3399C194.731 63.547 194.466 63.6505 194.156 63.6505ZM201.398 74.4276C200.494 74.4276 199.715 74.2345 199.062 73.8481C198.413 73.4578 197.911 72.9102 197.556 72.2053C197.206 71.4964 197.031 70.666 197.031 69.7141C197.031 68.7742 197.206 67.9458 197.556 67.2289C197.911 66.5121 198.405 65.9525 199.038 65.5502C199.675 65.148 200.42 64.9469 201.272 64.9469C201.79 64.9469 202.292 65.0325 202.778 65.2038C203.264 65.375 203.7 65.6438 204.086 66.0102C204.472 66.3767 204.777 66.8526 205 67.438C205.223 68.0195 205.335 68.7264 205.335 69.5588V70.1921H198.04V68.8539H203.584C203.584 68.3839 203.489 67.9677 203.297 67.6053C203.106 67.2389 202.837 66.9502 202.491 66.7391C202.148 66.528 201.746 66.4225 201.284 66.4225C200.782 66.4225 200.344 66.5459 199.97 66.7928C199.6 67.0358 199.313 67.3544 199.11 67.7487C198.911 68.139 198.811 68.5631 198.811 69.0211V70.0666C198.811 70.6799 198.918 71.2017 199.134 71.6318C199.353 72.0619 199.657 72.3905 200.048 72.6175C200.438 72.8405 200.894 72.952 201.416 72.952C201.754 72.952 202.063 72.9043 202.342 72.8087C202.62 72.7091 202.861 72.5617 203.064 72.3666C203.268 72.1714 203.423 71.9305 203.53 71.6437L205.221 71.9484C205.086 72.4462 204.843 72.8823 204.492 73.2567C204.146 73.6271 203.71 73.9159 203.184 74.123C202.662 74.3261 202.067 74.4276 201.398 74.4276ZM213.129 70.437V65.0664H214.921V74.2424H213.165V72.6533H213.069C212.858 73.1432 212.52 73.5514 212.054 73.878C211.592 74.2006 211.016 74.3619 210.327 74.3619C209.738 74.3619 209.216 74.2325 208.762 73.9736C208.312 73.7107 207.958 73.3224 207.699 72.8087C207.444 72.2949 207.316 71.6597 207.316 70.903V65.0664H209.103V70.6879C209.103 71.3132 209.276 71.811 209.622 72.1814C209.969 72.5518 210.419 72.737 210.973 72.737C211.307 72.737 211.64 72.6533 211.97 72.4861C212.305 72.3188 212.582 72.0659 212.801 71.7274C213.024 71.3888 213.133 70.9587 213.129 70.437ZM217.321 74.2424V65.0664H219.048V66.524H219.143C219.311 66.0302 219.605 65.6418 220.028 65.3591C220.454 65.0723 220.936 64.929 221.473 64.929C221.585 64.929 221.716 64.9329 221.868 64.9409C222.023 64.9489 222.144 64.9588 222.232 64.9708V66.6793C222.16 66.6594 222.033 66.6375 221.85 66.6136C221.667 66.5857 221.483 66.5718 221.3 66.5718C220.878 66.5718 220.502 66.6614 220.171 66.8406C219.844 67.0159 219.586 67.2608 219.394 67.5754C219.203 67.8861 219.108 68.2405 219.108 68.6388V74.2424H217.321ZM227.404 74.4276C226.5 74.4276 225.721 74.2345 225.068 73.8481C224.419 73.4578 223.917 72.9102 223.563 72.2053C223.212 71.4964 223.037 70.666 223.037 69.7141C223.037 68.7742 223.212 67.9458 223.563 67.2289C223.917 66.5121 224.411 65.9525 225.044 65.5502C225.682 65.148 226.426 64.9469 227.279 64.9469C227.796 64.9469 228.298 65.0325 228.784 65.2038C229.27 65.375 229.706 65.6438 230.092 66.0102C230.479 66.3767 230.783 66.8526 231.006 67.438C231.229 68.0195 231.341 68.7264 231.341 69.5588V70.1921H224.047V68.8539H229.591C229.591 68.3839 229.495 67.9677 229.304 67.6053C229.113 67.2389 228.844 66.9502 228.497 66.7391C228.155 66.528 227.753 66.4225 227.291 66.4225C226.789 66.4225 226.351 66.5459 225.976 66.7928C225.606 67.0358 225.319 67.3544 225.116 67.7487C224.917 68.139 224.817 68.5631 224.817 69.0211V70.0666C224.817 70.6799 224.925 71.2017 225.14 71.6318C225.359 72.0619 225.664 72.3905 226.054 72.6175C226.444 72.8405 226.9 72.952 227.422 72.952C227.761 72.952 228.069 72.9043 228.348 72.8087C228.627 72.7091 228.868 72.5617 229.071 72.3666C229.274 72.1714 229.429 71.9305 229.537 71.6437L231.227 71.9484C231.092 72.4462 230.849 72.8823 230.499 73.2567C230.152 73.6271 229.716 73.9159 229.19 74.123C228.669 74.3261 228.073 74.4276 227.404 74.4276ZM240.199 67.3066L238.58 67.5934C238.512 67.3863 238.405 67.1891 238.257 67.0019C238.114 66.8147 237.919 66.6614 237.672 66.5419C237.425 66.4225 237.116 66.3627 236.746 66.3627C236.24 66.3627 235.818 66.4762 235.479 66.7032C235.141 66.9263 234.972 67.215 234.972 67.5695C234.972 67.8761 235.085 68.1231 235.312 68.3102C235.539 68.4974 235.906 68.6508 236.411 68.7702L237.869 69.1048C238.713 69.2999 239.343 69.6006 239.757 70.0069C240.171 70.4131 240.378 70.9408 240.378 71.59C240.378 72.1396 240.219 72.6294 239.9 73.0596C239.586 73.4857 239.145 73.8203 238.58 74.0632C238.018 74.3062 237.367 74.4276 236.626 74.4276C235.599 74.4276 234.761 74.2086 234.111 73.7705C233.462 73.3284 233.064 72.7011 232.917 71.8887L234.643 71.6258C234.751 72.0759 234.972 72.4164 235.306 72.6474C235.641 72.8744 236.077 72.9879 236.614 72.9879C237.2 72.9879 237.668 72.8664 238.018 72.6235C238.369 72.3765 238.544 72.0759 238.544 71.7214C238.544 71.4346 238.437 71.1937 238.222 70.9985C238.01 70.8034 237.686 70.656 237.248 70.5565L235.694 70.2159C234.838 70.0208 234.205 69.7102 233.795 69.284C233.389 68.8579 233.185 68.3182 233.185 67.665C233.185 67.1234 233.337 66.6495 233.639 66.2432C233.942 65.837 234.36 65.5204 234.894 65.2934C235.428 65.0624 236.039 64.9469 236.728 64.9469C237.72 64.9469 238.5 65.1619 239.07 65.5921C239.639 66.0182 240.016 66.5897 240.199 67.3066Z" fill="#C7C7C7"/>
<path d="M59.1802 74.501H48.9023C39.8266 74.501 32.4718 67.1557 32.4718 58.0918V52.6769C32.5189 51.4527 33.5326 50.4875 34.7819 50.5346C35.9606 50.5816 36.9035 51.5234 36.9271 52.6769V58.0918C36.9271 64.6837 42.3018 70.0515 48.9023 70.0515H59.1802C65.8043 70.0515 71.1554 64.7073 71.1554 58.0918C71.1554 51.4763 65.8043 46.1321 59.1802 46.1321H40.4631C36.0313 46.1321 32.4458 42.5536 32.4458 38.1276V33.0659C32.401 31.8416 33.3675 30.8058 34.5933 30.7563C35.8192 30.7069 36.8564 31.6745 36.9035 32.8987V38.1017C36.9035 40.0557 38.4829 41.6331 40.4631 41.6566H59.1566C68.2323 41.5389 75.6814 48.8136 75.7757 57.8775C75.87 66.9415 68.6095 74.381 59.5338 74.4751H59.133L59.1802 74.4987V74.501Z" fill="#827EFF"/>
<path d="M54.3948 61.8586C53.004 61.8586 51.6132 61.6702 50.2695 61.3171C48.0772 60.7521 46.0263 59.7397 44.2583 58.3272C43.3154 57.5267 43.2211 56.1142 44.0226 55.196C44.8241 54.2543 46.2385 54.1601 47.1578 54.9606C47.4407 55.196 53.8291 60.446 62.1504 54.7958C63.164 54.113 64.5549 54.372 65.2385 55.3843C65.9221 56.3967 65.6628 57.7857 64.6492 58.4684C60.8539 61.0346 57.3179 61.835 54.3948 61.835V61.8586Z" fill="#827EFF"/>
</svg>
