<svg width="355" height="107" viewBox="0 0 355 107" fill="none" xmlns="http://www.w3.org/2000/svg">
<path d="M85.3725 49.6151V35.6325H90.971C91.9997 35.6325 92.8577 35.785 93.545 36.09C94.2323 36.3949 94.7489 36.8182 95.0948 37.3599C95.4407 37.897 95.6137 38.516 95.6137 39.2169C95.6137 39.7631 95.5044 40.2433 95.286 40.6575C95.0675 41.0672 94.7671 41.404 94.3847 41.668C94.0069 41.9274 93.5745 42.1118 93.0875 42.221V42.3575C93.6201 42.3803 94.1185 42.5305 94.5827 42.8082C95.0515 43.0858 95.4316 43.475 95.7229 43.9756C96.0142 44.4718 96.1599 45.0635 96.1599 45.7508C96.1599 46.4927 95.9755 47.155 95.6068 47.7376C95.2427 48.3156 94.7033 48.7731 93.9887 49.1099C93.2741 49.4467 92.3934 49.6151 91.3465 49.6151H85.3725ZM88.3288 47.1982H90.7389C91.5627 47.1982 92.1635 47.0412 92.5413 46.7271C92.9191 46.4085 93.108 45.9852 93.108 45.4572C93.108 45.0703 93.0147 44.7289 92.8281 44.4331C92.6415 44.1372 92.3752 43.9051 92.0293 43.7367C91.6879 43.5683 91.2805 43.4841 90.8072 43.4841H88.3288V47.1982ZM88.3288 41.4836H90.5204C90.9255 41.4836 91.2851 41.4131 91.5991 41.272C91.9177 41.1263 92.1681 40.9215 92.3502 40.6575C92.5368 40.3935 92.6301 40.0772 92.6301 39.7085C92.6301 39.2033 92.4503 38.7959 92.0907 38.4864C91.7357 38.1769 91.2305 38.0221 90.575 38.0221H88.3288V41.4836ZM110.74 42.6238C110.74 44.1486 110.451 45.4458 109.873 46.5155C109.3 47.5851 108.517 48.4021 107.525 48.9665C106.537 49.5264 105.426 49.8063 104.193 49.8063C102.95 49.8063 101.835 49.5241 100.848 48.9597C99.8598 48.3953 99.0792 47.5783 98.5057 46.5086C97.9322 45.439 97.6454 44.1441 97.6454 42.6238C97.6454 41.099 97.9322 39.8018 98.5057 38.7322C99.0792 37.6625 99.8598 36.8478 100.848 36.288C101.835 35.7235 102.95 35.4413 104.193 35.4413C105.426 35.4413 106.537 35.7235 107.525 36.288C108.517 36.8478 109.3 37.6625 109.873 38.7322C110.451 39.8018 110.74 41.099 110.74 42.6238ZM107.743 42.6238C107.743 41.6361 107.595 40.8032 107.299 40.125C107.008 39.4468 106.596 38.9324 106.064 38.582C105.531 38.2315 104.908 38.0563 104.193 38.0563C103.478 38.0563 102.855 38.2315 102.322 38.582C101.79 38.9324 101.376 39.4468 101.08 40.125C100.788 40.8032 100.643 41.6361 100.643 42.6238C100.643 43.6115 100.788 44.4445 101.08 45.1227C101.376 45.8008 101.79 46.3152 102.322 46.6657C102.855 47.0161 103.478 47.1914 104.193 47.1914C104.908 47.1914 105.531 47.0161 106.064 46.6657C106.596 46.3152 107.008 45.8008 107.299 45.1227C107.595 44.4445 107.743 43.6115 107.743 42.6238ZM111.567 38.0699V35.6325H123.051V38.0699H118.77V49.6151H115.848V38.0699H111.567ZM127.706 35.6325V49.6151H124.75V35.6325H127.706ZM146.541 40.5278H143.55C143.496 40.1409 143.384 39.7973 143.216 39.4968C143.048 39.1919 142.831 38.9324 142.567 38.7185C142.303 38.5046 141.998 38.3407 141.652 38.2269C141.311 38.1132 140.94 38.0563 140.54 38.0563C139.816 38.0563 139.185 38.236 138.648 38.5956C138.111 38.9507 137.695 39.4695 137.399 40.1523C137.103 40.8305 136.955 41.6543 136.955 42.6238C136.955 43.6206 137.103 44.4581 137.399 45.1363C137.699 45.8145 138.118 46.3266 138.655 46.6725C139.192 47.0184 139.814 47.1914 140.519 47.1914C140.915 47.1914 141.282 47.139 141.618 47.0343C141.96 46.9297 142.262 46.7772 142.526 46.5769C142.79 46.3721 143.009 46.124 143.182 45.8327C143.359 45.5414 143.482 45.2091 143.55 44.8359L146.541 44.8496C146.464 45.4913 146.27 46.1104 145.961 46.7066C145.656 47.2983 145.244 47.8286 144.725 48.2974C144.21 48.7617 143.596 49.1304 142.881 49.4035C142.171 49.672 141.368 49.8063 140.471 49.8063C139.224 49.8063 138.109 49.5241 137.126 48.9597C136.147 48.3953 135.373 47.5783 134.805 46.5086C134.24 45.439 133.958 44.1441 133.958 42.6238C133.958 41.099 134.245 39.8018 134.818 38.7322C135.392 37.6625 136.17 36.8478 137.153 36.288C138.136 35.7235 139.242 35.4413 140.471 35.4413C141.282 35.4413 142.033 35.5551 142.724 35.7827C143.421 36.0103 144.038 36.3426 144.575 36.7795C145.112 37.2119 145.549 37.7422 145.885 38.3703C146.227 38.9984 146.445 39.7176 146.541 40.5278ZM151.322 35.6325V49.6151H148.414V35.6325H151.322ZM156.45 49.8131C155.781 49.8131 155.185 49.697 154.662 49.4649C154.138 49.2282 153.724 48.88 153.419 48.4203C153.119 47.956 152.968 47.378 152.968 46.6861C152.968 46.1035 153.075 45.6142 153.289 45.2182C153.503 44.8223 153.795 44.5036 154.163 44.2624C154.532 44.0212 154.951 43.8391 155.42 43.7162C155.893 43.5933 156.389 43.5068 156.908 43.4568C157.518 43.393 158.009 43.3339 158.383 43.2792C158.756 43.2201 159.027 43.1336 159.195 43.0198C159.363 42.906 159.448 42.7376 159.448 42.5146V42.4736C159.448 42.0412 159.311 41.7067 159.038 41.47C158.77 41.2333 158.387 41.115 157.891 41.115C157.368 41.115 156.951 41.231 156.642 41.4631C156.332 41.6907 156.127 41.9775 156.027 42.3234L153.337 42.1049C153.474 41.4677 153.742 40.917 154.143 40.4527C154.543 39.9839 155.06 39.6243 155.693 39.374C156.33 39.1191 157.067 38.9916 157.905 38.9916C158.487 38.9916 159.045 39.0599 159.577 39.1964C160.115 39.333 160.59 39.5446 161.004 39.8314C161.423 40.1181 161.753 40.4868 161.994 40.9374C162.236 41.3835 162.356 41.9183 162.356 42.5419V49.6151H159.598V48.1609H159.516C159.348 48.4886 159.122 48.7776 158.84 49.028C158.558 49.2737 158.219 49.4672 157.823 49.6083C157.427 49.7448 156.969 49.8131 156.45 49.8131ZM157.283 47.8058C157.711 47.8058 158.089 47.7216 158.417 47.5532C158.744 47.3803 159.002 47.1481 159.188 46.8568C159.375 46.5655 159.468 46.2355 159.468 45.8668V44.754C159.377 44.8131 159.252 44.8678 159.093 44.9178C158.938 44.9634 158.763 45.0066 158.567 45.0476C158.371 45.084 158.176 45.1181 157.98 45.15C157.784 45.1773 157.607 45.2023 157.447 45.2251C157.106 45.2751 156.808 45.3548 156.553 45.464C156.298 45.5733 156.1 45.7212 155.959 45.9078C155.818 46.0899 155.747 46.3175 155.747 46.5906C155.747 46.9865 155.891 47.2892 156.177 47.4986C156.469 47.7034 156.837 47.8058 157.283 47.8058ZM173.146 42.1186L170.483 42.2824C170.438 42.0549 170.34 41.85 170.19 41.668C170.039 41.4814 169.841 41.3334 169.596 41.2242C169.354 41.1104 169.065 41.0535 168.729 41.0535C168.278 41.0535 167.898 41.1491 167.588 41.3403C167.279 41.5269 167.124 41.7772 167.124 42.0913C167.124 42.3416 167.224 42.5533 167.424 42.7262C167.625 42.8992 167.968 43.038 168.455 43.1427L170.353 43.525C171.373 43.7344 172.133 44.0712 172.634 44.5355C173.134 44.9998 173.385 45.6097 173.385 46.3653C173.385 47.0525 173.182 47.6556 172.777 48.1745C172.377 48.6934 171.826 49.0985 171.125 49.3898C170.429 49.6766 169.625 49.8199 168.715 49.8199C167.327 49.8199 166.221 49.5309 165.397 48.9529C164.577 48.3702 164.097 47.5783 163.956 46.5769L166.817 46.4267C166.903 46.85 167.113 47.1732 167.445 47.3962C167.777 47.6147 168.203 47.7239 168.722 47.7239C169.231 47.7239 169.641 47.6261 169.951 47.4303C170.265 47.2301 170.424 46.9729 170.429 46.6588C170.424 46.3948 170.312 46.1786 170.094 46.0102C169.876 45.8373 169.539 45.7053 169.084 45.6142L167.267 45.2524C166.243 45.0476 165.481 44.6925 164.98 44.1873C164.484 43.6821 164.236 43.038 164.236 42.2551C164.236 41.5815 164.418 41.0012 164.782 40.5141C165.151 40.0271 165.668 39.6516 166.332 39.3876C167.001 39.1236 167.784 38.9916 168.681 38.9916C170.005 38.9916 171.048 39.2715 171.808 39.8314C172.572 40.3912 173.018 41.1536 173.146 42.1186ZM183.749 42.1186L181.087 42.2824C181.041 42.0549 180.943 41.85 180.793 41.668C180.643 41.4814 180.445 41.3334 180.199 41.2242C179.958 41.1104 179.669 41.0535 179.332 41.0535C178.882 41.0535 178.501 41.1491 178.192 41.3403C177.882 41.5269 177.728 41.7772 177.728 42.0913C177.728 42.3416 177.828 42.5533 178.028 42.7262C178.228 42.8992 178.572 43.038 179.059 43.1427L180.957 43.525C181.977 43.7344 182.737 44.0712 183.237 44.5355C183.738 44.9998 183.988 45.6097 183.988 46.3653C183.988 47.0525 183.786 47.6556 183.381 48.1745C182.98 48.6934 182.43 49.0985 181.729 49.3898C181.032 49.6766 180.229 49.8199 179.318 49.8199C177.93 49.8199 176.824 49.5309 176 48.9529C175.181 48.3702 174.701 47.5783 174.56 46.5769L177.42 46.4267C177.507 46.85 177.716 47.1732 178.049 47.3962C178.381 47.6147 178.806 47.7239 179.325 47.7239C179.835 47.7239 180.245 47.6261 180.554 47.4303C180.868 47.2301 181.028 46.9729 181.032 46.6588C181.028 46.3948 180.916 46.1786 180.698 46.0102C180.479 45.8373 180.142 45.7053 179.687 45.6142L177.871 45.2524C176.847 45.0476 176.085 44.6925 175.584 44.1873C175.088 43.6821 174.84 43.038 174.84 42.2551C174.84 41.5815 175.022 41.0012 175.386 40.5141C175.755 40.0271 176.271 39.6516 176.936 39.3876C177.605 39.1236 178.388 38.9916 179.284 38.9916C180.609 38.9916 181.651 39.2715 182.411 39.8314C183.176 40.3912 183.622 41.1536 183.749 42.1186ZM185.628 49.6151V39.1282H188.447V40.9579H188.557C188.748 40.307 189.069 39.8155 189.519 39.4832C189.97 39.1464 190.489 38.978 191.076 38.978C191.222 38.978 191.379 38.9871 191.547 39.0053C191.715 39.0235 191.863 39.0485 191.991 39.0804V41.6611C191.854 41.6202 191.665 41.5838 191.424 41.5519C191.183 41.52 190.962 41.5041 190.762 41.5041C190.334 41.5041 189.952 41.5974 189.615 41.784C189.283 41.9661 189.019 42.221 188.823 42.5487C188.632 42.8764 188.536 43.2542 188.536 43.6821V49.6151H185.628ZM197.552 49.8199C196.492 49.8199 195.575 49.5946 194.801 49.144C194.032 48.6889 193.438 48.0562 193.019 47.246C192.6 46.4312 192.391 45.4868 192.391 44.4126C192.391 43.3293 192.6 42.3826 193.019 41.5724C193.438 40.7576 194.032 40.125 194.801 39.6744C195.575 39.2192 196.492 38.9916 197.552 38.9916C198.613 38.9916 199.528 39.2192 200.297 39.6744C201.071 40.125 201.667 40.7576 202.086 41.5724C202.505 42.3826 202.714 43.3293 202.714 44.4126C202.714 45.4868 202.505 46.4312 202.086 47.246C201.667 48.0562 201.071 48.6889 200.297 49.144C199.528 49.5946 198.613 49.8199 197.552 49.8199ZM197.566 47.5669C198.049 47.5669 198.451 47.4303 198.774 47.1572C199.098 46.8796 199.341 46.5018 199.505 46.0239C199.673 45.546 199.758 45.002 199.758 44.3921C199.758 43.7822 199.673 43.2383 199.505 42.7604C199.341 42.2824 199.098 41.9047 198.774 41.627C198.451 41.3494 198.049 41.2105 197.566 41.2105C197.079 41.2105 196.669 41.3494 196.337 41.627C196.009 41.9047 195.761 42.2824 195.593 42.7604C195.429 43.2383 195.347 43.7822 195.347 44.3921C195.347 45.002 195.429 45.546 195.593 46.0239C195.761 46.5018 196.009 46.8796 196.337 47.1572C196.669 47.4303 197.079 47.5669 197.566 47.5669ZM209.151 49.8199C208.091 49.8199 207.173 49.5946 206.4 49.144C205.63 48.6889 205.036 48.0562 204.618 47.246C204.199 46.4312 203.99 45.4868 203.99 44.4126C203.99 43.3293 204.199 42.3826 204.618 41.5724C205.036 40.7576 205.63 40.125 206.4 39.6744C207.173 39.2192 208.091 38.9916 209.151 38.9916C210.212 38.9916 211.127 39.2192 211.896 39.6744C212.67 40.125 213.266 40.7576 213.685 41.5724C214.103 42.3826 214.313 43.3293 214.313 44.4126C214.313 45.4868 214.103 46.4312 213.685 47.246C213.266 48.0562 212.67 48.6889 211.896 49.144C211.127 49.5946 210.212 49.8199 209.151 49.8199ZM209.165 47.5669C209.647 47.5669 210.05 47.4303 210.373 47.1572C210.696 46.8796 210.94 46.5018 211.104 46.0239C211.272 45.546 211.356 45.002 211.356 44.3921C211.356 43.7822 211.272 43.2383 211.104 42.7604C210.94 42.2824 210.696 41.9047 210.373 41.627C210.05 41.3494 209.647 41.2105 209.165 41.2105C208.678 41.2105 208.268 41.3494 207.936 41.627C207.608 41.9047 207.36 42.2824 207.192 42.7604C207.028 43.2383 206.946 43.7822 206.946 44.3921C206.946 45.002 207.028 45.546 207.192 46.0239C207.36 46.5018 207.608 46.8796 207.936 47.1572C208.268 47.4303 208.678 47.5669 209.165 47.5669ZM216.012 49.6151V39.1282H218.784V40.9784H218.906C219.125 40.3639 219.489 39.8792 219.999 39.5242C220.509 39.1691 221.119 38.9916 221.829 38.9916C222.548 38.9916 223.16 39.1714 223.665 39.531C224.17 39.886 224.507 40.3685 224.676 40.9784H224.785C224.999 40.3776 225.386 39.8974 225.946 39.5378C226.51 39.1737 227.177 38.9916 227.946 38.9916C228.925 38.9916 229.719 39.3034 230.329 39.927C230.943 40.546 231.25 41.4245 231.25 42.5624V49.6151H228.349V43.1359C228.349 42.5533 228.194 42.1163 227.885 41.825C227.575 41.5337 227.188 41.388 226.724 41.388C226.196 41.388 225.784 41.5565 225.488 41.8933C225.192 42.2255 225.044 42.6648 225.044 43.211V49.6151H222.225V43.0744C222.225 42.5601 222.077 42.1504 221.781 41.8455C221.489 41.5405 221.105 41.388 220.627 41.388C220.304 41.388 220.012 41.47 219.753 41.6338C219.498 41.7931 219.296 42.0184 219.145 42.3098C218.995 42.5965 218.92 42.9333 218.92 43.3202V49.6151H216.012Z" fill="#231759"/>
<path d="M85.5014 74.6151V62.3803H93.172V63.9694H87.3473V67.6972H92.7717V69.2803H87.3473V73.026H93.2437V74.6151H85.5014ZM88.5959 61.1557L89.9938 58.4017H91.8756L90.0237 61.1557H88.5959ZM99.3596 74.8003C98.4714 74.8003 97.7068 74.5992 97.0656 74.1969C96.4283 73.7907 95.9385 73.2311 95.596 72.5182C95.2534 71.8053 95.0822 70.9889 95.0822 70.0689C95.0822 69.1369 95.2574 68.3145 95.6079 67.6016C95.9584 66.8847 96.4522 66.3252 97.0895 65.9229C97.7267 65.5207 98.4774 65.3196 99.3417 65.3196C100.039 65.3196 100.66 65.449 101.206 65.7079C101.751 65.9628 102.191 66.3212 102.526 66.7832C102.864 67.2452 103.065 67.7848 103.129 68.4021H101.391C101.295 67.972 101.076 67.6016 100.734 67.291C100.395 66.9803 99.9411 66.825 99.3715 66.825C98.8737 66.825 98.4376 66.9564 98.0632 67.2193C97.6928 67.4782 97.4041 67.8486 97.197 68.3305C96.9899 68.8084 96.8863 69.3739 96.8863 70.0271C96.8863 70.6962 96.9879 71.2736 97.191 71.7595C97.3941 72.2454 97.6809 72.6218 98.0513 72.8886C98.4256 73.1555 98.8657 73.2889 99.3715 73.2889C99.7101 73.2889 100.017 73.2272 100.292 73.1037C100.57 72.9762 100.803 72.795 100.99 72.5601C101.182 72.3251 101.315 72.0423 101.391 71.7117H103.129C103.065 72.3052 102.872 72.8349 102.55 73.3008C102.227 73.7668 101.795 74.1332 101.253 74.4C100.716 74.6669 100.084 74.8003 99.3596 74.8003ZM108.905 74.8003C108.044 74.8003 107.294 74.6032 106.652 74.2089C106.011 73.8146 105.513 73.263 105.159 72.5541C104.804 71.8452 104.627 71.0168 104.627 70.0689C104.627 69.117 104.804 68.2847 105.159 67.5718C105.513 66.8589 106.011 66.3053 106.652 65.911C107.294 65.5167 108.044 65.3196 108.905 65.3196C109.765 65.3196 110.516 65.5167 111.157 65.911C111.798 66.3053 112.296 66.8589 112.65 67.5718C113.005 68.2847 113.182 69.117 113.182 70.0689C113.182 71.0168 113.005 71.8452 112.65 72.5541C112.296 73.263 111.798 73.8146 111.157 74.2089C110.516 74.6032 109.765 74.8003 108.905 74.8003ZM108.911 73.3008C109.468 73.3008 109.93 73.1535 110.297 72.8588C110.663 72.564 110.934 72.1717 111.109 71.6819C111.288 71.192 111.378 70.6524 111.378 70.0629C111.378 69.4775 111.288 68.9398 111.109 68.4499C110.934 67.9561 110.663 67.5598 110.297 67.2611C109.93 66.9624 109.468 66.8131 108.911 66.8131C108.349 66.8131 107.883 66.9624 107.513 67.2611C107.146 67.5598 106.873 67.9561 106.694 68.4499C106.519 68.9398 106.431 69.4775 106.431 70.0629C106.431 70.6524 106.519 71.192 106.694 71.6819C106.873 72.1717 107.146 72.564 107.513 72.8588C107.883 73.1535 108.349 73.3008 108.911 73.3008ZM116.962 62.3803V74.6151H115.176V62.3803H116.962ZM123.32 74.8003C122.416 74.8003 121.637 74.6071 120.984 74.2208C120.335 73.8305 119.833 73.2829 119.479 72.578C119.128 71.8691 118.953 71.0387 118.953 70.0868C118.953 69.1469 119.128 68.3185 119.479 67.6016C119.833 66.8847 120.327 66.3252 120.96 65.9229C121.597 65.5207 122.342 65.3196 123.194 65.3196C123.712 65.3196 124.214 65.4052 124.7 65.5764C125.186 65.7477 125.622 66.0165 126.008 66.3829C126.394 66.7493 126.699 67.2253 126.922 67.8107C127.145 68.3922 127.257 69.0991 127.257 69.9315V70.5647H119.962V69.2266H125.506C125.506 68.7566 125.411 68.3404 125.22 67.978C125.028 67.6116 124.76 67.3228 124.413 67.1118C124.071 66.9007 123.668 66.7951 123.206 66.7951C122.705 66.7951 122.266 66.9186 121.892 67.1655C121.522 67.4085 121.235 67.7271 121.032 68.1214C120.833 68.5117 120.733 68.9358 120.733 69.3938V70.4393C120.733 71.0526 120.841 71.5743 121.056 72.0045C121.275 72.4346 121.579 72.7632 121.97 72.9902C122.36 73.2132 122.816 73.3247 123.338 73.3247C123.676 73.3247 123.985 73.2769 124.264 73.1814C124.543 73.0818 124.783 72.9344 124.987 72.7393C125.19 72.5441 125.345 72.3032 125.453 72.0164L127.143 72.3211C127.008 72.8189 126.765 73.255 126.414 73.6294C126.068 73.9998 125.632 74.2885 125.106 74.4956C124.584 74.6987 123.989 74.8003 123.32 74.8003ZM136.115 67.6793L134.496 67.966C134.428 67.7589 134.32 67.5618 134.173 67.3746C134.03 67.1874 133.835 67.0341 133.588 66.9146C133.341 66.7951 133.032 66.7354 132.662 66.7354C132.156 66.7354 131.734 66.8489 131.395 67.0759C131.057 67.2989 130.887 67.5877 130.887 67.9421C130.887 68.2488 131.001 68.4957 131.228 68.6829C131.455 68.8701 131.821 69.0234 132.327 69.1429L133.785 69.4775C134.629 69.6726 135.258 69.9733 135.673 70.3795C136.087 70.7858 136.294 71.3135 136.294 71.9627C136.294 72.5123 136.135 73.0021 135.816 73.4323C135.501 73.8584 135.061 74.1929 134.496 74.4359C133.934 74.6788 133.283 74.8003 132.542 74.8003C131.515 74.8003 130.676 74.5813 130.027 74.1432C129.378 73.7011 128.98 73.0738 128.832 72.2614L130.559 71.9985C130.666 72.4485 130.887 72.7891 131.222 73.0201C131.557 73.2471 131.993 73.3606 132.53 73.3606C133.116 73.3606 133.584 73.2391 133.934 72.9962C134.285 72.7492 134.46 72.4485 134.46 72.0941C134.46 71.8073 134.352 71.5664 134.137 71.3712C133.926 71.1761 133.602 71.0287 133.164 70.9291L131.61 70.5886C130.754 70.3935 130.121 70.0828 129.711 69.6567C129.304 69.2305 129.101 68.6909 129.101 68.0377C129.101 67.4961 129.253 67.0221 129.555 66.6159C129.858 66.2097 130.276 65.8931 130.81 65.666C131.343 65.4351 131.955 65.3196 132.644 65.3196C133.635 65.3196 134.416 65.5346 134.986 65.9647C135.555 66.3909 135.931 66.9624 136.115 67.6793ZM146.665 74.8003C145.761 74.8003 144.982 74.6071 144.329 74.2208C143.68 73.8305 143.178 73.2829 142.823 72.578C142.473 71.8691 142.298 71.0387 142.298 70.0868C142.298 69.1469 142.473 68.3185 142.823 67.6016C143.178 66.8847 143.672 66.3252 144.305 65.9229C144.942 65.5207 145.687 65.3196 146.539 65.3196C147.057 65.3196 147.559 65.4052 148.045 65.5764C148.531 65.7477 148.967 66.0165 149.353 66.3829C149.739 66.7493 150.044 67.2253 150.267 67.8107C150.49 68.3922 150.602 69.0991 150.602 69.9315V70.5647H143.307V69.2266H148.851C148.851 68.7566 148.756 68.3404 148.565 67.978C148.373 67.6116 148.105 67.3228 147.758 67.1118C147.416 66.9007 147.013 66.7951 146.551 66.7951C146.049 66.7951 145.611 66.9186 145.237 67.1655C144.867 67.4085 144.58 67.7271 144.377 68.1214C144.178 68.5117 144.078 68.9358 144.078 69.3938V70.4393C144.078 71.0526 144.186 71.5743 144.401 72.0045C144.62 72.4346 144.924 72.7632 145.315 72.9902C145.705 73.2132 146.161 73.3247 146.683 73.3247C147.021 73.3247 147.33 73.2769 147.609 73.1814C147.887 73.0818 148.128 72.9344 148.332 72.7393C148.535 72.5441 148.69 72.3032 148.797 72.0164L150.488 72.3211C150.353 72.8189 150.11 73.255 149.759 73.6294C149.413 73.9998 148.977 74.2885 148.451 74.4956C147.929 74.6987 147.334 74.8003 146.665 74.8003ZM145.733 64.2144L147.131 61.4603H149.013L147.161 64.2144H145.733ZM154.37 62.3803V74.6151H152.584V62.3803H154.37ZM160.728 74.8003C159.824 74.8003 159.045 74.6071 158.392 74.2208C157.743 73.8305 157.241 73.2829 156.886 72.578C156.536 71.8691 156.361 71.0387 156.361 70.0868C156.361 69.1469 156.536 68.3185 156.886 67.6016C157.241 66.8847 157.735 66.3252 158.368 65.9229C159.005 65.5207 159.75 65.3196 160.602 65.3196C161.12 65.3196 161.622 65.4052 162.108 65.5764C162.593 65.7477 163.03 66.0165 163.416 66.3829C163.802 66.7493 164.107 67.2253 164.33 67.8107C164.553 68.3922 164.664 69.0991 164.664 69.9315V70.5647H157.37V69.2266H162.914C162.914 68.7566 162.818 68.3404 162.627 67.978C162.436 67.6116 162.167 67.3228 161.821 67.1118C161.478 66.9007 161.076 66.7951 160.614 66.7951C160.112 66.7951 159.674 66.9186 159.3 67.1655C158.929 67.4085 158.643 67.7271 158.44 68.1214C158.24 68.5117 158.141 68.9358 158.141 69.3938V70.4393C158.141 71.0526 158.248 71.5743 158.463 72.0045C158.682 72.4346 158.987 72.7632 159.377 72.9902C159.768 73.2132 160.224 73.3247 160.746 73.3247C161.084 73.3247 161.393 73.2769 161.671 73.1814C161.95 73.0818 162.191 72.9344 162.394 72.7393C162.597 72.5441 162.753 72.3032 162.86 72.0164L164.551 72.3211C164.416 72.8189 164.173 73.255 163.822 73.6294C163.476 73.9998 163.04 74.2885 162.514 74.4956C161.992 74.6987 161.397 74.8003 160.728 74.8003ZM159.796 64.2144L161.194 61.4603H163.075L161.223 64.2144H159.796ZM166.646 74.6151V65.439H168.361V66.9325H168.474C168.666 66.4267 168.978 66.0325 169.412 65.7497C169.846 65.4629 170.366 65.3196 170.972 65.3196C171.585 65.3196 172.099 65.4629 172.513 65.7497C172.931 66.0364 173.24 66.4307 173.439 66.9325H173.534C173.753 66.4427 174.102 66.0524 174.58 65.7616C175.058 65.4669 175.627 65.3196 176.288 65.3196C177.121 65.3196 177.8 65.5804 178.326 66.1021C178.855 66.6239 179.12 67.4105 179.12 68.4619V74.6151H177.334V68.6292C177.334 68.0079 177.165 67.5578 176.826 67.279C176.488 67.0002 176.083 66.8608 175.613 66.8608C175.032 66.8608 174.58 67.0401 174.257 67.3985C173.935 67.753 173.773 68.209 173.773 68.7666V74.6151H171.993V68.5156C171.993 68.0178 171.838 67.6176 171.527 67.3149C171.216 67.0122 170.812 66.8608 170.314 66.8608C169.976 66.8608 169.663 66.9505 169.376 67.1297C169.094 67.3049 168.865 67.5499 168.689 67.8645C168.518 68.1791 168.433 68.5435 168.433 68.9577V74.6151H166.646ZM185.469 74.8003C184.565 74.8003 183.786 74.6071 183.133 74.2208C182.484 73.8305 181.982 73.2829 181.628 72.578C181.277 71.8691 181.102 71.0387 181.102 70.0868C181.102 69.1469 181.277 68.3185 181.628 67.6016C181.982 66.8847 182.476 66.3252 183.109 65.9229C183.746 65.5207 184.491 65.3196 185.344 65.3196C185.861 65.3196 186.363 65.4052 186.849 65.5764C187.335 65.7477 187.771 66.0165 188.157 66.3829C188.544 66.7493 188.848 67.2253 189.071 67.8107C189.294 68.3922 189.406 69.0991 189.406 69.9315V70.5647H182.112V69.2266H187.655C187.655 68.7566 187.56 68.3404 187.369 67.978C187.178 67.6116 186.909 67.3228 186.562 67.1118C186.22 66.9007 185.817 66.7951 185.355 66.7951C184.854 66.7951 184.416 66.9186 184.041 67.1655C183.671 67.4085 183.384 67.7271 183.181 68.1214C182.982 68.5117 182.882 68.9358 182.882 69.3938V70.4393C182.882 71.0526 182.99 71.5743 183.205 72.0045C183.424 72.4346 183.729 72.7632 184.119 72.9902C184.509 73.2132 184.965 73.3247 185.487 73.3247C185.825 73.3247 186.134 73.2769 186.413 73.1814C186.692 73.0818 186.933 72.9344 187.136 72.7393C187.339 72.5441 187.494 72.3032 187.602 72.0164L189.292 72.3211C189.157 72.8189 188.914 73.255 188.563 73.6294C188.217 73.9998 187.781 74.2885 187.255 74.4956C186.733 74.6987 186.138 74.8003 185.469 74.8003ZM193.174 69.1668V74.6151H191.388V65.439H193.102V66.9325H193.216C193.427 66.4467 193.757 66.0563 194.207 65.7616C194.661 65.4669 195.233 65.3196 195.922 65.3196C196.547 65.3196 197.095 65.451 197.565 65.7138C198.035 65.9727 198.399 66.359 198.658 66.8728C198.917 67.3866 199.046 68.0218 199.046 68.7785V74.6151H197.26V68.9936C197.26 68.3285 197.087 67.8087 196.74 67.4344C196.394 67.056 195.918 66.8668 195.313 66.8668C194.898 66.8668 194.53 66.9564 194.207 67.1357C193.889 67.3149 193.636 67.5777 193.449 67.9242C193.266 68.2667 193.174 68.6809 193.174 69.1668ZM205.725 65.439V66.8728H200.713V65.439H205.725ZM202.057 63.2406H203.844V71.9208C203.844 72.2673 203.895 72.5282 203.999 72.7034C204.102 72.8747 204.236 72.9922 204.399 73.0559C204.566 73.1156 204.748 73.1455 204.943 73.1455C205.086 73.1455 205.212 73.1355 205.319 73.1156C205.427 73.0957 205.51 73.0798 205.57 73.0678L205.893 74.5434C205.789 74.5833 205.642 74.6231 205.451 74.6629C205.259 74.7067 205.02 74.7306 204.734 74.7346C204.264 74.7426 203.826 74.6589 203.419 74.4837C203.013 74.3084 202.685 74.0376 202.434 73.6712C202.183 73.3048 202.057 72.8448 202.057 72.2912V63.2406ZM210.372 74.8182C209.79 74.8182 209.264 74.7107 208.794 74.4956C208.325 74.2766 207.952 73.96 207.677 73.5458C207.407 73.1316 207.271 72.6238 207.271 72.0224C207.271 71.5046 207.371 71.0785 207.57 70.744C207.769 70.4094 208.038 70.1446 208.376 69.9494C208.715 69.7543 209.093 69.6069 209.511 69.5073C209.93 69.4078 210.356 69.3321 210.79 69.2803C211.339 69.2166 211.785 69.1648 212.128 69.125C212.47 69.0812 212.719 69.0115 212.875 68.9159C213.03 68.8203 213.108 68.665 213.108 68.4499V68.4081C213.108 67.8864 212.96 67.4821 212.666 67.1954C212.375 66.9086 211.941 66.7653 211.363 66.7653C210.762 66.7653 210.288 66.8987 209.941 67.1655C209.599 67.4284 209.362 67.7211 209.231 68.0437L207.552 67.6614C207.751 67.1038 208.042 66.6537 208.424 66.3112C208.81 65.9647 209.254 65.7138 209.756 65.5585C210.258 65.3992 210.786 65.3196 211.339 65.3196C211.706 65.3196 212.094 65.3634 212.504 65.451C212.919 65.5346 213.305 65.6899 213.663 65.917C214.026 66.144 214.322 66.4686 214.553 66.8907C214.784 67.3089 214.9 67.8525 214.9 68.5216V74.6151H213.155V73.3606H213.084C212.968 73.5916 212.795 73.8186 212.564 74.0416C212.333 74.2646 212.036 74.4498 211.674 74.5972C211.312 74.7445 210.877 74.8182 210.372 74.8182ZM210.76 73.3845C211.254 73.3845 211.676 73.2869 212.026 73.0917C212.381 72.8966 212.65 72.6417 212.833 72.3271C213.02 72.0085 213.114 71.6679 213.114 71.3055V70.1227C213.05 70.1864 212.926 70.2461 212.743 70.3019C212.564 70.3537 212.359 70.3995 212.128 70.4393C211.897 70.4751 211.672 70.509 211.453 70.5408C211.234 70.5687 211.051 70.5926 210.903 70.6125C210.557 70.6563 210.24 70.73 209.953 70.8336C209.671 70.9371 209.444 71.0865 209.272 71.2816C209.105 71.4728 209.021 71.7277 209.021 72.0463C209.021 72.4884 209.185 72.8229 209.511 73.0499C209.838 73.273 210.254 73.3845 210.76 73.3845ZM217.279 74.6151V65.439H219.065V74.6151H217.279ZM218.181 64.0232C217.87 64.0232 217.604 63.9196 217.381 63.7125C217.162 63.5015 217.052 63.2506 217.052 62.9598C217.052 62.6651 217.162 62.4142 217.381 62.2071C217.604 61.996 217.87 61.8905 218.181 61.8905C218.492 61.8905 218.757 61.996 218.976 62.2071C219.199 62.4142 219.31 62.6651 219.31 62.9598C219.31 63.2506 219.199 63.5015 218.976 63.7125C218.757 63.9196 218.492 64.0232 218.181 64.0232ZM221.468 74.6151V65.439H223.195V66.8967H223.29C223.458 66.4028 223.752 66.0145 224.175 65.7318C224.601 65.445 225.083 65.3016 225.62 65.3016C225.732 65.3016 225.863 65.3056 226.015 65.3136C226.17 65.3215 226.291 65.3315 226.379 65.3435V67.052C226.307 67.0321 226.18 67.0102 225.997 66.9863C225.813 66.9584 225.63 66.9445 225.447 66.9445C225.025 66.9445 224.648 67.0341 224.318 67.2133C223.991 67.3886 223.732 67.6335 223.541 67.9481C223.35 68.2588 223.255 68.6132 223.255 69.0115V74.6151H221.468ZM231.551 74.8003C230.647 74.8003 229.868 74.6071 229.215 74.2208C228.566 73.8305 228.064 73.2829 227.71 72.578C227.359 71.8691 227.184 71.0387 227.184 70.0868C227.184 69.1469 227.359 68.3185 227.71 67.6016C228.064 66.8847 228.558 66.3252 229.191 65.9229C229.828 65.5207 230.573 65.3196 231.426 65.3196C231.943 65.3196 232.445 65.4052 232.931 65.5764C233.417 65.7477 233.853 66.0165 234.239 66.3829C234.626 66.7493 234.93 67.2253 235.153 67.8107C235.376 68.3922 235.488 69.0991 235.488 69.9315V70.5647H228.194V69.2266H233.737C233.737 68.7566 233.642 68.3404 233.451 67.978C233.26 67.6116 232.991 67.3228 232.644 67.1118C232.302 66.9007 231.899 66.7951 231.437 66.7951C230.936 66.7951 230.498 66.9186 230.123 67.1655C229.753 67.4085 229.466 67.7271 229.263 68.1214C229.064 68.5117 228.964 68.9358 228.964 69.3938V70.4393C228.964 71.0526 229.072 71.5743 229.287 72.0045C229.506 72.4346 229.811 72.7632 230.201 72.9902C230.591 73.2132 231.047 73.3247 231.569 73.3247C231.907 73.3247 232.216 73.2769 232.495 73.1814C232.774 73.0818 233.015 72.9344 233.218 72.7393C233.421 72.5441 233.576 72.3032 233.684 72.0164L235.374 72.3211C235.239 72.8189 234.996 73.255 234.646 73.6294C234.299 73.9998 233.863 74.2885 233.337 74.4956C232.815 74.6987 232.22 74.8003 231.551 74.8003ZM244.346 67.6793L242.727 67.966C242.659 67.7589 242.552 67.5618 242.404 67.3746C242.261 67.1874 242.066 67.0341 241.819 66.9146C241.572 66.7951 241.263 66.7354 240.893 66.7354C240.387 66.7354 239.965 66.8489 239.626 67.0759C239.288 67.2989 239.119 67.5877 239.119 67.9421C239.119 68.2488 239.232 68.4957 239.459 68.6829C239.686 68.8701 240.052 69.0234 240.558 69.1429L242.016 69.4775C242.86 69.6726 243.49 69.9733 243.904 70.3795C244.318 70.7858 244.525 71.3135 244.525 71.9627C244.525 72.5123 244.366 73.0021 244.047 73.4323C243.732 73.8584 243.292 74.1929 242.727 74.4359C242.165 74.6788 241.514 74.8003 240.773 74.8003C239.746 74.8003 238.907 74.5813 238.258 74.1432C237.609 73.7011 237.211 73.0738 237.063 72.2614L238.79 71.9985C238.898 72.4485 239.119 72.7891 239.453 73.0201C239.788 73.2471 240.224 73.3606 240.761 73.3606C241.347 73.3606 241.815 73.2391 242.165 72.9962C242.516 72.7492 242.691 72.4485 242.691 72.0941C242.691 71.8073 242.583 71.5664 242.368 71.3712C242.157 71.1761 241.833 71.0287 241.395 70.9291L239.841 70.5886C238.985 70.3935 238.352 70.0828 237.942 69.6567C237.535 69.2305 237.332 68.6909 237.332 68.0377C237.332 67.4961 237.484 67.0221 237.786 66.6159C238.089 66.2097 238.507 65.8931 239.041 65.666C239.575 65.4351 240.186 65.3196 240.875 65.3196C241.867 65.3196 242.647 65.5346 243.217 65.9647C243.786 66.3909 244.163 66.9624 244.346 67.6793Z" fill="#C7C7C7"/>
<path d="M25.2344 68.646V38.5857C25.2937 38.4889 25.3723 38.3991 25.4092 38.2947C25.9354 36.7984 27.3852 35.5294 29.3804 35.6668C32.5457 35.8856 35.7203 35.9762 38.8918 36.1167C42.4778 36.2756 46.0645 36.4269 49.6505 36.5881C53.5946 36.7654 57.5388 36.965 61.4837 37.1293C64.6291 37.2606 67.7767 37.345 70.9228 37.4686C72.6792 37.5377 73.9895 38.8459 73.9926 40.6001C74.008 49.3435 74.0065 58.0869 73.9903 66.8296C73.9872 68.5861 72.3364 70.014 70.5576 69.9027C68.6379 69.783 66.7159 69.5795 64.7962 69.5972C59.99 69.6409 55.1792 69.6893 50.38 69.9227C45.288 70.1699 40.2053 70.619 35.121 71.0098C33.7066 71.1188 32.2954 71.3038 30.891 71.508C27.6956 71.9725 26.3252 71.293 25.2359 68.646H25.2344ZM70.4629 41.1728C70.2364 41.126 70.1501 41.0945 70.0631 41.0914C63.2902 40.8512 56.5181 40.6047 49.7444 40.3759C43.4769 40.1641 37.2079 39.9883 30.9411 39.7495C30.1338 39.7188 29.9265 39.9276 29.9281 40.7091C29.9504 49.3635 29.9404 58.0179 29.9435 66.673C29.9435 66.8956 29.9859 67.119 30.0128 67.3846C30.3225 67.3846 30.5598 67.4061 30.7924 67.3816C32.9733 67.1505 35.1487 66.8419 37.335 66.6899C42.0487 66.3628 46.7648 65.9498 51.4847 65.8776C57.4864 65.7855 63.4928 65.9805 69.4969 66.0964C70.2919 66.1118 70.4883 65.9329 70.4845 65.1245C70.4475 57.5373 70.4621 49.9492 70.4621 42.3612C70.4621 41.9582 70.4621 41.5544 70.4621 41.1736L70.4629 41.1728Z" fill="#24C2C6"/>
<path d="M50.8047 60.7509C46.963 60.6227 43.434 59.5978 40.2887 57.3991C39.0615 56.5408 38.7765 55.2611 39.5222 54.1955C40.2818 53.11 41.9596 52.7269 43.0635 53.4408C44.7159 54.5095 46.4391 55.3478 48.395 55.7678C51.555 56.4472 54.5216 55.9205 57.4004 54.62C58.0952 54.306 58.767 53.923 59.4025 53.5015C60.4209 52.8267 62.0663 53.0447 62.7674 54.194C63.4306 55.281 63.0316 56.5685 61.8191 57.3677C58.4688 59.574 54.7943 60.7026 50.8054 60.7509H50.8047Z" fill="#24C2C6"/>
</svg>
