<svg width="140" height="140" viewBox="0 0 140 140" fill="none" xmlns="http://www.w3.org/2000/svg">
<circle cx="69.6369" cy="69.6369" r="69.3503" fill="white" fill-opacity="0.22" stroke="url(#paint0_linear_528_15005)" stroke-width="0.573229"/>
<circle cx="69.6365" cy="69.6369" r="53.7122" fill="url(#paint1_radial_528_15005)" stroke="url(#paint2_linear_528_15005)" stroke-width="0.485274"/>
<ellipse opacity="0.8" cx="75.3167" cy="42.3997" rx="34.9038" ry="20.4439" transform="rotate(12.196 75.3167 42.3997)" fill="url(#paint3_linear_528_15005)"/>
<path d="M34.3926 92.0055V48.0251C34.4794 47.8835 34.5943 47.7521 34.6484 47.5994C35.4182 45.4102 37.5394 43.5536 40.4585 43.7546C45.0896 44.0747 49.7343 44.2073 54.3744 44.4128C59.6209 44.6453 64.8686 44.8666 70.1151 45.1025C75.8857 45.3619 81.6563 45.654 87.428 45.8943C92.0299 46.0864 96.6351 46.21 101.238 46.3908C103.808 46.4919 105.725 48.4058 105.729 50.9724C105.752 63.7646 105.75 76.5569 105.726 89.348C105.722 91.9179 103.306 94.0071 100.704 93.8442C97.8951 93.669 95.0831 93.3713 92.2744 93.3972C85.2426 93.4612 78.2041 93.532 71.1824 93.8734C63.7325 94.2351 56.2961 94.8922 48.8574 95.4639C46.7881 95.6234 44.7233 95.8941 42.6687 96.1929C37.9936 96.8724 35.9885 95.8784 34.3948 92.0055H34.3926ZM100.565 51.8103C100.234 51.7418 100.108 51.6957 99.9802 51.6912C90.071 51.3397 80.1629 50.9791 70.2526 50.6444C61.0827 50.3344 51.9106 50.0772 42.7419 49.7279C41.5607 49.6829 41.2576 49.9884 41.2598 51.1319C41.2925 63.7938 41.2779 76.4558 41.2824 89.1189C41.2824 89.4446 41.3444 89.7715 41.3838 90.1601C41.8369 90.1601 42.184 90.1915 42.5244 90.1556C45.7151 89.8175 48.898 89.366 52.0966 89.1436C58.9932 88.6651 65.8931 88.0608 72.7986 87.9552C81.5797 87.8204 90.3674 88.1057 99.1518 88.2753C100.315 88.2978 100.602 88.0361 100.597 86.8534C100.543 75.7527 100.564 64.6508 100.564 53.549C100.564 52.9593 100.564 52.3685 100.564 51.8114L100.565 51.8103Z" fill="#24C2C6"/>
<path d="M71.8026 80.4547C66.1819 80.2671 61.0188 78.7676 56.417 75.5507C54.6215 74.295 54.2045 72.4226 55.2955 70.8636C56.4068 69.2754 58.8616 68.7149 60.4767 69.7595C62.8942 71.323 65.4155 72.5495 68.2771 73.1639C72.9004 74.158 77.2407 73.3874 81.4526 71.4847C82.4692 71.0253 83.452 70.4648 84.3819 69.8482C85.8718 68.8609 88.2793 69.1799 89.3049 70.8613C90.2753 72.4518 89.6915 74.3354 87.9175 75.5047C83.0158 78.7328 77.6397 80.3839 71.8037 80.4547H71.8026Z" fill="#24C2C6"/>
<defs>
<linearGradient id="paint0_linear_528_15005" x1="69.6369" y1="0" x2="69.6369" y2="139.274" gradientUnits="userSpaceOnUse">
<stop stop-color="white" stop-opacity="0.6"/>
<stop offset="1" stop-color="#8576D7"/>
</linearGradient>
<radialGradient id="paint1_radial_528_15005" cx="0" cy="0" r="1" gradientUnits="userSpaceOnUse" gradientTransform="translate(94.3854 42.4615) rotate(120.42) scale(61.3388)">
<stop stop-color="white"/>
<stop offset="0.490385" stop-color="white"/>
<stop offset="1" stop-color="#C8C6F1"/>
</radialGradient>
<linearGradient id="paint2_linear_528_15005" x1="79.5846" y1="44.8879" x2="47.0712" y2="115.253" gradientUnits="userSpaceOnUse">
<stop stop-color="white" stop-opacity="0.95"/>
<stop offset="0.5" stop-color="#F2F3FF" stop-opacity="0.975"/>
<stop offset="1" stop-color="#B8BDFF"/>
</linearGradient>
<linearGradient id="paint3_linear_528_15005" x1="75.3167" y1="21.9558" x2="73.762" y2="43.9894" gradientUnits="userSpaceOnUse">
<stop stop-color="white"/>
<stop offset="1" stop-color="#ECD2EB" stop-opacity="0"/>
</linearGradient>
</defs>
</svg>
