<svg width="140" height="140" viewBox="0 0 140 140" fill="none" xmlns="http://www.w3.org/2000/svg">
<circle cx="69.6369" cy="69.6369" r="69.3503" fill="white" fill-opacity="0.22" stroke="url(#paint0_linear_528_14977)" stroke-width="0.573229"/>
<circle cx="69.6365" cy="69.6369" r="53.7122" fill="url(#paint1_radial_528_14977)" stroke="url(#paint2_linear_528_14977)" stroke-width="0.485274"/>
<ellipse opacity="0.8" cx="75.3147" cy="42.3996" rx="34.9038" ry="20.4439" transform="rotate(12.196 75.3147 42.3996)" fill="url(#paint3_linear_528_14977)"/>
<path d="M77.94 102.054H62.8504C49.5258 102.054 38.7278 91.2701 38.7278 77.9628V70.013C38.797 68.2156 40.2852 66.7985 42.1195 66.8676C43.8499 66.9367 45.2343 68.3193 45.2689 70.013V77.9628C45.2689 87.6408 53.1598 95.5215 62.8504 95.5215H77.94C87.6652 95.5215 95.5215 87.6754 95.5215 77.9628C95.5215 68.2502 87.6652 60.404 77.94 60.404H50.4603C43.9538 60.404 38.6897 55.1502 38.6897 48.6521V41.2208C38.6239 39.4234 40.0429 37.9026 41.8426 37.83C43.6423 37.7574 45.1651 39.178 45.2343 40.9754V48.6141C45.2343 51.483 47.5531 53.7988 50.4603 53.8333H77.9054C91.2299 53.6605 102.166 64.3409 102.305 77.6482C102.443 90.9556 91.7837 101.878 78.4591 102.016H77.8708L77.94 102.051V102.054Z" fill="#827EFF"/>
<path d="M70.9127 83.493C68.8707 83.493 66.8288 83.2165 64.8561 82.698C61.6374 81.8685 58.6264 80.3822 56.0307 78.3083C54.6463 77.1332 54.5079 75.0593 55.6846 73.7113C56.8613 72.3287 58.9379 72.1904 60.2876 73.3656C60.703 73.7113 70.082 81.4191 82.2991 73.1237C83.7873 72.1213 85.8292 72.5015 86.8329 73.9878C87.8366 75.4741 87.4559 77.5134 85.9677 78.5157C80.3956 82.2833 75.2042 83.4584 70.9127 83.4584V83.493Z" fill="#827EFF"/>
<defs>
<linearGradient id="paint0_linear_528_14977" x1="69.6369" y1="0" x2="69.6369" y2="139.274" gradientUnits="userSpaceOnUse">
<stop stop-color="white" stop-opacity="0.6"/>
<stop offset="1" stop-color="#8576D7"/>
</linearGradient>
<radialGradient id="paint1_radial_528_14977" cx="0" cy="0" r="1" gradientUnits="userSpaceOnUse" gradientTransform="translate(94.3854 42.4616) rotate(120.42) scale(61.3388)">
<stop stop-color="white"/>
<stop offset="0.490385" stop-color="white"/>
<stop offset="1" stop-color="#C8C6F1"/>
</radialGradient>
<linearGradient id="paint2_linear_528_14977" x1="79.5846" y1="44.8879" x2="47.0712" y2="115.253" gradientUnits="userSpaceOnUse">
<stop stop-color="white" stop-opacity="0.95"/>
<stop offset="0.5" stop-color="#F2F3FF" stop-opacity="0.975"/>
<stop offset="1" stop-color="#B8BDFF"/>
</linearGradient>
<linearGradient id="paint3_linear_528_14977" x1="75.3147" y1="21.9557" x2="73.7601" y2="43.9892" gradientUnits="userSpaceOnUse">
<stop stop-color="white"/>
<stop offset="1" stop-color="#ECD2EB" stop-opacity="0"/>
</linearGradient>
</defs>
</svg>
