<svg width="58" height="43" viewBox="0 0 58 43" fill="none" xmlns="http://www.w3.org/2000/svg">
<g opacity="0.5" clip-path="url(#clip0_528_14892)">
<path d="M34.7638 17.8241L30.4302 8.29022H25.7951V24.6259H29.62V15.6008L30.091 15.5066L33.3695 23.0244H36.1392L39.4176 15.5066L39.8887 15.6008L39.9075 24.6448H43.6758V8.29022H39.0785L34.7638 17.8241ZM21.5369 19.1995C20.4253 20.33 18.8426 21.0648 17.5237 21.0648C14.9989 21.0648 13.0959 19.0488 13.0959 16.3733C13.0959 13.6978 14.9989 11.7571 17.5237 11.7571C18.9368 11.7571 20.4818 12.5484 21.5369 13.8297L21.5934 13.905L24.0805 10.9657L24.024 10.9092C22.3848 9.21346 19.86 8.15833 17.4483 8.15833C12.4741 8.15833 8.72461 11.7006 8.72461 16.411C8.72461 21.1214 12.4176 24.7955 17.2976 24.7955C19.6528 24.7955 22.2341 23.6462 24.024 21.8185L24.0805 21.762L21.5934 19.143L21.5369 19.1995ZM46.8036 8.30906V24.6259H51.0618V8.30906H46.8036Z" fill="white"/>
<mask id="mask0_528_14892" style="mask-type:luminance" maskUnits="userSpaceOnUse" x="8" y="8" width="44" height="17">
<path d="M34.7638 17.8241L30.4302 8.29022H25.7951V24.6259H29.62V15.6008L30.091 15.5066L33.3695 23.0244H36.1392L39.4176 15.5066L39.8887 15.6008L39.9075 24.6448H43.6758V8.29022H39.0785L34.7638 17.8241ZM21.5369 19.1995C20.4253 20.33 18.8426 21.0648 17.5237 21.0648C14.9989 21.0648 13.0959 19.0488 13.0959 16.3733C13.0959 13.6978 14.9989 11.7571 17.5237 11.7571C18.9368 11.7571 20.4818 12.5484 21.5369 13.8297L21.5934 13.905L24.0805 10.9657L24.024 10.9092C22.3848 9.21346 19.86 8.15833 17.4483 8.15833C12.4741 8.15833 8.72461 11.7006 8.72461 16.411C8.72461 21.1214 12.4176 24.7955 17.2976 24.7955C19.6528 24.7955 22.2341 23.6462 24.024 21.8185L24.0805 21.762L21.5934 19.143L21.5369 19.1995ZM46.8036 8.30906V24.6259H51.0618V8.30906H46.8036Z" fill="white"/>
</mask>
<g mask="url(#mask0_528_14892)">
<path d="M0 22.9301C0 22.9301 22.3839 11.4933 57.1278 18.6719L52.7377 5.42627L7.02793 6.36835C7.02793 6.36835 2.9393 14.3949 0 22.9301Z" fill="white"/>
</g>
<path d="M25.7949 8.19592V24.5881H29.6009L29.6575 24.0606V14.5832L30.1285 15.5253L33.3693 22.9678H36.139L36.3274 22.6286L39.474 15.5442L39.9073 14.734L39.9262 24.1171L39.9638 24.5881H43.751V8.19592H39.1348L38.9652 8.49739L34.7824 17.6921L30.5995 8.51623L30.4111 8.19592H25.7949Z" fill="white"/>
<path d="M21.5357 19.1054C20.424 20.2359 18.8601 20.9707 17.5601 20.9707C15.0541 20.9707 13.17 18.9735 13.17 16.3356C13.17 13.6978 15.0541 11.776 17.5601 11.776C18.9732 11.776 20.4805 12.5673 21.5357 13.8297L21.6299 13.9428L24.1735 10.9281L24.0981 10.8527C22.4401 9.15698 19.9153 8.08301 17.5035 8.08301C12.5105 8.08301 8.74219 11.6441 8.74219 16.3733C8.74219 21.1026 12.454 24.8144 17.3717 24.8144C19.7457 24.8144 22.327 23.665 24.1358 21.8186L24.2112 21.7432L21.6487 19.03L21.5357 19.1054Z" fill="white"/>
<path d="M51.5326 8.21497H46.7656V25.0405H51.5326V8.21497Z" fill="white"/>
<path d="M51.4956 8.21497H46.7852V24.984H51.4956V8.21497Z" fill="white"/>
<path d="M51.4579 8.21497H46.7852V24.9463H51.4579V8.21497Z" fill="white"/>
<path d="M51.4014 8.21497H46.7852V24.8898H51.4014V8.21497Z" fill="white"/>
<path d="M51.3637 8.21497H46.7852V24.8521H51.3637V8.21497Z" fill="white"/>
<path d="M51.326 8.21497H46.7852V24.8144H51.326V8.21497Z" fill="white"/>
<path d="M51.2695 8.21497H46.7852V24.7579H51.2695V8.21497Z" fill="white"/>
<path d="M34.7638 17.8241L30.4302 8.29022H25.7951V24.6259H29.62V14.4703L30.091 15.5066L33.3695 23.0244H36.1392L39.4176 15.5066L39.8887 14.6398L39.9075 24.6448H43.6758V8.29022H39.0785L34.7638 17.8241ZM21.5369 19.1995C20.4253 20.33 18.8426 21.0648 17.5237 21.0648C14.9989 21.0648 13.0959 19.0488 13.0959 16.3733C13.0959 13.6978 14.9989 11.7571 17.5237 11.7571C18.9368 11.7571 20.4818 12.5484 21.5369 13.8297L21.5934 13.905L24.0805 10.9657L24.024 10.9092C22.3848 9.21346 19.86 8.15833 17.4483 8.15833C12.4741 8.15833 8.72461 11.7006 8.72461 16.411C8.72461 21.1214 12.4176 24.7955 17.2976 24.7955C19.6528 24.7955 22.2341 23.6462 24.024 21.8185L24.0805 21.762L21.5934 19.143L21.5369 19.1995ZM46.8036 8.30906V24.6259H51.0618V8.30906H46.8036Z" fill="white"/>
<g opacity="0.43">
<path d="M21.4979 19.0864C20.3862 20.2169 18.8035 20.9518 17.4846 20.9518C14.9598 20.9518 13.0568 18.9357 13.0568 16.2602C13.0568 13.5847 14.9598 11.644 17.4846 11.644C18.8977 11.644 20.4427 12.4353 21.4979 13.7166L21.5544 13.7919L24.0415 10.8715L23.985 10.815C22.3457 9.11922 19.821 8.06409 17.4092 8.06409C12.435 8.06409 8.68555 11.6063 8.68555 16.3167C8.68555 21.0271 12.3785 24.7013 17.2585 24.7013C19.6137 24.7013 22.195 23.5519 23.985 21.7243L24.0415 21.6677L21.5355 19.0111L21.4979 19.0864ZM46.7645 8.21482V24.5317H51.0227V8.21482H46.7645Z" fill="white"/>
</g>
<path d="M51.5316 28.074H10.6641V28.7334H51.5316V28.074Z" fill="white"/>
<path d="M11.5126 41.6211C11.3619 41.6211 11.2112 41.6023 11.117 41.5646C11.0227 41.5269 10.9285 41.4704 10.8532 41.395C10.7966 41.3196 10.7401 41.2443 10.7213 41.1312C10.7024 41.037 10.6836 40.924 10.6836 40.8298V39.9065H11.3054V40.7167C11.3054 40.8298 11.3242 40.9051 11.3619 40.9428C11.3996 40.9805 11.4749 40.9993 11.5692 40.9993H14.1128V39.4543H14.7345V41.6211H11.5126ZM12.0779 38.6064C12.0779 38.5122 12.1156 38.4369 12.1721 38.3803C12.2286 38.3238 12.304 38.2861 12.3982 38.2861C12.4924 38.2861 12.5678 38.3238 12.6243 38.3803C12.6808 38.4369 12.7185 38.5122 12.7185 38.6064C12.7185 38.7006 12.6808 38.776 12.6243 38.8325C12.5678 38.8891 12.4924 38.9268 12.3982 38.9268C12.304 38.9268 12.2286 38.8891 12.1721 38.8325C12.1156 38.776 12.0779 38.6818 12.0779 38.6064ZM12.9257 38.6064C12.9257 38.5122 12.9634 38.4369 13.02 38.3803C13.0765 38.3238 13.1518 38.2861 13.2461 38.2861C13.3403 38.2861 13.4156 38.3238 13.4722 38.3803C13.5287 38.4369 13.5664 38.5122 13.5664 38.6064C13.5664 38.7006 13.5287 38.776 13.4722 38.8325C13.4156 38.8891 13.3403 38.9268 13.2461 38.9268C13.1518 38.9268 13.0765 38.8891 13.02 38.8325C12.9634 38.7572 12.9257 38.6818 12.9257 38.6064Z" fill="white"/>
<path d="M15.5645 37.7209H16.1862V40.9994H16.5631C16.6196 40.9994 16.6573 41.0182 16.6761 41.0371C16.695 41.0748 16.7138 41.0936 16.7138 41.1313V41.4704C16.7138 41.5081 16.695 41.527 16.6761 41.5646C16.6573 41.6023 16.6196 41.6212 16.5631 41.6212H15.5645V37.7209Z" fill="white"/>
<path d="M16.5238 41.6212C16.4673 41.6212 16.4296 41.6023 16.4107 41.5835C16.3919 41.5458 16.373 41.527 16.373 41.4893V41.169C16.373 41.1313 16.3919 41.0936 16.4107 41.0559C16.4296 41.0182 16.4673 40.9994 16.5238 40.9994H17.4282C17.4847 40.9994 17.5224 41.0182 17.5412 41.0371C17.5601 41.0748 17.5789 41.0936 17.5789 41.1313V41.4704C17.5789 41.5081 17.5601 41.527 17.5412 41.5646C17.5224 41.6023 17.4847 41.6212 17.4282 41.6212H16.5238Z" fill="white"/>
<path d="M17.4105 41.6212C17.354 41.6212 17.3163 41.6023 17.2974 41.5835C17.2786 41.5458 17.2598 41.527 17.2598 41.4893V41.169C17.2598 41.1313 17.2786 41.0936 17.2974 41.0559C17.3163 41.0182 17.354 40.9994 17.4105 40.9994H18.3149C18.3714 40.9994 18.4091 41.0182 18.4279 41.0371C18.4468 41.0748 18.4656 41.0936 18.4656 41.1313V41.4704C18.4656 41.5081 18.4468 41.527 18.4279 41.5646C18.4091 41.6023 18.3714 41.6212 18.3149 41.6212H17.4105Z" fill="white"/>
<path d="M18.2777 41.6213C18.2212 41.6213 18.1835 41.6024 18.1646 41.5836C18.1458 41.5459 18.127 41.527 18.127 41.4894V41.1691C18.127 41.1314 18.1458 41.0937 18.1646 41.056C18.1835 41.0183 18.2212 40.9995 18.2777 40.9995H19.0314V39.4545H19.6531V41.6213H18.2777ZM18.3342 42.3184C18.3342 42.2242 18.3719 42.1488 18.4284 42.0923C18.4849 42.0358 18.5603 41.9981 18.6545 41.9981C18.7487 41.9981 18.8241 42.0358 18.8806 42.0923C18.9371 42.1488 18.9748 42.2242 18.9748 42.3184C18.9748 42.4126 18.9371 42.488 18.8806 42.5445C18.8241 42.601 18.7487 42.6387 18.6545 42.6387C18.5603 42.6387 18.4849 42.601 18.4284 42.5445C18.3531 42.4691 18.3342 42.3938 18.3342 42.3184ZM19.1821 42.3184C19.1821 42.2242 19.2198 42.1488 19.2763 42.0923C19.3328 42.0358 19.4082 41.9981 19.5024 41.9981C19.5966 41.9981 19.672 42.0358 19.7285 42.0923C19.785 42.1488 19.8227 42.2242 19.8227 42.3184C19.8227 42.4126 19.785 42.488 19.7285 42.5445C19.672 42.601 19.5966 42.6387 19.5024 42.6387C19.4082 42.6387 19.3328 42.601 19.2763 42.5445C19.2198 42.488 19.1821 42.3938 19.1821 42.3184Z" fill="white"/>
<path d="M22.8171 41.6211C22.6663 41.6211 22.5344 41.5834 22.4402 41.5081C22.346 41.4327 22.2707 41.3573 22.2141 41.2631C22.1576 41.3762 22.0634 41.4704 21.9503 41.5269C21.8373 41.5834 21.7054 41.6211 21.5547 41.6211H20.2734V40.9805H21.517C21.5924 40.9805 21.6489 40.9617 21.6866 40.924C21.7242 40.8863 21.7242 40.8109 21.7242 40.7167C21.7242 40.566 21.7242 40.4341 21.7054 40.3399C21.6866 40.2268 21.6677 40.1326 21.63 40.0761C21.5924 40.0007 21.517 39.9442 21.4416 39.9065C21.3474 39.8688 21.2344 39.85 21.0836 39.85H20.5561V39.2471H21.1967C21.4039 39.2471 21.5924 39.2848 21.7242 39.3413C21.875 39.3978 21.988 39.492 22.0822 39.5862C22.1764 39.6993 22.233 39.8123 22.2707 39.9631C22.3083 40.1138 22.3272 40.2645 22.3272 40.4341C22.3272 40.6225 22.3649 40.7544 22.4402 40.8486C22.5156 40.9428 22.6475 40.9993 22.8171 40.9993H23.0055C23.062 40.9993 23.0997 41.0182 23.1185 41.037C23.1374 41.0747 23.1562 41.0936 23.1562 41.1312V41.4704C23.1562 41.5081 23.1374 41.5269 23.1185 41.5646C23.0997 41.6023 23.062 41.6211 23.0055 41.6211H22.8171Z" fill="white"/>
<path d="M23.0062 41.6212C22.9497 41.6212 22.912 41.6023 22.8932 41.5835C22.8743 41.5458 22.8555 41.527 22.8555 41.4893V41.169C22.8555 41.1313 22.8743 41.0936 22.8932 41.0559C22.912 41.0182 22.9497 40.9994 23.0062 40.9994H23.9106C23.9671 40.9994 24.0048 41.0182 24.0236 41.0371C24.0425 41.0748 24.0613 41.0936 24.0613 41.1313V41.4704C24.0613 41.5081 24.0425 41.527 24.0236 41.5646C24.0048 41.6023 23.9671 41.6212 23.9106 41.6212H23.0062Z" fill="white"/>
<path d="M23.891 41.6212C23.8344 41.6212 23.7968 41.6023 23.7779 41.5835C23.7591 41.5458 23.7402 41.527 23.7402 41.4893V41.169C23.7402 41.1313 23.7591 41.0936 23.7779 41.0559C23.7968 41.0182 23.8344 40.9994 23.891 40.9994H24.7954C24.8519 40.9994 24.8896 41.0182 24.9084 41.0371C24.9273 41.0748 24.9461 41.0936 24.9461 41.1313V41.4704C24.9461 41.5081 24.9273 41.527 24.9084 41.5646C24.8896 41.6023 24.8519 41.6212 24.7954 41.6212H23.891Z" fill="white"/>
<path d="M27.5279 40.9993H28.0554C28.112 40.9993 28.1496 41.0182 28.1685 41.037C28.1873 41.0747 28.2062 41.0935 28.2062 41.1312V41.4704C28.2062 41.5081 28.1873 41.5269 28.1685 41.5646C28.1496 41.6023 28.112 41.6211 28.0554 41.6211H24.7582C24.7016 41.6211 24.6639 41.6023 24.6451 41.5834C24.6263 41.5646 24.6074 41.5269 24.6074 41.4892V41.1689C24.6074 41.1312 24.6263 41.0935 24.6451 41.0559C24.6639 41.0182 24.7016 40.9993 24.7582 40.9993H25.4553C25.4365 40.9616 25.3988 40.8863 25.3611 40.7921C25.3234 40.6979 25.3046 40.5848 25.3046 40.4341C25.3046 40.2833 25.3422 40.1326 25.3988 40.0007C25.4553 39.85 25.5307 39.7369 25.6437 39.6239C25.7568 39.5108 25.8698 39.4355 26.0205 39.3601C26.1713 39.2847 26.3409 39.2659 26.5104 39.2659C26.6612 39.2659 26.793 39.2847 26.9249 39.3413C27.0568 39.3978 27.151 39.4732 27.2453 39.5485C27.3395 39.6427 27.396 39.7558 27.4525 39.8877C27.509 40.0196 27.5279 40.1703 27.5279 40.321V40.9993ZM25.7379 38.6064C25.7379 38.5122 25.7756 38.4369 25.8321 38.3803C25.8887 38.3238 25.964 38.2861 26.0582 38.2861C26.1524 38.2861 26.2278 38.3238 26.2843 38.3803C26.3409 38.4369 26.3785 38.5122 26.3785 38.6064C26.3785 38.7006 26.3409 38.776 26.2843 38.8325C26.2278 38.8891 26.1524 38.9268 26.0582 38.9268C25.964 38.9268 25.8887 38.8891 25.8321 38.8325C25.7756 38.776 25.7379 38.6818 25.7379 38.6064ZM26.9061 40.9993V40.3022C26.9061 40.2457 26.9061 40.208 26.8873 40.1515C26.8684 40.0949 26.8496 40.0572 26.8119 40.0196C26.7742 39.9819 26.7365 39.9442 26.68 39.9254C26.6235 39.9065 26.567 39.8877 26.4727 39.8877C26.3974 39.8877 26.3408 39.9065 26.2655 39.9254C26.209 39.9442 26.1524 39.9819 26.0959 40.0384C26.0394 40.0949 26.0017 40.1515 25.9829 40.208C25.9452 40.2833 25.9452 40.3587 25.9452 40.4341C25.9452 40.566 25.964 40.6602 26.0205 40.7355C26.0771 40.8109 26.1336 40.8674 26.1901 40.9051C26.2655 40.9428 26.3409 40.9805 26.4351 40.9805H26.9061V40.9993ZM26.5858 38.6064C26.5858 38.5122 26.6235 38.4369 26.68 38.3803C26.7365 38.3238 26.8119 38.2861 26.9061 38.2861C27.0003 38.2861 27.0757 38.3238 27.1322 38.3803C27.1887 38.4369 27.2264 38.5122 27.2264 38.6064C27.2264 38.7006 27.1887 38.776 27.1322 38.8325C27.0757 38.8891 27.0003 38.9268 26.9061 38.9268C26.8119 38.9268 26.7365 38.8891 26.68 38.8325C26.6235 38.776 26.5858 38.6818 26.5858 38.6064Z" fill="white"/>
<path d="M28.0375 41.6212C27.9809 41.6212 27.9432 41.6023 27.9244 41.5835C27.9056 41.5458 27.8867 41.527 27.8867 41.4893V41.169C27.8867 41.1313 27.9056 41.0936 27.9244 41.0559C27.9432 41.0182 27.9809 40.9994 28.0375 40.9994H28.9419C28.9984 40.9994 29.0361 41.0182 29.0549 41.0371C29.0737 41.0748 29.0926 41.0936 29.0926 41.1313V41.4704C29.0926 41.5081 29.0737 41.527 29.0549 41.5646C29.0361 41.6023 28.9984 41.6212 28.9419 41.6212H28.0375Z" fill="white"/>
<path d="M28.9222 41.6212C28.8657 41.6212 28.828 41.6023 28.8092 41.5835C28.7903 41.5458 28.7715 41.527 28.7715 41.4893V41.169C28.7715 41.1313 28.7903 41.0936 28.8092 41.0559C28.828 41.0182 28.8657 40.9994 28.9222 40.9994H29.8266C29.8831 40.9994 29.9208 41.0182 29.9397 41.0371C29.9585 41.0748 29.9774 41.0936 29.9774 41.1313V41.4704C29.9774 41.5081 29.9585 41.527 29.9397 41.5646C29.9208 41.6023 29.8831 41.6212 29.8266 41.6212H28.9222Z" fill="white"/>
<path d="M29.8077 41.6211C29.7511 41.6211 29.7135 41.6023 29.6946 41.5834C29.6758 41.5646 29.6758 41.5269 29.6758 41.4892V41.1689C29.6758 41.1312 29.6946 41.0935 29.7135 41.0559C29.7323 41.0182 29.77 40.9993 29.8265 40.9993H30.3541C30.4294 40.9993 30.486 40.9805 30.5237 40.924C30.5613 40.8674 30.5613 40.8109 30.5613 40.7167V39.4543H31.1831V40.4906C31.1831 40.6413 31.2208 40.7544 31.2773 40.8486C31.3527 40.9428 31.4657 40.9993 31.6542 40.9993H31.8426C31.8991 40.9993 31.9368 41.0182 31.9556 41.037C31.9745 41.0747 31.9745 41.0935 31.9745 41.1312V41.4704C31.9745 41.5081 31.9556 41.5269 31.9368 41.5646C31.9179 41.6023 31.8803 41.6211 31.8237 41.6211H31.6165C31.4657 41.6211 31.3338 41.5834 31.2396 41.5081C31.1454 41.4327 31.0701 41.3573 31.0135 41.2631C30.957 41.3762 30.8628 41.4515 30.7498 41.5269C30.6367 41.6023 30.5048 41.6211 30.3541 41.6211H29.8077ZM30.5048 38.6064C30.5048 38.5122 30.5425 38.4369 30.599 38.3803C30.6555 38.3238 30.7309 38.2861 30.8251 38.2861C30.9193 38.2861 30.9947 38.3238 31.0512 38.3803C31.1077 38.4369 31.1454 38.5122 31.1454 38.6064C31.1454 38.7006 31.1077 38.776 31.0512 38.8325C30.9947 38.8891 30.9005 38.9268 30.8251 38.9268C30.7309 38.9268 30.6555 38.8891 30.599 38.8325C30.5425 38.7572 30.5048 38.6818 30.5048 38.6064Z" fill="white"/>
<path d="M31.7855 41.6212C31.729 41.6212 31.6913 41.6023 31.6725 41.5835C31.6536 41.5458 31.6348 41.527 31.6348 41.4893V41.169C31.6348 41.1313 31.6536 41.0936 31.6725 41.0559C31.6913 41.0182 31.729 40.9994 31.7855 40.9994H32.6899C32.7464 40.9994 32.7841 41.0182 32.8029 41.0371C32.8218 41.0748 32.8406 41.0936 32.8406 41.1313V41.4704C32.8406 41.5081 32.8218 41.527 32.8029 41.5646C32.7841 41.6023 32.7464 41.6212 32.6899 41.6212H31.7855Z" fill="white"/>
<path d="M32.6722 41.6212C32.6157 41.6212 32.578 41.6023 32.5592 41.5835C32.5403 41.5458 32.5215 41.527 32.5215 41.4893V41.169C32.5215 41.1313 32.5403 41.0936 32.5592 41.0559C32.578 41.0182 32.6157 40.9994 32.6722 40.9994H33.5766C33.6331 40.9994 33.6708 41.0182 33.6897 41.0371C33.7085 41.0748 33.7273 41.0936 33.7273 41.1313V41.4704C33.7273 41.5081 33.7085 41.527 33.6897 41.5646C33.6708 41.6023 33.6331 41.6212 33.5766 41.6212H32.6722Z" fill="white"/>
<path d="M33.557 41.6212C33.5005 41.6212 33.4628 41.6023 33.4439 41.5835C33.4251 41.5646 33.4062 41.527 33.4062 41.4893V41.169C33.4062 41.1313 33.4251 41.0936 33.4439 41.0559C33.4628 41.0182 33.5005 40.9994 33.557 40.9994H34.1976V37.7209H34.8194V41.6212H33.557Z" fill="white"/>
<path d="M35.7051 37.7209H36.3269V41.6212H35.7051V37.7209Z" fill="white"/>
<path d="M40.0194 41.6211C39.9063 41.6211 39.8121 41.6023 39.7368 41.5457C39.6614 41.4892 39.586 41.4515 39.5295 41.3762V41.5269C39.5295 41.6965 39.5107 41.8472 39.473 41.9791C39.4353 42.111 39.3599 42.2429 39.2846 42.3559C39.1904 42.469 39.0961 42.5443 38.9643 42.6009C38.8324 42.6574 38.6816 42.6951 38.5309 42.6951H38.3425C38.286 42.6951 38.2294 42.6762 38.1917 42.6762C38.1541 42.6762 38.1352 42.6762 38.1164 42.6574C38.0975 42.6574 38.0787 42.6574 38.041 42.6386L38.0975 42.0168L38.2483 42.0545C38.286 42.0545 38.3425 42.0733 38.3802 42.0733H38.5121C38.6628 42.0733 38.7758 42.0168 38.8324 41.9226C38.8889 41.8284 38.9077 41.6776 38.9077 41.4704V39.4355H39.5295V40.4718C39.5295 40.6225 39.5672 40.7355 39.6237 40.8298C39.6802 40.924 39.8121 40.9805 40.0005 40.9805H40.189C40.2455 40.9805 40.2832 40.9993 40.302 41.0182C40.3209 41.0559 40.3209 41.0747 40.3209 41.1124V41.4515C40.3209 41.4892 40.302 41.5081 40.2832 41.5457C40.2643 41.5834 40.2266 41.6023 40.1701 41.6023H40.0194V41.6211ZM38.9077 38.6064C38.9077 38.5122 38.9454 38.4369 39.0019 38.3803C39.0585 38.3238 39.1338 38.2861 39.228 38.2861C39.3222 38.2861 39.3976 38.3238 39.4541 38.3803C39.5107 38.4369 39.5483 38.5122 39.5483 38.6064C39.5483 38.7006 39.5107 38.776 39.4541 38.8325C39.3976 38.8891 39.3034 38.9268 39.228 38.9268C39.1338 38.9268 39.0585 38.8891 39.0019 38.8325C38.9266 38.7572 38.9077 38.6818 38.9077 38.6064Z" fill="white"/>
<path d="M40.1703 41.6212C40.1137 41.6212 40.0761 41.6023 40.0572 41.5835C40.0384 41.5458 40.0195 41.527 40.0195 41.4893V41.169C40.0195 41.1313 40.0384 41.0936 40.0572 41.0559C40.0761 41.0182 40.1137 40.9994 40.1703 40.9994H41.0747C41.1312 40.9994 41.1689 41.0182 41.1877 41.0371C41.2066 41.0748 41.2254 41.0936 41.2254 41.1313V41.4704C41.2254 41.5081 41.2066 41.527 41.1877 41.5646C41.1689 41.6023 41.1312 41.6212 41.0747 41.6212H40.1703Z" fill="white"/>
<path d="M41.057 41.6212C41.0005 41.6212 40.9628 41.6023 40.9439 41.5835C40.9251 41.5458 40.9062 41.527 40.9062 41.4893V41.169C40.9062 41.1313 40.9251 41.0936 40.9439 41.0559C40.9628 41.0182 41.0005 40.9994 41.057 40.9994H41.9614C42.0179 40.9994 42.0556 41.0182 42.0744 41.0371C42.0933 41.0748 42.1121 41.0936 42.1121 41.1313V41.4704C42.1121 41.5081 42.0933 41.527 42.0744 41.5646C42.0556 41.6023 42.0179 41.6212 41.9614 41.6212H41.057Z" fill="white"/>
<path d="M41.9417 41.6211C41.8852 41.6211 41.8475 41.6023 41.8287 41.5834C41.8099 41.5458 41.791 41.5269 41.791 41.4892V41.1689C41.791 41.1312 41.8099 41.0936 41.8287 41.0559C41.8475 41.0182 41.8852 40.9994 41.9417 40.9994H43.6187V40.4718C43.6187 40.3399 43.5998 40.2457 43.5621 40.1703C43.5244 40.095 43.4868 40.0384 43.4302 40.0007C43.3737 39.9631 43.2983 39.9442 43.223 39.9254C43.1476 39.9254 43.0534 39.9065 42.978 39.9065H42.3186V39.3601L43.3737 37.6832L43.8824 38.0224L43.0534 39.3036H43.1099C43.2607 39.3036 43.3926 39.3224 43.5433 39.3601C43.694 39.3978 43.8071 39.4543 43.9013 39.5297C44.0143 39.6051 44.0897 39.737 44.1462 39.8689C44.2027 40.0196 44.2404 40.1892 44.2404 40.4153V41.6211H41.9417Z" fill="white"/>
<path d="M46.5389 41.6212C46.4259 41.6212 46.3317 41.6023 46.2563 41.5458C46.1809 41.4893 46.1056 41.4516 46.049 41.3762V41.527C46.049 41.6965 46.0302 41.8473 45.9925 41.9792C45.9548 42.1111 45.8795 42.243 45.8041 42.356C45.7099 42.4691 45.6157 42.5444 45.4838 42.6009C45.3519 42.6575 45.2012 42.6952 45.0504 42.6952H44.862C44.8055 42.6952 44.749 42.6763 44.7113 42.6763C44.6736 42.6763 44.6548 42.6763 44.6359 42.6575C44.6171 42.6575 44.5982 42.6575 44.5605 42.6386L44.6171 42.0169L44.7678 42.0545C44.8055 42.0545 44.862 42.0734 44.8997 42.0734H45.0316C45.1823 42.0734 45.2954 42.0169 45.3519 41.9226C45.4084 41.8284 45.4273 41.6777 45.4273 41.4704V39.4355H46.049V40.4718C46.049 40.6226 46.0867 40.7356 46.1432 40.8298C46.1998 40.924 46.3317 40.9806 46.5201 40.9806H46.7085C46.765 40.9806 46.8027 40.9994 46.8215 41.0182C46.8404 41.0559 46.8404 41.0748 46.8404 41.1125V41.4516C46.8404 41.4893 46.8215 41.5081 46.8027 41.5458C46.7839 41.5835 46.7462 41.6023 46.6897 41.6023H46.5389V41.6212Z" fill="white"/>
<path d="M46.6898 41.6212C46.6333 41.6212 46.5956 41.6023 46.5767 41.5835C46.5579 41.5458 46.5391 41.527 46.5391 41.4893V41.169C46.5391 41.1313 46.5579 41.0936 46.5767 41.0559C46.5956 41.0182 46.6333 40.9994 46.6898 40.9994H47.5942C47.6507 40.9994 47.6884 41.0182 47.7072 41.0371C47.7261 41.0748 47.7449 41.0936 47.7449 41.1313V41.4704C47.7449 41.5081 47.7261 41.527 47.7072 41.5646C47.6884 41.6023 47.6507 41.6212 47.5942 41.6212H46.6898Z" fill="white"/>
<path d="M47.5765 41.6212C47.52 41.6212 47.4823 41.6023 47.4635 41.5835C47.4446 41.5458 47.4258 41.527 47.4258 41.4893V41.169C47.4258 41.1313 47.4446 41.0936 47.4635 41.0559C47.4823 41.0182 47.52 40.9994 47.5765 40.9994H48.4809C48.5374 40.9994 48.5751 41.0182 48.594 41.0371C48.6128 41.0748 48.6316 41.0936 48.6316 41.1313V41.4704C48.6316 41.5081 48.6128 41.527 48.594 41.5646C48.5751 41.6023 48.5374 41.6212 48.4809 41.6212H47.5765Z" fill="white"/>
<path d="M48.4613 41.621C48.4048 41.621 48.3671 41.6022 48.3482 41.5833C48.3294 41.5457 48.3105 41.5268 48.3105 41.4891V41.1688C48.3105 41.1311 48.3294 41.0935 48.3482 41.0558C48.3671 41.0181 48.4048 40.9993 48.4613 40.9993H48.6685C48.8946 40.9993 49.0077 40.8297 49.0077 40.4905C49.0077 40.321 49.0265 40.1514 49.0831 40.0007C49.1396 39.8499 49.2149 39.718 49.328 39.6238C49.4222 39.5108 49.5541 39.4354 49.686 39.3789C49.8179 39.3224 49.9686 39.2847 50.1382 39.2847C50.3266 39.2847 50.4773 39.3224 50.6092 39.3789C50.7411 39.4354 50.8542 39.5296 50.9484 39.6427C51.0426 39.7557 51.0991 39.8876 51.1556 40.0383C51.1933 40.1891 51.2122 40.3586 51.2122 40.5471C51.2122 40.6978 51.1933 40.8297 51.1556 40.9616C51.118 41.0935 51.0614 41.2065 50.9672 41.3196C50.873 41.4138 50.76 41.508 50.6281 41.5645C50.4962 41.621 50.3266 41.6587 50.1382 41.6587C50.0628 41.6587 49.9875 41.6587 49.8932 41.6399C49.8179 41.6399 49.7425 41.621 49.6483 41.5833C49.5729 41.5645 49.4976 41.5268 49.4222 41.4703C49.3468 41.4138 49.2903 41.3572 49.2338 41.2819C49.1773 41.4138 49.1019 41.508 49.0077 41.5645C48.9135 41.621 48.8004 41.6587 48.7062 41.6587H48.4613V41.621ZM50.1193 41.0181C50.2889 41.0181 50.4208 40.9616 50.4962 40.8674C50.5715 40.7543 50.6281 40.6413 50.6281 40.4905C50.6281 40.3963 50.6092 40.3021 50.5904 40.2267C50.5715 40.1514 50.515 40.076 50.4773 40.0383C50.4397 39.9818 50.3831 39.9441 50.3266 39.9064C50.2701 39.8688 50.1947 39.8688 50.1382 39.8688C50.0628 39.8688 50.0063 39.8876 49.9498 39.9064C49.8932 39.9441 49.8367 39.9818 49.7802 40.0383C49.7425 40.0949 49.7048 40.1514 49.6671 40.2267C49.6295 40.3021 49.6295 40.3963 49.6295 40.4905C49.6295 40.6413 49.6671 40.7543 49.7425 40.8674C49.8179 40.9804 49.9498 41.0181 50.1193 41.0181Z" fill="white"/>
<path d="M56.2982 1.37544C55.4126 0.489883 54.2444 0 53.0009 0H7.85632C6.61277 0 5.44459 0.489883 4.55903 1.37544C3.67348 2.261 3.18359 3.42918 3.18359 4.67273V30.9003C3.18359 32.1438 3.67348 33.312 4.55903 34.1976C5.44459 35.0831 6.61277 35.573 7.85632 35.573H52.982C54.2256 35.573 55.3938 35.0831 56.2793 34.1976C57.1649 33.312 57.6548 32.1438 57.6548 30.9003V4.65388C57.6736 3.42918 57.1837 2.24215 56.2982 1.37544ZM57.1272 30.9003C57.1272 31.9931 56.6938 33.0482 55.9025 33.8207C55.1111 34.6121 54.0749 35.0454 52.982 35.0454H7.85632C6.7635 35.0454 5.70837 34.6121 4.93587 33.8207C4.14452 33.0294 3.71116 31.9931 3.71116 30.9003V4.67273C3.71116 3.56107 4.14452 2.52478 4.93587 1.75227C5.72722 0.960923 6.7635 0.527566 7.85632 0.527566H52.982C54.0749 0.527566 55.13 0.960923 55.9025 1.75227C56.6938 2.54362 57.1084 3.56107 57.1272 4.67273V30.9003Z" fill="white"/>
</g>
<defs>
<clipPath id="clip0_528_14892">
<rect width="57.6554" height="42.6951" fill="white"/>
</clipPath>
</defs>
</svg>
