<svg width="331" height="141" viewBox="0 0 331 141" fill="none" xmlns="http://www.w3.org/2000/svg">
<g filter="url(#filter0_d_528_15178)">
<path d="M44.3008 66.3C44.3008 51.9406 55.9414 40.3 70.3008 40.3H260.301C274.66 40.3 286.301 51.9406 286.301 66.3C286.301 80.6594 274.66 92.3 260.301 92.3H70.3008C55.9414 92.3 44.3008 80.6594 44.3008 66.3Z" fill="white" shape-rendering="crispEdges"/>
<rect x="54.3008" y="50.3" width="32" height="32" rx="16" fill="#FFEDFE"/>
<path d="M68.2624 70.5344C68.576 70.4362 68.8767 70.2558 69.2002 70.1863C69.4601 70.1309 69.7232 70.1266 69.9825 70.1766L69.9849 63.0976C69.9763 63.0403 69.4595 62.9757 69.3583 62.9489C67.5616 62.4698 66.4225 60.7175 66.7275 58.8956C67.1437 56.4082 70.0751 55.105 72.2428 56.4813C74.897 58.166 74.2567 62.1449 71.2407 62.9489C71.1395 62.9757 70.6227 63.0403 70.6141 63.0976L70.6159 70.3107C71.1994 70.3887 71.7939 70.5301 72.336 70.7575V68.9472C72.336 68.9179 72.4397 68.7211 72.4712 68.6784C72.5885 68.5187 72.7916 68.4053 72.9256 68.2779C73.2306 67.9866 73.5239 67.6818 73.8215 67.3838C72.8756 66.1611 72.7904 64.4794 73.656 63.1891C75.7811 60.0196 80.8339 61.9578 80.2548 65.7259C79.8343 68.4614 76.396 69.728 74.3055 67.8531L73.0583 69.035L73.0151 69.1264V71.1378C73.1411 71.3298 73.3028 71.4901 73.3325 71.7412L76.2886 70.0784C77.3962 69.6591 78.5804 70.6843 78.1402 71.8174C77.992 72.1984 77.7481 72.3702 77.4209 72.5824C76.3861 73.2528 75.1754 73.9263 74.0876 74.5206C72.9589 75.1375 71.5926 75.9542 70.2751 75.8987C68.7903 75.8366 67.3091 75.5178 65.7977 75.7226C65.7156 75.7336 65.636 75.7768 65.5458 75.7647C65.6144 76.2383 65.3964 76.6204 64.8902 76.6594C64.6197 76.6802 63.8807 76.6936 63.6405 76.6381C63.4214 76.5869 63.2207 76.39 63.1546 76.1797L63.1658 71.203C63.2855 70.9434 63.5115 70.7855 63.8011 70.7575C64.0585 70.7325 64.7661 70.727 65.0044 70.7782C65.3174 70.8458 65.4903 71.0427 65.5711 71.342C66.2768 71.3505 66.9436 71.1829 67.5765 70.8873L67.5746 69.0904L66.2923 67.8543C65.8996 68.2194 65.3495 68.5095 64.8222 68.6375C61.1018 69.5427 58.6686 64.9012 61.6056 62.4223C64.4623 60.011 68.7736 63.1427 67.2289 66.6328C67.0974 66.9291 66.8788 67.1589 66.7695 67.4484C66.8251 67.4532 66.8646 67.4807 66.9047 67.516C67.1671 67.7446 67.4166 68.0353 67.6715 68.2791C67.8024 68.4041 67.9802 68.5028 68.1037 68.6571C68.1463 68.7101 68.2612 68.9015 68.2612 68.9484V70.535L68.2624 70.5344ZM69.8361 56.6014C68.8718 56.7147 67.971 57.4541 67.5894 58.3166C66.5448 60.6784 68.8718 63.1165 71.308 62.2559C74.5327 61.1173 73.5263 56.1674 69.8361 56.6014ZM63.4528 62.2778C62.3761 62.4046 61.3858 63.3097 61.0864 64.3215C60.3214 66.9077 63.1312 69.0496 65.4693 67.6654C68.1716 66.066 66.7738 61.8871 63.4528 62.2778ZM76.2194 62.2778C75.11 62.404 74.0462 63.3798 73.7974 64.4459C73.2522 66.7858 75.4983 68.771 77.7815 67.8878C80.9012 66.681 79.8633 61.8633 76.2194 62.2778ZM65.5458 75.093C66.175 75.0473 66.793 74.9784 67.427 75.0015C68.4803 75.0393 69.5404 75.1948 70.5931 75.2728C71.2012 75.3179 72.6465 74.556 73.2281 74.2524C74.4691 73.6045 75.8891 72.8054 77.0591 72.046C77.2511 71.9216 77.4302 71.8333 77.5209 71.6083C77.75 71.0427 77.2178 70.5112 76.6349 70.6447C75.4187 71.3078 74.2012 71.9917 73.0003 72.6872C72.7064 72.8572 72.5718 73.0474 72.1792 73.0834C71.6278 73.134 70.89 72.9968 70.3233 72.9475C69.9331 72.9133 69.4373 72.9426 69.0644 72.8499C68.744 72.7701 68.7594 72.2849 69.1021 72.2349C69.4194 72.1892 69.9436 72.2995 70.2763 72.3239C70.5764 72.3459 70.8839 72.3446 71.1839 72.3666C71.4284 72.3843 71.7618 72.4592 71.9977 72.4611C72.5212 72.4641 72.9608 71.8637 72.4434 71.5254C71.9754 71.2189 70.4881 70.8647 69.9115 70.8074C69.052 70.7215 68.2914 71.3072 67.5246 71.6163C66.8732 71.879 66.2497 71.9789 65.5464 72.01V75.0942L65.5458 75.093ZM64.9124 71.4279H63.7807V75.9865H64.9124V71.4279Z" fill="#FF36F5"/>
<path d="M69.2447 57.5821C69.3484 57.559 69.4663 57.5608 69.5626 57.6077C70.4171 58.1551 71.3778 58.5909 72.2316 59.1291C72.3811 59.2236 72.5119 59.2693 72.5206 59.4729C72.5305 59.699 72.4193 59.738 72.2594 59.8441C71.3772 60.2799 70.5264 60.9065 69.6509 61.3362C69.3731 61.4721 69.0712 61.5221 69.0298 61.1277C68.9218 60.1062 69.115 58.9036 69.0298 57.8619C69.0341 57.726 69.1064 57.6126 69.2447 57.5821ZM69.6657 58.4672V60.5676L71.5223 59.5167L71.2648 59.3235C70.7659 59.1041 70.2875 58.7097 69.8009 58.4897C69.7534 58.4684 69.7182 58.4598 69.6657 58.4672Z" fill="#FF36F5"/>
<path d="M63.1368 63.3933C63.2633 63.3817 63.4306 63.4128 63.556 63.4487C63.6616 63.4792 63.8412 63.5926 63.9011 63.5993C63.9561 63.6054 64.1783 63.4774 64.2771 63.4487C64.7327 63.3177 65.239 63.442 65.5699 63.7846C66.451 64.697 65.507 66.1483 64.6827 66.7548C64.5765 66.8328 64.166 67.1065 64.0666 67.129C63.8462 67.1796 63.6344 67.0589 63.4498 66.9504C62.6873 66.5024 61.7797 65.3693 61.9347 64.4435C62.0279 63.8845 62.5786 63.4457 63.1368 63.3933ZM63.0423 64.0625C62.9015 64.0918 62.6737 64.2722 62.6237 64.4087C62.3669 65.1133 63.301 66.1861 63.9307 66.461C64.4932 66.1788 65.3514 65.2694 65.2711 64.6147C65.2193 64.1917 64.7556 63.9101 64.3555 64.1076C64.2067 64.1808 64.1536 64.3691 63.9381 64.3691C63.7548 64.3691 63.7134 64.2448 63.5967 64.1668C63.4269 64.0534 63.246 64.0199 63.0423 64.0625Z" fill="#FF36F5"/>
<path d="M75.6867 63.4506C75.7348 63.1726 76.1232 62.8587 76.3986 62.8124C76.7776 62.749 77.2604 63.0556 77.3419 63.4256C77.3901 63.6462 77.3487 63.8766 77.3617 64.0985C78.0655 64.0662 78.7107 64.5313 78.8891 65.2054C79.12 66.0764 78.5026 66.9322 77.6117 67.0492L75.2193 67.0406L75.0075 66.8023V64.3441C75.1162 64.051 75.4206 64.0918 75.6867 64.0985C75.7101 63.8998 75.654 63.6395 75.6867 63.4506ZM75.6416 64.7909V66.3549L75.7095 66.422H77.5204C77.5481 66.422 77.7679 66.3354 77.8167 66.3123C78.3872 66.0392 78.431 65.2749 77.9285 64.9025C77.7791 64.7915 77.571 64.7409 77.3858 64.7233C77.1067 64.6964 76.7684 64.8299 76.727 64.435C76.7017 64.1918 76.8702 63.3403 76.4399 63.478C76.1855 63.5597 76.4381 64.4228 76.2522 64.6337C76.0991 64.8074 75.6787 64.6507 75.6416 64.7909Z" fill="#FF36F5"/>
<path d="M108.58 63.9477H106.807C106.739 63.5689 106.612 63.2356 106.426 62.9477C106.241 62.6598 106.014 62.4155 105.745 62.2148C105.476 62.014 105.175 61.8625 104.841 61.7602C104.512 61.6579 104.161 61.6068 103.79 61.6068C103.12 61.6068 102.519 61.7754 101.989 62.1125C101.462 62.4496 101.046 62.9439 100.739 63.5954C100.436 64.247 100.284 65.0424 100.284 65.9818C100.284 66.9288 100.436 67.728 100.739 68.3795C101.046 69.031 101.464 69.5235 101.995 69.8568C102.525 70.1901 103.122 70.3568 103.784 70.3568C104.152 70.3568 104.5 70.3076 104.83 70.2091C105.163 70.1068 105.464 69.9572 105.733 69.7602C106.002 69.5632 106.23 69.3227 106.415 69.0386C106.605 68.7507 106.735 68.4212 106.807 68.05L108.58 68.0557C108.485 68.6276 108.301 69.1542 108.029 69.6352C107.76 70.1125 107.413 70.5254 106.989 70.8739C106.569 71.2185 106.087 71.4856 105.546 71.675C105.004 71.8644 104.413 71.9591 103.773 71.9591C102.766 71.9591 101.868 71.7204 101.08 71.2432C100.292 70.7621 99.6708 70.0746 99.2163 69.1807C98.7655 68.2867 98.5401 67.2204 98.5401 65.9818C98.5401 64.7394 98.7674 63.6731 99.2219 62.7829C99.6765 61.889 100.298 61.2034 101.086 60.7261C101.873 60.2451 102.769 60.0045 103.773 60.0045C104.391 60.0045 104.966 60.0935 105.5 60.2716C106.038 60.4458 106.521 60.7034 106.949 61.0443C107.377 61.3814 107.731 61.7943 108.012 62.2829C108.292 62.7678 108.481 63.3227 108.58 63.9477ZM114.221 71.9761C113.402 71.9761 112.688 71.7886 112.078 71.4136C111.469 71.0386 110.995 70.514 110.658 69.8398C110.321 69.1655 110.152 68.3776 110.152 67.4761C110.152 66.5708 110.321 65.7792 110.658 65.1011C110.995 64.4231 111.469 63.8966 112.078 63.5216C112.688 63.1466 113.402 62.9591 114.221 62.9591C115.039 62.9591 115.753 63.1466 116.363 63.5216C116.972 63.8966 117.446 64.4231 117.783 65.1011C118.12 65.7792 118.289 66.5708 118.289 67.4761C118.289 68.3776 118.12 69.1655 117.783 69.8398C117.446 70.514 116.972 71.0386 116.363 71.4136C115.753 71.7886 115.039 71.9761 114.221 71.9761ZM114.226 70.55C114.757 70.55 115.196 70.4098 115.544 70.1295C115.893 69.8492 116.15 69.4761 116.317 69.0102C116.488 68.5443 116.573 68.031 116.573 67.4704C116.573 66.9136 116.488 66.4023 116.317 65.9364C116.15 65.4667 115.893 65.0898 115.544 64.8057C115.196 64.5216 114.757 64.3795 114.226 64.3795C113.692 64.3795 113.249 64.5216 112.897 64.8057C112.548 65.0898 112.289 65.4667 112.118 65.9364C111.952 66.4023 111.868 66.9136 111.868 67.4704C111.868 68.031 111.952 68.5443 112.118 69.0102C112.289 69.4761 112.548 69.8492 112.897 70.1295C113.249 70.4098 113.692 70.55 114.226 70.55ZM120.185 71.8V63.0727H121.816V64.4932H121.924C122.105 64.0121 122.403 63.6371 122.816 63.3682C123.229 63.0954 123.723 62.9591 124.299 62.9591C124.882 62.9591 125.371 63.0954 125.765 63.3682C126.162 63.6409 126.456 64.0159 126.645 64.4932H126.736C126.944 64.0273 127.276 63.656 127.73 63.3795C128.185 63.0992 128.727 62.9591 129.355 62.9591C130.147 62.9591 130.793 63.2072 131.293 63.7034C131.797 64.1996 132.049 64.9477 132.049 65.9477V71.8H130.35V66.1068C130.35 65.5159 130.189 65.0879 129.867 64.8227C129.545 64.5576 129.16 64.425 128.713 64.425C128.16 64.425 127.73 64.5954 127.424 64.9364C127.117 65.2735 126.963 65.7072 126.963 66.2375V71.8H125.27V65.9989C125.27 65.5254 125.123 65.1447 124.827 64.8568C124.532 64.5689 124.147 64.425 123.674 64.425C123.352 64.425 123.054 64.5102 122.782 64.6807C122.513 64.8473 122.295 65.0803 122.128 65.3795C121.965 65.6788 121.884 66.0254 121.884 66.4193V71.8H120.185ZM134.326 71.8V63.0727H135.956V64.4932H136.064C136.246 64.0121 136.543 63.6371 136.956 63.3682C137.369 63.0954 137.864 62.9591 138.439 62.9591C139.023 62.9591 139.511 63.0954 139.905 63.3682C140.303 63.6409 140.596 64.0159 140.786 64.4932H140.877C141.085 64.0273 141.417 63.656 141.871 63.3795C142.326 63.0992 142.867 62.9591 143.496 62.9591C144.288 62.9591 144.934 63.2072 145.434 63.7034C145.937 64.1996 146.189 64.9477 146.189 65.9477V71.8H144.49V66.1068C144.49 65.5159 144.329 65.0879 144.007 64.8227C143.685 64.5576 143.301 64.425 142.854 64.425C142.301 64.425 141.871 64.5954 141.564 64.9364C141.257 65.2735 141.104 65.7072 141.104 66.2375V71.8H139.411V65.9989C139.411 65.5254 139.263 65.1447 138.968 64.8568C138.672 64.5689 138.288 64.425 137.814 64.425C137.492 64.425 137.195 64.5102 136.922 64.6807C136.653 64.8473 136.435 65.0803 136.269 65.3795C136.106 65.6788 136.025 66.0254 136.025 66.4193V71.8H134.326ZM153.995 68.1807V63.0727H155.699V71.8H154.029V70.2886H153.938C153.737 70.7545 153.415 71.1428 152.972 71.4534C152.533 71.7602 151.985 71.9136 151.33 71.9136C150.769 71.9136 150.273 71.7905 149.841 71.5443C149.413 71.2943 149.076 70.925 148.83 70.4364C148.587 69.9477 148.466 69.3435 148.466 68.6239V63.0727H150.165V68.4193C150.165 69.014 150.33 69.4875 150.659 69.8398C150.989 70.192 151.417 70.3682 151.944 70.3682C152.262 70.3682 152.578 70.2886 152.892 70.1295C153.211 69.9704 153.474 69.7299 153.682 69.4079C153.894 69.086 153.998 68.6769 153.995 68.1807ZM159.681 66.6182V71.8H157.982V63.0727H159.613V64.4932H159.721C159.921 64.031 160.236 63.6598 160.664 63.3795C161.096 63.0992 161.639 62.9591 162.294 62.9591C162.889 62.9591 163.41 63.0841 163.857 63.3341C164.304 63.5803 164.65 63.9477 164.897 64.4364C165.143 64.925 165.266 65.5292 165.266 66.2489V71.8H163.567V66.4534C163.567 65.8208 163.402 65.3265 163.073 64.9704C162.743 64.6106 162.291 64.4307 161.715 64.4307C161.321 64.4307 160.971 64.5159 160.664 64.6864C160.361 64.8568 160.12 65.1068 159.942 65.4364C159.768 65.7621 159.681 66.156 159.681 66.6182ZM167.544 71.8V63.0727H169.243V71.8H167.544ZM168.402 61.7261C168.107 61.7261 167.853 61.6276 167.641 61.4307C167.433 61.2299 167.328 60.9913 167.328 60.7148C167.328 60.4345 167.433 60.1958 167.641 59.9989C167.853 59.7981 168.107 59.6977 168.402 59.6977C168.698 59.6977 168.95 59.7981 169.158 59.9989C169.37 60.1958 169.476 60.4345 169.476 60.7148C169.476 60.9913 169.37 61.2299 169.158 61.4307C168.95 61.6276 168.698 61.7261 168.402 61.7261ZM175.603 63.0727V64.4364H170.836V63.0727H175.603ZM172.114 60.9818H173.813V69.2375C173.813 69.567 173.862 69.8151 173.961 69.9818C174.059 70.1447 174.186 70.2564 174.341 70.317C174.5 70.3739 174.673 70.4023 174.858 70.4023C174.995 70.4023 175.114 70.3928 175.216 70.3739C175.319 70.3549 175.398 70.3398 175.455 70.3284L175.762 71.7318C175.663 71.7697 175.523 71.8076 175.341 71.8454C175.159 71.8871 174.932 71.9098 174.659 71.9136C174.212 71.9212 173.796 71.8417 173.409 71.675C173.023 71.5083 172.711 71.2507 172.472 70.9023C172.233 70.5538 172.114 70.1163 172.114 69.5898V60.9818ZM178.556 75.0727C178.302 75.0727 178.071 75.0519 177.863 75.0102C177.654 74.9723 177.499 74.9307 177.397 74.8852L177.806 73.4932C178.116 73.5765 178.393 73.6125 178.635 73.6011C178.878 73.5898 179.092 73.4989 179.277 73.3284C179.467 73.1579 179.633 72.8795 179.777 72.4932L179.988 71.9136L176.794 63.0727H178.613L180.823 69.8454H180.914L183.124 63.0727H184.948L181.351 72.9648C181.185 73.4193 180.972 73.8038 180.715 74.1182C180.457 74.4364 180.15 74.675 179.794 74.8341C179.438 74.9932 179.025 75.0727 178.556 75.0727ZM190.779 71.8V63.0727H192.409V64.4932H192.517C192.699 64.0121 192.997 63.6371 193.409 63.3682C193.822 63.0954 194.317 62.9591 194.892 62.9591C195.476 62.9591 195.964 63.0954 196.358 63.3682C196.756 63.6409 197.05 64.0159 197.239 64.4932H197.33C197.538 64.0273 197.87 63.656 198.324 63.3795C198.779 63.0992 199.32 62.9591 199.949 62.9591C200.741 62.9591 201.387 63.2072 201.887 63.7034C202.391 64.1996 202.642 64.9477 202.642 65.9477V71.8H200.944V66.1068C200.944 65.5159 200.783 65.0879 200.461 64.8227C200.139 64.5576 199.754 64.425 199.307 64.425C198.754 64.425 198.324 64.5954 198.017 64.9364C197.711 65.2735 197.557 65.7072 197.557 66.2375V71.8H195.864V65.9989C195.864 65.5254 195.716 65.1447 195.421 64.8568C195.125 64.5689 194.741 64.425 194.267 64.425C193.945 64.425 193.648 64.5102 193.375 64.6807C193.106 64.8473 192.889 65.0803 192.722 65.3795C192.559 65.6788 192.478 66.0254 192.478 66.4193V71.8H190.779ZM207.459 71.9932C206.906 71.9932 206.406 71.8909 205.959 71.6864C205.512 71.478 205.158 71.1769 204.897 70.7829C204.639 70.389 204.51 69.906 204.51 69.3341C204.51 68.8417 204.605 68.4364 204.794 68.1182C204.984 67.8 205.239 67.5481 205.561 67.3625C205.883 67.1769 206.243 67.0367 206.641 66.942C207.039 66.8473 207.444 66.7754 207.857 66.7261C208.38 66.6655 208.804 66.6163 209.13 66.5784C209.455 66.5367 209.692 66.4704 209.84 66.3795C209.988 66.2886 210.061 66.1409 210.061 65.9364V65.8966C210.061 65.4004 209.921 65.0159 209.641 64.7432C209.364 64.4704 208.952 64.3341 208.402 64.3341C207.83 64.3341 207.38 64.461 207.05 64.7148C206.724 64.9648 206.499 65.2432 206.374 65.55L204.777 65.1864C204.967 64.656 205.243 64.228 205.607 63.9023C205.974 63.5727 206.397 63.3341 206.874 63.1864C207.351 63.0348 207.853 62.9591 208.38 62.9591C208.728 62.9591 209.097 63.0007 209.488 63.0841C209.882 63.1636 210.249 63.3114 210.59 63.5273C210.935 63.7432 211.217 64.0519 211.436 64.4534C211.656 64.8511 211.766 65.3682 211.766 66.0045V71.8H210.107V70.6068H210.039C209.929 70.8265 209.764 71.0424 209.544 71.2545C209.325 71.4667 209.042 71.6428 208.698 71.7829C208.353 71.9231 207.94 71.9932 207.459 71.9932ZM207.828 70.6295C208.298 70.6295 208.7 70.5367 209.033 70.3511C209.37 70.1655 209.626 69.9231 209.8 69.6239C209.978 69.3208 210.067 68.997 210.067 68.6523V67.5273C210.007 67.5879 209.889 67.6447 209.715 67.6977C209.544 67.747 209.349 67.7905 209.13 67.8284C208.91 67.8625 208.696 67.8947 208.488 67.925C208.279 67.9515 208.105 67.9742 207.965 67.9932C207.635 68.0348 207.334 68.1049 207.061 68.2034C206.792 68.3019 206.577 68.4439 206.414 68.6295C206.255 68.8114 206.175 69.0538 206.175 69.3568C206.175 69.7773 206.33 70.0954 206.641 70.3114C206.952 70.5235 207.347 70.6295 207.828 70.6295ZM215.728 66.6182V71.8H214.029V63.0727H215.659V64.4932H215.767C215.968 64.031 216.283 63.6598 216.711 63.3795C217.142 63.0992 217.686 62.9591 218.341 62.9591C218.936 62.9591 219.457 63.0841 219.904 63.3341C220.351 63.5803 220.697 63.9477 220.944 64.4364C221.19 64.925 221.313 65.5292 221.313 66.2489V71.8H219.614V66.4534C219.614 65.8208 219.449 65.3265 219.12 64.9704C218.79 64.6106 218.337 64.4307 217.762 64.4307C217.368 64.4307 217.017 64.5159 216.711 64.6864C216.408 64.8568 216.167 65.1068 215.989 65.4364C215.815 65.7621 215.728 66.156 215.728 66.6182ZM226.131 71.9932C225.578 71.9932 225.078 71.8909 224.631 71.6864C224.184 71.478 223.83 71.1769 223.569 70.7829C223.311 70.389 223.182 69.906 223.182 69.3341C223.182 68.8417 223.277 68.4364 223.466 68.1182C223.656 67.8 223.911 67.5481 224.233 67.3625C224.555 67.1769 224.915 67.0367 225.313 66.942C225.711 66.8473 226.116 66.7754 226.529 66.7261C227.051 66.6655 227.476 66.6163 227.801 66.5784C228.127 66.5367 228.364 66.4704 228.512 66.3795C228.659 66.2886 228.733 66.1409 228.733 65.9364V65.8966C228.733 65.4004 228.593 65.0159 228.313 64.7432C228.036 64.4704 227.623 64.3341 227.074 64.3341C226.502 64.3341 226.051 64.461 225.722 64.7148C225.396 64.9648 225.171 65.2432 225.046 65.55L223.449 65.1864C223.639 64.656 223.915 64.228 224.279 63.9023C224.646 63.5727 225.069 63.3341 225.546 63.1864C226.023 63.0348 226.525 62.9591 227.051 62.9591C227.4 62.9591 227.769 63.0007 228.159 63.0841C228.553 63.1636 228.921 63.3114 229.262 63.5273C229.606 63.7432 229.889 64.0519 230.108 64.4534C230.328 64.8511 230.438 65.3682 230.438 66.0045V71.8H228.779V70.6068H228.711C228.601 70.8265 228.436 71.0424 228.216 71.2545C227.997 71.4667 227.714 71.6428 227.37 71.7829C227.025 71.9231 226.612 71.9932 226.131 71.9932ZM226.5 70.6295C226.97 70.6295 227.372 70.5367 227.705 70.3511C228.042 70.1655 228.298 69.9231 228.472 69.6239C228.65 69.3208 228.739 68.997 228.739 68.6523V67.5273C228.678 67.5879 228.561 67.6447 228.387 67.6977C228.216 67.747 228.021 67.7905 227.801 67.8284C227.582 67.8625 227.368 67.8947 227.159 67.925C226.951 67.9515 226.777 67.9742 226.637 67.9932C226.307 68.0348 226.006 68.1049 225.733 68.2034C225.464 68.3019 225.248 68.4439 225.086 68.6295C224.926 68.8114 224.847 69.0538 224.847 69.3568C224.847 69.7773 225.002 70.0954 225.313 70.3114C225.623 70.5235 226.019 70.6295 226.5 70.6295ZM236.36 75.2545C235.667 75.2545 235.07 75.1636 234.57 74.9818C234.074 74.8 233.668 74.5595 233.354 74.2602C233.04 73.961 232.805 73.6333 232.65 73.2773L234.11 72.675C234.212 72.8417 234.348 73.0178 234.519 73.2034C234.693 73.3928 234.928 73.5538 235.223 73.6864C235.523 73.8189 235.907 73.8852 236.377 73.8852C237.021 73.8852 237.553 73.728 237.973 73.4136C238.394 73.103 238.604 72.6068 238.604 71.925V70.2091H238.496C238.394 70.3947 238.246 70.6011 238.053 70.8284C237.864 71.0557 237.602 71.2526 237.269 71.4193C236.935 71.586 236.502 71.6693 235.968 71.6693C235.278 71.6693 234.657 71.5083 234.104 71.1864C233.555 70.8606 233.119 70.3814 232.797 69.7489C232.479 69.1125 232.32 68.3303 232.32 67.4023C232.32 66.4742 232.477 65.6788 232.792 65.0159C233.11 64.353 233.545 63.8454 234.098 63.4932C234.651 63.1371 235.278 62.9591 235.979 62.9591C236.521 62.9591 236.958 63.05 237.292 63.2318C237.625 63.4098 237.884 63.6182 238.07 63.8568C238.259 64.0954 238.405 64.3057 238.507 64.4875H238.632V63.0727H240.297V71.9932C240.297 72.7432 240.123 73.3587 239.775 73.8398C239.426 74.3208 238.954 74.6769 238.36 74.9079C237.769 75.139 237.102 75.2545 236.36 75.2545ZM236.343 70.2602C236.831 70.2602 237.244 70.1466 237.581 69.9193C237.922 69.6882 238.18 69.3587 238.354 68.9307C238.532 68.4989 238.621 67.9818 238.621 67.3795C238.621 66.7924 238.534 66.2754 238.36 65.8284C238.185 65.3814 237.93 65.0329 237.593 64.7829C237.256 64.5292 236.839 64.4023 236.343 64.4023C235.831 64.4023 235.405 64.5348 235.064 64.8C234.723 65.0614 234.466 65.4174 234.292 65.8682C234.121 66.3189 234.036 66.8227 234.036 67.3795C234.036 67.9515 234.123 68.4534 234.297 68.8852C234.471 69.317 234.729 69.6542 235.07 69.8966C235.415 70.139 235.839 70.2602 236.343 70.2602ZM246.337 71.9761C245.477 71.9761 244.737 71.7924 244.115 71.425C243.498 71.0538 243.021 70.5329 242.684 69.8625C242.35 69.1882 242.184 68.3985 242.184 67.4932C242.184 66.5992 242.35 65.8114 242.684 65.1295C243.021 64.4477 243.49 63.9155 244.093 63.5329C244.699 63.1504 245.407 62.9591 246.218 62.9591C246.71 62.9591 247.187 63.0405 247.65 63.2034C248.112 63.3663 248.526 63.622 248.894 63.9704C249.261 64.3189 249.551 64.7716 249.763 65.3284C249.975 65.8814 250.081 66.5538 250.081 67.3454V67.9477H243.144V66.675H248.417C248.417 66.228 248.326 65.8322 248.144 65.4875C247.962 65.139 247.706 64.8644 247.377 64.6636C247.051 64.4629 246.668 64.3625 246.229 64.3625C245.752 64.3625 245.335 64.4799 244.979 64.7148C244.627 64.9458 244.354 65.2489 244.161 65.6239C243.971 65.9951 243.877 66.3985 243.877 66.8341V67.8284C243.877 68.4117 243.979 68.9079 244.184 69.317C244.392 69.7261 244.682 70.0386 245.053 70.2545C245.424 70.4667 245.858 70.5727 246.354 70.5727C246.676 70.5727 246.97 70.5273 247.235 70.4364C247.5 70.3417 247.729 70.2015 247.922 70.0159C248.115 69.8303 248.263 69.6011 248.365 69.3284L249.973 69.6182C249.845 70.0917 249.614 70.5064 249.28 70.8625C248.951 71.2148 248.536 71.4894 248.036 71.6864C247.54 71.8795 246.973 71.9761 246.337 71.9761ZM251.966 71.8V63.0727H253.608V64.4591H253.699C253.858 63.9894 254.139 63.6201 254.54 63.3511C254.945 63.0784 255.404 62.942 255.915 62.942C256.021 62.942 256.146 62.9458 256.29 62.9534C256.438 62.961 256.553 62.9704 256.637 62.9818V64.6068C256.569 64.5879 256.447 64.567 256.273 64.5443C256.099 64.5178 255.925 64.5045 255.75 64.5045C255.349 64.5045 254.991 64.5898 254.676 64.7602C254.366 64.9269 254.12 65.1598 253.938 65.4591C253.756 65.7545 253.665 66.0917 253.665 66.4704V71.8H251.966Z" fill="#556DB1"/>
</g>
<defs>
<filter id="filter0_d_528_15178" x="0.000782013" y="-1.14441e-05" width="330.6" height="140.6" filterUnits="userSpaceOnUse" color-interpolation-filters="sRGB">
<feFlood flood-opacity="0" result="BackgroundImageFix"/>
<feColorMatrix in="SourceAlpha" type="matrix" values="0 0 0 0 0 0 0 0 0 0 0 0 0 0 0 0 0 0 127 0" result="hardAlpha"/>
<feOffset dy="4"/>
<feGaussianBlur stdDeviation="22.15"/>
<feComposite in2="hardAlpha" operator="out"/>
<feColorMatrix type="matrix" values="0 0 0 0 0 0 0 0 0 0 0 0 0 0 0 0 0 0 0.12 0"/>
<feBlend mode="normal" in2="BackgroundImageFix" result="effect1_dropShadow_528_15178"/>
<feBlend mode="normal" in="SourceGraphic" in2="effect1_dropShadow_528_15178" result="shape"/>
</filter>
</defs>
</svg>
