<svg width="350" height="518" viewBox="0 0 350 518" fill="none" xmlns="http://www.w3.org/2000/svg">
<g clip-path="url(#clip0_528_15837)">
<path d="M40.6834 25.6245C40.0834 17.1307 32.8875 10.6145 24.3738 10.6145H12.844C12.1769 10.6145 11.5588 10.9317 11.1691 11.4519C10.9625 11.7274 10.7541 12.0029 10.542 12.2748C10.5075 12.3256 10.4695 12.3745 10.4278 12.418C10.4242 12.4234 10.4205 12.4271 10.4151 12.4325C10.1124 12.7696 9.67194 12.9817 9.18435 12.9817C8.58258 12.9817 8.0533 12.6573 7.76329 12.1733C7.75967 12.1661 7.75604 12.1624 7.75423 12.1552C7.73066 12.1135 7.7071 12.0718 7.68716 12.0283C7.68716 12.0247 7.68716 12.0229 7.68354 12.021L6.25522 9.34567L2.95451 3.37503C3.18289 3.20827 3.37503 2.99257 3.50916 2.74062C3.64329 2.48868 3.72304 2.20229 3.72848 1.89959C3.7448 0.909916 2.95813 0.0561901 1.97028 0.00362516C1.78902 -0.00725033 1.60776 0.0108755 1.43738 0.0489397L1.41563 0V0.0543775C1.00961 0.155882 0.654342 0.391518 0.402393 0.70872C0.150444 1.02592 0 1.42831 0 1.86515C0 2.30198 0.150444 2.70437 0.404206 3.02157C0.656155 3.33878 1.00961 3.5726 1.41563 3.6741V28.0044C1.41563 36.2299 8.14574 42.9564 16.3694 42.9564H24.5532C28.9995 42.9564 33.0434 41.1366 35.9743 38.2074C39.159 35.0191 41.0296 30.5257 40.6834 25.6245ZM36.3459 26.7845C36.3459 32.6283 31.5661 37.4081 25.7224 37.4081H16.219C10.3752 37.4081 5.59544 32.6283 5.59544 26.7845C5.59544 20.9408 10.3752 16.161 16.219 16.161H25.7224C31.5661 16.161 36.3459 20.9408 36.3459 26.7845Z" fill="url(#paint0_linear_528_15837)"/>
<path d="M25.56 29.4111C27.0106 29.4111 28.1865 28.2352 28.1865 26.7846C28.1865 25.3341 27.0106 24.1582 25.56 24.1582C24.1095 24.1582 22.9336 25.3341 22.9336 26.7846C22.9336 28.2352 24.1095 29.4111 25.56 29.4111Z" fill="#231759"/>
<path d="M16.3784 29.4111C17.8289 29.4111 19.0048 28.2352 19.0048 26.7846C19.0048 25.3341 17.8289 24.1582 16.3784 24.1582C14.9278 24.1582 13.752 25.3341 13.752 26.7846C13.752 28.2352 14.9278 29.4111 16.3784 29.4111Z" fill="#231759"/>
<path d="M64.2237 28.412C64.2237 32.3851 61.1314 35.6061 57.3178 35.6061C56.0018 35.6061 54.7711 35.2236 53.7252 34.5584C53.4624 35.1747 52.8498 35.6061 52.1356 35.6061C51.1822 35.6061 50.4082 34.8321 50.4082 33.8787V17.763C50.4082 16.8096 51.1822 16.0356 52.1356 16.0356C53.089 16.0356 53.863 16.8096 53.863 17.763V22.1785C54.8798 21.5658 56.058 21.216 57.316 21.216C61.1296 21.216 64.2219 24.4388 64.2219 28.412H64.2237ZM60.7689 28.412C60.7689 26.3456 59.221 24.6708 57.316 24.6708C55.4109 24.6708 53.863 26.3456 53.863 28.412C53.863 30.4783 55.4091 32.1531 57.316 32.1531C59.2228 32.1531 60.7689 30.4783 60.7689 28.412Z" fill="#231759"/>
<path d="M65.9473 28.4119C65.9473 24.4387 69.0395 21.2178 72.8532 21.2178C76.6669 21.2178 79.7591 24.4387 79.7591 28.4119C79.7591 32.3851 76.6669 35.6061 72.8532 35.6061C69.0395 35.6061 65.9473 32.3851 65.9473 28.4119ZM76.308 28.4119C76.308 26.3456 74.7619 24.6707 72.855 24.6707C70.9482 24.6707 69.4021 26.3456 69.4021 28.4119C69.4021 30.4783 70.95 32.1531 72.855 32.1531C74.76 32.1531 76.308 30.4783 76.308 28.4119Z" fill="#231759"/>
<path d="M91.9298 34.7721C91.1232 35.3177 90.1753 35.6059 89.2237 35.6059C86.5175 35.6059 84.3315 33.3619 84.3315 30.6267V24.6706H82.9286C81.9751 24.6706 81.2012 23.8966 81.2012 22.9432C81.2012 21.9897 81.9751 21.2158 82.9286 21.2158H84.3315V18.3392C84.3315 17.3912 85.1091 16.6118 86.0589 16.6118C87.0087 16.6118 87.7863 17.3894 87.7863 18.3392V21.2158H90.4997C91.4531 21.2158 92.2271 21.9897 92.2271 22.9432C92.2271 23.8966 91.4531 24.6706 90.4997 24.6706H87.7845V30.6285C87.7845 31.4623 88.4171 32.1529 89.2237 32.1529C89.4829 32.1529 89.7692 32.0659 90.0013 31.9227C90.7789 31.3771 91.8428 31.5783 92.3902 32.3831C92.9086 33.1625 92.7074 34.2537 91.9298 34.7739V34.7721Z" fill="#231759"/>
<path d="M94.5547 17.9062C94.5547 16.8731 95.3921 16.0356 96.4253 16.0356C97.4584 16.0356 98.2959 16.8731 98.2959 17.9062C98.2959 18.9394 97.4584 19.7768 96.4253 19.7768C95.3921 19.7768 94.5547 18.9394 94.5547 17.9062ZM94.6979 33.8787V22.9434C94.6979 21.99 95.4719 21.216 96.4253 21.216C97.3787 21.216 98.1527 21.99 98.1527 22.9434V33.8787C98.1527 34.8321 97.3787 35.6061 96.4253 35.6061C95.4719 35.6061 94.6979 34.8321 94.6979 33.8787Z" fill="#231759"/>
<path d="M135.957 42.4017C135.957 42.1679 136.147 41.9775 136.37 41.9775H138.536C140.873 41.9775 142.486 43.5817 142.486 45.6734V45.6951C142.486 47.7869 140.873 49.4109 138.536 49.4109H136.37C136.147 49.4109 135.957 49.2206 135.957 48.9868V42.4035V42.4017ZM138.536 48.6333C140.416 48.6333 141.616 47.3591 141.616 45.7133V45.6915C141.616 44.0457 140.416 42.7515 138.536 42.7515H136.794V48.6333H138.536Z" fill="#231759"/>
<path d="M144.016 42.1987C144.016 41.9341 144.228 41.7637 144.494 41.7637C144.761 41.7637 144.982 41.9341 144.982 42.1987V42.3364C144.982 42.592 144.77 42.7715 144.494 42.7715C144.219 42.7715 144.016 42.5902 144.016 42.3364V42.1987ZM144.09 44.2813C144.09 44.0584 144.271 43.8663 144.494 43.8663C144.717 43.8663 144.909 44.0475 144.909 44.2813V49.0484C144.909 49.2823 144.739 49.4635 144.505 49.4635C144.271 49.4635 144.092 49.2823 144.092 49.0484V44.2813H144.09Z" fill="#231759"/>
<path d="M146.842 50.482C146.715 50.4185 146.63 50.2916 146.63 50.1412C146.63 49.9599 146.811 49.7805 147.001 49.7805C147.076 49.7805 147.128 49.8022 147.182 49.8331C147.755 50.2155 148.413 50.4276 149.126 50.4276C150.336 50.4276 151.121 49.7587 151.121 48.4736V47.8265C150.643 48.4627 149.974 48.983 148.966 48.983C147.65 48.983 146.387 47.9951 146.387 46.4127V46.391C146.387 44.7868 147.661 43.8008 148.966 43.8008C149.996 43.8008 150.664 44.3101 151.11 44.9046V44.2775C151.11 44.0545 151.281 43.8624 151.515 43.8624C151.748 43.8624 151.93 44.0527 151.93 44.2775V48.4501C151.93 49.3002 151.674 49.9472 151.228 50.3931C150.739 50.8825 150.006 51.1254 149.136 51.1254C148.266 51.1254 147.532 50.9025 146.843 50.4783L146.842 50.482ZM151.141 46.4037V46.3819C151.141 45.2563 150.164 44.524 149.124 44.524C148.083 44.524 147.222 45.2454 147.222 46.371V46.3928C147.222 47.4966 148.103 48.2615 149.124 48.2615C150.144 48.2615 151.141 47.5075 151.141 46.4037Z" fill="#231759"/>
<path d="M153.648 42.1987C153.648 41.9341 153.861 41.7637 154.127 41.7637C154.393 41.7637 154.615 41.9341 154.615 42.1987V42.3364C154.615 42.592 154.402 42.7715 154.127 42.7715C153.851 42.7715 153.648 42.5902 153.648 42.3364V42.1987ZM153.723 44.2813C153.723 44.0584 153.904 43.8663 154.127 43.8663C154.35 43.8663 154.54 44.0475 154.54 44.2813V49.0484C154.54 49.2823 154.37 49.4635 154.136 49.4635C153.902 49.4635 153.721 49.2823 153.721 49.0484V44.2813H153.723Z" fill="#231759"/>
<path d="M156.621 47.9534V44.64H156.175C155.985 44.64 155.814 44.4696 155.814 44.2793C155.814 44.0781 155.985 43.9186 156.175 43.9186H156.621V42.6226C156.621 42.3997 156.791 42.2075 157.025 42.2075C157.259 42.2075 157.439 42.3978 157.439 42.6226V43.9186H158.861C159.063 43.9186 159.233 44.089 159.233 44.2793C159.233 44.4805 159.063 44.64 158.861 44.64H157.439V47.8465C157.439 48.5153 157.81 48.76 158.363 48.76C158.649 48.76 158.798 48.6857 158.861 48.6857C159.052 48.6857 159.211 48.8452 159.211 49.0355C159.211 49.1841 159.115 49.3002 158.977 49.3545C158.744 49.4506 158.49 49.5032 158.171 49.5032C157.29 49.5032 156.621 49.0681 156.621 47.9534Z" fill="#231759"/>
<path d="M160.103 47.8159V47.7941C160.103 46.6377 161.059 46.0214 162.451 46.0214C163.152 46.0214 163.651 46.1175 164.138 46.2553V46.0649C164.138 45.0771 163.533 44.5677 162.503 44.5677C161.95 44.5677 161.485 44.6946 161.08 44.8759C161.028 44.8976 160.973 44.9085 160.932 44.9085C160.741 44.9085 160.571 44.749 160.571 44.5587C160.571 44.3883 160.687 44.2614 160.794 44.2197C161.336 43.9859 161.887 43.8481 162.588 43.8481C163.364 43.8481 163.959 44.0493 164.361 44.4535C164.733 44.8251 164.923 45.3562 164.923 46.0577V49.0629C164.923 49.2968 164.753 49.4672 164.53 49.4672C164.307 49.4672 164.136 49.2968 164.136 49.0847V48.5862C163.754 49.0847 163.118 49.5306 162.15 49.5306C161.131 49.5306 160.102 48.9469 160.102 47.8213L160.103 47.8159ZM164.149 47.3917V46.8607C163.745 46.7447 163.205 46.6268 162.536 46.6268C161.506 46.6268 160.932 47.0727 160.932 47.7633V47.7851C160.932 48.4757 161.568 48.8781 162.313 48.8781C163.323 48.8781 164.149 48.2618 164.149 47.3917Z" fill="#231759"/>
<path d="M166.635 42.0191C166.635 41.7961 166.816 41.604 167.039 41.604C167.262 41.604 167.454 41.7943 167.454 42.0191V49.0483C167.454 49.2821 167.284 49.4634 167.05 49.4634C166.816 49.4634 166.637 49.2821 166.637 49.0483V42.0191H166.635Z" fill="#231759"/>
<path d="M172.465 48.985V42.4017C172.465 42.1679 172.655 41.9775 172.878 41.9775H177.497C177.709 41.9775 177.879 42.1479 177.879 42.36C177.879 42.5721 177.709 42.7424 177.497 42.7424H173.302V45.2801H177.018C177.23 45.2801 177.401 45.4613 177.401 45.6625C177.401 45.8746 177.23 46.045 177.018 46.045H173.302V48.646H177.549C177.761 48.646 177.932 48.8164 177.932 49.0285C177.932 49.2406 177.761 49.4109 177.549 49.4109H172.878C172.655 49.4109 172.465 49.2206 172.465 48.9868V48.985Z" fill="#231759"/>
<path d="M179.334 44.2813C179.334 44.0583 179.515 43.8662 179.738 43.8662C179.961 43.8662 180.151 44.0474 180.151 44.2813V44.8758C180.512 44.2813 181.087 43.8027 182.031 43.8027C183.358 43.8027 184.134 44.6945 184.134 45.9996V49.0465C184.134 49.2804 183.952 49.4616 183.729 49.4616C183.506 49.4616 183.316 49.2804 183.316 49.0465V46.2008C183.316 45.1821 182.763 44.5441 181.797 44.5441C180.831 44.5441 180.151 45.2347 180.151 46.2642V49.0465C180.151 49.2804 179.981 49.4616 179.747 49.4616C179.513 49.4616 179.332 49.2804 179.332 49.0465V44.2794L179.334 44.2813Z" fill="#231759"/>
<path d="M185.355 47.8159V47.7941C185.355 46.6377 186.311 46.0214 187.703 46.0214C188.404 46.0214 188.903 46.1175 189.39 46.2553V46.0649C189.39 45.0771 188.785 44.5677 187.755 44.5677C187.202 44.5677 186.737 44.6946 186.332 44.8759C186.28 44.8976 186.226 44.9085 186.184 44.9085C185.994 44.9085 185.823 44.749 185.823 44.5587C185.823 44.3883 185.939 44.2614 186.046 44.2197C186.588 43.9859 187.139 43.8481 187.841 43.8481C188.616 43.8481 189.211 44.0493 189.613 44.4535C189.985 44.8251 190.175 45.3562 190.175 46.0577V49.0629C190.175 49.2968 190.005 49.4672 189.782 49.4672C189.559 49.4672 189.388 49.2968 189.388 49.0847V48.5862C189.006 49.0847 188.37 49.5306 187.404 49.5306C186.385 49.5306 185.355 48.9469 185.355 47.8213V47.8159ZM189.401 47.3917V46.8607C188.997 46.7447 188.457 46.6268 187.788 46.6268C186.758 46.6268 186.184 47.0727 186.184 47.7633V47.7851C186.184 48.4757 186.82 48.8781 187.565 48.8781C188.575 48.8781 189.401 48.2618 189.401 47.3917Z" fill="#231759"/>
<path d="M191.812 42.0191C191.812 41.7853 191.994 41.604 192.217 41.604C192.44 41.604 192.63 41.7853 192.63 42.0191V45.0243C193.076 44.3664 193.723 43.8027 194.733 43.8027C196.049 43.8027 197.355 44.8431 197.355 46.6484V46.6702C197.355 48.4646 196.059 49.5268 194.733 49.5268C193.714 49.5268 193.056 48.974 192.63 48.3595V49.0501C192.63 49.273 192.46 49.4652 192.226 49.4652C191.992 49.4652 191.812 49.2748 191.812 49.0501V42.0209V42.0191ZM196.516 46.6792V46.6575C196.516 45.3615 195.624 44.5331 194.584 44.5331C193.544 44.5331 192.597 45.3941 192.597 46.6466V46.6684C192.597 47.9426 193.563 48.7909 194.584 48.7909C195.604 48.7909 196.516 48.006 196.516 46.6774V46.6792Z" fill="#231759"/>
<path d="M198.83 42.0191C198.83 41.7961 199.011 41.604 199.234 41.604C199.457 41.604 199.648 41.7943 199.648 42.0191V49.0483C199.648 49.2821 199.477 49.4634 199.243 49.4634C199.01 49.4634 198.83 49.2821 198.83 49.0483V42.0191Z" fill="#231759"/>
<path d="M203.842 49.5358C202.334 49.5358 201.104 48.3794 201.104 46.6792V46.6574C201.104 45.075 202.218 43.8008 203.737 43.8008C205.361 43.8008 206.286 45.1276 206.286 46.5831C206.286 46.806 206.104 46.9655 205.903 46.9655H201.932C202.048 48.1546 202.887 48.8234 203.864 48.8234C204.544 48.8234 205.042 48.5588 205.446 48.1872C205.51 48.1347 205.584 48.0912 205.68 48.0912C205.881 48.0912 206.041 48.2507 206.041 48.441C206.041 48.5371 205.999 48.6313 205.914 48.7056C205.394 49.2041 204.778 49.534 203.844 49.534L203.842 49.5358ZM205.466 46.362C205.381 45.3632 204.808 44.4932 203.714 44.4932C202.758 44.4932 202.037 45.2889 201.93 46.362H205.466Z" fill="#231759"/>
<path d="M207.623 44.2812C207.623 44.0583 207.804 43.8661 208.027 43.8661C208.25 43.8661 208.441 44.0474 208.441 44.2812V45.3108C208.845 44.3972 209.64 43.8462 210.331 43.8462C210.576 43.8462 210.735 44.0275 210.735 44.2613C210.735 44.4951 210.587 44.6437 210.375 44.6745C209.312 44.8014 208.442 45.599 208.442 47.1795V49.0483C208.442 49.2713 208.272 49.4634 208.038 49.4634C207.804 49.4634 207.625 49.2821 207.625 49.0483V44.2812H207.623Z" fill="#231759"/>
<path d="M211.52 48.8251C211.445 48.7726 211.371 48.6656 211.371 48.5279C211.371 48.3376 211.531 48.178 211.732 48.178C211.806 48.178 211.88 48.1998 211.933 48.2415C212.497 48.6239 213.08 48.8251 213.675 48.8251C214.333 48.8251 214.811 48.4844 214.811 47.9551V47.9333C214.811 47.3805 214.164 47.1684 213.441 46.9672C212.582 46.7225 211.625 46.4253 211.625 45.4175V45.3957C211.625 44.4514 212.41 43.8242 213.494 43.8242C214.077 43.8242 214.715 44.0055 215.246 44.2919C215.352 44.3553 215.448 44.4713 215.448 44.6308C215.448 44.8211 215.288 44.9806 215.087 44.9806C215.013 44.9806 214.949 44.9589 214.906 44.939C214.438 44.6743 213.94 44.5148 213.472 44.5148C212.825 44.5148 212.41 44.8556 212.41 45.3105V45.3323C212.41 45.8525 213.089 46.0537 213.822 46.2766C214.672 46.5322 215.584 46.8603 215.584 47.8482V47.8699C215.584 48.9103 214.723 49.5157 213.63 49.5157C212.908 49.5157 212.111 49.2511 211.516 48.8251H211.52Z" fill="#231759"/>
<path d="M103.524 35.9049C103.221 35.9049 102.967 35.8015 102.759 35.5931C102.551 35.3847 102.447 35.1309 102.447 34.8282V18.6509C102.447 18.3482 102.551 18.0944 102.759 17.886C102.967 17.6775 103.221 17.5742 103.524 17.5742H114.488C115.074 17.5742 115.367 17.8389 115.367 18.3681V18.5385C115.367 19.0678 115.074 19.3324 114.488 19.3324H104.374V25.6511H112.476C113.062 25.6511 113.355 25.9157 113.355 26.445V26.5574C113.355 27.0867 113.062 27.3513 112.476 27.3513H104.374V34.1503H114.659C115.244 34.1503 115.538 34.4059 115.538 34.9152V35.0856C115.538 35.633 115.244 35.9067 114.659 35.9067H103.524V35.9049Z" fill="#231759"/>
<path d="M127.576 16.8094C127.576 16.7713 127.638 16.7296 127.761 16.6825C127.884 16.6354 128.029 16.6118 128.2 16.6118C128.52 16.6118 128.803 16.7242 129.05 16.9526C129.294 17.1792 129.418 17.6613 129.418 18.3972V35.1418C129.418 35.4826 129.342 35.7128 129.191 35.8361C129.039 35.9593 128.841 36.0209 128.597 36.0209H128.399C128.152 36.0209 127.96 35.9593 127.819 35.8361C127.678 35.7128 127.607 35.4826 127.607 35.1418V33.6682C127.002 34.5002 126.295 35.1364 125.483 35.5805C124.671 36.0246 123.697 36.2457 122.564 36.2457C121.676 36.2457 120.846 36.0808 120.072 35.7491C119.298 35.4192 118.622 34.9461 118.046 34.3316C117.469 33.719 117.016 32.9758 116.686 32.1076C116.356 31.2394 116.189 30.266 116.189 29.1893C116.189 28.1126 116.349 27.1629 116.672 26.2856C116.992 25.4065 117.446 24.6561 118.031 24.0325C118.616 23.409 119.305 22.9269 120.099 22.5879C120.893 22.2471 121.752 22.0786 122.677 22.0786C123.886 22.0786 124.91 22.3196 125.751 22.8018C126.592 23.2839 127.201 23.8368 127.578 24.4585V16.8094H127.576ZM127.605 26.8674C127.17 25.885 126.561 25.111 125.778 24.5437C124.993 23.9763 124.007 23.6936 122.818 23.6936C122.1 23.6936 121.448 23.8259 120.862 24.0905C120.277 24.3552 119.777 24.7286 119.361 25.2089C118.946 25.691 118.626 26.2674 118.399 26.9363C118.172 27.6069 118.058 28.3483 118.058 29.1603C118.058 29.9724 118.176 30.6865 118.412 31.3554C118.647 32.026 118.974 32.6024 119.389 33.0828C119.804 33.5649 120.3 33.9419 120.877 34.2156C121.453 34.4893 122.08 34.6271 122.76 34.6271C123.384 34.6271 123.987 34.5147 124.573 34.2863C125.158 34.0597 125.678 33.7443 126.131 33.3365C126.585 32.9305 126.943 32.4483 127.208 31.8919C127.473 31.3354 127.605 30.7355 127.605 30.0938V26.8638V26.8674Z" fill="#231759"/>
<path d="M142.366 33.8078C141.893 34.5256 141.275 35.1111 140.51 35.5642C139.745 36.0174 138.833 36.2439 137.776 36.2439C136.888 36.2439 136.109 36.1026 135.44 35.8198C134.769 35.537 134.211 35.1346 133.769 34.6162C133.325 34.0978 132.989 33.4689 132.763 32.733C132.536 31.9971 132.422 31.185 132.422 30.2969V23.1861C132.422 22.8453 132.498 22.6151 132.648 22.4919C132.799 22.3686 132.998 22.307 133.243 22.307H133.441C133.685 22.307 133.885 22.3686 134.035 22.4919C134.186 22.6151 134.262 22.8453 134.262 23.1861V30.1845C134.262 31.5439 134.588 32.6061 135.239 33.371C135.889 34.1359 136.821 34.5184 138.03 34.5184C139.012 34.5184 139.875 34.2537 140.622 33.7244C141.369 33.1952 141.94 32.5064 142.337 31.6563V23.1843C142.337 22.8435 142.413 22.6133 142.563 22.4901C142.714 22.3668 142.913 22.3052 143.158 22.3052H143.355C143.6 22.3052 143.799 22.3668 143.95 22.4901C144.1 22.6133 144.176 22.8435 144.176 23.1843V35.8198C144.176 35.8579 144.115 35.8995 143.992 35.9467C143.868 35.9938 143.723 36.0174 143.553 36.0174C143.232 36.0174 142.953 35.905 142.717 35.6766C142.482 35.45 142.364 34.9679 142.364 34.232V33.8078H142.366Z" fill="#231759"/>
<path d="M153.329 36.2438C152.347 36.2438 151.431 36.0644 150.581 35.7055C149.731 35.3466 148.995 34.8517 148.372 34.2173C147.748 33.5847 147.262 32.8343 146.913 31.9643C146.563 31.0961 146.389 30.1517 146.389 29.1312C146.389 28.1107 146.563 27.1718 146.913 26.3127C147.262 25.4535 147.748 24.7067 148.372 24.0741C148.995 23.4415 149.731 22.9503 150.581 22.6005C151.431 22.2507 152.347 22.0767 153.329 22.0767C154.311 22.0767 155.165 22.2144 155.894 22.4881C156.621 22.7618 157.226 23.0971 157.706 23.4941C158.189 23.8911 158.547 24.3025 158.783 24.7267C159.019 25.1508 159.137 25.5151 159.137 25.8178C159.137 26.0263 159.075 26.1912 158.952 26.3145C158.828 26.4377 158.692 26.532 158.54 26.5972C158.39 26.6643 158.252 26.7006 158.129 26.7096C158.006 26.7187 157.935 26.7151 157.917 26.6951C157.746 26.28 157.529 25.8921 157.264 25.5333C157 25.1744 156.684 24.859 156.314 24.5835C155.946 24.3098 155.517 24.0977 155.026 23.9454C154.534 23.795 153.967 23.7189 153.325 23.7189C152.608 23.7189 151.937 23.8512 151.313 24.1158C150.69 24.3805 150.152 24.7538 149.698 25.2342C149.245 25.7163 148.89 26.2873 148.636 26.9489C148.381 27.6105 148.254 28.3373 148.254 29.1312C148.254 29.9251 148.381 30.652 148.636 31.3136C148.892 31.9752 149.245 32.5516 149.698 33.041C150.152 33.5322 150.684 33.9146 151.299 34.1883C151.912 34.462 152.588 34.5998 153.325 34.5998C153.967 34.5998 154.534 34.5237 155.026 34.3732C155.517 34.2228 155.946 34.0107 156.314 33.7352C156.682 33.4615 157 33.1443 157.264 32.7854C157.529 32.4265 157.746 32.0386 157.917 31.6235C157.935 31.5855 158.006 31.5764 158.129 31.5945C158.252 31.6145 158.388 31.6562 158.54 31.7214C158.691 31.7885 158.828 31.8827 158.952 32.0042C159.075 32.1274 159.137 32.2924 159.137 32.5008C159.137 32.8035 159.019 33.166 158.783 33.592C158.547 34.0161 158.189 34.4276 157.706 34.8246C157.224 35.2215 156.621 35.5568 155.894 35.8305C155.167 36.1042 154.311 36.242 153.329 36.242V36.2438Z" fill="#231759"/>
<path d="M170.102 27.3769C170.102 26.206 169.776 25.3142 169.125 24.6997C168.475 24.0871 167.534 23.779 166.307 23.779C165.212 23.779 164.313 24.02 163.615 24.5022C162.916 24.9843 162.377 25.5752 162 26.2731C161.774 26.235 161.6 26.1843 161.476 26.1172C161.353 26.0519 161.235 25.9432 161.123 25.7909C161.011 25.6405 160.953 25.4411 160.953 25.1964C160.953 24.9517 161.07 24.6544 161.306 24.3046C161.542 23.9548 161.891 23.6158 162.354 23.2841C162.816 22.9542 163.392 22.6715 164.081 22.434C164.77 22.1984 165.558 22.0806 166.446 22.0806C168.165 22.0806 169.506 22.5428 170.47 23.469C171.433 24.3952 171.915 25.6785 171.915 27.3226V35.8218C171.915 35.8598 171.853 35.9015 171.73 35.9486C171.607 35.9958 171.462 36.0193 171.292 36.0193C170.971 36.0193 170.697 35.9069 170.47 35.6786C170.244 35.4502 170.13 34.9698 170.13 34.2339V33.7246C169.6 34.5185 168.897 35.1312 168.02 35.5662C167.141 36.0012 166.164 36.2187 165.087 36.2187C163.613 36.2187 162.471 35.8743 161.659 35.1837C160.847 34.4949 160.441 33.5832 160.441 32.4503C160.441 30.8643 161.221 29.7206 162.78 29.0228C164.338 28.3249 166.684 27.937 169.82 27.8609H170.102V27.3787V27.3769ZM165.257 34.6871C165.955 34.6871 166.599 34.5838 167.184 34.3753C167.77 34.1669 168.279 33.8787 168.714 33.5107C169.149 33.1428 169.488 32.7077 169.735 32.2075C169.979 31.7072 170.102 31.1544 170.102 30.5508V29.3037L169.309 29.3327C166.985 29.427 165.237 29.7007 164.067 30.1538C162.896 30.607 162.31 31.3719 162.31 32.4485C162.31 33.1283 162.569 33.672 163.09 34.078C163.61 34.4841 164.331 34.6871 165.257 34.6871Z" fill="#231759"/>
<path d="M174.238 24.0614C173.898 24.0614 173.668 23.9998 173.544 23.8765C173.421 23.7533 173.359 23.5702 173.359 23.3237V23.1533C173.359 22.9086 173.421 22.7237 173.544 22.6005C173.668 22.4772 173.898 22.4156 174.238 22.4156H175.486V20.0646C175.486 19.7239 175.562 19.4937 175.712 19.3704C175.863 19.2472 176.062 19.1855 176.307 19.1855H176.504C176.749 19.1855 176.943 19.2472 177.086 19.3704C177.227 19.4937 177.298 19.7239 177.298 20.0646V22.4156H180.896C181.237 22.4156 181.467 22.4772 181.59 22.6005C181.714 22.7237 181.775 22.9068 181.775 23.1533V23.3237C181.775 23.5702 181.714 23.7533 181.59 23.8765C181.467 23.9998 181.237 24.0614 180.896 24.0614H177.298V31.7395C177.298 32.74 177.445 33.4778 177.737 33.949C178.029 34.4221 178.554 34.6578 179.308 34.6578C179.78 34.6578 180.187 34.5689 180.526 34.3877C180.867 34.2082 181.159 33.9672 181.405 33.6645C181.443 33.6264 181.556 33.679 181.746 33.8203C181.935 33.9617 182.029 34.2119 182.029 34.5707C182.029 34.9496 181.793 35.3212 181.32 35.6891C180.847 36.0571 180.158 36.2419 179.252 36.2419C177.931 36.2419 176.972 35.8776 176.376 35.1508C175.781 34.4239 175.484 33.3509 175.484 31.9353V24.0596H174.237L174.238 24.0614Z" fill="#231759"/>
<path d="M184.806 19.0479C184.012 19.0479 183.615 18.6419 183.615 17.8299C183.615 17.0178 184.03 16.6118 184.862 16.6118C185.694 16.6118 186.051 17.0178 186.051 17.8299C186.051 18.6419 185.636 19.0479 184.804 19.0479H184.806ZM184.723 36.0173C184.476 36.0173 184.279 35.9557 184.128 35.8324C183.978 35.7092 183.902 35.479 183.902 35.1382V23.1824C183.902 22.8417 183.978 22.6115 184.128 22.4882C184.279 22.365 184.478 22.3033 184.723 22.3033H184.92C185.165 22.3033 185.364 22.365 185.515 22.4882C185.665 22.6115 185.741 22.8417 185.741 23.1824V35.1382C185.741 35.479 185.665 35.7092 185.515 35.8324C185.364 35.9557 185.165 36.0173 184.92 36.0173H184.723Z" fill="#231759"/>
<path d="M195.063 36.2438C194.043 36.2438 193.107 36.0644 192.259 35.7055C191.409 35.3466 190.677 34.8517 190.064 34.2173C189.45 33.5847 188.969 32.8343 188.62 31.9643C188.27 31.0961 188.096 30.1517 188.096 29.1312C188.096 28.1107 188.27 27.1718 188.62 26.3127C188.969 25.4535 189.45 24.7067 190.064 24.0741C190.677 23.4415 191.409 22.9503 192.259 22.6005C193.109 22.2507 194.045 22.0767 195.063 22.0767C196.082 22.0767 196.99 22.2561 197.84 22.615C198.69 22.9739 199.423 23.4705 200.035 24.1031C200.648 24.7357 201.13 25.4861 201.48 26.3562C201.83 27.2244 202.004 28.1687 202.004 29.1892C202.004 30.2097 201.83 31.1486 201.48 32.0078C201.13 32.867 200.648 33.6137 200.035 34.2463C199.421 34.8789 198.69 35.3701 197.84 35.72C196.99 36.0698 196.064 36.2438 195.063 36.2438ZM195.063 34.6288C195.781 34.6288 196.452 34.4928 197.075 34.2173C197.699 33.9436 198.237 33.5648 198.69 33.0845C199.143 32.6041 199.499 32.0314 199.752 31.3698C200.008 30.7082 200.135 29.9813 200.135 29.1874C200.135 28.3935 200.008 27.663 199.752 26.9924C199.497 26.3217 199.143 25.7417 198.69 25.2505C198.237 24.7593 197.702 24.3768 197.09 24.1031C196.475 23.8294 195.801 23.6917 195.063 23.6917C194.326 23.6917 193.646 23.8294 193.024 24.1031C192.401 24.3768 191.862 24.7538 191.409 25.236C190.956 25.7181 190.601 26.2891 190.347 26.9507C190.091 27.6123 189.964 28.3391 189.964 29.133C189.964 29.927 190.091 30.6592 190.347 31.3281C190.603 31.9987 190.956 32.5788 191.409 33.07C191.862 33.5612 192.401 33.9436 193.024 34.2173C193.648 34.491 194.327 34.6288 195.063 34.6288Z" fill="#231759"/>
<path d="M206.055 24.5147C206.526 23.7969 207.146 23.2115 207.911 22.7583C208.676 22.3052 209.588 22.0786 210.645 22.0786C211.533 22.0786 212.312 22.22 212.983 22.5028C213.653 22.7855 214.21 23.1879 214.654 23.7063C215.098 24.2265 215.433 24.8537 215.66 25.5896C215.887 26.3255 216.001 27.1375 216.001 28.0257V35.1365C216.001 35.4772 215.925 35.7074 215.774 35.8307C215.622 35.9539 215.424 36.0156 215.18 36.0156H214.982C214.736 36.0156 214.538 35.9539 214.388 35.8307C214.237 35.7074 214.161 35.4772 214.161 35.1365V28.1381C214.161 26.7786 213.844 25.7165 213.211 24.9516C212.579 24.1866 211.685 23.8042 210.534 23.8042C209.475 23.8042 208.569 24.0688 207.815 24.5981C207.059 25.1274 206.483 25.8162 206.086 26.6663V35.1365C206.086 35.4772 206.01 35.7074 205.859 35.8307C205.709 35.9539 205.509 36.0156 205.265 36.0156H205.067C204.821 36.0156 204.623 35.9539 204.473 35.8307C204.322 35.7074 204.246 35.4772 204.246 35.1365V22.5009C204.246 22.4629 204.308 22.4212 204.431 22.3741C204.554 22.3269 204.701 22.3034 204.87 22.3034C205.19 22.3034 205.47 22.4158 205.705 22.6441C205.941 22.8707 206.059 23.3529 206.059 24.0888V24.5129L206.055 24.5147Z" fill="#231759"/>
<path d="M79.8346 35.6567C79.4159 35.2307 78.747 35.1782 78.2703 35.5389C77.2208 36.3328 75.3484 37.4022 72.8579 37.4022C70.3675 37.4022 68.4932 36.3346 67.4456 35.5389C66.9707 35.1782 66.3 35.2325 65.8831 35.6567C65.381 36.166 65.439 37.0034 66.0082 37.4366C67.3821 38.4843 69.7167 39.7803 72.8616 39.7803C76.0064 39.7803 78.341 38.4843 79.7149 37.4366C80.2823 37.0034 80.3385 36.1696 79.8382 35.6567H79.8346Z" fill="url(#paint1_linear_528_15837)"/>
</g>
<path d="M14.767 125.129H2.90767V91.6748H14.8651C18.2301 91.6748 21.1269 92.3446 23.5554 93.6841C25.9839 95.0127 27.8516 96.9239 29.1584 99.4177C30.4761 101.912 31.1349 104.895 31.1349 108.369C31.1349 111.854 30.4761 114.849 29.1584 117.354C27.8516 119.859 25.973 121.781 23.5227 123.12C21.0833 124.46 18.1648 125.129 14.767 125.129ZM9.98082 119.069H14.473C16.5639 119.069 18.3227 118.699 19.7493 117.958C21.1868 117.207 22.2649 116.047 22.9837 114.479C23.7133 112.9 24.0781 110.863 24.0781 108.369C24.0781 105.897 23.7133 103.877 22.9837 102.309C22.2649 100.741 21.1922 99.5865 19.7656 98.846C18.339 98.1055 16.5803 97.7352 14.4893 97.7352H9.98082V119.069ZM35.7438 125.129V100.038H42.7026V125.129H35.7438ZM39.2395 96.8041C38.205 96.8041 37.3174 96.4611 36.5769 95.775C35.8472 95.078 35.4824 94.2449 35.4824 93.2757C35.4824 92.3174 35.8472 91.4952 36.5769 90.8091C37.3174 90.1121 38.205 89.7636 39.2395 89.7636C40.2741 89.7636 41.1562 90.1121 41.8858 90.8091C42.6264 91.4952 42.9966 92.3174 42.9966 93.2757C42.9966 94.2449 42.6264 95.078 41.8858 95.775C41.1562 96.4611 40.2741 96.8041 39.2395 96.8041ZM59.081 135.061C56.8267 135.061 54.8937 134.751 53.282 134.13C51.6811 133.52 50.407 132.687 49.4595 131.631C48.5121 130.574 47.8968 129.387 47.6136 128.07L54.0497 127.204C54.2457 127.705 54.5561 128.173 54.9808 128.609C55.4055 129.044 55.9664 129.393 56.6634 129.654C57.3712 129.927 58.2315 130.063 59.2443 130.063C60.758 130.063 62.005 129.692 62.9851 128.952C63.9761 128.222 64.4716 126.997 64.4716 125.276V120.686H64.1776C63.8726 121.383 63.4152 122.042 62.8054 122.663C62.1955 123.284 61.4115 123.79 60.4531 124.182C59.4948 124.574 58.3513 124.77 57.0227 124.77C55.1387 124.77 53.4235 124.334 51.8771 123.463C50.3416 122.581 49.1165 121.236 48.2017 119.428C47.2978 117.61 46.8459 115.312 46.8459 112.535C46.8459 109.693 47.3087 107.319 48.2344 105.413C49.16 103.507 50.3906 102.08 51.9261 101.133C53.4725 100.186 55.166 99.7118 57.0064 99.7118C58.4112 99.7118 59.5874 99.9514 60.5348 100.431C61.4822 100.899 62.2446 101.487 62.8217 102.195C63.4098 102.892 63.8617 103.578 64.1776 104.253H64.4389V100.038H71.3487V125.374C71.3487 127.509 70.826 129.295 69.7805 130.732C68.7351 132.17 67.2867 133.248 65.4354 133.967C63.5949 134.696 61.4768 135.061 59.081 135.061ZM59.228 119.543C60.3497 119.543 61.2971 119.265 62.0703 118.71C62.8544 118.143 63.4534 117.337 63.8672 116.292C64.2919 115.236 64.5043 113.972 64.5043 112.502C64.5043 111.032 64.2973 109.758 63.8835 108.68C63.4697 107.591 62.8707 106.747 62.0866 106.148C61.3026 105.549 60.3497 105.249 59.228 105.249C58.0845 105.249 57.1207 105.56 56.3366 106.181C55.5526 106.79 54.959 107.64 54.5561 108.729C54.1532 109.818 53.9517 111.076 53.9517 112.502C53.9517 113.951 54.1532 115.203 54.5561 116.259C54.9699 117.305 55.5634 118.116 56.3366 118.693C57.1207 119.26 58.0845 119.543 59.228 119.543ZM76.3864 125.129V100.038H83.3452V125.129H76.3864ZM79.8821 96.8041C78.8475 96.8041 77.96 96.4611 77.2195 95.775C76.4898 95.078 76.125 94.2449 76.125 93.2757C76.125 92.3174 76.4898 91.4952 77.2195 90.8091C77.96 90.1121 78.8475 89.7636 79.8821 89.7636C80.9167 89.7636 81.7988 90.1121 82.5284 90.8091C83.2689 91.4952 83.6392 92.3174 83.6392 93.2757C83.6392 94.2449 83.2689 95.078 82.5284 95.775C81.7988 96.4611 80.9167 96.8041 79.8821 96.8041ZM101.765 100.038V105.266H86.6554V100.038H101.765ZM90.0858 94.0271H97.0446V117.419C97.0446 118.062 97.1426 118.563 97.3386 118.922C97.5346 119.27 97.8069 119.516 98.1554 119.657C98.5147 119.799 98.9286 119.869 99.3968 119.869C99.7235 119.869 100.05 119.842 100.377 119.788C100.704 119.722 100.954 119.673 101.128 119.641L102.223 124.819C101.874 124.928 101.384 125.053 100.753 125.195C100.121 125.347 99.3533 125.44 98.4494 125.472C96.7723 125.538 95.3021 125.315 94.0389 124.803C92.7865 124.291 91.8118 123.496 91.1149 122.418C90.4179 121.34 90.0749 119.978 90.0858 118.334V94.0271ZM112.953 125.603C111.352 125.603 109.926 125.325 108.673 124.77C107.421 124.204 106.43 123.371 105.7 122.271C104.982 121.16 104.622 119.777 104.622 118.122C104.622 116.728 104.878 115.557 105.39 114.61C105.902 113.662 106.599 112.9 107.481 112.323C108.363 111.745 109.365 111.31 110.487 111.016C111.619 110.722 112.806 110.515 114.048 110.395C115.507 110.243 116.683 110.101 117.576 109.97C118.469 109.829 119.117 109.622 119.52 109.35C119.923 109.077 120.124 108.674 120.124 108.141V108.043C120.124 107.008 119.798 106.208 119.144 105.641C118.502 105.075 117.587 104.792 116.4 104.792C115.148 104.792 114.151 105.07 113.411 105.625C112.67 106.17 112.18 106.856 111.941 107.683L105.504 107.161C105.831 105.636 106.474 104.318 107.432 103.208C108.39 102.086 109.626 101.226 111.14 100.627C112.665 100.017 114.429 99.7118 116.433 99.7118C117.827 99.7118 119.161 99.8751 120.435 100.202C121.72 100.529 122.858 101.035 123.849 101.721C124.851 102.407 125.64 103.289 126.218 104.367C126.795 105.435 127.083 106.714 127.083 108.206V125.129H120.484V121.65H120.288C119.885 122.434 119.346 123.126 118.671 123.725C117.995 124.313 117.184 124.775 116.237 125.113C115.289 125.44 114.195 125.603 112.953 125.603ZM114.946 120.801C115.97 120.801 116.874 120.599 117.658 120.196C118.442 119.782 119.057 119.227 119.504 118.53C119.95 117.833 120.173 117.043 120.173 116.161V113.499C119.956 113.64 119.656 113.771 119.275 113.891C118.905 114 118.486 114.103 118.017 114.201C117.549 114.288 117.081 114.37 116.612 114.446C116.144 114.511 115.719 114.571 115.338 114.626C114.521 114.746 113.808 114.936 113.198 115.198C112.588 115.459 112.115 115.813 111.777 116.259C111.44 116.695 111.271 117.239 111.271 117.893C111.271 118.84 111.614 119.565 112.3 120.065C112.997 120.556 113.879 120.801 114.946 120.801ZM138.941 91.6748V125.129H131.982V91.6748H138.941ZM2.90767 172.129V138.675H25.4503V144.507H9.98082V152.478H24.2905V158.31H9.98082V166.298H25.5156V172.129H2.90767ZM37.4018 157.624V172.129H30.443V147.038H37.0751V151.465H37.3691C37.9245 150.006 38.8556 148.852 40.1625 148.002C41.4693 147.142 43.0538 146.712 44.916 146.712C46.6584 146.712 48.1776 147.093 49.4735 147.855C50.7695 148.618 51.7768 149.707 52.4956 151.122C53.2143 152.527 53.5737 154.204 53.5737 156.154V172.129H46.6149V157.395C46.6258 155.86 46.2337 154.662 45.4387 153.801C44.6438 152.93 43.5493 152.494 42.1554 152.494C41.2188 152.494 40.3912 152.696 39.6724 153.099C38.9645 153.502 38.4092 154.09 38.0062 154.863C37.6142 155.625 37.4127 156.546 37.4018 157.624ZM65.7131 172.603C64.1122 172.603 62.6856 172.325 61.4332 171.77C60.1809 171.204 59.1899 170.371 58.4602 169.271C57.7415 168.16 57.3821 166.777 57.3821 165.122C57.3821 163.728 57.638 162.557 58.1499 161.61C58.6617 160.662 59.3587 159.9 60.2408 159.323C61.1229 158.745 62.1248 158.31 63.2464 158.016C64.379 157.722 65.5661 157.515 66.8075 157.395C68.2668 157.243 69.4429 157.101 70.3359 156.97C71.2289 156.829 71.8769 156.622 72.2798 156.35C72.6828 156.077 72.8842 155.674 72.8842 155.141V155.043C72.8842 154.008 72.5575 153.208 71.9041 152.641C71.2616 152.075 70.3468 151.792 69.1598 151.792C67.9074 151.792 66.911 152.07 66.1705 152.625C65.4299 153.17 64.9399 153.856 64.7003 154.683L58.2642 154.161C58.5909 152.636 59.2334 151.318 60.1918 150.208C61.1501 149.086 62.3861 148.226 63.8999 147.627C65.4245 147.017 67.1887 146.712 69.1925 146.712C70.5864 146.712 71.9205 146.875 73.1946 147.202C74.4796 147.529 75.6177 148.035 76.6087 148.721C77.6106 149.407 78.4001 150.289 78.9773 151.367C79.5545 152.435 79.843 153.714 79.843 155.206V172.129H73.2436V168.65H73.0476C72.6446 169.434 72.1056 170.126 71.4304 170.725C70.7552 171.313 69.9439 171.775 68.9964 172.113C68.049 172.44 66.9545 172.603 65.7131 172.603ZM67.706 167.801C68.7296 167.801 69.6335 167.599 70.4176 167.196C71.2017 166.782 71.817 166.227 72.2635 165.53C72.71 164.833 72.9332 164.043 72.9332 163.161V160.499C72.7154 160.64 72.416 160.771 72.0348 160.891C71.6645 161 71.2453 161.103 70.777 161.201C70.3087 161.288 69.8404 161.37 69.3722 161.446C68.9039 161.511 68.4792 161.571 68.098 161.626C67.2813 161.746 66.5679 161.936 65.9581 162.198C65.3482 162.459 64.8745 162.813 64.5369 163.259C64.1993 163.695 64.0305 164.239 64.0305 164.893C64.0305 165.84 64.3736 166.565 65.0597 167.065C65.7566 167.556 66.6387 167.801 67.706 167.801ZM84.8725 172.129V138.675H91.8313V151.253H92.0437C92.3486 150.578 92.7897 149.892 93.3668 149.195C93.9549 148.487 94.7172 147.899 95.6538 147.431C96.6012 146.951 97.7773 146.712 99.1822 146.712C101.012 146.712 102.7 147.191 104.246 148.149C105.792 149.097 107.029 150.529 107.954 152.445C108.88 154.351 109.343 156.742 109.343 159.617C109.343 162.415 108.891 164.779 107.987 166.706C107.094 168.623 105.874 170.077 104.328 171.068C102.792 172.048 101.072 172.538 99.1658 172.538C97.8155 172.538 96.6665 172.315 95.7191 171.868C94.7826 171.422 94.0148 170.861 93.4158 170.186C92.8169 169.499 92.3595 168.808 92.0437 168.111H91.7333V172.129H84.8725ZM91.6843 159.584C91.6843 161.076 91.8912 162.377 92.305 163.488C92.7189 164.599 93.3178 165.465 94.1019 166.085C94.886 166.695 95.8389 167 96.9606 167C98.0932 167 99.0515 166.69 99.8356 166.069C100.62 165.437 101.213 164.566 101.616 163.455C102.03 162.334 102.237 161.043 102.237 159.584C102.237 158.136 102.035 156.861 101.632 155.761C101.23 154.662 100.636 153.801 99.8519 153.181C99.0678 152.56 98.104 152.249 96.9606 152.249C95.828 152.249 94.8697 152.549 94.0856 153.148C93.3124 153.747 92.7189 154.596 92.305 155.696C91.8912 156.796 91.6843 158.092 91.6843 159.584ZM120.445 138.675V172.129H113.486V138.675H120.445ZM136.954 172.619C134.373 172.619 132.151 172.097 130.289 171.051C128.438 169.995 127.011 168.503 126.009 166.575C125.007 164.637 124.506 162.345 124.506 159.698C124.506 157.117 125.007 154.852 126.009 152.903C127.011 150.953 128.421 149.434 130.24 148.345C132.07 147.256 134.215 146.712 136.676 146.712C138.331 146.712 139.872 146.979 141.299 147.512C142.737 148.035 143.989 148.824 145.056 149.881C146.134 150.937 146.973 152.266 147.572 153.867C148.171 155.457 148.47 157.319 148.47 159.453V161.364H127.283V157.052H141.92C141.92 156.05 141.702 155.163 141.266 154.389C140.831 153.616 140.226 153.012 139.453 152.576C138.691 152.13 137.803 151.906 136.79 151.906C135.734 151.906 134.798 152.151 133.981 152.641C133.175 153.121 132.543 153.769 132.086 154.585C131.629 155.391 131.394 156.29 131.384 157.281V161.381C131.384 162.622 131.612 163.695 132.07 164.599C132.538 165.503 133.197 166.2 134.046 166.69C134.896 167.18 135.903 167.425 137.068 167.425C137.841 167.425 138.549 167.316 139.192 167.098C139.834 166.88 140.384 166.554 140.842 166.118C141.299 165.682 141.647 165.149 141.887 164.517L148.323 164.942C147.996 166.488 147.327 167.839 146.314 168.993C145.312 170.136 144.016 171.029 142.426 171.672C140.847 172.304 139.023 172.619 136.954 172.619ZM152.511 172.129V147.038H159.258V151.416H159.519C159.977 149.859 160.744 148.683 161.822 147.888C162.901 147.082 164.142 146.679 165.547 146.679C165.895 146.679 166.271 146.701 166.674 146.744C167.077 146.788 167.431 146.848 167.736 146.924V153.099C167.409 153.001 166.957 152.914 166.38 152.837C165.803 152.761 165.275 152.723 164.795 152.723C163.772 152.723 162.857 152.946 162.051 153.393C161.256 153.828 160.625 154.438 160.156 155.222C159.699 156.007 159.47 156.91 159.47 157.934V172.129H152.511ZM191.71 154.193L185.339 154.585C185.23 154.041 184.996 153.551 184.637 153.115C184.278 152.669 183.804 152.315 183.216 152.053C182.639 151.781 181.947 151.645 181.141 151.645C180.063 151.645 179.154 151.874 178.413 152.331C177.673 152.778 177.302 153.377 177.302 154.128C177.302 154.727 177.542 155.233 178.021 155.647C178.5 156.061 179.323 156.393 180.488 156.644L185.029 157.558C187.468 158.059 189.287 158.865 190.485 159.976C191.683 161.087 192.282 162.546 192.282 164.354C192.282 165.998 191.797 167.441 190.828 168.683C189.87 169.924 188.552 170.893 186.875 171.59C185.209 172.276 183.287 172.619 181.108 172.619C177.787 172.619 175.141 171.928 173.17 170.545C171.209 169.151 170.06 167.256 169.723 164.86L176.567 164.501C176.774 165.514 177.275 166.287 178.07 166.82C178.865 167.343 179.883 167.605 181.125 167.605C182.345 167.605 183.325 167.37 184.065 166.902C184.817 166.423 185.198 165.808 185.209 165.056C185.198 164.425 184.931 163.907 184.408 163.504C183.885 163.091 183.08 162.775 181.991 162.557L177.645 161.691C175.195 161.201 173.371 160.352 172.173 159.143C170.986 157.934 170.393 156.393 170.393 154.52C170.393 152.908 170.828 151.52 171.699 150.355C172.581 149.189 173.818 148.291 175.407 147.659C177.008 147.028 178.881 146.712 181.027 146.712C184.196 146.712 186.69 147.382 188.508 148.721C190.338 150.061 191.405 151.885 191.71 154.193Z" fill="#241759"/>
<defs>
<linearGradient id="paint0_linear_528_15837" x1="0" y1="21.4791" x2="40.7251" y2="21.4791" gradientUnits="userSpaceOnUse">
<stop stop-color="#FB7725"/>
<stop offset="1" stop-color="#EA2287"/>
</linearGradient>
<linearGradient id="paint1_linear_528_15837" x1="65.5387" y1="37.5399" x2="80.1753" y2="37.5399" gradientUnits="userSpaceOnUse">
<stop stop-color="#FB7725"/>
<stop offset="1" stop-color="#EA2287"/>
</linearGradient>
<clipPath id="clip0_528_15837">
<rect width="216" height="51.1293" fill="white"/>
</clipPath>
</defs>
</svg>
