<svg width="302" height="141" viewBox="0 0 302 141" fill="none" xmlns="http://www.w3.org/2000/svg">
<g filter="url(#filter0_d_528_15171)">
<path d="M44.3008 66.3C44.3008 51.9406 55.9414 40.3 70.3008 40.3H231.301C245.66 40.3 257.301 51.9406 257.301 66.3C257.301 80.6594 245.66 92.3 231.301 92.3H70.3008C55.9414 92.3 44.3008 80.6594 44.3008 66.3Z" fill="white" shape-rendering="crispEdges"/>
<rect x="54.3008" y="50.3" width="32" height="32" rx="16" fill="#F2EFFF"/>
<g clip-path="url(#clip0_528_15171)">
<path d="M64.3971 77.4767C63.9894 77.2901 64.0274 76.6698 64.4628 76.6051C64.681 76.5724 65.8547 76.6558 65.906 76.6039C65.8219 75.9439 66.1334 75.3189 66.756 75.0862C67.2449 74.9037 67.8035 75.0244 68.3178 74.9871L68.7941 72.8509H61.8753C61.725 72.8509 61.3207 72.6818 61.1773 72.5972C60.6647 72.2935 60.3687 71.7641 60.3008 71.1711V59.6911C60.4125 58.7337 61.0967 58.079 62.0463 58.0107L73.7231 58.0055C74.6711 56.9438 75.0955 55.004 76.8358 55.1294C77.9554 55.2098 78.7829 56.3502 78.5272 57.4563L78.3216 58.0113C78.8169 58.0049 79.2978 58.1157 79.6796 58.448C80.0361 58.7582 80.2296 59.1838 80.3016 59.6514V71.2108C80.2359 71.8714 79.7666 72.522 79.1411 72.7418C79.0841 72.7617 78.7616 72.8509 78.7311 72.8509H71.8123L72.2886 74.9871C72.8023 75.025 73.3621 74.9037 73.8504 75.0862C74.4781 75.3212 74.7816 75.9416 74.7004 76.6039C74.7517 76.6558 75.9254 76.5724 76.1436 76.6051C76.579 76.6698 76.617 77.2901 76.2093 77.4767H64.3971ZM76.5421 56.015C76.264 56.0552 76.0169 56.2243 75.8447 56.4435L73.3246 60.2665L73.339 60.3248L74.5542 61.2379C74.6238 61.2495 74.8087 60.9452 74.8715 60.87C75.695 59.8806 76.6026 58.8392 77.372 57.8154C77.6116 57.4965 77.7267 57.2802 77.6715 56.8575C77.6035 56.3374 77.0455 55.9421 76.5416 56.015H76.5421ZM73.1478 58.9284H61.8753C61.8378 58.9284 61.5798 59.0643 61.5297 59.1028C61.4508 59.1628 61.2067 59.487 61.2067 59.5616V68.1376H62.4782C62.488 68.1376 62.6268 68.2058 62.6522 68.2233C62.9079 68.4052 62.9222 68.7929 62.6527 68.969C62.6257 68.9865 62.4466 69.0541 62.435 69.0541H61.2072V71.3017C61.2072 71.3151 61.2953 71.5087 61.3161 71.5402C61.4364 71.7238 61.6927 71.9215 61.9167 71.9355L78.7968 71.9145C78.9643 71.8778 79.1959 71.6819 79.2891 71.5402C79.3099 71.5087 79.398 71.3146 79.398 71.3017V69.0541H65.8415C65.8299 69.0541 65.6508 68.9865 65.6238 68.969C65.3548 68.7929 65.3692 68.4052 65.6243 68.2233C65.6497 68.2052 65.7885 68.1376 65.7983 68.1376H79.3986V59.561C79.3986 59.5447 79.2701 59.3138 79.246 59.2794C79.1371 59.1238 78.9079 58.9704 78.7213 58.9378C78.5347 58.9051 77.8298 58.8975 77.6525 58.9279C77.6294 58.9319 77.607 58.9354 77.588 58.9494L73.7151 63.7129L73.6679 63.8365C74.109 65.1518 73.3292 66.6368 71.9166 66.7802C71.3119 66.8421 70.7181 66.6782 70.1192 66.7937C69.9361 66.8292 69.746 66.9009 69.5836 66.9936C69.2876 67.1633 69.2185 67.421 68.8159 67.3505C68.6639 67.3242 68.5706 67.1726 68.5228 67.0362C68.2752 66.3313 68.1675 65.0976 68.2804 64.3647C68.5171 62.8272 69.6533 61.941 71.1667 61.9189L73.1484 58.9279L73.1478 58.9284ZM72.762 61.0676L71.9845 62.2669L73.0787 63.0721L74.0099 61.9614C73.6926 61.7189 73.3851 61.4518 73.0586 61.2227C73.0108 61.1895 72.7936 61.0303 72.762 61.0676ZM69.2254 66.1727C69.8618 65.8462 70.5741 65.8445 71.2739 65.866C71.3597 65.869 71.4345 65.9185 71.5307 65.9139C71.6424 65.9092 71.8803 65.8771 71.996 65.8579C72.4412 65.7833 72.8484 65.2923 72.8898 64.8428C72.9163 64.5536 72.9163 64.1082 72.6952 63.9029L71.2215 62.8202C71.0009 62.7695 70.4693 62.9077 70.2476 62.9963C68.9789 63.5041 69.0452 65.0253 69.2248 66.1721L69.2254 66.1727ZM69.2254 74.9889H71.381L70.9059 72.8509L69.723 72.8485L69.2254 74.9883V74.9889ZM73.8377 76.6033C73.8608 76.3042 73.8112 75.9591 73.4738 75.9025L67.0929 75.906C66.7917 75.9503 66.7462 76.3532 66.7681 76.6033H73.8377Z" fill="#7860FF"/>
<path d="M64.0847 68.1445C64.6479 68.0593 64.7688 69.0208 64.1526 69.0412C63.609 69.0593 63.5451 68.2261 64.0847 68.1445Z" fill="#7860FF"/>
</g>
<path d="M102.604 71.8H98.837V60.1636H102.723C103.864 60.1636 104.843 60.3966 105.661 60.8625C106.479 61.3246 107.106 61.9894 107.542 62.8568C107.981 63.7204 108.201 64.7564 108.201 65.9648C108.201 67.1769 107.979 68.2185 107.536 69.0898C107.096 69.961 106.46 70.6314 105.627 71.1011C104.793 71.567 103.786 71.8 102.604 71.8ZM100.593 70.2659H102.507C103.394 70.2659 104.131 70.0992 104.718 69.7659C105.305 69.4288 105.744 68.942 106.036 68.3057C106.328 67.6655 106.473 66.8852 106.473 65.9648C106.473 65.0519 106.328 64.2773 106.036 63.6409C105.748 63.0045 105.318 62.5216 104.746 62.192C104.174 61.8625 103.464 61.6977 102.615 61.6977H100.593V70.2659ZM114.009 71.9761C113.149 71.9761 112.408 71.7924 111.787 71.425C111.17 71.0538 110.693 70.5329 110.355 69.8625C110.022 69.1882 109.855 68.3985 109.855 67.4932C109.855 66.5992 110.022 65.8114 110.355 65.1295C110.693 64.4477 111.162 63.9155 111.765 63.5329C112.371 63.1504 113.079 62.9591 113.89 62.9591C114.382 62.9591 114.859 63.0405 115.321 63.2034C115.783 63.3663 116.198 63.622 116.566 63.9704C116.933 64.3189 117.223 64.7716 117.435 65.3284C117.647 65.8814 117.753 66.5538 117.753 67.3454V67.9477H110.816V66.675H116.088C116.088 66.228 115.998 65.8322 115.816 65.4875C115.634 65.139 115.378 64.8644 115.049 64.6636C114.723 64.4629 114.34 64.3625 113.901 64.3625C113.424 64.3625 113.007 64.4799 112.651 64.7148C112.299 64.9458 112.026 65.2489 111.833 65.6239C111.643 65.9951 111.549 66.3985 111.549 66.8341V67.8284C111.549 68.4117 111.651 68.9079 111.855 69.317C112.064 69.7261 112.354 70.0386 112.725 70.2545C113.096 70.4667 113.53 70.5727 114.026 70.5727C114.348 70.5727 114.641 70.5273 114.907 70.4364C115.172 70.3417 115.401 70.2015 115.594 70.0159C115.787 69.8303 115.935 69.6011 116.037 69.3284L117.645 69.6182C117.516 70.0917 117.285 70.5064 116.952 70.8625C116.623 71.2148 116.208 71.4894 115.708 71.6864C115.212 71.8795 114.645 71.9761 114.009 71.9761ZM126.178 65.2034L124.638 65.4761C124.574 65.2792 124.471 65.0917 124.331 64.9136C124.195 64.7356 124.009 64.5898 123.775 64.4761C123.54 64.3625 123.246 64.3057 122.894 64.3057C122.413 64.3057 122.011 64.4136 121.689 64.6295C121.367 64.8417 121.206 65.1163 121.206 65.4534C121.206 65.7451 121.314 65.9799 121.53 66.1579C121.746 66.336 122.095 66.4818 122.576 66.5954L123.962 66.9136C124.765 67.0992 125.364 67.3852 125.757 67.7716C126.151 68.1579 126.348 68.6598 126.348 69.2773C126.348 69.8 126.197 70.2659 125.894 70.675C125.595 71.0803 125.176 71.3985 124.638 71.6295C124.104 71.8606 123.485 71.9761 122.78 71.9761C121.803 71.9761 121.006 71.7678 120.388 71.3511C119.771 70.9307 119.392 70.3341 119.252 69.5614L120.894 69.3114C120.996 69.7394 121.206 70.0632 121.525 70.2829C121.843 70.4989 122.257 70.6068 122.769 70.6068C123.326 70.6068 123.771 70.4913 124.104 70.2602C124.437 70.0254 124.604 69.7394 124.604 69.4023C124.604 69.1295 124.502 68.9004 124.297 68.7148C124.096 68.5292 123.788 68.389 123.371 68.2943L121.894 67.9704C121.079 67.7848 120.477 67.4894 120.087 67.0841C119.701 66.6788 119.507 66.1655 119.507 65.5443C119.507 65.0292 119.651 64.5784 119.939 64.192C120.227 63.8057 120.625 63.5045 121.132 63.2886C121.64 63.0689 122.221 62.9591 122.877 62.9591C123.82 62.9591 124.562 63.1636 125.104 63.5727C125.646 63.978 126.004 64.5216 126.178 65.2034ZM128.216 71.8V63.0727H129.915V71.8H128.216ZM129.074 61.7261C128.779 61.7261 128.525 61.6276 128.313 61.4307C128.105 61.2299 128 60.9913 128 60.7148C128 60.4345 128.105 60.1958 128.313 59.9989C128.525 59.7981 128.779 59.6977 129.074 59.6977C129.37 59.6977 129.622 59.7981 129.83 59.9989C130.042 60.1958 130.148 60.4345 130.148 60.7148C130.148 60.9913 130.042 61.2299 129.83 61.4307C129.622 61.6276 129.37 61.7261 129.074 61.7261ZM135.86 75.2545C135.167 75.2545 134.57 75.1636 134.07 74.9818C133.574 74.8 133.168 74.5595 132.854 74.2602C132.54 73.961 132.305 73.6333 132.15 73.2773L133.61 72.675C133.712 72.8417 133.848 73.0178 134.019 73.2034C134.193 73.3928 134.428 73.5538 134.723 73.6864C135.023 73.8189 135.407 73.8852 135.877 73.8852C136.521 73.8852 137.053 73.728 137.473 73.4136C137.894 73.103 138.104 72.6068 138.104 71.925V70.2091H137.996C137.894 70.3947 137.746 70.6011 137.553 70.8284C137.364 71.0557 137.102 71.2526 136.769 71.4193C136.435 71.586 136.002 71.6693 135.468 71.6693C134.778 71.6693 134.157 71.5083 133.604 71.1864C133.055 70.8606 132.619 70.3814 132.297 69.7489C131.979 69.1125 131.82 68.3303 131.82 67.4023C131.82 66.4742 131.977 65.6788 132.292 65.0159C132.61 64.353 133.045 63.8454 133.598 63.4932C134.151 63.1371 134.778 62.9591 135.479 62.9591C136.021 62.9591 136.458 63.05 136.792 63.2318C137.125 63.4098 137.384 63.6182 137.57 63.8568C137.759 64.0954 137.905 64.3057 138.007 64.4875H138.132V63.0727H139.797V71.9932C139.797 72.7432 139.623 73.3587 139.275 73.8398C138.926 74.3208 138.454 74.6769 137.86 74.9079C137.269 75.139 136.602 75.2545 135.86 75.2545ZM135.843 70.2602C136.331 70.2602 136.744 70.1466 137.081 69.9193C137.422 69.6882 137.68 69.3587 137.854 68.9307C138.032 68.4989 138.121 67.9818 138.121 67.3795C138.121 66.7924 138.034 66.2754 137.86 65.8284C137.685 65.3814 137.43 65.0329 137.093 64.7829C136.756 64.5292 136.339 64.4023 135.843 64.4023C135.331 64.4023 134.905 64.5348 134.564 64.8C134.223 65.0614 133.966 65.4174 133.792 65.8682C133.621 66.3189 133.536 66.8227 133.536 67.3795C133.536 67.9515 133.623 68.4534 133.797 68.8852C133.971 69.317 134.229 69.6542 134.57 69.8966C134.915 70.139 135.339 70.2602 135.843 70.2602ZM143.775 66.6182V71.8H142.076V63.0727H143.706V64.4932H143.814C144.015 64.031 144.329 63.6598 144.757 63.3795C145.189 63.0992 145.733 62.9591 146.388 62.9591C146.983 62.9591 147.504 63.0841 147.951 63.3341C148.398 63.5803 148.744 63.9477 148.99 64.4364C149.237 64.925 149.36 65.5292 149.36 66.2489V71.8H147.661V66.4534C147.661 65.8208 147.496 65.3265 147.167 64.9704C146.837 64.6106 146.384 64.4307 145.809 64.4307C145.415 64.4307 145.064 64.5159 144.757 64.6864C144.454 64.8568 144.214 65.1068 144.036 65.4364C143.862 65.7621 143.775 66.156 143.775 66.6182ZM159.532 75.2545C158.838 75.2545 158.242 75.1636 157.742 74.9818C157.246 74.8 156.84 74.5595 156.526 74.2602C156.212 73.961 155.977 73.6333 155.821 73.2773L157.282 72.675C157.384 72.8417 157.52 73.0178 157.691 73.2034C157.865 73.3928 158.1 73.5538 158.395 73.6864C158.694 73.8189 159.079 73.8852 159.549 73.8852C160.193 73.8852 160.725 73.728 161.145 73.4136C161.566 73.103 161.776 72.6068 161.776 71.925V70.2091H161.668C161.566 70.3947 161.418 70.6011 161.225 70.8284C161.035 71.0557 160.774 71.2526 160.441 71.4193C160.107 71.586 159.674 71.6693 159.14 71.6693C158.45 71.6693 157.829 71.5083 157.276 71.1864C156.727 70.8606 156.291 70.3814 155.969 69.7489C155.651 69.1125 155.492 68.3303 155.492 67.4023C155.492 66.4742 155.649 65.6788 155.963 65.0159C156.282 64.353 156.717 63.8454 157.27 63.4932C157.823 63.1371 158.45 62.9591 159.151 62.9591C159.693 62.9591 160.13 63.05 160.463 63.2318C160.797 63.4098 161.056 63.6182 161.242 63.8568C161.431 64.0954 161.577 64.3057 161.679 64.4875H161.804V63.0727H163.469V71.9932C163.469 72.7432 163.295 73.3587 162.946 73.8398C162.598 74.3208 162.126 74.6769 161.532 74.9079C160.941 75.139 160.274 75.2545 159.532 75.2545ZM159.515 70.2602C160.003 70.2602 160.416 70.1466 160.753 69.9193C161.094 69.6882 161.352 69.3587 161.526 68.9307C161.704 68.4989 161.793 67.9818 161.793 67.3795C161.793 66.7924 161.706 66.2754 161.532 65.8284C161.357 65.3814 161.102 65.0329 160.765 64.7829C160.427 64.5292 160.011 64.4023 159.515 64.4023C159.003 64.4023 158.577 64.5348 158.236 64.8C157.895 65.0614 157.638 65.4174 157.463 65.8682C157.293 66.3189 157.208 66.8227 157.208 67.3795C157.208 67.9515 157.295 68.4534 157.469 68.8852C157.643 69.317 157.901 69.6542 158.242 69.8966C158.587 70.139 159.011 70.2602 159.515 70.2602ZM165.748 71.8V63.0727H167.39V64.4591H167.48C167.64 63.9894 167.92 63.6201 168.321 63.3511C168.727 63.0784 169.185 62.942 169.696 62.942C169.802 62.942 169.927 62.9458 170.071 62.9534C170.219 62.961 170.335 62.9704 170.418 62.9818V64.6068C170.35 64.5879 170.229 64.567 170.054 64.5443C169.88 64.5178 169.706 64.5045 169.532 64.5045C169.13 64.5045 168.772 64.5898 168.458 64.7602C168.147 64.9269 167.901 65.1598 167.719 65.4591C167.537 65.7545 167.446 66.0917 167.446 66.4704V71.8H165.748ZM174.35 71.9932C173.797 71.9932 173.297 71.8909 172.85 71.6864C172.403 71.478 172.049 71.1769 171.787 70.7829C171.53 70.389 171.401 69.906 171.401 69.3341C171.401 68.8417 171.496 68.4364 171.685 68.1182C171.874 67.8 172.13 67.5481 172.452 67.3625C172.774 67.1769 173.134 67.0367 173.532 66.942C173.929 66.8473 174.335 66.7754 174.748 66.7261C175.27 66.6655 175.694 66.6163 176.02 66.5784C176.346 66.5367 176.583 66.4704 176.73 66.3795C176.878 66.2886 176.952 66.1409 176.952 65.9364V65.8966C176.952 65.4004 176.812 65.0159 176.532 64.7432C176.255 64.4704 175.842 64.3341 175.293 64.3341C174.721 64.3341 174.27 64.461 173.941 64.7148C173.615 64.9648 173.39 65.2432 173.265 65.55L171.668 65.1864C171.857 64.656 172.134 64.228 172.498 63.9023C172.865 63.5727 173.287 63.3341 173.765 63.1864C174.242 63.0348 174.744 62.9591 175.27 62.9591C175.619 62.9591 175.988 63.0007 176.378 63.0841C176.772 63.1636 177.14 63.3114 177.48 63.5273C177.825 63.7432 178.107 64.0519 178.327 64.4534C178.547 64.8511 178.657 65.3682 178.657 66.0045V71.8H176.998V70.6068H176.929C176.819 70.8265 176.655 71.0424 176.435 71.2545C176.215 71.4667 175.933 71.6428 175.588 71.7829C175.244 71.9231 174.831 71.9932 174.35 71.9932ZM174.719 70.6295C175.189 70.6295 175.59 70.5367 175.924 70.3511C176.261 70.1655 176.516 69.9231 176.691 69.6239C176.869 69.3208 176.958 68.997 176.958 68.6523V67.5273C176.897 67.5879 176.78 67.6447 176.605 67.6977C176.435 67.747 176.24 67.7905 176.02 67.8284C175.801 67.8625 175.587 67.8947 175.378 67.925C175.17 67.9515 174.996 67.9742 174.855 67.9932C174.526 68.0348 174.225 68.1049 173.952 68.2034C173.683 68.3019 173.467 68.4439 173.304 68.6295C173.145 68.8114 173.066 69.0538 173.066 69.3568C173.066 69.7773 173.221 70.0954 173.532 70.3114C173.842 70.5235 174.238 70.6295 174.719 70.6295ZM180.919 75.0727V63.0727H182.578V64.4875H182.721C182.819 64.3057 182.961 64.0954 183.147 63.8568C183.332 63.6182 183.59 63.4098 183.919 63.2318C184.249 63.05 184.685 62.9591 185.226 62.9591C185.931 62.9591 186.56 63.1371 187.113 63.4932C187.666 63.8492 188.099 64.3625 188.414 65.0329C188.732 65.7034 188.891 66.5102 188.891 67.4534C188.891 68.3966 188.734 69.2053 188.419 69.8795C188.105 70.55 187.673 71.067 187.124 71.4307C186.575 71.7905 185.948 71.9704 185.243 71.9704C184.713 71.9704 184.279 71.8814 183.942 71.7034C183.609 71.5254 183.347 71.317 183.158 71.0784C182.969 70.8398 182.823 70.6276 182.721 70.442H182.618V75.0727H180.919ZM182.584 67.4364C182.584 68.05 182.673 68.5879 182.851 69.05C183.029 69.5121 183.287 69.8739 183.624 70.1352C183.961 70.3928 184.374 70.5216 184.863 70.5216C185.37 70.5216 185.794 70.3871 186.135 70.1182C186.476 69.8454 186.734 69.4761 186.908 69.0102C187.086 68.5443 187.175 68.0197 187.175 67.4364C187.175 66.8606 187.088 66.3435 186.914 65.8852C186.743 65.4269 186.486 65.0651 186.141 64.8C185.8 64.5348 185.374 64.4023 184.863 64.4023C184.37 64.4023 183.953 64.5292 183.613 64.7829C183.275 65.0367 183.02 65.3909 182.846 65.8454C182.671 66.3 182.584 66.8303 182.584 67.4364ZM192.493 66.6182V71.8H190.794V60.1636H192.471V64.4932H192.578C192.783 64.0235 193.096 63.6504 193.516 63.3739C193.936 63.0973 194.486 62.9591 195.164 62.9591C195.762 62.9591 196.285 63.0822 196.732 63.3284C197.183 63.5746 197.531 63.942 197.777 64.4307C198.027 64.9155 198.152 65.5216 198.152 66.2489V71.8H196.453V66.4534C196.453 65.8132 196.289 65.317 195.959 64.9648C195.63 64.6087 195.171 64.4307 194.584 64.4307C194.183 64.4307 193.823 64.5159 193.505 64.6864C193.19 64.8568 192.942 65.1068 192.76 65.4364C192.582 65.7621 192.493 66.156 192.493 66.6182ZM200.419 71.8V63.0727H202.118V71.8H200.419ZM201.277 61.7261C200.982 61.7261 200.728 61.6276 200.516 61.4307C200.308 61.2299 200.203 60.9913 200.203 60.7148C200.203 60.4345 200.308 60.1958 200.516 59.9989C200.728 59.7981 200.982 59.6977 201.277 59.6977C201.573 59.6977 201.825 59.7981 202.033 59.9989C202.245 60.1958 202.351 60.4345 202.351 60.7148C202.351 60.9913 202.245 61.2299 202.033 61.4307C201.825 61.6276 201.573 61.7261 201.277 61.7261ZM210.296 75.0727V70.442H210.194C210.091 70.6276 209.944 70.8398 209.75 71.0784C209.561 71.317 209.3 71.5254 208.966 71.7034C208.633 71.8814 208.201 71.9704 207.671 71.9704C206.966 71.9704 206.337 71.7905 205.784 71.4307C205.235 71.067 204.803 70.55 204.489 69.8795C204.178 69.2053 204.023 68.3966 204.023 67.4534C204.023 66.5102 204.18 65.7034 204.495 65.0329C204.813 64.3625 205.248 63.8492 205.801 63.4932C206.355 63.1371 206.981 62.9591 207.682 62.9591C208.224 62.9591 208.659 63.05 208.989 63.2318C209.322 63.4098 209.58 63.6182 209.762 63.8568C209.947 64.0954 210.091 64.3057 210.194 64.4875H210.336V63.0727H211.995V75.0727H210.296ZM208.046 70.5216C208.534 70.5216 208.947 70.3928 209.284 70.1352C209.625 69.8739 209.883 69.5121 210.057 69.05C210.235 68.5879 210.324 68.05 210.324 67.4364C210.324 66.8303 210.237 66.3 210.063 65.8454C209.889 65.3909 209.633 65.0367 209.296 64.7829C208.959 64.5292 208.542 64.4023 208.046 64.4023C207.534 64.4023 207.108 64.5348 206.767 64.8C206.426 65.0651 206.169 65.4269 205.995 65.8852C205.824 66.3435 205.739 66.8606 205.739 67.4364C205.739 68.0197 205.826 68.5443 206 69.0102C206.175 69.4761 206.432 69.8454 206.773 70.1182C207.118 70.3871 207.542 70.5216 208.046 70.5216ZM219.807 68.1807V63.0727H221.512V71.8H219.841V70.2886H219.75C219.55 70.7545 219.228 71.1428 218.784 71.4534C218.345 71.7602 217.798 71.9136 217.142 71.9136C216.582 71.9136 216.086 71.7905 215.654 71.5443C215.226 71.2943 214.889 70.925 214.642 70.4364C214.4 69.9477 214.279 69.3435 214.279 68.6239V63.0727H215.978V68.4193C215.978 69.014 216.142 69.4875 216.472 69.8398C216.801 70.192 217.23 70.3682 217.756 70.3682C218.074 70.3682 218.391 70.2886 218.705 70.1295C219.023 69.9704 219.286 69.7299 219.495 69.4079C219.707 69.086 219.811 68.6769 219.807 68.1807ZM227.556 71.9761C226.696 71.9761 225.955 71.7924 225.334 71.425C224.717 71.0538 224.239 70.5329 223.902 69.8625C223.569 69.1882 223.402 68.3985 223.402 67.4932C223.402 66.5992 223.569 65.8114 223.902 65.1295C224.239 64.4477 224.709 63.9155 225.311 63.5329C225.917 63.1504 226.626 62.9591 227.436 62.9591C227.929 62.9591 228.406 63.0405 228.868 63.2034C229.33 63.3663 229.745 63.622 230.113 63.9704C230.48 64.3189 230.77 64.7716 230.982 65.3284C231.194 65.8814 231.3 66.5538 231.3 67.3454V67.9477H224.363V66.675H229.635C229.635 66.228 229.544 65.8322 229.363 65.4875C229.181 65.139 228.925 64.8644 228.596 64.6636C228.27 64.4629 227.887 64.3625 227.448 64.3625C226.971 64.3625 226.554 64.4799 226.198 64.7148C225.846 64.9458 225.573 65.2489 225.38 65.6239C225.19 65.9951 225.096 66.3985 225.096 66.8341V67.8284C225.096 68.4117 225.198 68.9079 225.402 69.317C225.611 69.7261 225.9 70.0386 226.272 70.2545C226.643 70.4667 227.077 70.5727 227.573 70.5727C227.895 70.5727 228.188 70.5273 228.453 70.4364C228.719 70.3417 228.948 70.2015 229.141 70.0159C229.334 69.8303 229.482 69.6011 229.584 69.3284L231.192 69.6182C231.063 70.0917 230.832 70.5064 230.499 70.8625C230.169 71.2148 229.755 71.4894 229.255 71.6864C228.758 71.8795 228.192 71.9761 227.556 71.9761Z" fill="#556DB1"/>
</g>
<defs>
<filter id="filter0_d_528_15171" x="0.000782013" y="-1.14441e-05" width="301.6" height="140.6" filterUnits="userSpaceOnUse" color-interpolation-filters="sRGB">
<feFlood flood-opacity="0" result="BackgroundImageFix"/>
<feColorMatrix in="SourceAlpha" type="matrix" values="0 0 0 0 0 0 0 0 0 0 0 0 0 0 0 0 0 0 127 0" result="hardAlpha"/>
<feOffset dy="4"/>
<feGaussianBlur stdDeviation="22.15"/>
<feComposite in2="hardAlpha" operator="out"/>
<feColorMatrix type="matrix" values="0 0 0 0 0 0 0 0 0 0 0 0 0 0 0 0 0 0 0.12 0"/>
<feBlend mode="normal" in2="BackgroundImageFix" result="effect1_dropShadow_528_15171"/>
<feBlend mode="normal" in="SourceGraphic" in2="effect1_dropShadow_528_15171" result="shape"/>
</filter>
<clipPath id="clip0_528_15171">
<rect width="20.0002" height="22.3532" fill="white" transform="translate(60.3008 55.1234)"/>
</clipPath>
</defs>
</svg>
