<svg width="43" height="44" viewBox="0 0 43 44" fill="none" xmlns="http://www.w3.org/2000/svg">
<rect x="0.350199" y="42.8403" width="42.4901" height="41.6432" rx="20.8216" transform="rotate(-90 0.350199 42.8403)" fill="white"/>
<rect x="0.350199" y="42.8403" width="42.4901" height="41.6432" rx="20.8216" transform="rotate(-90 0.350199 42.8403)" stroke="#E1E1E1" stroke-width="0.700395"/>
<path d="M21.1723 13.1358C25.8393 13.1358 29.6317 16.896 29.6317 21.547C29.6317 22.6991 29.4887 23.5273 29.2713 24.1973C28.7544 25.7894 27.686 27.1285 26.478 28.2578C25.6473 29.0344 24.4148 28.9159 23.6746 28.18C22.6239 27.1352 22.3363 25.5136 23.4758 24.3817L24.254 23.6077C24.6428 23.2215 25.1662 23.0013 25.714 22.9934C26.2619 22.9855 26.7914 23.1906 27.1911 23.5654C27.4255 23.7853 27.5413 24.0476 27.6623 23.6754C27.8154 23.2016 27.9398 22.5528 27.9398 21.547C27.9398 17.8409 24.9147 14.8277 21.1723 14.8277C17.4298 14.8277 14.4048 17.8409 14.4048 21.547C14.4048 22.5536 14.5291 23.2008 14.6822 23.6754C14.8032 24.0476 14.9191 23.7853 15.1534 23.5654C15.5531 23.1906 16.0826 22.9855 16.6305 22.9934C17.1784 23.0013 17.7018 23.2215 18.0905 23.6077L18.8688 24.3817C20.0083 25.5136 19.7206 27.1352 18.67 28.18C17.9298 28.9159 16.6973 29.0344 15.8666 28.2586C14.6501 27.1217 13.5935 25.7987 13.0733 24.1981C12.8567 23.5265 12.7129 22.6983 12.7129 21.5461C12.7129 16.896 16.5052 13.1358 21.1723 13.1358ZM25.446 24.8081C24.957 25.2936 23.9317 26.0491 24.6677 26.7816C24.8301 26.9424 25.083 27.2452 25.3225 27.0219C25.8622 26.5177 26.3909 25.9475 26.7462 25.4679C26.467 25.2057 25.8782 24.3792 25.446 24.8081ZM16.8986 24.8081C16.4672 24.3792 15.8775 25.2057 15.5984 25.4679C15.9537 25.9475 16.4824 26.5169 17.0221 27.0219C17.2607 27.2452 17.5144 26.9432 17.6769 26.7816C18.4128 26.0491 17.3875 25.2936 16.8986 24.8081Z" fill="#FF4C8E"/>
</svg>
