<svg width="666" height="120" viewBox="0 0 666 120" fill="none" xmlns="http://www.w3.org/2000/svg">
<path d="M132.545 19.4545V66H122.864V19.4545H132.545ZM148.756 66.6591C146.528 66.6591 144.544 66.2727 142.801 65.5C141.059 64.7121 139.68 63.553 138.665 62.0227C137.665 60.4773 137.165 58.553 137.165 56.25C137.165 54.3106 137.521 52.6818 138.233 51.3636C138.945 50.0455 139.915 48.9848 141.142 48.1818C142.369 47.3788 143.763 46.7727 145.324 46.3636C146.9 45.9545 148.551 45.6667 150.278 45.5C152.309 45.2879 153.945 45.0909 155.188 44.9091C156.43 44.7121 157.331 44.4242 157.892 44.0455C158.453 43.6667 158.733 43.1061 158.733 42.3636V42.2273C158.733 40.7879 158.278 39.6742 157.369 38.8864C156.475 38.0985 155.203 37.7045 153.551 37.7045C151.809 37.7045 150.422 38.0909 149.392 38.8636C148.362 39.6212 147.68 40.5758 147.347 41.7273L138.392 41C138.847 38.8788 139.741 37.0455 141.074 35.5C142.407 33.9394 144.127 32.7424 146.233 31.9091C148.354 31.0606 150.809 30.6364 153.597 30.6364C155.536 30.6364 157.392 30.8636 159.165 31.3182C160.953 31.7727 162.536 32.4773 163.915 33.4318C165.309 34.3864 166.407 35.6136 167.21 37.1136C168.013 38.5985 168.415 40.3788 168.415 42.4545V66H159.233V61.1591H158.96C158.4 62.25 157.65 63.2121 156.71 64.0455C155.771 64.8636 154.642 65.5076 153.324 65.9773C152.006 66.4318 150.483 66.6591 148.756 66.6591ZM151.528 59.9773C152.953 59.9773 154.21 59.697 155.301 59.1364C156.392 58.5606 157.248 57.7879 157.869 56.8182C158.491 55.8485 158.801 54.75 158.801 53.5227V49.8182C158.498 50.0152 158.081 50.197 157.551 50.3636C157.036 50.5152 156.453 50.6591 155.801 50.7955C155.15 50.9167 154.498 51.0303 153.847 51.1364C153.195 51.2273 152.604 51.3106 152.074 51.3864C150.938 51.553 149.945 51.8182 149.097 52.1818C148.248 52.5455 147.589 53.0379 147.119 53.6591C146.65 54.2652 146.415 55.0227 146.415 55.9318C146.415 57.25 146.892 58.2576 147.847 58.9545C148.816 59.6364 150.044 59.9773 151.528 59.9773ZM218.784 34.5C218.466 33.3939 218.019 32.4167 217.443 31.5682C216.867 30.7045 216.163 29.9773 215.33 29.3864C214.511 28.7803 213.572 28.3182 212.511 28C211.466 27.6818 210.307 27.5227 209.034 27.5227C206.655 27.5227 204.564 28.1136 202.761 29.2955C200.973 30.4773 199.58 32.197 198.58 34.4545C197.58 36.697 197.08 39.4394 197.08 42.6818C197.08 45.9242 197.572 48.6818 198.557 50.9545C199.542 53.2273 200.936 54.9621 202.739 56.1591C204.542 57.3409 206.67 57.9318 209.125 57.9318C211.352 57.9318 213.254 57.5379 214.83 56.75C216.42 55.947 217.633 54.8182 218.466 53.3636C219.314 51.9091 219.739 50.1894 219.739 48.2045L221.739 48.5H209.739V41.0909H229.216V46.9545C229.216 51.0455 228.352 54.5606 226.625 57.5C224.898 60.4242 222.519 62.6818 219.489 64.2727C216.458 65.8485 212.989 66.6364 209.08 66.6364C204.716 66.6364 200.883 65.6742 197.58 63.75C194.277 61.8106 191.701 59.0606 189.852 55.5C188.019 51.9242 187.102 47.6818 187.102 42.7727C187.102 39 187.648 35.6364 188.739 32.6818C189.845 29.7121 191.39 27.197 193.375 25.1364C195.36 23.0758 197.67 21.5076 200.307 20.4318C202.943 19.3561 205.799 18.8182 208.875 18.8182C211.511 18.8182 213.966 19.2045 216.239 19.9773C218.511 20.7348 220.527 21.8106 222.284 23.2045C224.057 24.5985 225.504 26.2576 226.625 28.1818C227.746 30.0909 228.466 32.197 228.784 34.5H218.784ZM244.881 66.6591C242.653 66.6591 240.669 66.2727 238.926 65.5C237.184 64.7121 235.805 63.553 234.79 62.0227C233.79 60.4773 233.29 58.553 233.29 56.25C233.29 54.3106 233.646 52.6818 234.358 51.3636C235.07 50.0455 236.04 48.9848 237.267 48.1818C238.494 47.3788 239.888 46.7727 241.449 46.3636C243.025 45.9545 244.676 45.6667 246.403 45.5C248.434 45.2879 250.07 45.0909 251.312 44.9091C252.555 44.7121 253.456 44.4242 254.017 44.0455C254.578 43.6667 254.858 43.1061 254.858 42.3636V42.2273C254.858 40.7879 254.403 39.6742 253.494 38.8864C252.6 38.0985 251.328 37.7045 249.676 37.7045C247.934 37.7045 246.547 38.0909 245.517 38.8636C244.487 39.6212 243.805 40.5758 243.472 41.7273L234.517 41C234.972 38.8788 235.866 37.0455 237.199 35.5C238.532 33.9394 240.252 32.7424 242.358 31.9091C244.479 31.0606 246.934 30.6364 249.722 30.6364C251.661 30.6364 253.517 30.8636 255.29 31.3182C257.078 31.7727 258.661 32.4773 260.04 33.4318C261.434 34.3864 262.532 35.6136 263.335 37.1136C264.138 38.5985 264.54 40.3788 264.54 42.4545V66H255.358V61.1591H255.085C254.525 62.25 253.775 63.2121 252.835 64.0455C251.896 64.8636 250.767 65.5076 249.449 65.9773C248.131 66.4318 246.608 66.6591 244.881 66.6591ZM247.653 59.9773C249.078 59.9773 250.335 59.697 251.426 59.1364C252.517 58.5606 253.373 57.7879 253.994 56.8182C254.616 55.8485 254.926 54.75 254.926 53.5227V49.8182C254.623 50.0152 254.206 50.197 253.676 50.3636C253.161 50.5152 252.578 50.6591 251.926 50.7955C251.275 50.9167 250.623 51.0303 249.972 51.1364C249.32 51.2273 248.729 51.3106 248.199 51.3864C247.063 51.553 246.07 51.8182 245.222 52.1818C244.373 52.5455 243.714 53.0379 243.244 53.6591C242.775 54.2652 242.54 55.0227 242.54 55.9318C242.54 57.25 243.017 58.2576 243.972 58.9545C244.941 59.6364 246.169 59.9773 247.653 59.9773ZM280.233 19.4545V66H270.551V19.4545H280.233ZM296.443 66.6591C294.216 66.6591 292.231 66.2727 290.489 65.5C288.746 64.7121 287.367 63.553 286.352 62.0227C285.352 60.4773 284.852 58.553 284.852 56.25C284.852 54.3106 285.208 52.6818 285.92 51.3636C286.633 50.0455 287.602 48.9848 288.83 48.1818C290.057 47.3788 291.451 46.7727 293.011 46.3636C294.587 45.9545 296.239 45.6667 297.966 45.5C299.996 45.2879 301.633 45.0909 302.875 44.9091C304.117 44.7121 305.019 44.4242 305.58 44.0455C306.14 43.6667 306.42 43.1061 306.42 42.3636V42.2273C306.42 40.7879 305.966 39.6742 305.057 38.8864C304.163 38.0985 302.89 37.7045 301.239 37.7045C299.496 37.7045 298.11 38.0909 297.08 38.8636C296.049 39.6212 295.367 40.5758 295.034 41.7273L286.08 41C286.534 38.8788 287.428 37.0455 288.761 35.5C290.095 33.9394 291.814 32.7424 293.92 31.9091C296.042 31.0606 298.496 30.6364 301.284 30.6364C303.223 30.6364 305.08 30.8636 306.852 31.3182C308.64 31.7727 310.223 32.4773 311.602 33.4318C312.996 34.3864 314.095 35.6136 314.898 37.1136C315.701 38.5985 316.102 40.3788 316.102 42.4545V66H306.92V61.1591H306.648C306.087 62.25 305.337 63.2121 304.398 64.0455C303.458 64.8636 302.33 65.5076 301.011 65.9773C299.693 66.4318 298.17 66.6591 296.443 66.6591ZM299.216 59.9773C300.64 59.9773 301.898 59.697 302.989 59.1364C304.08 58.5606 304.936 57.7879 305.557 56.8182C306.178 55.8485 306.489 54.75 306.489 53.5227V49.8182C306.186 50.0152 305.769 50.197 305.239 50.3636C304.723 50.5152 304.14 50.6591 303.489 50.7955C302.837 50.9167 302.186 51.0303 301.534 51.1364C300.883 51.2273 300.292 51.3106 299.761 51.3864C298.625 51.553 297.633 51.8182 296.784 52.1818C295.936 52.5455 295.277 53.0379 294.807 53.6591C294.337 54.2652 294.102 55.0227 294.102 55.9318C294.102 57.25 294.58 58.2576 295.534 58.9545C296.504 59.6364 297.731 59.9773 299.216 59.9773ZM330.205 31.0909L336.614 43.2955L343.182 31.0909H353.114L343 48.5455L353.386 66H343.5L336.614 53.9318L329.841 66H319.841L330.205 48.5455L320.205 31.0909H330.205ZM363.341 79.0909C362.114 79.0909 360.962 78.9924 359.886 78.7955C358.826 78.6136 357.947 78.3788 357.25 78.0909L359.432 70.8636C360.568 71.2121 361.591 71.4015 362.5 71.4318C363.424 71.4621 364.22 71.25 364.886 70.7955C365.568 70.3409 366.121 69.5682 366.545 68.4773L367.114 67L354.591 31.0909H364.773L372 56.7273H372.364L379.659 31.0909H389.909L376.341 69.7727C375.689 71.6515 374.803 73.2879 373.682 74.6818C372.576 76.0909 371.174 77.1742 369.477 77.9318C367.78 78.7045 365.735 79.0909 363.341 79.0909Z" fill="white"/>
<path d="M6.70117 115H2.21254V100.455H6.90004C8.31102 100.455 9.51841 100.746 10.5222 101.328C11.526 101.906 12.2954 102.737 12.8304 103.821C13.3655 104.901 13.633 106.193 13.633 107.699C13.633 109.214 13.3631 110.518 12.8233 111.612C12.2836 112.701 11.4976 113.539 10.4654 114.126C9.43318 114.709 8.17844 115 6.70117 115ZM3.9739 113.438H6.58754C7.79019 113.438 8.78687 113.205 9.57759 112.741C10.3683 112.277 10.9578 111.617 11.3461 110.76C11.7343 109.903 11.9284 108.883 11.9284 107.699C11.9284 106.525 11.7367 105.514 11.3532 104.666C10.9696 103.814 10.3967 103.161 9.63441 102.706C8.8721 102.247 7.92276 102.017 6.7864 102.017H3.9739V113.438ZM20.9341 115.227C19.883 115.227 18.9763 114.995 18.214 114.531C17.4564 114.062 16.8716 113.409 16.4597 112.571C16.0525 111.728 15.8489 110.748 15.8489 109.631C15.8489 108.513 16.0525 107.528 16.4597 106.676C16.8716 105.819 17.4445 105.152 18.1784 104.673C18.9171 104.19 19.7788 103.949 20.7637 103.949C21.3319 103.949 21.8929 104.044 22.4469 104.233C23.0009 104.422 23.5051 104.73 23.9597 105.156C24.4142 105.578 24.7765 106.136 25.0463 106.832C25.3162 107.528 25.4512 108.385 25.4512 109.403V110.114H17.0421V108.665H23.7466C23.7466 108.049 23.6235 107.5 23.3773 107.017C23.1358 106.534 22.7902 106.153 22.3404 105.874C21.8953 105.594 21.3697 105.455 20.7637 105.455C20.0961 105.455 19.5184 105.62 19.0307 105.952C18.5478 106.278 18.1761 106.705 17.9157 107.23C17.6552 107.756 17.525 108.319 17.525 108.92V109.886C17.525 110.71 17.6671 111.409 17.9512 111.982C18.24 112.55 18.6401 112.983 19.1515 113.281C19.6628 113.575 20.257 113.722 20.9341 113.722C21.3745 113.722 21.7722 113.66 22.1273 113.537C22.4872 113.409 22.7973 113.22 23.0577 112.969C23.3181 112.713 23.5194 112.396 23.6614 112.017L25.2807 112.472C25.1103 113.021 24.8238 113.504 24.4213 113.92C24.0189 114.332 23.5217 114.654 22.9299 114.886C22.338 115.114 21.6728 115.227 20.9341 115.227ZM35.7282 106.534L34.2225 106.96C34.1278 106.709 33.9881 106.465 33.8034 106.229C33.6235 105.987 33.3773 105.788 33.0648 105.632C32.7523 105.476 32.3522 105.398 31.8645 105.398C31.1969 105.398 30.6406 105.552 30.1955 105.859C29.7551 106.162 29.535 106.548 29.535 107.017C29.535 107.434 29.6865 107.763 29.9895 108.004C30.2926 108.246 30.766 108.447 31.41 108.608L33.0293 109.006C34.0047 109.242 34.7315 109.605 35.2097 110.092C35.6879 110.575 35.927 111.198 35.927 111.96C35.927 112.585 35.7471 113.144 35.3873 113.636C35.0321 114.129 34.535 114.517 33.8958 114.801C33.2566 115.085 32.5132 115.227 31.6657 115.227C30.553 115.227 29.632 114.986 28.9029 114.503C28.1737 114.02 27.7121 113.314 27.5179 112.386L29.1088 111.989C29.2604 112.576 29.5468 113.016 29.9682 113.31C30.3944 113.603 30.9507 113.75 31.6373 113.75C32.4185 113.75 33.0388 113.584 33.498 113.253C33.9621 112.917 34.1941 112.514 34.1941 112.045C34.1941 111.667 34.0615 111.349 33.7963 111.094C33.5312 110.833 33.124 110.639 32.5748 110.511L30.7566 110.085C29.7575 109.848 29.0236 109.482 28.5549 108.984C28.0908 108.482 27.8588 107.855 27.8588 107.102C27.8588 106.487 28.0317 105.942 28.3773 105.469C28.7277 104.995 29.2035 104.624 29.8049 104.354C30.4109 104.084 31.0975 103.949 31.8645 103.949C32.9441 103.949 33.7916 104.186 34.4071 104.659C35.0274 105.133 35.4677 105.758 35.7282 106.534ZM51.8024 106.534L50.2967 106.96C50.202 106.709 50.0623 106.465 49.8777 106.229C49.6977 105.987 49.4515 105.788 49.139 105.632C48.8265 105.476 48.4264 105.398 47.9387 105.398C47.2711 105.398 46.7148 105.552 46.2697 105.859C45.8294 106.162 45.6092 106.548 45.6092 107.017C45.6092 107.434 45.7607 107.763 46.0637 108.004C46.3668 108.246 46.8403 108.447 47.4842 108.608L49.1035 109.006C50.0789 109.242 50.8057 109.605 51.2839 110.092C51.7621 110.575 52.0012 111.198 52.0012 111.96C52.0012 112.585 51.8213 113.144 51.4615 113.636C51.1064 114.129 50.6092 114.517 49.97 114.801C49.3308 115.085 48.5874 115.227 47.7399 115.227C46.6272 115.227 45.7063 114.986 44.9771 114.503C44.2479 114.02 43.7863 113.314 43.5922 112.386L45.1831 111.989C45.3346 112.576 45.621 113.016 46.0424 113.31C46.4686 113.603 47.0249 113.75 47.7115 113.75C48.4927 113.75 49.113 113.584 49.5723 113.253C50.0363 112.917 50.2683 112.514 50.2683 112.045C50.2683 111.667 50.1357 111.349 49.8706 111.094C49.6054 110.833 49.1982 110.639 48.649 110.511L46.8308 110.085C45.8317 109.848 45.0978 109.482 44.6291 108.984C44.1651 108.482 43.9331 107.855 43.9331 107.102C43.9331 106.487 44.1059 105.942 44.4515 105.469C44.8019 104.995 45.2778 104.624 45.8791 104.354C46.4851 104.084 47.1717 103.949 47.9387 103.949C49.0183 103.949 49.8658 104.186 50.4814 104.659C51.1016 105.133 51.542 105.758 51.8024 106.534ZM58.9561 115.227C57.9713 115.227 57.1072 114.993 56.3638 114.524C55.6252 114.055 55.0475 113.4 54.6309 112.557C54.2189 111.714 54.013 110.729 54.013 109.602C54.013 108.466 54.2189 107.474 54.6309 106.626C55.0475 105.779 55.6252 105.121 56.3638 104.652C57.1072 104.183 57.9713 103.949 58.9561 103.949C59.941 103.949 60.8027 104.183 61.5414 104.652C62.2847 105.121 62.8624 105.779 63.2743 106.626C63.691 107.474 63.8993 108.466 63.8993 109.602C63.8993 110.729 63.691 111.714 63.2743 112.557C62.8624 113.4 62.2847 114.055 61.5414 114.524C60.8027 114.993 59.941 115.227 58.9561 115.227ZM58.9561 113.722C59.7042 113.722 60.3198 113.53 60.8027 113.146C61.2857 112.763 61.6432 112.259 61.8752 111.634C62.1072 111.009 62.2232 110.331 62.2232 109.602C62.2232 108.873 62.1072 108.194 61.8752 107.564C61.6432 106.934 61.2857 106.425 60.8027 106.037C60.3198 105.649 59.7042 105.455 58.9561 105.455C58.208 105.455 57.5925 105.649 57.1096 106.037C56.6266 106.425 56.2691 106.934 56.0371 107.564C55.8051 108.194 55.6891 108.873 55.6891 109.602C55.6891 110.331 55.8051 111.009 56.0371 111.634C56.2691 112.259 56.6266 112.763 57.1096 113.146C57.5925 113.53 58.208 113.722 58.9561 113.722ZM68.1341 100.455V115H66.4579V100.455H68.1341ZM78.079 110.54V104.091H79.7551V115H78.079V113.153H77.9654C77.7097 113.707 77.312 114.179 76.7722 114.567C76.2324 114.95 75.5506 115.142 74.7267 115.142C74.0449 115.142 73.4389 114.993 72.9086 114.695C72.3783 114.392 71.9616 113.937 71.6586 113.331C71.3555 112.72 71.204 111.951 71.204 111.023V104.091H72.8801V110.909C72.8801 111.705 73.1027 112.339 73.5478 112.812C73.9976 113.286 74.5705 113.523 75.2665 113.523C75.6832 113.523 76.1069 113.416 76.5378 113.203C76.9734 112.99 77.338 112.663 77.6316 112.223C77.9299 111.783 78.079 111.222 78.079 110.54ZM87.5694 104.091V105.511H81.916V104.091H87.5694ZM83.5637 101.477H85.2399V111.875C85.2399 112.348 85.3085 112.704 85.4458 112.94C85.5879 113.172 85.7678 113.329 85.9856 113.409C86.2082 113.485 86.4425 113.523 86.6887 113.523C86.8734 113.523 87.0249 113.513 87.1433 113.494C87.2617 113.471 87.3564 113.452 87.4274 113.438L87.7683 114.943C87.6547 114.986 87.496 115.028 87.2924 115.071C87.0888 115.118 86.8308 115.142 86.5183 115.142C86.0448 115.142 85.5808 115.04 85.1262 114.837C84.6764 114.633 84.3024 114.323 84.0041 113.906C83.7105 113.49 83.5637 112.964 83.5637 112.33V101.477ZM90.0907 115V104.091H91.7669V115H90.0907ZM90.943 102.273C90.6163 102.273 90.3346 102.161 90.0978 101.939C89.8658 101.716 89.7498 101.449 89.7498 101.136C89.7498 100.824 89.8658 100.556 90.0978 100.334C90.3346 100.111 90.6163 100 90.943 100C91.2697 100 91.5491 100.111 91.7811 100.334C92.0178 100.556 92.1362 100.824 92.1362 101.136C92.1362 101.449 92.0178 101.716 91.7811 101.939C91.5491 102.161 91.2697 102.273 90.943 102.273ZM99.2686 115.227C98.2838 115.227 97.4197 114.993 96.6763 114.524C95.9377 114.055 95.36 113.4 94.9434 112.557C94.5314 111.714 94.3255 110.729 94.3255 109.602C94.3255 108.466 94.5314 107.474 94.9434 106.626C95.36 105.779 95.9377 105.121 96.6763 104.652C97.4197 104.183 98.2838 103.949 99.2686 103.949C100.253 103.949 101.115 104.183 101.854 104.652C102.597 105.121 103.175 105.779 103.587 106.626C104.003 107.474 104.212 108.466 104.212 109.602C104.212 110.729 104.003 111.714 103.587 112.557C103.175 113.4 102.597 114.055 101.854 114.524C101.115 114.993 100.253 115.227 99.2686 115.227ZM99.2686 113.722C100.017 113.722 100.632 113.53 101.115 113.146C101.598 112.763 101.956 112.259 102.188 111.634C102.42 111.009 102.536 110.331 102.536 109.602C102.536 108.873 102.42 108.194 102.188 107.564C101.956 106.934 101.598 106.425 101.115 106.037C100.632 105.649 100.017 105.455 99.2686 105.455C98.5205 105.455 97.905 105.649 97.4221 106.037C96.9391 106.425 96.5816 106.934 96.3496 107.564C96.1176 108.194 96.0016 108.873 96.0016 109.602C96.0016 110.331 96.1176 111.009 96.3496 111.634C96.5816 112.259 96.9391 112.763 97.4221 113.146C97.905 113.53 98.5205 113.722 99.2686 113.722ZM108.447 108.438V115H106.77V104.091H108.39V105.795H108.532C108.787 105.241 109.176 104.796 109.697 104.46C110.217 104.119 110.89 103.949 111.714 103.949C112.452 103.949 113.099 104.1 113.653 104.403C114.206 104.702 114.637 105.156 114.945 105.767C115.253 106.373 115.407 107.14 115.407 108.068V115H113.731V108.182C113.731 107.325 113.508 106.657 113.063 106.179C112.618 105.696 112.007 105.455 111.231 105.455C110.696 105.455 110.217 105.571 109.796 105.803C109.379 106.035 109.05 106.373 108.809 106.818C108.567 107.263 108.447 107.803 108.447 108.438ZM126.197 106.534L124.691 106.96C124.597 106.709 124.457 106.465 124.272 106.229C124.092 105.987 123.846 105.788 123.534 105.632C123.221 105.476 122.821 105.398 122.333 105.398C121.666 105.398 121.109 105.552 120.664 105.859C120.224 106.162 120.004 106.548 120.004 107.017C120.004 107.434 120.155 107.763 120.458 108.004C120.761 108.246 121.235 108.447 121.879 108.608L123.498 109.006C124.473 109.242 125.2 109.605 125.678 110.092C126.157 110.575 126.396 111.198 126.396 111.96C126.396 112.585 126.216 113.144 125.856 113.636C125.501 114.129 125.004 114.517 124.365 114.801C123.725 115.085 122.982 115.227 122.134 115.227C121.022 115.227 120.101 114.986 119.372 114.503C118.642 114.02 118.181 113.314 117.987 112.386L119.578 111.989C119.729 112.576 120.016 113.016 120.437 113.31C120.863 113.603 121.419 113.75 122.106 113.75C122.887 113.75 123.508 113.584 123.967 113.253C124.431 112.917 124.663 112.514 124.663 112.045C124.663 111.667 124.53 111.349 124.265 111.094C124 110.833 123.593 110.639 123.044 110.511L121.225 110.085C120.226 109.848 119.492 109.482 119.024 108.984C118.56 108.482 118.328 107.855 118.328 107.102C118.328 106.487 118.5 105.942 118.846 105.469C119.196 104.995 119.672 104.624 120.274 104.354C120.88 104.084 121.566 103.949 122.333 103.949C123.413 103.949 124.26 104.186 124.876 104.659C125.496 105.133 125.936 105.758 126.197 106.534ZM137.754 115.256C137.063 115.256 136.435 115.125 135.872 114.865C135.309 114.6 134.861 114.219 134.53 113.722C134.198 113.22 134.032 112.614 134.032 111.903C134.032 111.278 134.156 110.772 134.402 110.384C134.648 109.991 134.977 109.683 135.389 109.46C135.801 109.238 136.256 109.072 136.753 108.963C137.255 108.849 137.759 108.759 138.265 108.693C138.928 108.608 139.466 108.544 139.878 108.501C140.294 108.454 140.597 108.376 140.787 108.267C140.981 108.158 141.078 107.969 141.078 107.699V107.642C141.078 106.941 140.886 106.397 140.503 106.009C140.124 105.62 139.549 105.426 138.777 105.426C137.977 105.426 137.349 105.601 136.895 105.952C136.44 106.302 136.121 106.676 135.936 107.074L134.345 106.506C134.629 105.843 135.008 105.327 135.481 104.957C135.96 104.583 136.48 104.323 137.044 104.176C137.612 104.025 138.171 103.949 138.72 103.949C139.07 103.949 139.473 103.991 139.927 104.077C140.387 104.157 140.829 104.325 141.256 104.581C141.686 104.837 142.044 105.223 142.328 105.739C142.612 106.255 142.754 106.946 142.754 107.812V115H141.078V113.523H140.993C140.879 113.759 140.69 114.013 140.425 114.283C140.159 114.553 139.807 114.782 139.366 114.972C138.926 115.161 138.389 115.256 137.754 115.256ZM138.01 113.75C138.673 113.75 139.231 113.62 139.686 113.359C140.145 113.099 140.491 112.763 140.723 112.351C140.96 111.939 141.078 111.506 141.078 111.051V109.517C141.007 109.602 140.851 109.68 140.609 109.751C140.372 109.818 140.098 109.877 139.785 109.929C139.478 109.976 139.177 110.019 138.883 110.057C138.595 110.09 138.36 110.118 138.18 110.142C137.745 110.199 137.337 110.291 136.959 110.419C136.585 110.542 136.282 110.729 136.05 110.98C135.822 111.226 135.709 111.562 135.709 111.989C135.709 112.571 135.924 113.011 136.355 113.31C136.791 113.603 137.342 113.75 138.01 113.75ZM149.933 115.227C149.024 115.227 148.221 114.998 147.525 114.538C146.829 114.074 146.285 113.421 145.892 112.578C145.499 111.731 145.302 110.729 145.302 109.574C145.302 108.428 145.499 107.434 145.892 106.591C146.285 105.748 146.831 105.097 147.532 104.638C148.233 104.179 149.043 103.949 149.961 103.949C150.671 103.949 151.232 104.067 151.644 104.304C152.061 104.536 152.378 104.801 152.596 105.099C152.819 105.393 152.991 105.634 153.115 105.824H153.257V100.455H154.933V115H153.313V113.324H153.115C152.991 113.523 152.816 113.774 152.589 114.077C152.362 114.375 152.037 114.643 151.616 114.879C151.195 115.111 150.633 115.227 149.933 115.227ZM150.16 113.722C150.832 113.722 151.401 113.546 151.865 113.196C152.329 112.841 152.681 112.351 152.923 111.726C153.164 111.096 153.285 110.369 153.285 109.545C153.285 108.731 153.167 108.018 152.93 107.408C152.693 106.792 152.343 106.314 151.879 105.973C151.415 105.627 150.842 105.455 150.16 105.455C149.45 105.455 148.858 105.637 148.384 106.001C147.916 106.361 147.563 106.851 147.326 107.472C147.094 108.087 146.978 108.778 146.978 109.545C146.978 110.322 147.097 111.027 147.333 111.662C147.575 112.292 147.93 112.794 148.399 113.168C148.872 113.537 149.459 113.722 150.16 113.722ZM161.445 115.256C160.754 115.256 160.127 115.125 159.563 114.865C159 114.6 158.552 114.219 158.221 113.722C157.89 113.22 157.724 112.614 157.724 111.903C157.724 111.278 157.847 110.772 158.093 110.384C158.339 109.991 158.669 109.683 159.08 109.46C159.492 109.238 159.947 109.072 160.444 108.963C160.946 108.849 161.45 108.759 161.957 108.693C162.62 108.608 163.157 108.544 163.569 108.501C163.986 108.454 164.289 108.376 164.478 108.267C164.672 108.158 164.769 107.969 164.769 107.699V107.642C164.769 106.941 164.578 106.397 164.194 106.009C163.815 105.62 163.24 105.426 162.468 105.426C161.668 105.426 161.041 105.601 160.586 105.952C160.132 106.302 159.812 106.676 159.627 107.074L158.036 106.506C158.32 105.843 158.699 105.327 159.173 104.957C159.651 104.583 160.172 104.323 160.735 104.176C161.303 104.025 161.862 103.949 162.411 103.949C162.762 103.949 163.164 103.991 163.619 104.077C164.078 104.157 164.521 104.325 164.947 104.581C165.378 104.837 165.735 105.223 166.019 105.739C166.303 106.255 166.445 106.946 166.445 107.812V115H164.769V113.523H164.684C164.57 113.759 164.381 114.013 164.116 114.283C163.851 114.553 163.498 114.782 163.058 114.972C162.617 115.161 162.08 115.256 161.445 115.256ZM161.701 113.75C162.364 113.75 162.923 113.62 163.377 113.359C163.837 113.099 164.182 112.763 164.414 112.351C164.651 111.939 164.769 111.506 164.769 111.051V109.517C164.698 109.602 164.542 109.68 164.301 109.751C164.064 109.818 163.789 109.877 163.477 109.929C163.169 109.976 162.868 110.019 162.575 110.057C162.286 110.09 162.052 110.118 161.872 110.142C161.436 110.199 161.029 110.291 160.65 110.419C160.276 110.542 159.973 110.729 159.741 110.98C159.514 111.226 159.4 111.562 159.4 111.989C159.4 112.571 159.615 113.011 160.046 113.31C160.482 113.603 161.034 113.75 161.701 113.75ZM169.505 119.091V104.091H171.124V105.824H171.323C171.446 105.634 171.617 105.393 171.834 105.099C172.057 104.801 172.374 104.536 172.786 104.304C173.203 104.067 173.766 103.949 174.476 103.949C175.395 103.949 176.205 104.179 176.905 104.638C177.606 105.097 178.153 105.748 178.546 106.591C178.939 107.434 179.135 108.428 179.135 109.574C179.135 110.729 178.939 111.731 178.546 112.578C178.153 113.421 177.608 114.074 176.912 114.538C176.216 114.998 175.414 115.227 174.505 115.227C173.804 115.227 173.243 115.111 172.822 114.879C172.4 114.643 172.076 114.375 171.849 114.077C171.621 113.774 171.446 113.523 171.323 113.324H171.181V119.091H169.505ZM171.153 109.545C171.153 110.369 171.273 111.096 171.515 111.726C171.756 112.351 172.109 112.841 172.573 113.196C173.037 113.546 173.605 113.722 174.278 113.722C174.978 113.722 175.563 113.537 176.032 113.168C176.505 112.794 176.86 112.292 177.097 111.662C177.339 111.027 177.459 110.322 177.459 109.545C177.459 108.778 177.341 108.087 177.104 107.472C176.872 106.851 176.519 106.361 176.046 106.001C175.577 105.637 174.988 105.455 174.278 105.455C173.596 105.455 173.023 105.627 172.559 105.973C172.095 106.314 171.744 106.792 171.508 107.408C171.271 108.018 171.153 108.731 171.153 109.545ZM186.437 104.091V105.511H180.783V104.091H186.437ZM182.431 101.477H184.107V111.875C184.107 112.348 184.176 112.704 184.313 112.94C184.455 113.172 184.635 113.329 184.853 113.409C185.075 113.485 185.31 113.523 185.556 113.523C185.741 113.523 185.892 113.513 186.01 113.494C186.129 113.471 186.224 113.452 186.295 113.438L186.635 114.943C186.522 114.986 186.363 115.028 186.16 115.071C185.956 115.118 185.698 115.142 185.385 115.142C184.912 115.142 184.448 115.04 183.993 114.837C183.544 114.633 183.17 114.323 182.871 113.906C182.578 113.49 182.431 112.964 182.431 112.33V101.477ZM193.415 115.227C192.363 115.227 191.457 114.995 190.694 114.531C189.937 114.062 189.352 113.409 188.94 112.571C188.533 111.728 188.329 110.748 188.329 109.631C188.329 108.513 188.533 107.528 188.94 106.676C189.352 105.819 189.925 105.152 190.659 104.673C191.398 104.19 192.259 103.949 193.244 103.949C193.812 103.949 194.373 104.044 194.927 104.233C195.481 104.422 195.986 104.73 196.44 105.156C196.895 105.578 197.257 106.136 197.527 106.832C197.797 107.528 197.932 108.385 197.932 109.403V110.114H189.523V108.665H196.227C196.227 108.049 196.104 107.5 195.858 107.017C195.616 106.534 195.271 106.153 194.821 105.874C194.376 105.594 193.85 105.455 193.244 105.455C192.577 105.455 191.999 105.62 191.511 105.952C191.028 106.278 190.657 106.705 190.396 107.23C190.136 107.756 190.006 108.319 190.006 108.92V109.886C190.006 110.71 190.148 111.409 190.432 111.982C190.72 112.55 191.121 112.983 191.632 113.281C192.143 113.575 192.738 113.722 193.415 113.722C193.855 113.722 194.253 113.66 194.608 113.537C194.968 113.409 195.278 113.22 195.538 112.969C195.799 112.713 196 112.396 196.142 112.017L197.761 112.472C197.591 113.021 197.304 113.504 196.902 113.92C196.499 114.332 196.002 114.654 195.41 114.886C194.818 115.114 194.153 115.227 193.415 115.227ZM192.392 102.614L194.125 99.3182H196.085L193.869 102.614H192.392ZM205.055 115.227C204.004 115.227 203.097 114.995 202.335 114.531C201.577 114.062 200.993 113.409 200.581 112.571C200.174 111.728 199.97 110.748 199.97 109.631C199.97 108.513 200.174 107.528 200.581 106.676C200.993 105.819 201.566 105.152 202.3 104.673C203.038 104.19 203.9 103.949 204.885 103.949C205.453 103.949 206.014 104.044 206.568 104.233C207.122 104.422 207.626 104.73 208.081 105.156C208.535 105.578 208.898 106.136 209.167 106.832C209.437 107.528 209.572 108.385 209.572 109.403V110.114H201.163V108.665H207.868C207.868 108.049 207.745 107.5 207.498 107.017C207.257 106.534 206.911 106.153 206.461 105.874C206.016 105.594 205.491 105.455 204.885 105.455C204.217 105.455 203.64 105.62 203.152 105.952C202.669 106.278 202.297 106.705 202.037 107.23C201.776 107.756 201.646 108.319 201.646 108.92V109.886C201.646 110.71 201.788 111.409 202.072 111.982C202.361 112.55 202.761 112.983 203.273 113.281C203.784 113.575 204.378 113.722 205.055 113.722C205.496 113.722 205.893 113.66 206.248 113.537C206.608 113.409 206.918 113.22 207.179 112.969C207.439 112.713 207.64 112.396 207.782 112.017L209.402 112.472C209.231 113.021 208.945 113.504 208.542 113.92C208.14 114.332 207.643 114.654 207.051 114.886C206.459 115.114 205.794 115.227 205.055 115.227ZM219.849 106.534L218.344 106.96C218.249 106.709 218.109 106.465 217.925 106.229C217.745 105.987 217.498 105.788 217.186 105.632C216.873 105.476 216.473 105.398 215.986 105.398C215.318 105.398 214.762 105.552 214.317 105.859C213.876 106.162 213.656 106.548 213.656 107.017C213.656 107.434 213.808 107.763 214.111 108.004C214.414 108.246 214.887 108.447 215.531 108.608L217.15 109.006C218.126 109.242 218.853 109.605 219.331 110.092C219.809 110.575 220.048 111.198 220.048 111.96C220.048 112.585 219.868 113.144 219.508 113.636C219.153 114.129 218.656 114.517 218.017 114.801C217.378 115.085 216.634 115.227 215.787 115.227C214.674 115.227 213.753 114.986 213.024 114.503C212.295 114.02 211.833 113.314 211.639 112.386L213.23 111.989C213.381 112.576 213.668 113.016 214.089 113.31C214.515 113.603 215.072 113.75 215.758 113.75C216.54 113.75 217.16 113.584 217.619 113.253C218.083 112.917 218.315 112.514 218.315 112.045C218.315 111.667 218.183 111.349 217.917 111.094C217.652 110.833 217.245 110.639 216.696 110.511L214.878 110.085C213.879 109.848 213.145 109.482 212.676 108.984C212.212 108.482 211.98 107.855 211.98 107.102C211.98 106.487 212.153 105.942 212.498 105.469C212.849 104.995 213.325 104.624 213.926 104.354C214.532 104.084 215.219 103.949 215.986 103.949C217.065 103.949 217.913 104.186 218.528 104.659C219.148 105.133 219.589 105.758 219.849 106.534ZM231.406 115.256C230.715 115.256 230.088 115.125 229.524 114.865C228.961 114.6 228.513 114.219 228.182 113.722C227.851 113.22 227.685 112.614 227.685 111.903C227.685 111.278 227.808 110.772 228.054 110.384C228.3 109.991 228.629 109.683 229.041 109.46C229.453 109.238 229.908 109.072 230.405 108.963C230.907 108.849 231.411 108.759 231.918 108.693C232.581 108.608 233.118 108.544 233.53 108.501C233.947 108.454 234.25 108.376 234.439 108.267C234.633 108.158 234.73 107.969 234.73 107.699V107.642C234.73 106.941 234.539 106.397 234.155 106.009C233.776 105.62 233.201 105.426 232.429 105.426C231.629 105.426 231.002 105.601 230.547 105.952C230.093 106.302 229.773 106.676 229.588 107.074L227.997 106.506C228.281 105.843 228.66 105.327 229.134 104.957C229.612 104.583 230.133 104.323 230.696 104.176C231.264 104.025 231.823 103.949 232.372 103.949C232.723 103.949 233.125 103.991 233.58 104.077C234.039 104.157 234.482 104.325 234.908 104.581C235.339 104.837 235.696 105.223 235.98 105.739C236.264 106.255 236.406 106.946 236.406 107.812V115H234.73V113.523H234.645C234.531 113.759 234.342 114.013 234.077 114.283C233.812 114.553 233.459 114.782 233.019 114.972C232.578 115.161 232.041 115.256 231.406 115.256ZM231.662 113.75C232.325 113.75 232.884 113.62 233.338 113.359C233.798 113.099 234.143 112.763 234.375 112.351C234.612 111.939 234.73 111.506 234.73 111.051V109.517C234.659 109.602 234.503 109.68 234.262 109.751C234.025 109.818 233.75 109.877 233.438 109.929C233.13 109.976 232.829 110.019 232.536 110.057C232.247 110.09 232.012 110.118 231.833 110.142C231.397 110.199 230.99 110.291 230.611 110.419C230.237 110.542 229.934 110.729 229.702 110.98C229.475 111.226 229.361 111.562 229.361 111.989C229.361 112.571 229.576 113.011 230.007 113.31C230.443 113.603 230.994 113.75 231.662 113.75ZM246.341 110.54V104.091H248.017V115H246.341V113.153H246.227C245.971 113.707 245.574 114.179 245.034 114.567C244.494 114.95 243.812 115.142 242.988 115.142C242.307 115.142 241.701 114.993 241.17 114.695C240.64 114.392 240.223 113.937 239.92 113.331C239.617 112.72 239.466 111.951 239.466 111.023V104.091H241.142V110.909C241.142 111.705 241.364 112.339 241.809 112.812C242.259 113.286 242.832 113.523 243.528 113.523C243.945 113.523 244.369 113.416 244.8 113.203C245.235 112.99 245.6 112.663 245.893 112.223C246.192 111.783 246.341 111.222 246.341 110.54ZM252.337 104.091L254.95 108.551L257.564 104.091H259.496L255.973 109.545L259.496 115H257.564L254.95 110.767L252.337 115H250.405L253.871 109.545L250.405 104.091H252.337ZM267.74 115V100.455H269.416V105.824H269.558C269.681 105.634 269.852 105.393 270.069 105.099C270.292 104.801 270.609 104.536 271.021 104.304C271.438 104.067 272.001 103.949 272.711 103.949C273.63 103.949 274.44 104.179 275.14 104.638C275.841 105.097 276.388 105.748 276.781 106.591C277.174 107.434 277.371 108.428 277.371 109.574C277.371 110.729 277.174 111.731 276.781 112.578C276.388 113.421 275.844 114.074 275.148 114.538C274.452 114.998 273.649 115.227 272.74 115.227C272.039 115.227 271.478 115.111 271.057 114.879C270.635 114.643 270.311 114.375 270.084 114.077C269.856 113.774 269.681 113.523 269.558 113.324H269.359V115H267.74ZM269.388 109.545C269.388 110.369 269.508 111.096 269.75 111.726C269.991 112.351 270.344 112.841 270.808 113.196C271.272 113.546 271.84 113.722 272.513 113.722C273.213 113.722 273.798 113.537 274.267 113.168C274.74 112.794 275.095 112.292 275.332 111.662C275.574 111.027 275.694 110.322 275.694 109.545C275.694 108.778 275.576 108.087 275.339 107.472C275.107 106.851 274.755 106.361 274.281 106.001C273.812 105.637 273.223 105.455 272.513 105.455C271.831 105.455 271.258 105.627 270.794 105.973C270.33 106.314 269.979 106.792 269.743 107.408C269.506 108.018 269.388 108.731 269.388 109.545ZM284.508 115.227C283.457 115.227 282.55 114.995 281.788 114.531C281.031 114.062 280.446 113.409 280.034 112.571C279.627 111.728 279.423 110.748 279.423 109.631C279.423 108.513 279.627 107.528 280.034 106.676C280.446 105.819 281.019 105.152 281.753 104.673C282.491 104.19 283.353 103.949 284.338 103.949C284.906 103.949 285.467 104.044 286.021 104.233C286.575 104.422 287.079 104.73 287.534 105.156C287.988 105.578 288.351 106.136 288.621 106.832C288.89 107.528 289.025 108.385 289.025 109.403V110.114H280.616V108.665H287.321C287.321 108.049 287.198 107.5 286.952 107.017C286.71 106.534 286.364 106.153 285.915 105.874C285.47 105.594 284.944 105.455 284.338 105.455C283.67 105.455 283.093 105.62 282.605 105.952C282.122 106.278 281.75 106.705 281.49 107.23C281.229 107.756 281.099 108.319 281.099 108.92V109.886C281.099 110.71 281.241 111.409 281.525 111.982C281.814 112.55 282.214 112.983 282.726 113.281C283.237 113.575 283.831 113.722 284.508 113.722C284.949 113.722 285.346 113.66 285.702 113.537C286.061 113.409 286.372 113.22 286.632 112.969C286.892 112.713 287.094 112.396 287.236 112.017L288.855 112.472C288.684 113.021 288.398 113.504 287.996 113.92C287.593 114.332 287.096 114.654 286.504 114.886C285.912 115.114 285.247 115.227 284.508 115.227ZM299.302 106.534L297.797 106.96C297.702 106.709 297.562 106.465 297.378 106.229C297.198 105.987 296.952 105.788 296.639 105.632C296.327 105.476 295.926 105.398 295.439 105.398C294.771 105.398 294.215 105.552 293.77 105.859C293.329 106.162 293.109 106.548 293.109 107.017C293.109 107.434 293.261 107.763 293.564 108.004C293.867 108.246 294.34 108.447 294.984 108.608L296.604 109.006C297.579 109.242 298.306 109.605 298.784 110.092C299.262 110.575 299.501 111.198 299.501 111.96C299.501 112.585 299.321 113.144 298.961 113.636C298.606 114.129 298.109 114.517 297.47 114.801C296.831 115.085 296.087 115.227 295.24 115.227C294.127 115.227 293.206 114.986 292.477 114.503C291.748 114.02 291.286 113.314 291.092 112.386L292.683 111.989C292.835 112.576 293.121 113.016 293.542 113.31C293.969 113.603 294.525 113.75 295.211 113.75C295.993 113.75 296.613 113.584 297.072 113.253C297.536 112.917 297.768 112.514 297.768 112.045C297.768 111.667 297.636 111.349 297.371 111.094C297.105 110.833 296.698 110.639 296.149 110.511L294.331 110.085C293.332 109.848 292.598 109.482 292.129 108.984C291.665 108.482 291.433 107.855 291.433 107.102C291.433 106.487 291.606 105.942 291.952 105.469C292.302 104.995 292.778 104.624 293.379 104.354C293.985 104.084 294.672 103.949 295.439 103.949C296.518 103.949 297.366 104.186 297.981 104.659C298.602 105.133 299.042 105.758 299.302 106.534ZM306.456 115.227C305.471 115.227 304.607 114.993 303.864 114.524C303.125 114.055 302.548 113.4 302.131 112.557C301.719 111.714 301.513 110.729 301.513 109.602C301.513 108.466 301.719 107.474 302.131 106.626C302.548 105.779 303.125 105.121 303.864 104.652C304.607 104.183 305.471 103.949 306.456 103.949C307.441 103.949 308.303 104.183 309.041 104.652C309.785 105.121 310.362 105.779 310.774 106.626C311.191 107.474 311.399 108.466 311.399 109.602C311.399 110.729 311.191 111.714 310.774 112.557C310.362 113.4 309.785 114.055 309.041 114.524C308.303 114.993 307.441 115.227 306.456 115.227ZM306.456 113.722C307.204 113.722 307.82 113.53 308.303 113.146C308.786 112.763 309.143 112.259 309.375 111.634C309.607 111.009 309.723 110.331 309.723 109.602C309.723 108.873 309.607 108.194 309.375 107.564C309.143 106.934 308.786 106.425 308.303 106.037C307.82 105.649 307.204 105.455 306.456 105.455C305.708 105.455 305.093 105.649 304.61 106.037C304.127 106.425 303.769 106.934 303.537 107.564C303.305 108.194 303.189 108.873 303.189 109.602C303.189 110.331 303.305 111.009 303.537 111.634C303.769 112.259 304.127 112.763 304.61 113.146C305.093 113.53 305.708 113.722 306.456 113.722ZM313.958 115V104.091H315.634V115H313.958ZM314.81 102.273C314.483 102.273 314.202 102.161 313.965 101.939C313.733 101.716 313.617 101.449 313.617 101.136C313.617 100.824 313.733 100.556 313.965 100.334C314.202 100.111 314.483 100 314.81 100C315.137 100 315.416 100.111 315.648 100.334C315.885 100.556 316.003 100.824 316.003 101.136C316.003 101.449 315.885 101.716 315.648 101.939C315.416 102.161 315.137 102.273 314.81 102.273ZM320.38 108.438V115H318.704V104.091H320.323V105.795H320.465C320.721 105.241 321.109 104.796 321.63 104.46C322.151 104.119 322.823 103.949 323.647 103.949C324.386 103.949 325.032 104.1 325.586 104.403C326.14 104.702 326.571 105.156 326.879 105.767C327.186 106.373 327.34 107.14 327.34 108.068V115H325.664V108.182C325.664 107.325 325.442 106.657 324.997 106.179C324.552 105.696 323.941 105.455 323.164 105.455C322.629 105.455 322.151 105.571 321.73 105.803C321.313 106.035 320.984 106.373 320.742 106.818C320.501 107.263 320.38 107.803 320.38 108.438ZM338.131 106.534L336.625 106.96C336.53 106.709 336.39 106.465 336.206 106.229C336.026 105.987 335.78 105.788 335.467 105.632C335.155 105.476 334.755 105.398 334.267 105.398C333.599 105.398 333.043 105.552 332.598 105.859C332.157 106.162 331.937 106.548 331.937 107.017C331.937 107.434 332.089 107.763 332.392 108.004C332.695 108.246 333.168 108.447 333.812 108.608L335.432 109.006C336.407 109.242 337.134 109.605 337.612 110.092C338.09 110.575 338.329 111.198 338.329 111.96C338.329 112.585 338.149 113.144 337.79 113.636C337.434 114.129 336.937 114.517 336.298 114.801C335.659 115.085 334.916 115.227 334.068 115.227C332.955 115.227 332.034 114.986 331.305 114.503C330.576 114.02 330.114 113.314 329.92 112.386L331.511 111.989C331.663 112.576 331.949 113.016 332.371 113.31C332.797 113.603 333.353 113.75 334.04 113.75C334.821 113.75 335.441 113.584 335.9 113.253C336.364 112.917 336.596 112.514 336.596 112.045C336.596 111.667 336.464 111.349 336.199 111.094C335.934 110.833 335.526 110.639 334.977 110.511L333.159 110.085C332.16 109.848 331.426 109.482 330.957 108.984C330.493 108.482 330.261 107.855 330.261 107.102C330.261 106.487 330.434 105.942 330.78 105.469C331.13 104.995 331.606 104.624 332.207 104.354C332.813 104.084 333.5 103.949 334.267 103.949C335.346 103.949 336.194 104.186 336.809 104.659C337.43 105.133 337.87 105.758 338.131 106.534ZM350.597 115.227C349.688 115.227 348.885 114.998 348.189 114.538C347.493 114.074 346.949 113.421 346.556 112.578C346.163 111.731 345.966 110.729 345.966 109.574C345.966 108.428 346.163 107.434 346.556 106.591C346.949 105.748 347.495 105.097 348.196 104.638C348.897 104.179 349.707 103.949 350.625 103.949C351.335 103.949 351.896 104.067 352.308 104.304C352.725 104.536 353.042 104.801 353.26 105.099C353.483 105.393 353.655 105.634 353.779 105.824H353.921V100.455H355.597V115H353.977V113.324H353.779C353.655 113.523 353.48 113.774 353.253 114.077C353.026 114.375 352.701 114.643 352.28 114.879C351.859 115.111 351.298 115.227 350.597 115.227ZM350.824 113.722C351.496 113.722 352.065 113.546 352.529 113.196C352.993 112.841 353.345 112.351 353.587 111.726C353.828 111.096 353.949 110.369 353.949 109.545C353.949 108.731 353.831 108.018 353.594 107.408C353.357 106.792 353.007 106.314 352.543 105.973C352.079 105.627 351.506 105.455 350.824 105.455C350.114 105.455 349.522 105.637 349.048 106.001C348.58 106.361 348.227 106.851 347.99 107.472C347.758 108.087 347.642 108.778 347.642 109.545C347.642 110.322 347.761 111.027 347.997 111.662C348.239 112.292 348.594 112.794 349.063 113.168C349.536 113.537 350.123 113.722 350.824 113.722ZM363.473 115.227C362.422 115.227 361.515 114.995 360.753 114.531C359.995 114.062 359.411 113.409 358.999 112.571C358.592 111.728 358.388 110.748 358.388 109.631C358.388 108.513 358.592 107.528 358.999 106.676C359.411 105.819 359.984 105.152 360.718 104.673C361.456 104.19 362.318 103.949 363.303 103.949C363.871 103.949 364.432 104.044 364.986 104.233C365.54 104.422 366.044 104.73 366.499 105.156C366.953 105.578 367.316 106.136 367.585 106.832C367.855 107.528 367.99 108.385 367.99 109.403V110.114H359.581V108.665H366.286C366.286 108.049 366.163 107.5 365.916 107.017C365.675 106.534 365.329 106.153 364.879 105.874C364.434 105.594 363.909 105.455 363.303 105.455C362.635 105.455 362.057 105.62 361.57 105.952C361.087 106.278 360.715 106.705 360.455 107.23C360.194 107.756 360.064 108.319 360.064 108.92V109.886C360.064 110.71 360.206 111.409 360.49 111.982C360.779 112.55 361.179 112.983 361.691 113.281C362.202 113.575 362.796 113.722 363.473 113.722C363.914 113.722 364.311 113.66 364.666 113.537C365.026 113.409 365.336 113.22 365.597 112.969C365.857 112.713 366.058 112.396 366.2 112.017L367.82 112.472C367.649 113.021 367.363 113.504 366.96 113.92C366.558 114.332 366.061 114.654 365.469 114.886C364.877 115.114 364.212 115.227 363.473 115.227ZM380.597 115.227C379.574 115.227 378.693 114.986 377.955 114.503C377.216 114.02 376.648 113.355 376.25 112.507C375.852 111.66 375.654 110.691 375.654 109.602C375.654 108.494 375.857 107.517 376.264 106.669C376.676 105.817 377.249 105.152 377.983 104.673C378.722 104.19 379.584 103.949 380.568 103.949C381.335 103.949 382.027 104.091 382.642 104.375C383.258 104.659 383.762 105.057 384.155 105.568C384.548 106.08 384.792 106.676 384.887 107.358H383.21C383.083 106.861 382.798 106.42 382.358 106.037C381.923 105.649 381.335 105.455 380.597 105.455C379.943 105.455 379.37 105.625 378.878 105.966C378.39 106.302 378.009 106.778 377.735 107.393C377.465 108.004 377.33 108.722 377.33 109.545C377.33 110.388 377.462 111.122 377.727 111.747C377.997 112.372 378.376 112.857 378.864 113.203C379.356 113.549 379.934 113.722 380.597 113.722C381.032 113.722 381.428 113.646 381.783 113.494C382.138 113.343 382.439 113.125 382.685 112.841C382.931 112.557 383.106 112.216 383.21 111.818H384.887C384.792 112.462 384.557 113.042 384.183 113.558C383.814 114.07 383.324 114.477 382.713 114.78C382.107 115.078 381.402 115.227 380.597 115.227ZM389.013 108.438V115H387.337V100.455H389.013V105.795H389.155C389.411 105.232 389.794 104.785 390.306 104.453C390.822 104.117 391.508 103.949 392.365 103.949C393.109 103.949 393.76 104.098 394.318 104.396C394.877 104.69 395.31 105.142 395.618 105.753C395.931 106.359 396.087 107.131 396.087 108.068V115H394.411V108.182C394.411 107.315 394.186 106.645 393.736 106.172C393.291 105.694 392.673 105.455 391.882 105.455C391.333 105.455 390.841 105.571 390.405 105.803C389.974 106.035 389.633 106.373 389.382 106.818C389.136 107.263 389.013 107.803 389.013 108.438ZM402.363 115.256C401.672 115.256 401.045 115.125 400.481 114.865C399.918 114.6 399.47 114.219 399.139 113.722C398.808 113.22 398.642 112.614 398.642 111.903C398.642 111.278 398.765 110.772 399.011 110.384C399.257 109.991 399.586 109.683 399.998 109.46C400.41 109.238 400.865 109.072 401.362 108.963C401.864 108.849 402.368 108.759 402.875 108.693C403.538 108.608 404.075 108.544 404.487 108.501C404.904 108.454 405.207 108.376 405.396 108.267C405.59 108.158 405.687 107.969 405.687 107.699V107.642C405.687 106.941 405.496 106.397 405.112 106.009C404.733 105.62 404.158 105.426 403.386 105.426C402.586 105.426 401.959 105.601 401.504 105.952C401.05 106.302 400.73 106.676 400.545 107.074L398.954 106.506C399.238 105.843 399.617 105.327 400.091 104.957C400.569 104.583 401.09 104.323 401.653 104.176C402.221 104.025 402.78 103.949 403.329 103.949C403.68 103.949 404.082 103.991 404.537 104.077C404.996 104.157 405.439 104.325 405.865 104.581C406.296 104.837 406.653 105.223 406.937 105.739C407.221 106.255 407.363 106.946 407.363 107.812V115H405.687V113.523H405.602C405.488 113.759 405.299 114.013 405.034 114.283C404.769 114.553 404.416 114.782 403.976 114.972C403.535 115.161 402.998 115.256 402.363 115.256ZM402.619 113.75C403.282 113.75 403.841 113.62 404.295 113.359C404.755 113.099 405.1 112.763 405.332 112.351C405.569 111.939 405.687 111.506 405.687 111.051V109.517C405.616 109.602 405.46 109.68 405.219 109.751C404.982 109.818 404.707 109.877 404.395 109.929C404.087 109.976 403.786 110.019 403.493 110.057C403.204 110.09 402.97 110.118 402.79 110.142C402.354 110.199 401.947 110.291 401.568 110.419C401.194 110.542 400.891 110.729 400.659 110.98C400.432 111.226 400.318 111.562 400.318 111.989C400.318 112.571 400.533 113.011 400.964 113.31C401.4 113.603 401.952 113.75 402.619 113.75ZM417.866 119.091V113.324H417.724C417.601 113.523 417.426 113.774 417.198 114.077C416.971 114.375 416.647 114.643 416.225 114.879C415.804 115.111 415.243 115.227 414.542 115.227C413.633 115.227 412.83 114.998 412.134 114.538C411.438 114.074 410.894 113.421 410.501 112.578C410.108 111.731 409.911 110.729 409.911 109.574C409.911 108.428 410.108 107.434 410.501 106.591C410.894 105.748 411.441 105.097 412.142 104.638C412.842 104.179 413.652 103.949 414.57 103.949C415.281 103.949 415.842 104.067 416.254 104.304C416.67 104.536 416.988 104.801 417.205 105.099C417.428 105.393 417.601 105.634 417.724 105.824H417.923V104.091H419.542V119.091H417.866ZM414.769 113.722C415.442 113.722 416.01 113.546 416.474 113.196C416.938 112.841 417.291 112.351 417.532 111.726C417.774 111.096 417.894 110.369 417.894 109.545C417.894 108.731 417.776 108.018 417.539 107.408C417.302 106.792 416.952 106.314 416.488 105.973C416.024 105.627 415.451 105.455 414.769 105.455C414.059 105.455 413.467 105.637 412.994 106.001C412.525 106.361 412.172 106.851 411.936 107.472C411.704 108.087 411.588 108.778 411.588 109.545C411.588 110.322 411.706 111.027 411.943 111.662C412.184 112.292 412.539 112.794 413.008 113.168C413.481 113.537 414.069 113.722 414.769 113.722ZM429.485 110.54V104.091H431.161V115H429.485V113.153H429.372C429.116 113.707 428.718 114.179 428.178 114.567C427.639 114.95 426.957 115.142 426.133 115.142C425.451 115.142 424.845 114.993 424.315 114.695C423.785 114.392 423.368 113.937 423.065 113.331C422.762 112.72 422.61 111.951 422.61 111.023V104.091H424.286V110.909C424.286 111.705 424.509 112.339 424.954 112.812C425.404 113.286 425.977 113.523 426.673 113.523C427.089 113.523 427.513 113.416 427.944 113.203C428.38 112.99 428.744 112.663 429.038 112.223C429.336 111.783 429.485 111.222 429.485 110.54ZM438.805 115.227C437.754 115.227 436.847 114.995 436.085 114.531C435.327 114.062 434.743 113.409 434.331 112.571C433.924 111.728 433.72 110.748 433.72 109.631C433.72 108.513 433.924 107.528 434.331 106.676C434.743 105.819 435.316 105.152 436.05 104.673C436.788 104.19 437.65 103.949 438.635 103.949C439.203 103.949 439.764 104.044 440.318 104.233C440.872 104.422 441.376 104.73 441.831 105.156C442.285 105.578 442.648 106.136 442.917 106.832C443.187 107.528 443.322 108.385 443.322 109.403V110.114H434.913V108.665H441.618C441.618 108.049 441.495 107.5 441.248 107.017C441.007 106.534 440.661 106.153 440.211 105.874C439.766 105.594 439.241 105.455 438.635 105.455C437.967 105.455 437.39 105.62 436.902 105.952C436.419 106.278 436.047 106.705 435.787 107.23C435.526 107.756 435.396 108.319 435.396 108.92V109.886C435.396 110.71 435.538 111.409 435.822 111.982C436.111 112.55 436.511 112.983 437.023 113.281C437.534 113.575 438.128 113.722 438.805 113.722C439.246 113.722 439.643 113.66 439.998 113.537C440.358 113.409 440.668 113.22 440.929 112.969C441.189 112.713 441.39 112.396 441.532 112.017L443.152 112.472C442.981 113.021 442.695 113.504 442.292 113.92C441.89 114.332 441.393 114.654 440.801 114.886C440.209 115.114 439.544 115.227 438.805 115.227ZM456.071 115.227C455.02 115.227 454.113 114.995 453.351 114.531C452.593 114.062 452.008 113.409 451.596 112.571C451.189 111.728 450.986 110.748 450.986 109.631C450.986 108.513 451.189 107.528 451.596 106.676C452.008 105.819 452.581 105.152 453.315 104.673C454.054 104.19 454.916 103.949 455.9 103.949C456.469 103.949 457.03 104.044 457.584 104.233C458.138 104.422 458.642 104.73 459.096 105.156C459.551 105.578 459.913 106.136 460.183 106.832C460.453 107.528 460.588 108.385 460.588 109.403V110.114H452.179V108.665H458.883C458.883 108.049 458.76 107.5 458.514 107.017C458.273 106.534 457.927 106.153 457.477 105.874C457.032 105.594 456.506 105.455 455.9 105.455C455.233 105.455 454.655 105.62 454.167 105.952C453.684 106.278 453.313 106.705 453.052 107.23C452.792 107.756 452.662 108.319 452.662 108.92V109.886C452.662 110.71 452.804 111.409 453.088 111.982C453.377 112.55 453.777 112.983 454.288 113.281C454.8 113.575 455.394 113.722 456.071 113.722C456.511 113.722 456.909 113.66 457.264 113.537C457.624 113.409 457.934 113.22 458.194 112.969C458.455 112.713 458.656 112.396 458.798 112.017L460.417 112.472C460.247 113.021 459.961 113.504 459.558 113.92C459.156 114.332 458.658 114.654 458.067 114.886C457.475 115.114 456.809 115.227 456.071 115.227ZM455.048 102.614L456.781 99.3182H458.741L456.525 102.614H455.048ZM467.882 104.091V105.511H462.229V104.091H467.882ZM463.876 101.477H465.552V111.875C465.552 112.348 465.621 112.704 465.758 112.94C465.9 113.172 466.08 113.329 466.298 113.409C466.521 113.485 466.755 113.523 467.001 113.523C467.186 113.523 467.337 113.513 467.456 113.494C467.574 113.471 467.669 113.452 467.74 113.438L468.081 114.943C467.967 114.986 467.809 115.028 467.605 115.071C467.401 115.118 467.143 115.142 466.831 115.142C466.357 115.142 465.893 115.04 465.439 114.837C464.989 114.633 464.615 114.323 464.317 113.906C464.023 113.49 463.876 112.964 463.876 112.33V101.477ZM473.613 115.256C472.922 115.256 472.295 115.125 471.731 114.865C471.168 114.6 470.72 114.219 470.389 113.722C470.058 113.22 469.892 112.614 469.892 111.903C469.892 111.278 470.015 110.772 470.261 110.384C470.507 109.991 470.836 109.683 471.248 109.46C471.66 109.238 472.115 109.072 472.612 108.963C473.114 108.849 473.618 108.759 474.125 108.693C474.788 108.608 475.325 108.544 475.737 108.501C476.154 108.454 476.457 108.376 476.646 108.267C476.84 108.158 476.937 107.969 476.937 107.699V107.642C476.937 106.941 476.746 106.397 476.362 106.009C475.983 105.62 475.408 105.426 474.636 105.426C473.836 105.426 473.209 105.601 472.754 105.952C472.3 106.302 471.98 106.676 471.795 107.074L470.204 106.506C470.488 105.843 470.867 105.327 471.341 104.957C471.819 104.583 472.34 104.323 472.903 104.176C473.471 104.025 474.03 103.949 474.579 103.949C474.93 103.949 475.332 103.991 475.787 104.077C476.246 104.157 476.689 104.325 477.115 104.581C477.546 104.837 477.903 105.223 478.187 105.739C478.471 106.255 478.613 106.946 478.613 107.812V115H476.937V113.523H476.852C476.738 113.759 476.549 114.013 476.284 114.283C476.019 114.553 475.666 114.782 475.226 114.972C474.785 115.161 474.248 115.256 473.613 115.256ZM473.869 113.75C474.532 113.75 475.091 113.62 475.545 113.359C476.005 113.099 476.35 112.763 476.582 112.351C476.819 111.939 476.937 111.506 476.937 111.051V109.517C476.866 109.602 476.71 109.68 476.469 109.751C476.232 109.818 475.957 109.877 475.645 109.929C475.337 109.976 475.036 110.019 474.743 110.057C474.454 110.09 474.22 110.118 474.04 110.142C473.604 110.199 473.197 110.291 472.818 110.419C472.444 110.542 472.141 110.729 471.909 110.98C471.682 111.226 471.568 111.562 471.568 111.989C471.568 112.571 471.783 113.011 472.214 113.31C472.65 113.603 473.202 113.75 473.869 113.75ZM481.9 115V100.455H483.576V105.824H483.718C483.841 105.634 484.012 105.393 484.23 105.099C484.452 104.801 484.769 104.536 485.181 104.304C485.598 104.067 486.161 103.949 486.872 103.949C487.79 103.949 488.6 104.179 489.301 104.638C490.001 105.097 490.548 105.748 490.941 106.591C491.334 107.434 491.531 108.428 491.531 109.574C491.531 110.729 491.334 111.731 490.941 112.578C490.548 113.421 490.004 114.074 489.308 114.538C488.612 114.998 487.809 115.227 486.9 115.227C486.199 115.227 485.638 115.111 485.217 114.879C484.795 114.643 484.471 114.375 484.244 114.077C484.017 113.774 483.841 113.523 483.718 113.324H483.519V115H481.9ZM483.548 109.545C483.548 110.369 483.669 111.096 483.91 111.726C484.151 112.351 484.504 112.841 484.968 113.196C485.432 113.546 486 113.722 486.673 113.722C487.374 113.722 487.958 113.537 488.427 113.168C488.901 112.794 489.256 112.292 489.492 111.662C489.734 111.027 489.855 110.322 489.855 109.545C489.855 108.778 489.736 108.087 489.499 107.472C489.267 106.851 488.915 106.361 488.441 106.001C487.972 105.637 487.383 105.455 486.673 105.455C485.991 105.455 485.418 105.627 484.954 105.973C484.49 106.314 484.14 106.792 483.903 107.408C483.666 108.018 483.548 108.731 483.548 109.545ZM495.771 100.455V115H494.095V100.455H495.771ZM498.841 115V104.091H500.517V115H498.841ZM499.693 102.273C499.366 102.273 499.085 102.161 498.848 101.939C498.616 101.716 498.5 101.449 498.5 101.136C498.5 100.824 498.616 100.556 498.848 100.334C499.085 100.111 499.366 100 499.693 100C500.02 100 500.299 100.111 500.531 100.334C500.768 100.556 500.886 100.824 500.886 101.136C500.886 101.449 500.768 101.716 500.531 101.939C500.299 102.161 500.02 102.273 499.693 102.273ZM511.314 106.534L509.808 106.96C509.714 106.709 509.574 106.465 509.389 106.229C509.209 105.987 508.963 105.788 508.651 105.632C508.338 105.476 507.938 105.398 507.45 105.398C506.783 105.398 506.227 105.552 505.781 105.859C505.341 106.162 505.121 106.548 505.121 107.017C505.121 107.434 505.272 107.763 505.575 108.004C505.878 108.246 506.352 108.447 506.996 108.608L508.615 109.006C509.591 109.242 510.317 109.605 510.796 110.092C511.274 110.575 511.513 111.198 511.513 111.96C511.513 112.585 511.333 113.144 510.973 113.636C510.618 114.129 510.121 114.517 509.482 114.801C508.843 115.085 508.099 115.227 507.252 115.227C506.139 115.227 505.218 114.986 504.489 114.503C503.76 114.02 503.298 113.314 503.104 112.386L504.695 111.989C504.846 112.576 505.133 113.016 505.554 113.31C505.98 113.603 506.537 113.75 507.223 113.75C508.004 113.75 508.625 113.584 509.084 113.253C509.548 112.917 509.78 112.514 509.78 112.045C509.78 111.667 509.647 111.349 509.382 111.094C509.117 110.833 508.71 110.639 508.161 110.511L506.343 110.085C505.343 109.848 504.61 109.482 504.141 108.984C503.677 108.482 503.445 107.855 503.445 107.102C503.445 106.487 503.618 105.942 503.963 105.469C504.314 104.995 504.789 104.624 505.391 104.354C505.997 104.084 506.683 103.949 507.45 103.949C508.53 103.949 509.378 104.186 509.993 104.659C510.613 105.133 511.054 105.758 511.314 106.534ZM521.763 106.534L520.258 106.96C520.163 106.709 520.023 106.465 519.839 106.229C519.659 105.987 519.412 105.788 519.1 105.632C518.787 105.476 518.387 105.398 517.9 105.398C517.232 105.398 516.676 105.552 516.231 105.859C515.79 106.162 515.57 106.548 515.57 107.017C515.57 107.434 515.722 107.763 516.025 108.004C516.328 108.246 516.801 108.447 517.445 108.608L519.064 109.006C520.04 109.242 520.767 109.605 521.245 110.092C521.723 110.575 521.962 111.198 521.962 111.96C521.962 112.585 521.782 113.144 521.422 113.636C521.067 114.129 520.57 114.517 519.931 114.801C519.292 115.085 518.548 115.227 517.701 115.227C516.588 115.227 515.667 114.986 514.938 114.503C514.209 114.02 513.747 113.314 513.553 112.386L515.144 111.989C515.296 112.576 515.582 113.016 516.003 113.31C516.43 113.603 516.986 113.75 517.672 113.75C518.454 113.75 519.074 113.584 519.533 113.253C519.997 112.917 520.229 112.514 520.229 112.045C520.229 111.667 520.097 111.349 519.831 111.094C519.566 110.833 519.159 110.639 518.61 110.511L516.792 110.085C515.793 109.848 515.059 109.482 514.59 108.984C514.126 108.482 513.894 107.855 513.894 107.102C513.894 106.487 514.067 105.942 514.412 105.469C514.763 104.995 515.239 104.624 515.84 104.354C516.446 104.084 517.133 103.949 517.9 103.949C518.979 103.949 519.827 104.186 520.442 104.659C521.063 105.133 521.503 105.758 521.763 106.534ZM529.059 115.227C528.008 115.227 527.101 114.995 526.339 114.531C525.581 114.062 524.997 113.409 524.585 112.571C524.177 111.728 523.974 110.748 523.974 109.631C523.974 108.513 524.177 107.528 524.585 106.676C524.997 105.819 525.57 105.152 526.303 104.673C527.042 104.19 527.904 103.949 528.889 103.949C529.457 103.949 530.018 104.044 530.572 104.233C531.126 104.422 531.63 104.73 532.085 105.156C532.539 105.578 532.901 106.136 533.171 106.832C533.441 107.528 533.576 108.385 533.576 109.403V110.114H525.167V108.665H531.872C531.872 108.049 531.749 107.5 531.502 107.017C531.261 106.534 530.915 106.153 530.465 105.874C530.02 105.594 529.495 105.455 528.889 105.455C528.221 105.455 527.643 105.62 527.156 105.952C526.673 106.278 526.301 106.705 526.041 107.23C525.78 107.756 525.65 108.319 525.65 108.92V109.886C525.65 110.71 525.792 111.409 526.076 111.982C526.365 112.55 526.765 112.983 527.276 113.281C527.788 113.575 528.382 113.722 529.059 113.722C529.499 113.722 529.897 113.66 530.252 113.537C530.612 113.409 530.922 113.22 531.183 112.969C531.443 112.713 531.644 112.396 531.786 112.017L533.406 112.472C533.235 113.021 532.949 113.504 532.546 113.92C532.144 114.332 531.647 114.654 531.055 114.886C530.463 115.114 529.798 115.227 529.059 115.227ZM536.126 115V104.091H537.745V105.795H537.887C538.115 105.213 538.481 104.761 538.988 104.439C539.495 104.112 540.103 103.949 540.813 103.949C541.533 103.949 542.132 104.112 542.61 104.439C543.093 104.761 543.47 105.213 543.74 105.795H543.853C544.133 105.232 544.552 104.785 545.11 104.453C545.669 104.117 546.339 103.949 547.12 103.949C548.096 103.949 548.893 104.254 549.514 104.865C550.134 105.471 550.444 106.416 550.444 107.699V115H548.768V107.699C548.768 106.894 548.548 106.319 548.107 105.973C547.667 105.627 547.149 105.455 546.552 105.455C545.785 105.455 545.191 105.687 544.769 106.151C544.348 106.61 544.137 107.192 544.137 107.898V115H542.433V107.528C542.433 106.908 542.231 106.409 541.829 106.03C541.427 105.646 540.908 105.455 540.274 105.455C539.838 105.455 539.431 105.571 539.052 105.803C538.678 106.035 538.375 106.357 538.143 106.768C537.916 107.176 537.802 107.647 537.802 108.182V115H536.126ZM558.083 115.227C557.031 115.227 556.125 114.995 555.362 114.531C554.605 114.062 554.02 113.409 553.608 112.571C553.201 111.728 552.997 110.748 552.997 109.631C552.997 108.513 553.201 107.528 553.608 106.676C554.02 105.819 554.593 105.152 555.327 104.673C556.066 104.19 556.927 103.949 557.912 103.949C558.48 103.949 559.041 104.044 559.595 104.233C560.149 104.422 560.654 104.73 561.108 105.156C561.563 105.578 561.925 106.136 562.195 106.832C562.465 107.528 562.6 108.385 562.6 109.403V110.114H554.191V108.665H560.895C560.895 108.049 560.772 107.5 560.526 107.017C560.284 106.534 559.939 106.153 559.489 105.874C559.044 105.594 558.518 105.455 557.912 105.455C557.244 105.455 556.667 105.62 556.179 105.952C555.696 106.278 555.325 106.705 555.064 107.23C554.804 107.756 554.673 108.319 554.673 108.92V109.886C554.673 110.71 554.816 111.409 555.1 111.982C555.388 112.55 555.789 112.983 556.3 113.281C556.811 113.575 557.405 113.722 558.083 113.722C558.523 113.722 558.921 113.66 559.276 113.537C559.636 113.409 559.946 113.22 560.206 112.969C560.467 112.713 560.668 112.396 560.81 112.017L562.429 112.472C562.259 113.021 561.972 113.504 561.57 113.92C561.167 114.332 560.67 114.654 560.078 114.886C559.486 115.114 558.821 115.227 558.083 115.227ZM566.825 108.438V115H565.149V104.091H566.769V105.795H566.911C567.166 105.241 567.555 104.796 568.075 104.46C568.596 104.119 569.269 103.949 570.093 103.949C570.831 103.949 571.477 104.1 572.031 104.403C572.585 104.702 573.016 105.156 573.324 105.767C573.632 106.373 573.786 107.14 573.786 108.068V115H572.11V108.182C572.11 107.325 571.887 106.657 571.442 106.179C570.997 105.696 570.386 105.455 569.61 105.455C569.075 105.455 568.596 105.571 568.175 105.803C567.758 106.035 567.429 106.373 567.188 106.818C566.946 107.263 566.825 107.803 566.825 108.438ZM581.593 104.091V105.511H575.939V104.091H581.593ZM577.587 101.477H579.263V111.875C579.263 112.348 579.332 112.704 579.469 112.94C579.611 113.172 579.791 113.329 580.009 113.409C580.232 113.485 580.466 113.523 580.712 113.523C580.897 113.523 581.048 113.513 581.167 113.494C581.285 113.471 581.38 113.452 581.451 113.438L581.792 114.943C581.678 114.986 581.519 115.028 581.316 115.071C581.112 115.118 580.854 115.142 580.542 115.142C580.068 115.142 579.604 115.04 579.15 114.837C578.7 114.633 578.326 114.323 578.028 113.906C577.734 113.49 577.587 112.964 577.587 112.33V101.477ZM594.313 115.227C593.262 115.227 592.355 114.995 591.593 114.531C590.835 114.062 590.251 113.409 589.839 112.571C589.431 111.728 589.228 110.748 589.228 109.631C589.228 108.513 589.431 107.528 589.839 106.676C590.251 105.819 590.823 105.152 591.557 104.673C592.296 104.19 593.158 103.949 594.143 103.949C594.711 103.949 595.272 104.044 595.826 104.233C596.38 104.422 596.884 104.73 597.339 105.156C597.793 105.578 598.155 106.136 598.425 106.832C598.695 107.528 598.83 108.385 598.83 109.403V110.114H590.421V108.665H597.126C597.126 108.049 597.002 107.5 596.756 107.017C596.515 106.534 596.169 106.153 595.719 105.874C595.274 105.594 594.749 105.455 594.143 105.455C593.475 105.455 592.897 105.62 592.41 105.952C591.927 106.278 591.555 106.705 591.295 107.23C591.034 107.756 590.904 108.319 590.904 108.92V109.886C590.904 110.71 591.046 111.409 591.33 111.982C591.619 112.55 592.019 112.983 592.53 113.281C593.042 113.575 593.636 113.722 594.313 113.722C594.753 113.722 595.151 113.66 595.506 113.537C595.866 113.409 596.176 113.22 596.437 112.969C596.697 112.713 596.898 112.396 597.04 112.017L598.66 112.472C598.489 113.021 598.203 113.504 597.8 113.92C597.398 114.332 596.901 114.654 596.309 114.886C595.717 115.114 595.052 115.227 594.313 115.227ZM593.29 102.614L595.023 99.3182H596.983L594.768 102.614H593.29ZM605.499 115.227C604.59 115.227 603.787 114.998 603.091 114.538C602.395 114.074 601.851 113.421 601.458 112.578C601.065 111.731 600.868 110.729 600.868 109.574C600.868 108.428 601.065 107.434 601.458 106.591C601.851 105.748 602.398 105.097 603.099 104.638C603.799 104.179 604.609 103.949 605.528 103.949C606.238 103.949 606.799 104.067 607.211 104.304C607.627 104.536 607.945 104.801 608.162 105.099C608.385 105.393 608.558 105.634 608.681 105.824H608.823V100.455H610.499V115H608.88V113.324H608.681C608.558 113.523 608.383 113.774 608.155 114.077C607.928 114.375 607.604 114.643 607.182 114.879C606.761 115.111 606.2 115.227 605.499 115.227ZM605.726 113.722C606.399 113.722 606.967 113.546 607.431 113.196C607.895 112.841 608.248 112.351 608.489 111.726C608.731 111.096 608.851 110.369 608.851 109.545C608.851 108.731 608.733 108.018 608.496 107.408C608.26 106.792 607.909 106.314 607.445 105.973C606.981 105.627 606.408 105.455 605.726 105.455C605.016 105.455 604.424 105.637 603.951 106.001C603.482 106.361 603.129 106.851 602.893 107.472C602.661 108.087 602.545 108.778 602.545 109.545C602.545 110.322 602.663 111.027 602.9 111.662C603.141 112.292 603.496 112.794 603.965 113.168C604.439 113.537 605.026 113.722 605.726 113.722ZM620.677 110.54V104.091H622.353V115H620.677V113.153H620.563C620.307 113.707 619.91 114.179 619.37 114.567C618.83 114.95 618.148 115.142 617.324 115.142C616.643 115.142 616.037 114.993 615.506 114.695C614.976 114.392 614.559 113.937 614.256 113.331C613.953 112.72 613.802 111.951 613.802 111.023V104.091H615.478V110.909C615.478 111.705 615.7 112.339 616.145 112.812C616.595 113.286 617.168 113.523 617.864 113.523C618.281 113.523 618.705 113.416 619.135 113.203C619.571 112.99 619.936 112.663 620.229 112.223C620.528 111.783 620.677 111.222 620.677 110.54ZM629.855 115.227C628.832 115.227 627.951 114.986 627.213 114.503C626.474 114.02 625.906 113.355 625.508 112.507C625.11 111.66 624.911 110.691 624.911 109.602C624.911 108.494 625.115 107.517 625.522 106.669C625.934 105.817 626.507 105.152 627.241 104.673C627.98 104.19 628.841 103.949 629.826 103.949C630.593 103.949 631.285 104.091 631.9 104.375C632.516 104.659 633.02 105.057 633.413 105.568C633.806 106.08 634.05 106.676 634.144 107.358H632.468C632.34 106.861 632.056 106.42 631.616 106.037C631.18 105.649 630.593 105.455 629.855 105.455C629.201 105.455 628.628 105.625 628.136 105.966C627.648 106.302 627.267 106.778 626.992 107.393C626.722 108.004 626.588 108.722 626.588 109.545C626.588 110.388 626.72 111.122 626.985 111.747C627.255 112.372 627.634 112.857 628.122 113.203C628.614 113.549 629.192 113.722 629.855 113.722C630.29 113.722 630.686 113.646 631.041 113.494C631.396 113.343 631.696 113.125 631.943 112.841C632.189 112.557 632.364 112.216 632.468 111.818H634.144C634.05 112.462 633.815 113.042 633.441 113.558C633.072 114.07 632.582 114.477 631.971 114.78C631.365 115.078 630.66 115.227 629.855 115.227ZM639.805 115.256C639.114 115.256 638.486 115.125 637.923 114.865C637.359 114.6 636.912 114.219 636.58 113.722C636.249 113.22 636.083 112.614 636.083 111.903C636.083 111.278 636.206 110.772 636.453 110.384C636.699 109.991 637.028 109.683 637.44 109.46C637.852 109.238 638.306 109.072 638.803 108.963C639.305 108.849 639.81 108.759 640.316 108.693C640.979 108.608 641.517 108.544 641.928 108.501C642.345 108.454 642.648 108.376 642.838 108.267C643.032 108.158 643.129 107.969 643.129 107.699V107.642C643.129 106.941 642.937 106.397 642.553 106.009C642.175 105.62 641.599 105.426 640.828 105.426C640.027 105.426 639.4 105.601 638.945 105.952C638.491 106.302 638.171 106.676 637.987 107.074L636.396 106.506C636.68 105.843 637.059 105.327 637.532 104.957C638.01 104.583 638.531 104.323 639.095 104.176C639.663 104.025 640.222 103.949 640.771 103.949C641.121 103.949 641.524 103.991 641.978 104.077C642.437 104.157 642.88 104.325 643.306 104.581C643.737 104.837 644.095 105.223 644.379 105.739C644.663 106.255 644.805 106.946 644.805 107.812V115H643.129V113.523H643.044C642.93 113.759 642.74 114.013 642.475 114.283C642.21 114.553 641.857 114.782 641.417 114.972C640.977 115.161 640.439 115.256 639.805 115.256ZM640.061 113.75C640.723 113.75 641.282 113.62 641.737 113.359C642.196 113.099 642.542 112.763 642.774 112.351C643.01 111.939 643.129 111.506 643.129 111.051V109.517C643.058 109.602 642.901 109.68 642.66 109.751C642.423 109.818 642.149 109.877 641.836 109.929C641.528 109.976 641.228 110.019 640.934 110.057C640.645 110.09 640.411 110.118 640.231 110.142C639.795 110.199 639.388 110.291 639.009 110.419C638.635 110.542 638.332 110.729 638.1 110.98C637.873 111.226 637.759 111.562 637.759 111.989C637.759 112.571 637.975 113.011 638.406 113.31C638.841 113.603 639.393 113.75 640.061 113.75ZM652.608 104.091V105.511H646.955V104.091H652.608ZM648.603 101.477H650.279V111.875C650.279 112.348 650.348 112.704 650.485 112.94C650.627 113.172 650.807 113.329 651.025 113.409C651.247 113.485 651.482 113.523 651.728 113.523C651.912 113.523 652.064 113.513 652.182 113.494C652.301 113.471 652.395 113.452 652.466 113.438L652.807 114.943C652.694 114.986 652.535 115.028 652.331 115.071C652.128 115.118 651.87 115.142 651.557 115.142C651.084 115.142 650.62 115.04 650.165 114.837C649.715 114.633 649.341 114.323 649.043 113.906C648.75 113.49 648.603 112.964 648.603 112.33V101.477ZM655.13 115V104.091H656.806V115H655.13ZM655.982 102.273C655.655 102.273 655.374 102.161 655.137 101.939C654.905 101.716 654.789 101.449 654.789 101.136C654.789 100.824 654.905 100.556 655.137 100.334C655.374 100.111 655.655 100 655.982 100C656.309 100 656.588 100.111 656.82 100.334C657.057 100.556 657.175 100.824 657.175 101.136C657.175 101.449 657.057 101.716 656.82 101.939C656.588 102.161 656.309 102.273 655.982 102.273ZM664.734 104.091V105.511H658.853V104.091H664.734ZM660.615 115V102.585C660.615 101.96 660.761 101.439 661.055 101.023C661.348 100.606 661.73 100.294 662.198 100.085C662.667 99.8769 663.162 99.7727 663.683 99.7727C664.095 99.7727 664.431 99.8059 664.691 99.8722C664.952 99.9384 665.146 100 665.274 100.057L664.791 101.506C664.705 101.477 664.587 101.442 664.436 101.399C664.289 101.357 664.095 101.335 663.853 101.335C663.299 101.335 662.899 101.475 662.653 101.754C662.411 102.034 662.291 102.443 662.291 102.983V115H660.615Z" fill="white"/>
<path d="M445.291 49.0632C445.291 59.9883 436.739 68.8619 426.17 68.8619C422.518 68.8619 419.107 67.8123 416.224 65.9994C415.504 67.6692 413.822 68.8619 411.804 68.8619C409.162 68.8619 407 66.715 407 64.0911V19.7708C407 17.1468 409.162 15 411.804 15C414.447 15 416.609 17.1468 416.609 19.7708V31.9362C419.443 30.2664 422.71 29.3123 426.17 29.3123C436.739 29.2646 445.291 38.1382 445.291 49.0632ZM435.73 49.0632C435.73 43.386 431.454 38.7584 426.17 38.7584C420.885 38.7584 416.609 43.386 416.609 49.0632C416.609 54.7404 420.885 59.3681 426.17 59.3681C431.454 59.3681 435.73 54.7404 435.73 49.0632Z" fill="white"/>
<path d="M450.096 49.0632C450.096 38.1381 458.648 29.2645 469.217 29.2645C479.787 29.2645 488.339 38.1381 488.339 49.0632C488.339 59.9882 479.787 68.8619 469.217 68.8619C458.648 68.8619 450.096 59.9882 450.096 49.0632ZM478.778 49.0632C478.778 43.386 474.502 38.7583 469.217 38.7583C463.932 38.7583 459.656 43.386 459.656 49.0632C459.656 54.7404 463.932 59.368 469.217 59.368C474.502 59.368 478.778 54.7404 478.778 49.0632Z" fill="white"/>
<path d="M522.065 66.5719C519.807 68.0509 517.213 68.8619 514.571 68.8619C507.076 68.8619 501.022 62.7076 501.022 55.1698V38.8061H497.131C494.488 38.8061 492.326 36.6593 492.326 34.0353C492.326 31.4114 494.488 29.2646 497.131 29.2646H501.022V21.3451C501.022 18.7212 503.184 16.5743 505.827 16.5743C508.469 16.5743 510.631 18.7212 510.631 21.3451V29.2646H518.126C520.768 29.2646 522.93 31.4114 522.93 34.0353C522.93 36.6593 520.768 38.8061 518.126 38.8061H510.583V55.2175C510.583 57.5075 512.361 59.4158 514.571 59.4158C515.291 59.4158 516.108 59.1772 516.732 58.7956C518.894 57.3166 521.825 57.8414 523.363 60.036C524.756 62.1351 524.227 65.1407 522.065 66.5719Z" fill="white"/>
<path d="M529.32 20.1524C529.32 17.29 531.626 15 534.509 15C537.392 15 539.698 17.29 539.698 20.1524C539.698 23.0149 537.392 25.3048 534.509 25.3048C531.626 25.3048 529.32 23.0149 529.32 20.1524ZM529.705 64.0911V34.0353C529.705 31.4114 531.867 29.2646 534.509 29.2646C537.151 29.2646 539.313 31.4114 539.313 34.0353V64.0911C539.313 66.715 537.151 68.8619 534.509 68.8619C531.867 68.8619 529.705 66.715 529.705 64.0911Z" fill="white"/>
<path d="M488.531 69.0049C487.378 67.8122 485.504 67.6691 484.207 68.6709C481.324 70.8655 476.135 73.7757 469.217 73.7757C462.299 73.7757 457.11 70.8178 454.227 68.6709C452.93 67.6691 451.056 67.8122 449.903 69.0049C448.51 70.3884 448.654 72.7261 450.24 73.9188C454.035 76.7812 460.521 80.3593 469.217 80.3593C477.913 80.3593 484.399 76.7812 488.194 73.9188C489.78 72.6784 489.924 70.3884 488.531 69.0049Z" fill="url(#paint0_linear_528_15012)"/>
<defs>
<linearGradient id="paint0_linear_528_15012" x1="448.947" y1="74.1735" x2="489.492" y2="74.1735" gradientUnits="userSpaceOnUse">
<stop stop-color="#FB7725"/>
<stop offset="1" stop-color="#EA2287"/>
</linearGradient>
</defs>
</svg>
