<svg width="76" height="76" viewBox="0 0 76 76" fill="none" xmlns="http://www.w3.org/2000/svg">
<path d="M6.28125 4.44223C5.26606 4.44223 4.44308 5.2652 4.44308 6.2804C4.44308 7.29559 5.26606 8.11856 6.28125 8.11856V6.2804V4.44223ZM28.2627 48.4051C27.2475 48.4051 26.4245 49.2281 26.4245 50.2432C26.4245 51.2584 27.2475 52.0814 28.2627 52.0814V50.2432V48.4051ZM31.4029 18.5731C30.3877 18.5731 29.5647 19.3961 29.5647 20.4113C29.5647 21.4265 30.3877 22.2495 31.4029 22.2495V20.4113V18.5731ZM50.2441 22.2495C51.2593 22.2495 52.0823 21.4265 52.0823 20.4113C52.0823 19.3961 51.2593 18.5731 50.2441 18.5731V20.4113V22.2495ZM4.44308 69.0845C4.44308 70.0997 5.26606 70.9226 6.28125 70.9226C7.29644 70.9226 8.11942 70.0997 8.11942 69.0845H6.28125H4.44308ZM17.0039 69.0845C17.0039 70.0997 17.8269 70.9226 18.8421 70.9226C19.8573 70.9226 20.6802 70.0997 20.6802 69.0845H18.8421H17.0039ZM37.6833 36.3804C38.6985 36.3804 39.5215 35.5574 39.5215 34.5422C39.5215 33.527 38.6985 32.7041 37.6833 32.7041V34.5422V36.3804ZM18.8421 20.4113H20.6802H18.8421ZM6.28125 20.4113H4.44308H6.28125ZM12.5617 14.1309V12.2927V14.1309ZM6.28125 6.2804V8.11856H50.2441V6.2804V4.44223H6.28125V6.2804ZM50.2441 6.2804V8.11856C53.2573 8.11856 55.3314 8.12247 56.8902 8.33217C58.3958 8.53471 59.1431 8.89844 59.665 9.42034L60.9648 8.12055L62.2645 6.82077C60.9463 5.50251 59.2945 4.94616 57.3804 4.68866C55.5195 4.43832 53.1533 4.44223 50.2441 4.44223V6.2804ZM60.9648 8.12055L59.665 9.42034C60.1869 9.94223 60.5506 10.6895 60.7531 12.1951C60.9628 13.7539 60.9667 15.828 60.9667 18.8412H62.8049H64.6431C64.6431 15.932 64.647 13.5658 64.3967 11.705C64.1392 9.79085 63.5828 8.13904 62.2645 6.82077L60.9648 8.12055ZM62.8049 18.8412H60.9667V37.6824H62.8049H64.6431V18.8412H62.8049ZM62.8049 37.6824H60.9667C60.9667 40.6957 60.9628 42.7697 60.7531 44.3285C60.5506 45.8341 60.1869 46.5814 59.665 47.1033L60.9648 48.4031L62.2645 49.7029C63.5828 48.3846 64.1392 46.7328 64.3967 44.8187C64.647 42.9578 64.6431 40.5916 64.6431 37.6824H62.8049ZM60.9648 48.4031L59.665 47.1033C59.1431 47.6252 58.3958 47.9889 56.8902 48.1915C55.3314 48.4012 53.2573 48.4051 50.2441 48.4051V50.2432V52.0814C53.1533 52.0814 55.5195 52.0853 57.3804 51.835C59.2945 51.5775 60.9463 51.0211 62.2645 49.7029L60.9648 48.4031ZM50.2441 50.2432V48.4051H28.2627V50.2432V52.0814H50.2441V50.2432ZM31.4029 20.4113V22.2495H50.2441V20.4113V18.5731H31.4029V20.4113ZM6.28125 53.3834H8.11942V40.8226H6.28125H4.44308V53.3834H6.28125ZM6.28125 40.8226H8.11942C8.11942 39.29 8.12333 38.326 8.21802 37.6221C8.30555 36.9715 8.43926 36.8239 8.50111 36.7621L7.20133 35.4623L5.90155 34.1625C5.04332 35.0208 4.71699 36.0728 4.5745 37.132C4.43917 38.1379 4.44308 39.394 4.44308 40.8226H6.28125ZM7.20133 35.4623L8.50111 36.7621C8.56296 36.7002 8.7105 36.5665 9.36115 36.479C10.065 36.3843 11.029 36.3804 12.5617 36.3804V34.5422V32.7041C11.1331 32.7041 9.87696 32.7002 8.87099 32.8355C7.8118 32.978 6.75978 33.3043 5.90155 34.1625L7.20133 35.4623ZM12.5617 34.5422V36.3804H18.8421V34.5422V32.7041H12.5617V34.5422ZM6.28125 53.3834V55.2216H18.8421V53.3834V51.5453H6.28125V53.3834ZM6.28125 53.3834H4.44308V69.0845H6.28125H8.11942V53.3834H6.28125ZM18.8421 53.3834H20.6802V34.5422H18.8421H17.0039V53.3834H18.8421ZM18.8421 53.3834H17.0039V69.0845H18.8421H20.6802V53.3834H18.8421ZM18.8421 34.5422V36.3804H37.6833V34.5422V32.7041H18.8421V34.5422ZM18.8421 20.4113H17.0039C17.0039 21.5895 16.5359 22.7194 15.7028 23.5525L17.0026 24.8522L18.3024 26.152C19.8249 24.6295 20.6802 22.5645 20.6802 20.4113H18.8421ZM17.0026 24.8522L15.7028 23.5525C14.8697 24.3855 13.7398 24.8535 12.5617 24.8535V26.6917V28.5299C14.7148 28.5299 16.7798 27.6745 18.3024 26.152L17.0026 24.8522ZM12.5617 26.6917V24.8535C11.3835 24.8535 10.2536 24.3855 9.42052 23.5525L8.12074 24.8522L6.82096 26.152C8.34349 27.6745 10.4085 28.5299 12.5617 28.5299V26.6917ZM8.12074 24.8522L9.42052 23.5525C8.58744 22.7194 8.11942 21.5895 8.11942 20.4113H6.28125H4.44308C4.44308 22.5645 5.29843 24.6295 6.82096 26.152L8.12074 24.8522ZM6.28125 20.4113H8.11942C8.11942 19.2332 8.58744 18.1033 9.42052 17.2702L8.12074 15.9704L6.82096 14.6706C5.29843 16.1931 4.44308 18.2581 4.44308 20.4113H6.28125ZM8.12074 15.9704L9.42052 17.2702C10.2536 16.4371 11.3835 15.9691 12.5617 15.9691V14.1309V12.2927C10.4085 12.2927 8.34349 13.1481 6.82096 14.6706L8.12074 15.9704ZM12.5617 14.1309V15.9691C13.7398 15.9691 14.8697 16.4371 15.7028 17.2702L17.0026 15.9704L18.3024 14.6706C16.7798 13.1481 14.7148 12.2927 12.5617 12.2927V14.1309ZM17.0026 15.9704L15.7028 17.2702C16.5359 18.1033 17.0039 19.2332 17.0039 20.4113H18.8421H20.6802C20.6802 18.2581 19.8249 16.1931 18.3024 14.6706L17.0026 15.9704Z" fill="url(#paint0_linear_528_15249)"/>
<defs>
<linearGradient id="paint0_linear_528_15249" x1="6.43451" y1="62.4977" x2="57.3343" y2="87.4476" gradientUnits="userSpaceOnUse">
<stop stop-color="#7C51F0"/>
<stop offset="0.620192" stop-color="#AD8EFF"/>
</linearGradient>
</defs>
</svg>
