<svg width="84" height="84" viewBox="0 0 84 84" fill="none" xmlns="http://www.w3.org/2000/svg">
<g filter="url(#filter0_d_685_734)">
<path opacity="0.94" d="M42.0039 67.2161C57.4679 67.2161 70.0039 54.6804 70.0039 39.2168C70.0039 23.7532 57.4679 11.2175 42.0039 11.2175C26.5399 11.2175 14.0039 23.7532 14.0039 39.2168C14.0039 54.6804 26.5399 67.2161 42.0039 67.2161Z" fill="url(#paint0_linear_685_734)"/>
<path d="M42.0032 66.8678C57.2748 66.8678 69.6548 54.488 69.6548 39.2169C69.6548 23.9457 57.2748 11.5659 42.0032 11.5659C26.7316 11.5659 14.3516 23.9457 14.3516 39.2169C14.3516 54.488 26.7316 66.8678 42.0032 66.8678Z" stroke="url(#paint1_linear_685_734)" stroke-width="0.4"/>
<path d="M42.0029 22.4036C51.2895 22.4036 58.8182 29.9319 58.8184 39.218C58.8184 48.5043 51.2896 56.0325 42.0029 56.0325C32.7163 56.0325 25.1875 48.5043 25.1875 39.218C25.1877 29.9319 32.7164 22.4036 42.0029 22.4036Z" fill="url(#paint2_radial_685_734)" stroke="url(#paint3_linear_685_734)" stroke-width="0.485274"/>
<path d="M38.6719 33.4675V39.2175M45.3802 33.4675V39.2175M32.9219 39.2175H51.7052M48.2552 44.9675H51.1302C51.1302 44.9675 51.6094 43.3384 51.8969 42.2842C51.9927 41.9009 52.0885 41.5175 52.0885 41.1342C52.0885 40.7509 51.9927 40.3675 51.8969 39.9842L50.5552 35.1925C50.2677 34.2342 49.3094 33.4675 48.2552 33.4675H34.8385C34.3302 33.4675 33.8427 33.6695 33.4833 34.0289C33.1238 34.3884 32.9219 34.8759 32.9219 35.3842V44.9675H35.7969" stroke="url(#paint4_linear_685_734)" stroke-width="1.53333" stroke-linecap="round" stroke-linejoin="round"/>
<path d="M37.7135 46.8841C38.7721 46.8841 39.6302 46.026 39.6302 44.9674C39.6302 43.9089 38.7721 43.0508 37.7135 43.0508C36.655 43.0508 35.7969 43.9089 35.7969 44.9674C35.7969 46.026 36.655 46.8841 37.7135 46.8841Z" stroke="url(#paint5_linear_685_734)" stroke-width="1.53333" stroke-linecap="round" stroke-linejoin="round"/>
<path d="M40.1094 44.9675H43.9427" stroke="url(#paint6_linear_685_734)" stroke-width="1.91667" stroke-linecap="round" stroke-linejoin="round"/>
<path d="M46.3385 46.8841C47.3971 46.8841 48.2552 46.026 48.2552 44.9674C48.2552 43.9089 47.3971 43.0508 46.3385 43.0508C45.28 43.0508 44.4219 43.9089 44.4219 44.9674C44.4219 46.026 45.28 46.8841 46.3385 46.8841Z" stroke="url(#paint7_linear_685_734)" stroke-width="1.53333" stroke-linecap="round" stroke-linejoin="round"/>
</g>
<defs>
<filter id="filter0_d_685_734" x="-0.000622749" y="-2.88486e-05" width="84.0091" height="84.0077" filterUnits="userSpaceOnUse" color-interpolation-filters="sRGB">
<feFlood flood-opacity="0" result="BackgroundImageFix"/>
<feColorMatrix in="SourceAlpha" type="matrix" values="0 0 0 0 0 0 0 0 0 0 0 0 0 0 0 0 0 0 127 0" result="hardAlpha"/>
<feOffset dy="2.78697"/>
<feGaussianBlur stdDeviation="7.00226"/>
<feComposite in2="hardAlpha" operator="out"/>
<feColorMatrix type="matrix" values="0 0 0 0 0 0 0 0 0 0 0 0 0 0 0 0 0 0 0.06 0"/>
<feBlend mode="normal" in2="BackgroundImageFix" result="effect1_dropShadow_685_734"/>
<feBlend mode="normal" in="SourceGraphic" in2="effect1_dropShadow_685_734" result="shape"/>
</filter>
<linearGradient id="paint0_linear_685_734" x1="64.6839" y1="16.3134" x2="22.797" y2="60.8333" gradientUnits="userSpaceOnUse">
<stop stop-color="white" stop-opacity="0.867"/>
<stop offset="1" stop-color="white" stop-opacity="0"/>
</linearGradient>
<linearGradient id="paint1_linear_685_734" x1="25.5039" y1="58.7175" x2="53.5039" y2="12.2175" gradientUnits="userSpaceOnUse">
<stop stop-color="#9B89FF" stop-opacity="0.55"/>
<stop offset="1" stop-color="#D5CEFF"/>
</linearGradient>
<radialGradient id="paint2_radial_685_734" cx="0" cy="0" r="1" gradientTransform="matrix(-9.81875 16.7219 -16.7226 -9.81835 49.8273 30.6273)" gradientUnits="userSpaceOnUse">
<stop stop-color="white"/>
<stop offset="0.490385" stop-color="white"/>
<stop offset="1" stop-color="#C8C6F1"/>
</radialGradient>
<linearGradient id="paint3_linear_685_734" x1="45.148" y1="31.3943" x2="34.8697" y2="53.6394" gradientUnits="userSpaceOnUse">
<stop stop-color="white" stop-opacity="0.95"/>
<stop offset="0.5" stop-color="#F2F3FF" stop-opacity="0.975"/>
<stop offset="1" stop-color="#B8BDFF"/>
</linearGradient>
<linearGradient id="paint4_linear_685_734" x1="42.5052" y1="33.4675" x2="42.5052" y2="44.9675" gradientUnits="userSpaceOnUse">
<stop stop-color="#B9A2FF"/>
<stop offset="1" stop-color="#360DAE"/>
</linearGradient>
<linearGradient id="paint5_linear_685_734" x1="37.7135" y1="43.0508" x2="37.7135" y2="46.8841" gradientUnits="userSpaceOnUse">
<stop stop-color="#B9A2FF"/>
<stop offset="1" stop-color="#360DAE"/>
</linearGradient>
<linearGradient id="paint6_linear_685_734" x1="42.026" y1="44.9675" x2="42.026" y2="45.9675" gradientUnits="userSpaceOnUse">
<stop stop-color="#B9A2FF"/>
<stop offset="1" stop-color="#360DAE"/>
</linearGradient>
<linearGradient id="paint7_linear_685_734" x1="46.3385" y1="43.0508" x2="46.3385" y2="46.8841" gradientUnits="userSpaceOnUse">
<stop stop-color="#B9A2FF"/>
<stop offset="1" stop-color="#360DAE"/>
</linearGradient>
</defs>
</svg>
