<svg width="84" height="84" viewBox="0 0 84 84" fill="none" xmlns="http://www.w3.org/2000/svg">
<g filter="url(#filter0_d_685_715)">
<path opacity="0.94" d="M42.0039 67.2161C57.4679 67.2161 70.0039 54.6804 70.0039 39.2168C70.0039 23.7532 57.4679 11.2175 42.0039 11.2175C26.5399 11.2175 14.0039 23.7532 14.0039 39.2168C14.0039 54.6804 26.5399 67.2161 42.0039 67.2161Z" fill="url(#paint0_linear_685_715)"/>
<path d="M42.0032 66.8678C57.2748 66.8678 69.6548 54.488 69.6548 39.2169C69.6548 23.9457 57.2748 11.5659 42.0032 11.5659C26.7316 11.5659 14.3516 23.9457 14.3516 39.2169C14.3516 54.488 26.7316 66.8678 42.0032 66.8678Z" stroke="url(#paint1_linear_685_715)" stroke-width="0.4"/>
<path d="M42.0049 22.4036C51.2915 22.4036 58.8201 29.9319 58.8203 39.218C58.8203 48.5043 51.2916 56.0325 42.0049 56.0325C32.7182 56.0325 25.1895 48.5043 25.1895 39.218C25.1896 29.9319 32.7183 22.4036 42.0049 22.4036Z" fill="url(#paint2_radial_685_715)" stroke="url(#paint3_linear_685_715)" stroke-width="0.485274"/>
<path d="M50.0039 30.2175H34.0039C33.4516 30.2175 33.0039 30.6652 33.0039 31.2175V39.2175C33.0039 39.7698 33.4516 40.2175 34.0039 40.2175H50.0039C50.5562 40.2175 51.0039 39.7698 51.0039 39.2175V31.2175C51.0039 30.6652 50.5562 30.2175 50.0039 30.2175Z" stroke="url(#paint4_linear_685_715)" stroke-width="1.4" stroke-linejoin="round"/>
<path d="M37.0039 33.7175H41.0039M37.0039 36.7175H47.0039M34.0039 49.2175L36.4484 46.2175H47.3374L50.0039 49.2175M42.0039 40.2175V49.2175" stroke="url(#paint5_linear_685_715)" stroke-width="1.4" stroke-linecap="round" stroke-linejoin="round"/>
</g>
<defs>
<filter id="filter0_d_685_715" x="-0.000622749" y="-2.88486e-05" width="84.0091" height="84.0077" filterUnits="userSpaceOnUse" color-interpolation-filters="sRGB">
<feFlood flood-opacity="0" result="BackgroundImageFix"/>
<feColorMatrix in="SourceAlpha" type="matrix" values="0 0 0 0 0 0 0 0 0 0 0 0 0 0 0 0 0 0 127 0" result="hardAlpha"/>
<feOffset dy="2.78697"/>
<feGaussianBlur stdDeviation="7.00226"/>
<feComposite in2="hardAlpha" operator="out"/>
<feColorMatrix type="matrix" values="0 0 0 0 0 0 0 0 0 0 0 0 0 0 0 0 0 0 0.06 0"/>
<feBlend mode="normal" in2="BackgroundImageFix" result="effect1_dropShadow_685_715"/>
<feBlend mode="normal" in="SourceGraphic" in2="effect1_dropShadow_685_715" result="shape"/>
</filter>
<linearGradient id="paint0_linear_685_715" x1="64.6839" y1="16.3134" x2="22.797" y2="60.8333" gradientUnits="userSpaceOnUse">
<stop stop-color="white" stop-opacity="0.867"/>
<stop offset="1" stop-color="white" stop-opacity="0"/>
</linearGradient>
<linearGradient id="paint1_linear_685_715" x1="25.5039" y1="58.7175" x2="53.5039" y2="12.2175" gradientUnits="userSpaceOnUse">
<stop stop-color="#9B89FF" stop-opacity="0.55"/>
<stop offset="1" stop-color="#D5CEFF"/>
</linearGradient>
<radialGradient id="paint2_radial_685_715" cx="0" cy="0" r="1" gradientTransform="matrix(-9.81875 16.7219 -16.7226 -9.81835 49.8292 30.6273)" gradientUnits="userSpaceOnUse">
<stop stop-color="white"/>
<stop offset="0.490385" stop-color="white"/>
<stop offset="1" stop-color="#C8C6F1"/>
</radialGradient>
<linearGradient id="paint3_linear_685_715" x1="45.15" y1="31.3943" x2="34.8717" y2="53.6394" gradientUnits="userSpaceOnUse">
<stop stop-color="white" stop-opacity="0.95"/>
<stop offset="0.5" stop-color="#F2F3FF" stop-opacity="0.975"/>
<stop offset="1" stop-color="#B8BDFF"/>
</linearGradient>
<linearGradient id="paint4_linear_685_715" x1="42.0039" y1="30.2175" x2="42.0039" y2="40.2175" gradientUnits="userSpaceOnUse">
<stop stop-color="#B9A2FF"/>
<stop offset="1" stop-color="#360DAE"/>
</linearGradient>
<linearGradient id="paint5_linear_685_715" x1="42.0039" y1="33.7175" x2="42.0039" y2="49.2175" gradientUnits="userSpaceOnUse">
<stop stop-color="#B9A2FF"/>
<stop offset="1" stop-color="#360DAE"/>
</linearGradient>
</defs>
</svg>
