<svg width="21" height="21" viewBox="0 0 21 21" fill="none" xmlns="http://www.w3.org/2000/svg">
<path d="M3.49803 4.71123C3.49803 4.95117 3.56919 5.18573 3.70249 5.38524C3.8358 5.58475 4.02527 5.74025 4.24696 5.83207C4.46864 5.92389 4.71257 5.94792 4.94791 5.90111C5.18324 5.8543 5.39941 5.73875 5.56908 5.56908C5.73875 5.39941 5.85429 5.18324 5.9011 4.94791C5.94791 4.71257 5.92389 4.46864 5.83207 4.24696C5.74024 4.02528 5.58475 3.8358 5.38524 3.7025C5.18573 3.56919 4.95117 3.49804 4.71122 3.49804C4.38947 3.49804 4.08089 3.62585 3.85337 3.85337C3.62585 4.08089 3.49803 4.38947 3.49803 4.71123ZM5.94463 0.0606611C5.10583 0.0805051 4.27594 0.237604 3.48792 0.525719C2.81313 0.781624 2.20241 1.18188 1.69847 1.69847C1.18026 2.19909 0.782686 2.81101 0.535825 3.48793C0.238756 4.27382 0.0780581 5.10466 0.0606589 5.94464C-6.3364e-07 7.01629 -5.62121e-07 7.36003 -4.41919e-07 10.1099C-3.21717e-07 12.8598 -3.63185e-07 13.2036 0.0606592 14.2752C0.0780585 15.1152 0.238757 15.946 0.535826 16.7319C0.785797 17.4073 1.18295 18.0186 1.69847 18.5214C2.19909 19.0396 2.811 19.4372 3.48792 19.684C4.27381 19.9811 5.10465 20.1418 5.94464 20.1592C7.01629 20.2198 7.36002 20.2198 10.1099 20.2198C12.8598 20.2198 13.2036 20.2198 14.2752 20.1592C15.1152 20.1418 15.946 19.9811 16.7319 19.684C17.4088 19.4372 18.0208 19.0396 18.5214 18.5214C19.0369 18.0186 19.4341 17.4073 19.684 16.7319C19.9811 15.946 20.1418 15.1152 20.1592 14.2752C20.2198 13.2036 20.2198 12.8598 20.2198 10.1099C20.2198 7.36003 20.2198 7.01629 20.1592 5.94464C20.1418 5.10466 19.9811 4.27381 19.684 3.48793C19.4372 2.81101 19.0396 2.19909 18.5214 1.69847C18.0185 1.1806 17.4075 0.780149 16.7319 0.525718C15.9439 0.237603 15.114 0.0805047 14.2752 0.0606607C13.2036 0.0606607 12.8598 3.25258e-06 10.1099 3.37278e-06C7.36002 3.49298e-06 7.01629 1.60066e-06 5.94463 0.0606611ZM14.1539 1.88045C14.7957 1.88761 15.4315 2.00385 16.0343 2.22419C16.4743 2.38561 16.8719 2.64488 17.197 2.98243C17.5309 3.31055 17.7896 3.70723 17.9552 4.14507C18.1756 4.74787 18.2918 5.38375 18.299 6.02551C18.3495 7.03651 18.3596 7.41058 18.3596 10.0695C18.3596 12.7284 18.3596 13.1025 18.299 14.1135C18.312 14.7798 18.2094 15.4435 17.9957 16.0748C17.8211 16.4931 17.5631 16.8715 17.2374 17.1869C16.9126 17.5224 16.5148 17.7785 16.0748 17.935C15.4635 18.1827 14.8131 18.3196 14.1539 18.3394C13.1429 18.3394 12.7688 18.4001 10.1099 18.4001C7.45101 18.4001 7.07695 18.4001 6.06595 18.3394C5.4098 18.3357 4.75947 18.2159 4.14507 17.9856C3.71834 17.8076 3.33795 17.5344 3.03298 17.1869C2.68438 16.8806 2.40813 16.5008 2.22418 16.0748C2.00124 15.4587 1.88499 14.8091 1.88045 14.1539C1.88045 13.1429 1.81979 12.7688 1.81979 10.1099C1.81979 7.45102 1.81979 7.07695 1.88045 6.06596C1.88761 5.42419 2.00385 4.78831 2.22418 4.18551C2.39469 3.72609 2.6719 3.31374 3.03298 2.98243C3.34438 2.65212 3.72383 2.39341 4.14507 2.22419C4.76064 1.99929 5.41059 1.88299 6.06595 1.88045C7.07695 1.8299 7.45101 1.81979 10.1099 1.81979C12.7688 1.81979 13.1429 1.8299 14.1539 1.88045ZM4.92353 10.1099C4.92553 11.1353 5.23141 12.137 5.80251 12.9886C6.37361 13.8401 7.18431 14.5033 8.13217 14.8943C9.08004 15.2853 10.1225 15.3866 11.1279 15.1853C12.1333 14.9841 13.0565 14.4893 13.7808 13.7636C14.5051 13.0378 14.9981 12.1137 15.1974 11.1079C15.3967 10.1021 15.2934 9.05984 14.9005 8.11274C14.5077 7.16564 13.843 6.35623 12.9903 5.78679C12.1376 5.21735 11.1353 4.91343 10.1099 4.91343C9.42761 4.91209 8.75176 5.04566 8.12126 5.30646C7.49075 5.56726 6.91803 5.95014 6.43603 6.43308C5.95403 6.91602 5.57226 7.48949 5.31269 8.1205C5.05312 8.75151 4.92087 9.42762 4.92353 10.1099ZM13.4765 10.1099C13.4765 10.7758 13.2791 11.4267 12.9092 11.9803C12.5392 12.5339 12.0134 12.9655 11.3983 13.2203C10.7831 13.4751 10.1062 13.5417 9.45313 13.4118C8.80007 13.2819 8.2002 12.9613 7.72937 12.4905C7.25855 12.0196 6.93791 11.4198 6.80801 10.7667C6.67811 10.1137 6.74478 9.43675 6.99959 8.82158C7.2544 8.20641 7.6859 7.68062 8.23954 7.3107C8.79317 6.94077 9.44407 6.74332 10.1099 6.74332C10.552 6.74332 10.9898 6.8304 11.3983 6.99959C11.8067 7.16878 12.1779 7.41676 12.4905 7.72938C12.8031 8.04199 13.0511 8.41313 13.2203 8.82158C13.3894 9.23004 13.4765 9.66782 13.4765 10.1099Z" fill="white"/>
</svg>
