<svg width="26" height="26" viewBox="0 0 26 26" fill="none" xmlns="http://www.w3.org/2000/svg">
<path fill-rule="evenodd" clip-rule="evenodd" d="M12.8667 4.44995C11.5896 4.44995 10.1002 4.47997 8.6484 4.52072L8.58943 4.52286C7.11184 4.56468 5.91949 4.59792 4.98018 4.7534C4.0012 4.91531 3.18843 5.2252 2.53864 5.89322C1.8867 6.56338 1.60255 7.39224 1.46852 8.38409C1.33984 9.33841 1.33984 10.5479 1.33984 12.0512V13.6854C1.33984 15.1865 1.33984 16.3961 1.46852 17.3514C1.60148 18.3433 1.8867 19.1721 2.53864 19.8423C3.18843 20.5114 4.0012 20.8202 4.98018 20.9821C5.91949 21.1376 7.11184 21.1708 8.58943 21.2127L8.6484 21.2148C10.1013 21.2556 11.5896 21.2856 12.8667 21.2856C14.1438 21.2856 15.6331 21.2556 17.085 21.2148L17.144 21.2127C18.6215 21.1708 19.8139 21.1376 20.7532 20.9821C21.7322 20.8202 22.545 20.5103 23.1947 19.8423C23.8467 19.1721 24.1319 18.3433 24.2649 17.3514C24.3935 16.3971 24.3935 15.1876 24.3935 13.6843V12.0502C24.3935 10.5479 24.3935 9.33841 24.2649 8.38409C24.1319 7.39224 23.8467 6.56338 23.1947 5.89322C22.545 5.22413 21.7322 4.91531 20.7532 4.7534C19.8139 4.59792 18.6215 4.56468 17.1429 4.52286L17.085 4.52072C15.6793 4.47805 14.273 4.45446 12.8667 4.44995ZM11.6572 15.7098C11.5349 15.7797 11.3964 15.8162 11.2556 15.8157C11.1147 15.8152 10.9765 15.7778 10.8547 15.7071C10.7329 15.6364 10.6318 15.535 10.5615 15.413C10.4912 15.2909 10.4541 15.1526 10.4541 15.0118V10.7227C10.4541 10.5819 10.4912 10.4435 10.5615 10.3215C10.6318 10.1995 10.7329 10.098 10.8547 10.0274C10.9765 9.95669 11.1147 9.91924 11.2556 9.91876C11.3964 9.91829 11.5349 9.9548 11.6572 10.0247L15.4101 12.1692C15.5331 12.2396 15.6353 12.3412 15.7064 12.4637C15.7775 12.5863 15.815 12.7255 15.815 12.8672C15.815 13.0089 15.7775 13.1481 15.7064 13.2707C15.6353 13.3933 15.5331 13.4949 15.4101 13.5653L11.6572 15.7098Z" fill="white"/>
</svg>
