<svg width="83" height="48" viewBox="0 0 83 48" fill="none" xmlns="http://www.w3.org/2000/svg">
<path d="M64.1767 12.2018C54.2953 12.2018 46.2852 20.1801 46.2852 30.0222C46.2852 39.8642 54.2953 47.8425 64.1767 47.8425C67.0177 47.8425 69.7039 47.1817 72.09 46.0071V47.8425H82.0683V30.0222C82.0683 20.1801 74.0581 12.2018 64.1767 12.2018Z" fill="url(#paint0_linear_528_15071)"/>
<path d="M47.5314 0V14.0373C45.1453 12.8636 42.4591 12.2018 39.6181 12.2018C29.7367 12.2018 21.7266 20.1801 21.7266 30.0222C21.7266 39.8642 29.7367 47.8425 39.6181 47.8425C49.4995 47.8425 57.5097 39.8642 57.5097 30.0222V0H47.5314Z" fill="url(#paint1_linear_528_15071)"/>
<path d="M17.8916 12.2019C15.0506 12.2019 12.3644 12.8626 9.97825 14.0373V0H0V30.0232C0 39.8653 8.01019 47.8436 17.8916 47.8436C27.7729 47.8436 35.7831 39.8653 35.7831 30.0232C35.7831 20.1812 27.7729 12.2029 17.8916 12.2029V12.2019Z" fill="url(#paint2_linear_528_15071)"/>
<path d="M21.7246 30.0233C21.7246 35.7959 24.4814 40.9267 28.7534 44.1832C33.0265 40.9267 35.7822 35.7959 35.7822 30.0233C35.7822 24.2506 33.0254 19.1198 28.7534 15.8633C24.4803 19.1198 21.7246 24.2506 21.7246 30.0233Z" fill="url(#paint3_linear_528_15071)"/>
<path d="M46.2852 30.0232C46.2852 35.1298 48.4417 39.7341 51.8977 42.9833C55.3526 39.7341 57.5102 35.1298 57.5102 30.0232V13.4824C50.931 16.116 46.2852 22.5284 46.2852 30.0232Z" fill="url(#paint4_linear_528_15071)"/>
<defs>
<linearGradient id="paint0_linear_528_15071" x1="58.2725" y1="47.1524" x2="73.6577" y2="19.4682" gradientUnits="userSpaceOnUse">
<stop offset="0.35" stop-color="#FFD66F"/>
<stop offset="0.85" stop-color="#FE9251"/>
</linearGradient>
<linearGradient id="paint1_linear_528_15071" x1="31.5005" y1="46.048" x2="53.873" y2="1.5245" gradientUnits="userSpaceOnUse">
<stop offset="0.18" stop-color="#F9AED8"/>
<stop offset="0.94" stop-color="#F540B0"/>
</linearGradient>
<linearGradient id="paint2_linear_528_15071" x1="4.60794" y1="48.3606" x2="21.2384" y2="8.54662" gradientUnits="userSpaceOnUse">
<stop offset="0.17" stop-color="#99EDFF"/>
<stop offset="1" stop-color="#5478FC"/>
</linearGradient>
<linearGradient id="paint3_linear_528_15071" x1="28.7534" y1="42.9761" x2="28.7534" y2="15.8192" gradientUnits="userSpaceOnUse">
<stop offset="0.17" stop-color="#8791D2"/>
<stop offset="1" stop-color="#554ABF"/>
</linearGradient>
<linearGradient id="paint4_linear_528_15071" x1="51.8977" y1="43.3326" x2="51.8977" y2="14.3215" gradientUnits="userSpaceOnUse">
<stop offset="0.35" stop-color="#EB8D65"/>
<stop offset="1" stop-color="#E24A47"/>
</linearGradient>
</defs>
</svg>
