<svg width="84" height="84" viewBox="0 0 84 84" fill="none" xmlns="http://www.w3.org/2000/svg">
<g filter="url(#filter0_d_685_747)">
<path opacity="0.32" d="M42.0039 67.2161C57.4679 67.2161 70.0039 54.6804 70.0039 39.2168C70.0039 23.7532 57.4679 11.2175 42.0039 11.2175C26.5399 11.2175 14.0039 23.7532 14.0039 39.2168C14.0039 54.6804 26.5399 67.2161 42.0039 67.2161Z" fill="url(#paint0_linear_685_747)"/>
<path d="M42.0032 66.8678C57.2748 66.8678 69.6548 54.488 69.6548 39.2169C69.6548 23.9457 57.2748 11.5659 42.0032 11.5659C26.7316 11.5659 14.3516 23.9457 14.3516 39.2169C14.3516 54.488 26.7316 66.8678 42.0032 66.8678Z" stroke="url(#paint1_linear_685_747)" stroke-width="0.4"/>
<path d="M42.0049 22.4036C51.2915 22.4036 58.8201 29.9319 58.8203 39.218C58.8203 48.5043 51.2916 56.0325 42.0049 56.0325C32.7182 56.0325 25.1895 48.5043 25.1895 39.218C25.1896 29.9319 32.7183 22.4036 42.0049 22.4036Z" fill="url(#paint2_radial_685_747)" stroke="url(#paint3_linear_685_747)" stroke-width="0.485274"/>
<path d="M48.377 30.0297C49.1777 30.0297 49.9457 30.3478 50.5119 30.914C51.0781 31.4802 51.3962 32.2481 51.3962 33.0489V43.7323C51.3962 44.533 51.0781 45.301 50.5119 45.8672C49.9457 46.4334 49.1777 46.7515 48.377 46.7515H43.7413C43.8955 46.3966 43.968 46.0204 43.968 45.6488C43.968 45.5503 43.9618 45.4534 43.9494 45.358H48.377C48.8082 45.358 49.2217 45.1867 49.5266 44.8818C49.8314 44.577 50.0027 44.1634 50.0027 43.7323V33.0489C50.0027 32.6177 49.8314 32.2042 49.5266 31.8993C49.2217 31.5944 48.8082 31.4231 48.377 31.4231H37.6936C37.2624 31.4231 36.8489 31.5944 36.544 31.8993C36.2392 32.2042 36.0679 32.6177 36.0679 33.0489V37.9354C35.5718 37.9712 35.0927 38.1309 34.6744 38.3999V33.0489C34.6744 32.2481 34.9925 31.4802 35.5587 30.914C36.1249 30.3478 36.8929 30.0297 37.6936 30.0297H48.377ZM42.8031 32.8166C42.9714 32.8166 43.1341 32.8776 43.261 32.9883C43.3879 33.0989 43.4704 33.2518 43.4933 33.4186L43.4998 33.5134V38.3906H46.9816C47.1582 38.3906 47.3281 38.4577 47.4571 38.5782C47.5861 38.6987 47.6645 38.8637 47.6766 39.0398C47.6886 39.2159 47.6333 39.3901 47.5219 39.527C47.4105 39.6639 47.2513 39.7535 47.0764 39.7776L46.9816 39.7841H42.8031C42.6347 39.7841 42.472 39.7231 42.3451 39.6124C42.2182 39.5017 42.1357 39.3489 42.1128 39.1821L42.1063 39.0873V33.5134C42.1063 33.3286 42.1797 33.1514 42.3104 33.0207C42.441 32.89 42.6183 32.8166 42.8031 32.8166ZM36.3001 43.0355C36.8545 43.0355 37.3861 42.8153 37.7781 42.4233C38.1701 42.0313 38.3903 41.4997 38.3903 40.9453C38.3903 40.3909 38.1701 39.8593 37.7781 39.4673C37.3861 39.0753 36.8545 38.8551 36.3001 38.8551C35.7458 38.8551 35.2141 39.0753 34.8221 39.4673C34.4301 39.8593 34.2099 40.3909 34.2099 40.9453C34.2099 41.4997 34.4301 42.0313 34.8221 42.4233C35.2141 42.8153 35.7458 43.0355 36.3001 43.0355ZM36.3001 48.6095C38.7889 48.6095 39.7838 47.1519 39.7838 45.7064C39.7838 44.7449 39.115 43.9645 38.2909 43.9645H34.3093C33.4853 43.9645 32.8164 44.7449 32.8164 45.7064C32.8164 47.1575 33.8114 48.6095 36.3001 48.6095ZM42.5708 41.8743C42.5708 42.3055 42.3995 42.719 42.0946 43.0239C41.7898 43.3287 41.3762 43.5 40.9451 43.5C40.5139 43.5 40.1004 43.3287 39.7955 43.0239C39.4906 42.719 39.3193 42.3055 39.3193 41.8743C39.3193 41.4431 39.4906 41.0296 39.7955 40.7247C40.1004 40.4198 40.5139 40.2486 40.9451 40.2486C41.3762 40.2486 41.7898 40.4198 42.0946 40.7247C42.3995 41.0296 42.5708 41.4431 42.5708 41.8743ZM40.1703 47.6805C40.5456 47.0673 40.711 46.3752 40.711 45.7064C40.7101 45.2635 40.6085 44.8267 40.4137 44.429H41.8443C42.5039 44.429 43.039 44.9753 43.039 45.6488C43.039 46.6614 42.2429 47.6805 40.252 47.6805H40.1703Z" fill="url(#paint4_linear_685_747)"/>
</g>
<defs>
<filter id="filter0_d_685_747" x="-0.000622749" y="-2.88486e-05" width="84.0091" height="84.0077" filterUnits="userSpaceOnUse" color-interpolation-filters="sRGB">
<feFlood flood-opacity="0" result="BackgroundImageFix"/>
<feColorMatrix in="SourceAlpha" type="matrix" values="0 0 0 0 0 0 0 0 0 0 0 0 0 0 0 0 0 0 127 0" result="hardAlpha"/>
<feOffset dy="2.78697"/>
<feGaussianBlur stdDeviation="7.00226"/>
<feComposite in2="hardAlpha" operator="out"/>
<feColorMatrix type="matrix" values="0 0 0 0 0 0 0 0 0 0 0 0 0 0 0 0 0 0 0.06 0"/>
<feBlend mode="normal" in2="BackgroundImageFix" result="effect1_dropShadow_685_747"/>
<feBlend mode="normal" in="SourceGraphic" in2="effect1_dropShadow_685_747" result="shape"/>
</filter>
<linearGradient id="paint0_linear_685_747" x1="64.6839" y1="16.3134" x2="22.797" y2="60.8333" gradientUnits="userSpaceOnUse">
<stop stop-color="white" stop-opacity="0.867"/>
<stop offset="1" stop-color="white" stop-opacity="0"/>
</linearGradient>
<linearGradient id="paint1_linear_685_747" x1="25.5039" y1="58.7175" x2="53.5039" y2="12.2175" gradientUnits="userSpaceOnUse">
<stop stop-color="#9B89FF" stop-opacity="0.55"/>
<stop offset="1" stop-color="#D5CEFF"/>
</linearGradient>
<radialGradient id="paint2_radial_685_747" cx="0" cy="0" r="1" gradientTransform="matrix(-9.81875 16.7219 -16.7226 -9.81835 49.8292 30.6273)" gradientUnits="userSpaceOnUse">
<stop stop-color="white"/>
<stop offset="0.490385" stop-color="white"/>
<stop offset="1" stop-color="#C8C6F1"/>
</radialGradient>
<linearGradient id="paint3_linear_685_747" x1="45.15" y1="31.3943" x2="34.8717" y2="53.6394" gradientUnits="userSpaceOnUse">
<stop stop-color="white" stop-opacity="0.95"/>
<stop offset="0.5" stop-color="#F2F3FF" stop-opacity="0.975"/>
<stop offset="1" stop-color="#B8BDFF"/>
</linearGradient>
<linearGradient id="paint4_linear_685_747" x1="42.1063" y1="30.0297" x2="42.1063" y2="48.6095" gradientUnits="userSpaceOnUse">
<stop stop-color="#B9A2FF"/>
<stop offset="1" stop-color="#360DAE"/>
</linearGradient>
</defs>
</svg>
