<svg width="258" height="142" viewBox="0 0 258 142" fill="none" xmlns="http://www.w3.org/2000/svg">
<g filter="url(#filter0_d_528_15305)">
<path d="M70.8555 93.7882C57.6006 93.7882 46.8555 83.043 46.8555 69.7882C46.8555 56.5334 57.6006 45.7882 70.8555 45.7882L186.855 45.7882C200.11 45.7882 210.855 56.5334 210.855 69.7882C210.855 83.043 200.11 93.7882 186.855 93.7882L70.8555 93.7882Z" fill="#FF4C8E" shape-rendering="crispEdges"/>
<path d="M47.3154 69.7882C47.3154 56.7872 57.8544 46.2482 70.8555 46.2482L186.855 46.2482C199.857 46.2482 210.396 56.7872 210.396 69.7882C210.396 82.7892 199.857 93.3282 186.855 93.3282L70.8555 93.3282C57.8544 93.3282 47.3154 82.7892 47.3154 69.7882Z" stroke="white" stroke-width="0.919084" shape-rendering="crispEdges"/>
<path d="M122.244 64.3894C122.244 64.6294 122.315 64.864 122.449 65.0635C122.582 65.263 122.771 65.4185 122.993 65.5103C123.215 65.6021 123.459 65.6261 123.694 65.5793C123.929 65.5325 124.146 65.417 124.315 65.2473C124.485 65.0776 124.6 64.8615 124.647 64.6261C124.694 64.3908 124.67 64.1469 124.578 63.9252C124.486 63.7035 124.331 63.514 124.131 63.3807C123.932 63.2474 123.697 63.1763 123.457 63.1763C123.136 63.1763 122.827 63.3041 122.599 63.5316C122.372 63.7591 122.244 64.0677 122.244 64.3894ZM124.691 59.7389C123.852 59.7587 123.022 59.9158 122.234 60.2039C121.559 60.4598 120.949 60.8601 120.445 61.3767C119.926 61.8773 119.529 62.4892 119.282 63.1661C118.985 63.952 118.824 64.7829 118.807 65.6229C118.746 66.6945 118.746 67.0382 118.746 69.7881C118.746 72.538 118.746 72.8818 118.807 73.9534C118.824 74.7934 118.985 75.6243 119.282 76.4101C119.532 77.0855 119.929 77.6968 120.445 78.1996C120.945 78.7178 121.557 79.1154 122.234 79.3622C123.02 79.6593 123.851 79.82 124.691 79.8374C125.762 79.8981 126.106 79.8981 128.856 79.8981C131.606 79.8981 131.95 79.8981 133.021 79.8374C133.861 79.82 134.692 79.6593 135.478 79.3622C136.155 79.1154 136.767 78.7178 137.267 78.1996C137.783 77.6968 138.18 77.0855 138.43 76.4101C138.727 75.6243 138.888 74.7934 138.905 73.9534C138.966 72.8818 138.966 72.538 138.966 69.7881C138.966 67.0382 138.966 66.6945 138.905 65.6229C138.888 64.7829 138.727 63.952 138.43 63.1661C138.183 62.4892 137.786 61.8773 137.267 61.3767C136.765 60.8588 136.154 60.4584 135.478 60.2039C134.69 59.9158 133.86 59.7587 133.021 59.7389C131.95 59.7389 131.606 59.6782 128.856 59.6782C126.106 59.6782 125.762 59.6782 124.691 59.7389ZM132.9 61.5587C133.542 61.5658 134.178 61.6821 134.78 61.9024C135.22 62.0638 135.618 62.3231 135.943 62.6607C136.277 62.9888 136.536 63.3855 136.701 63.8233C136.922 64.4261 137.038 65.062 137.045 65.7037C137.096 66.7147 137.106 67.0888 137.106 69.7477C137.106 72.4066 137.106 72.7807 137.045 73.7917C137.058 74.4581 136.956 75.1217 136.742 75.753C136.567 76.1714 136.309 76.5498 135.984 76.8651C135.659 77.2007 135.261 77.4567 134.821 77.6132C134.21 77.8609 133.559 77.9978 132.9 78.0176C131.889 78.0176 131.515 78.0783 128.856 78.0783C126.197 78.0783 125.823 78.0783 124.812 78.0176C124.156 78.0139 123.506 77.8941 122.891 77.6638C122.464 77.4858 122.084 77.2126 121.779 76.8651C121.43 76.5588 121.154 76.179 120.97 75.753C120.747 75.1369 120.631 74.4873 120.627 73.8321C120.627 72.8211 120.566 72.4471 120.566 69.7881C120.566 67.1292 120.566 66.7552 120.627 65.7442C120.634 65.1024 120.75 64.4665 120.97 63.8637C121.141 63.4043 121.418 62.992 121.779 62.6607C122.09 62.3303 122.47 62.0716 122.891 61.9024C123.507 61.6775 124.157 61.5612 124.812 61.5587C125.823 61.5081 126.197 61.498 128.856 61.498C131.515 61.498 131.889 61.5081 132.9 61.5587ZM123.67 69.7881C123.672 70.8135 123.977 71.8152 124.549 72.6668C125.12 73.5184 125.93 74.1815 126.878 74.5725C127.826 74.9635 128.869 75.0648 129.874 74.8635C130.879 74.6623 131.803 74.1675 132.527 73.4418C133.251 72.7161 133.744 71.7919 133.943 70.7861C134.143 69.7804 134.039 68.7381 133.647 67.791C133.254 66.8439 132.589 66.0345 131.736 65.465C130.884 64.8956 129.881 64.5917 128.856 64.5916C128.174 64.5903 127.498 64.7239 126.867 64.9847C126.237 65.2455 125.664 65.6284 125.182 66.1113C124.7 66.5942 124.318 67.1677 124.059 67.7987C123.799 68.4297 123.667 69.1058 123.67 69.7881ZM132.223 69.7881C132.223 70.454 132.025 71.1049 131.655 71.6585C131.285 72.2122 130.76 72.6437 130.144 72.8985C129.529 73.1533 128.852 73.22 128.199 73.0901C127.546 72.9602 126.946 72.6395 126.475 72.1687C126.005 71.6979 125.684 71.098 125.554 70.4449C125.424 69.7919 125.491 69.115 125.746 68.4998C126 67.8846 126.432 67.3588 126.986 66.9889C127.539 66.619 128.19 66.4215 128.856 66.4215C129.298 66.4215 129.736 66.5086 130.144 66.6778C130.553 66.847 130.924 67.095 131.237 67.4076C131.549 67.7202 131.797 68.0913 131.966 68.4998C132.136 68.9083 132.223 69.346 132.223 69.7881Z" fill="white"/>
</g>
<defs>
<filter id="filter0_d_528_15305" x="-3.05176e-05" y="3.21865e-05" width="257.711" height="141.711" filterUnits="userSpaceOnUse" color-interpolation-filters="sRGB">
<feFlood flood-opacity="0" result="BackgroundImageFix"/>
<feColorMatrix in="SourceAlpha" type="matrix" values="0 0 0 0 0 0 0 0 0 0 0 0 0 0 0 0 0 0 127 0" result="hardAlpha"/>
<feOffset dy="1.06732"/>
<feGaussianBlur stdDeviation="23.4277"/>
<feComposite in2="hardAlpha" operator="out"/>
<feColorMatrix type="matrix" values="0 0 0 0 0.442077 0 0 0 0 0.336197 0 0 0 0 0.722146 0 0 0 0.18 0"/>
<feBlend mode="normal" in2="BackgroundImageFix" result="effect1_dropShadow_528_15305"/>
<feBlend mode="normal" in="SourceGraphic" in2="effect1_dropShadow_528_15305" result="shape"/>
</filter>
</defs>
</svg>
