<svg width="229" height="32" viewBox="0 0 229 32" fill="none" xmlns="http://www.w3.org/2000/svg">
<g clip-path="url(#clip0_528_15407)">
<path d="M139.324 8.77819C141.779 8.77819 143.77 6.81313 143.77 4.3891C143.77 1.96507 141.779 0 139.324 0C136.868 0 134.877 1.96507 134.877 4.3891C134.877 6.81313 136.868 8.77819 139.324 8.77819Z" fill="#B5C2C9"/>
<path d="M228.33 24.7567C227.781 25.7011 227.096 26.5059 225.938 26.7045C224.133 27.0157 222.405 26.9567 221.089 25.4489C220.828 25.1484 220.665 25.1645 220.361 25.3953C218.11 27.0801 215.61 27.2518 213.028 26.3772C211.549 25.8782 210.625 24.8211 210.625 23.1792C210.625 21.5374 211.582 20.4589 213.022 19.7882C214.495 19.1014 216.126 18.9565 217.67 18.5165C217.751 18.495 217.838 18.4843 217.92 18.4628C220.339 17.8029 220.991 16.719 220.078 13.886C219.752 12.8718 218.855 12.4533 217.811 12.3836C216.719 12.3085 215.876 12.6733 215.392 13.6982C215.24 14.0255 215.077 14.3528 214.887 14.6586C214.446 15.3615 213.457 15.6352 212.528 15.34C211.609 15.0503 211.201 14.4815 211.25 13.5962C211.283 13.0543 211.609 12.6948 212.017 12.405C212.865 11.8094 213.859 11.6163 214.854 11.4339C217.121 11.0153 219.355 11.1817 221.529 11.9221C223.66 12.6519 224.285 13.5747 224.302 15.8229C224.318 18.3716 224.302 20.9257 224.323 23.4744C224.334 24.5046 224.747 25.0197 225.59 25.0948C226.003 25.1323 226.454 25.0948 226.715 24.746C227.194 24.1021 227.71 24.0538 228.33 24.5046V24.7621V24.7567ZM220.453 20.6037C220.453 20.0135 220.442 19.5896 220.453 19.1657C220.464 18.8062 220.372 18.7043 220.013 18.8921C218.964 19.4287 217.893 19.9223 216.849 20.4642C215.898 20.9579 215.202 21.6822 214.941 22.7446C214.631 24.0056 215.349 25.1538 216.626 25.4382C217.963 25.7333 219.518 24.8319 220.045 23.4422C220.415 22.471 220.475 21.4622 220.442 20.6037H220.453Z" fill="#B6C2C9"/>
<path d="M69.7649 15.8443C70.265 14.0468 70.7651 12.2547 71.2598 10.4572C72.135 7.28607 73.0156 4.11498 73.8745 0.938517C74.0049 0.455609 74.1898 0.25708 74.7442 0.262446C77.7176 0.29464 80.6911 0.278543 83.6645 0.278543C83.7732 0.278543 83.8819 0.278543 83.9852 0.278543C84.1918 0.300005 84.4908 0.278543 84.4799 0.557556C84.469 0.852667 84.1646 0.777548 83.9635 0.782913C83.4471 0.79901 82.9252 0.841935 82.4143 0.793644C81.8163 0.739988 81.6804 0.981442 81.713 1.52337C81.7565 2.30676 81.7239 3.09551 81.7239 3.88426V25.1912C81.7239 26.2483 81.6478 26.0819 82.6697 26.1034C83.0992 26.1034 83.5286 26.1141 83.9635 26.1248C84.1266 26.1248 84.2896 26.1839 84.3059 26.3556C84.3222 26.5702 84.132 26.6239 83.9526 26.64C83.8221 26.6507 83.6971 26.6507 83.5667 26.6507H72.5155C72.2165 26.6507 71.711 26.7634 71.7164 26.3717C71.7273 25.9961 72.2383 26.1356 72.5373 26.1195C73.0537 26.0873 73.5701 26.0927 74.0865 26.1195C74.4507 26.1356 74.6029 25.9907 74.5648 25.6312C74.5648 25.5668 74.5648 25.5024 74.5648 25.438V3.36379C74.5648 3.19745 74.5485 3.02575 74.4344 2.83259C74.2061 3.6589 73.9778 4.47984 73.7603 5.30615C71.9502 12.0937 70.14 18.8866 68.3299 25.6741C68.1559 26.3234 67.7374 26.6453 67.0796 26.6507C66.5632 26.6507 66.0468 26.6292 65.5304 26.6507C65.0303 26.6775 64.7911 26.4736 64.6878 25.9907C64.1442 23.4367 63.5735 20.888 63.019 18.3339C61.9264 13.3171 60.8392 8.30018 59.7357 3.24038C59.5183 3.43354 59.5998 3.6428 59.5998 3.82523C59.5998 10.5645 59.5944 17.3091 59.5998 24.0483C59.5998 25.5239 60.0456 25.9692 61.5568 26.0444C61.8992 26.0605 62.2471 26.0605 62.5896 26.0927C62.769 26.1088 63.0353 26.0927 63.0353 26.3556C63.0353 26.6507 62.7527 26.6185 62.5461 26.6346C62.4374 26.6453 62.3287 26.6346 62.2254 26.6346H56.2785C56.1046 26.6239 55.8817 26.6131 55.8545 26.4307C55.8219 26.2161 56.0665 26.2053 56.2242 26.1624C56.5775 26.0658 56.9363 26.0068 57.2842 25.8995C58.1539 25.6205 58.4692 25.202 58.4909 24.3166C58.5018 23.9571 58.4909 23.5923 58.4909 23.2328C58.4909 16.0052 58.4855 8.77236 58.5018 1.54483C58.5018 0.965345 58.3605 0.734622 57.7516 0.788279C57.2842 0.831204 56.8058 0.788279 56.3329 0.772182C56.1807 0.772182 56.0122 0.745354 56.0122 0.541459C56.0122 0.337565 56.1861 0.316102 56.3329 0.289274C56.4796 0.262446 56.6319 0.267811 56.7841 0.267811C59.7357 0.267811 62.6874 0.278543 65.6391 0.25708C66.1066 0.25708 66.3023 0.369759 66.4056 0.858032C67.471 5.85881 68.569 10.8489 69.6617 15.8443C69.7051 15.8443 69.7432 15.8389 69.7867 15.8335H69.7649V15.8443Z" fill="#009642"/>
<path d="M33.1421 26.6509C29.8914 26.6509 26.6353 26.6509 23.3847 26.6509C23.064 26.6509 22.5312 26.7743 22.5312 26.3558C22.5312 26.0178 23.0694 26.1466 23.3684 26.1251C23.8196 26.0929 24.2762 26.0875 24.7219 26.1251C25.1948 26.1627 25.2981 25.9588 25.2981 25.5295C25.2872 17.4918 25.2872 9.45405 25.2981 1.41631C25.2981 0.928041 25.1405 0.783168 24.6676 0.809996C24.1294 0.836825 23.5912 0.809996 23.0531 0.7939C22.8846 0.7939 22.6671 0.772437 22.6726 0.54708C22.6726 0.332454 22.9009 0.316357 23.064 0.294895C23.2325 0.273432 23.4064 0.284163 23.5804 0.284163C30.0219 0.284163 36.4634 0.294895 42.9049 0.268066C43.5246 0.268066 43.6551 0.450498 43.6497 1.01926C43.6225 3.78256 43.6388 6.54587 43.6388 9.31454C43.6388 9.46478 43.6279 9.61502 43.6388 9.75989C43.6551 10.0711 43.5192 10.2374 43.1985 10.2589C42.8615 10.2857 42.7364 10.1033 42.7093 9.80282C42.6386 9.01943 42.5136 8.24141 42.2907 7.48486C41.7091 5.53713 40.6762 3.83622 39.2901 2.34457C38.4203 1.41095 37.3712 0.863653 36.0557 0.858287C35.1534 0.858287 34.2456 0.836825 33.3432 0.804631C32.9138 0.788534 32.7888 0.970966 32.7888 1.37339C32.7996 5.05422 32.7996 8.72969 32.7888 12.4105C32.7888 12.8559 32.9084 12.9954 33.3921 12.9417C36.1971 12.6144 37.73 11.0047 37.817 8.23068C37.8278 7.8068 37.8278 7.38291 37.8333 6.95366C37.8333 6.64245 37.98 6.49221 38.3062 6.48685C38.6378 6.48148 38.7791 6.63172 38.7737 6.94293V19.1927C38.7737 19.4341 38.8661 19.7239 38.5997 19.8956C38.241 20.121 37.8496 19.8688 37.8387 19.3966C37.817 18.6347 37.8604 17.8674 37.6811 17.1108C37.2679 15.3563 35.7622 13.8592 34.0934 13.5641C33.0388 13.3763 32.8051 13.5641 32.8051 14.5997C32.8051 18.1947 32.8159 21.7897 32.7942 25.3793C32.7942 25.9266 32.9301 26.0875 33.5117 26.109C37.0233 26.2217 39.4695 24.5637 41.1111 21.6394C42.0406 19.9814 42.7419 18.2108 42.6223 16.247C42.5951 15.8392 42.7364 15.587 43.1822 15.5709C43.6714 15.5548 43.6605 15.8875 43.6605 16.2201C43.6605 19.4932 43.6497 22.7716 43.6714 26.0446C43.6714 26.5222 43.5355 26.6563 43.0517 26.6563C39.7576 26.6348 36.458 26.6456 33.1638 26.6456L33.1421 26.6563V26.6509Z" fill="#009642"/>
<path d="M123.351 13.4677C123.351 17.4436 123.368 21.4196 123.335 25.3955C123.335 26.0233 123.547 26.1467 124.107 26.1145C124.77 26.0823 125.439 26.1145 126.107 26.136C126.276 26.136 126.504 26.1682 126.515 26.3613C126.515 26.5545 126.292 26.5974 126.124 26.6242C125.955 26.6511 125.781 26.6457 125.607 26.6457H113.197C112.876 26.6457 112.349 26.7691 112.355 26.3399C112.355 25.9965 112.893 26.1252 113.197 26.1145C113.844 26.0877 114.491 26.0716 115.132 26.1145C115.714 26.1574 115.85 25.9428 115.85 25.3901C115.828 19.4128 115.839 13.4409 115.839 7.46352C115.839 5.44604 115.823 3.42319 115.85 1.40571C115.85 0.917437 115.687 0.794027 115.219 0.794027C114.007 0.794027 113.067 1.26084 112.355 2.23202C111.055 4.00805 110.218 6.00407 109.555 8.07521C109.218 9.12687 108.838 10.1678 108.8 11.2892C108.789 11.6058 108.62 11.7453 108.31 11.7453C108 11.7453 107.816 11.6165 107.788 11.3053C107.778 11.1551 107.772 11.0102 107.772 10.86C107.772 7.58693 107.788 4.30852 107.756 1.03548C107.756 0.413066 107.946 0.257462 108.56 0.262828C115.904 0.284291 123.254 0.284291 130.597 0.262828C131.201 0.262828 131.402 0.375507 131.397 1.01938C131.358 4.33535 131.38 7.65132 131.386 10.9727C131.386 11.3536 131.402 11.7346 130.864 11.7292C130.375 11.7238 130.353 11.3643 130.364 11.0048C130.396 9.85123 129.956 8.79957 129.586 7.73717C128.874 5.69823 127.945 3.78269 126.629 2.03886C125.885 1.05694 124.933 0.751102 123.765 0.799393C123.341 0.815489 123.346 1.05158 123.346 1.34669V13.4677H123.351Z" fill="#009642"/>
<path d="M164.899 18.8171V2.80602C164.899 1.44315 164.464 0.992437 163.078 0.885124C162.648 0.85293 162.219 0.836833 161.79 0.799273C161.637 0.788542 161.48 0.750983 161.491 0.547088C161.502 0.359291 161.654 0.311 161.806 0.289537C161.953 0.268075 162.105 0.278806 162.257 0.278806H168.008C168.16 0.278806 168.313 0.268075 168.459 0.294903C168.579 0.316365 168.731 0.343194 168.737 0.504163C168.742 0.675864 168.584 0.702692 168.47 0.724154C167.965 0.831467 167.465 0.93878 166.975 1.10512C166.426 1.28755 166.111 1.65778 166.03 2.20507C165.97 2.58067 165.937 2.96699 165.937 3.34795C165.937 10.7472 165.937 18.1464 165.943 25.551C165.943 25.7871 165.921 26.0178 165.937 26.2539C165.954 26.5597 165.812 26.6617 165.519 26.6617C163.882 26.6617 162.246 26.6509 160.605 26.6617C160.181 26.6617 160.143 26.3612 160.039 26.0876C158.414 21.7306 156.789 17.3737 155.163 13.0115C154.027 9.96916 152.897 6.92147 151.755 3.87915C151.679 3.67526 151.668 3.42844 151.402 3.24601V23.7481C151.402 25.6476 151.766 26.0124 153.685 26.0768C153.962 26.0876 154.245 26.1037 154.522 26.1305C154.679 26.1412 154.848 26.2002 154.848 26.3719C154.848 26.5758 154.674 26.6456 154.484 26.6563C154.375 26.6563 154.266 26.6563 154.163 26.6563H148.347C148.216 26.6563 148.086 26.6563 147.961 26.6402C147.841 26.6188 147.683 26.608 147.667 26.4471C147.651 26.2754 147.809 26.2485 147.923 26.2163C148.292 26.1144 148.673 26.0285 149.048 25.932C149.847 25.7173 150.162 25.3739 150.255 24.5637C150.298 24.2042 150.314 23.8447 150.314 23.4799C150.314 16.1665 150.304 8.84774 150.314 1.53437C150.314 0.987071 150.195 0.756348 149.602 0.81537C149.157 0.858295 148.7 0.81537 148.249 0.799273C148.097 0.799273 147.912 0.772445 147.896 0.595379C147.879 0.380753 148.075 0.332462 148.249 0.305634C148.374 0.289537 148.504 0.294903 148.635 0.294903C151.499 0.294903 154.364 0.305634 157.229 0.284171C157.702 0.284171 157.903 0.445141 158.061 0.869027C160.186 6.62636 162.333 12.3783 164.475 18.1303C164.567 18.3771 164.671 18.6239 164.768 18.8708C164.812 18.86 164.855 18.8493 164.899 18.8386V18.8171Z" fill="#009643"/>
<path d="M184.021 13.1344C185.412 12.1579 186.842 11.514 188.457 11.3101C190.723 11.0203 192.805 11.3208 194.382 13.1612C194.686 13.5154 194.893 13.4563 195.213 13.2149C197.149 11.734 199.339 11.0579 201.785 11.2403C203.324 11.353 204.732 11.7876 205.846 12.9305C206.52 13.628 206.879 14.4329 206.884 15.3933C206.884 17.3303 206.879 19.262 206.895 21.199C206.9 22.0467 206.949 22.8945 207.004 23.7423C207.042 24.3379 207.335 24.7778 207.906 25.0354C208.303 25.2125 208.711 25.3681 209.14 25.3842C209.684 25.4056 209.754 25.6793 209.754 26.13C209.754 26.6666 209.39 26.5539 209.091 26.5539H200.693C200.405 26.5539 200.127 26.5807 200.144 26.1461C200.16 25.7973 200.111 25.4915 200.611 25.4003C202.699 25.0354 203.052 24.6974 203.095 22.5887C203.144 20.2117 203.226 17.8293 203.003 15.4524C202.856 13.9071 201.742 12.8232 200.165 12.7642C199.627 12.7427 199.078 12.7212 198.556 12.8125C196.773 13.1344 195.73 14.2773 195.529 16.2143C195.273 18.6664 195.3 21.1346 195.496 23.592C195.578 24.59 195.947 24.971 196.915 25.2286C197.165 25.2983 197.415 25.3734 197.67 25.3842C198.225 25.4056 198.252 25.7437 198.241 26.1675C198.23 26.6719 197.866 26.5431 197.6 26.5431C194.822 26.5431 192.044 26.5431 189.266 26.5431C188.94 26.5431 188.625 26.5968 188.631 26.0871C188.631 25.6471 188.75 25.4432 189.223 25.3842C191.049 25.1642 191.381 24.7832 191.517 22.9589C191.702 20.4961 191.658 18.0332 191.49 15.5758C191.332 13.2846 189.517 12.5764 187.717 12.8178C184.874 13.1934 183.983 14.8782 183.907 17.4323C183.82 20.5765 183.869 23.7262 183.901 26.8704C183.918 28.3836 184.396 28.8826 186.086 29.1723C186.619 29.2635 186.744 29.4567 186.739 29.945C186.723 31.5064 186.739 31.5064 185.162 31.5064C182.705 31.5064 180.254 31.4903 177.797 31.5171C177.242 31.5171 177.079 31.3508 177.128 30.8303C177.177 30.3474 177.009 29.7733 177.215 29.3923C177.427 29.0006 178.074 29.2045 178.525 29.0811C179.471 28.8128 179.9 28.2333 180.004 27.0958C180.118 25.8456 180.107 24.5954 180.107 23.3399C180.107 21.1292 180.118 18.9186 180.107 16.7079C180.107 16.0318 180.058 15.3504 179.987 14.6743C179.873 13.5797 179.194 13.0056 177.851 12.8983C177.454 12.8661 177.286 12.7856 177.286 12.3564C177.286 11.9271 177.471 11.7715 177.889 11.7286C179.493 11.5784 181.091 11.4174 182.689 11.2242C183.287 11.1545 183.684 11.235 183.749 11.9271C183.787 12.3027 183.923 12.6676 184.032 13.1183L184.021 13.1344Z" fill="#B5C2C9"/>
<path d="M10.4152 26.6513H0.788203C0.48923 26.6513 0 26.7532 0 26.3508C0 26.0289 0.494665 26.163 0.777331 26.1147C0.842562 26.104 0.907793 26.1147 0.973023 26.1147C2.08194 26.1147 2.6364 25.5728 2.6364 24.4996C2.63097 16.8482 2.61466 9.19683 2.63097 1.54005C2.63097 0.944466 2.46789 0.751303 1.86994 0.799594C1.35897 0.842519 0.837126 0.788862 0.320717 0.778131C0.18482 0.778131 0.0217435 0.708378 0.00543588 0.595699C-0.0217435 0.423999 0.157641 0.34888 0.30441 0.322051C0.494666 0.289857 0.690357 0.284492 0.880613 0.284492H12.122C12.421 0.284492 12.9157 0.161082 12.9211 0.55814C12.9211 0.917638 12.4373 0.7674 12.1655 0.788862C11.7796 0.821056 11.3936 0.804959 11.0022 0.804959C10.4315 0.804959 10.1434 1.07861 10.1434 1.6259V25.283C10.1434 25.8411 10.4278 26.1111 10.9968 26.0932C11.7469 26.0664 12.508 26.0771 13.2527 25.9859C14.7367 25.7981 15.8782 25.0201 16.8295 23.9041C18.5962 21.8276 19.4931 19.3755 20.091 16.7838C20.1291 16.6175 20.1726 16.4512 20.1889 16.2848C20.2269 15.9361 20.4226 15.7966 20.7542 15.8395C21.0967 15.8824 21.1293 16.1185 21.1184 16.4029C21.0532 18.6565 20.988 20.9047 20.9282 23.1582C20.901 24.0919 20.8521 25.0308 20.8629 25.9645C20.8629 26.4742 20.727 26.662 20.1726 26.6566C16.9219 26.6298 13.6712 26.6459 10.4152 26.6459V26.6513Z" fill="#009542"/>
<path d="M101.914 26.6507H97.0051C96.8311 26.6507 96.6572 26.6507 96.4886 26.6346C96.3147 26.6131 96.1136 26.5595 96.1353 26.3502C96.1516 26.1785 96.331 26.1463 96.4886 26.141C96.9181 26.1302 97.3475 26.1034 97.7769 26.1141C98.1466 26.1249 98.2227 25.9639 98.1575 25.6473C97.8802 24.2952 97.603 22.943 97.3312 21.5909C97.2769 21.3119 97.1192 21.2207 96.8365 21.2207C94.9612 21.2314 93.0912 21.2314 91.2158 21.2207C90.8679 21.2207 90.7212 21.3494 90.6505 21.6767C90.482 22.4011 90.27 23.1147 90.0906 23.8337C89.8079 24.9659 90.2265 25.6312 91.3844 25.8941C91.8029 25.9907 92.2323 26.0229 92.6563 26.098C92.7977 26.1249 92.9825 26.1678 92.9771 26.3556C92.9771 26.5326 92.7922 26.5809 92.6509 26.6131C92.4824 26.6453 92.3085 26.6507 92.1399 26.6507H86.7149C86.541 26.6507 86.367 26.6507 86.1985 26.6239C86.0518 26.597 85.8941 26.5326 85.8887 26.3502C85.8887 26.157 86.0517 26.1195 86.1931 26.0819C86.2964 26.0551 86.4051 26.0497 86.5138 26.039C88.1174 25.8458 88.8186 25.261 89.2426 23.6889C90.2917 19.8149 91.3191 15.9409 92.3574 12.0615C93.3141 8.47189 94.2762 4.88764 95.2221 1.29266C95.3417 0.841941 95.5156 0.616584 96.0429 0.648778C96.9453 0.697069 97.8531 0.691703 98.7554 0.648778C99.2609 0.627315 99.4675 0.79365 99.5871 1.27119C100.528 5.10763 101.49 8.93333 102.452 12.7644C103.512 16.9872 104.594 21.1992 105.626 25.4273C105.762 25.9907 106.007 26.1624 106.54 26.1141C106.795 26.0873 107.056 26.1141 107.311 26.1302C107.496 26.1463 107.763 26.141 107.752 26.3878C107.741 26.6078 107.475 26.6185 107.284 26.64C107.094 26.6614 106.898 26.6507 106.703 26.6507H101.914ZM94.5154 7.65631C94.423 7.76899 94.3795 7.79582 94.3687 7.82801C93.2543 11.9917 92.1454 16.1555 91.0201 20.3139C90.9114 20.7056 91.118 20.6895 91.3735 20.6895H96.6735C96.9887 20.6895 97.1355 20.6519 97.054 20.2602C96.2005 16.0804 95.3689 11.8952 94.5154 7.65631Z" fill="#009642"/>
<path d="M135.229 18.0927C135.229 15.7318 135.245 13.3763 135.218 11.0154C135.218 10.4198 135.349 10.4037 135.849 10.6666C138.105 11.8471 140.371 11.8417 142.627 10.6398C143.22 10.3232 143.236 10.334 143.236 11.0261C143.236 15.7211 143.247 20.4214 143.225 25.1163C143.225 25.6905 143.372 25.9212 143.981 25.8675C144.405 25.83 144.84 25.8675 145.264 25.9265C145.497 25.9534 145.737 26.0821 145.737 26.3719C145.737 26.6616 145.503 26.7743 145.264 26.8119C144.948 26.8602 144.622 26.8816 144.301 26.8709C140.79 26.7797 137.284 26.887 133.778 26.8816C133.457 26.8816 133.131 26.8494 132.821 26.7904C132.614 26.7475 132.386 26.6294 132.397 26.3773C132.413 26.066 132.663 25.9373 132.93 25.9212C133.446 25.889 133.968 25.8568 134.479 25.8997C135.055 25.948 135.262 25.7978 135.251 25.1807C135.213 22.8198 135.234 20.4643 135.234 18.1034V18.0927H135.229Z" fill="#009542"/>
<path d="M174.96 24.9498C174.96 26.0122 174.047 26.8975 172.976 26.876C171.932 26.8546 171.057 25.9639 171.063 24.9337C171.068 23.8766 171.911 23.0825 173.019 23.0825C174.128 23.0825 174.955 23.882 174.955 24.9498H174.96Z" fill="#B5C2C9"/>
<path d="M220.454 20.6037C220.481 21.4622 220.427 22.471 220.057 23.4422C219.53 24.8319 217.975 25.7333 216.638 25.4382C215.36 25.1538 214.643 24.0055 214.953 22.7446C215.214 21.6822 215.909 20.9579 216.861 20.4642C217.904 19.9223 218.975 19.4287 220.024 18.8921C220.383 18.7097 220.476 18.8116 220.465 19.1657C220.448 19.5896 220.465 20.0135 220.465 20.6037H220.454Z" fill="#FEFEFE"/>
<path d="M94.5093 7.65674C95.3573 11.8956 96.1944 16.0808 97.0479 20.2606C97.1294 20.6523 96.9826 20.6899 96.6674 20.6899C94.9007 20.6899 93.134 20.6899 91.3674 20.6899C91.1119 20.6899 90.9053 20.7114 91.014 20.3143C92.1393 16.1559 93.2482 11.9922 94.3625 7.82844C94.3734 7.79088 94.4115 7.76405 94.5093 7.65674Z" fill="#FCFDFD"/>
</g>
<defs>
<clipPath id="clip0_528_15407">
<rect width="228.329" height="31.5178" fill="white"/>
</clipPath>
</defs>
</svg>
