<svg width="194" height="55" viewBox="0 0 194 55" fill="none" xmlns="http://www.w3.org/2000/svg">
<g clip-path="url(#clip0_528_15346)">
<path d="M187.501 8.74731C190.263 8.74731 192.301 10.8877 192.301 13.6255C192.301 16.3634 190.268 18.4792 187.501 18.4792C184.758 18.4792 182.725 16.3634 182.725 13.6255C182.725 10.8877 184.758 8.74731 187.501 8.74731ZM191.323 13.6255C191.323 11.3285 189.689 9.59463 187.496 9.59463C185.307 9.59463 183.692 11.3334 183.692 13.6255C183.692 15.9177 185.307 17.6319 187.496 17.6319C189.689 17.6319 191.323 15.9177 191.323 13.6255ZM186.834 15.9667H185.594V10.9513H187.826C188.692 10.9513 189.572 11.3774 189.572 12.4696C189.572 13.2729 189.023 13.6941 188.556 13.8508L189.641 15.9667H188.269L187.364 14.0516H186.834V15.9667ZM187.457 13.1553C187.943 13.1553 188.298 12.9349 188.298 12.4207C188.298 11.9995 187.968 11.7742 187.481 11.7742H186.839V13.1553H187.457Z" fill="#F0047F"/>
<path d="M75.5271 13.175H99.7378V18.783L85.2494 35.9792H100.005L96.0756 42.3463H74.9824V36.6845L89.466 19.4344H75.5271V13.175Z" fill="#F0047F"/>
<path d="M98.3848 27.7609C98.3848 18.1808 104.007 12.47 113.087 12.47C121.949 12.47 127.731 18.1318 127.731 27.7609C127.731 37.2871 121.735 43.1106 113.029 43.1106C103.895 43.1106 98.3848 37.2871 98.3848 27.7609ZM107.246 27.7609C107.246 33.4227 108.866 37.2871 113.082 37.2871C117.406 37.2871 118.812 33.1485 118.812 27.7609C118.812 22.1578 117.299 18.2934 113.082 18.2934C108.812 18.2886 107.246 22.3733 107.246 27.7609Z" fill="#F0047F"/>
<path d="M146.809 25.3117C146.809 23.2448 146.702 21.5551 145.944 20.4677C145.131 19.3266 143.833 18.7829 142.213 18.7829C138.376 18.7829 136.377 21.2318 136.377 25.4782V42.3511H127.783V13.1749H136.051V17.965H136.158C137.724 15.0263 140.589 12.5774 145.559 12.5774C152.529 12.5774 155.394 16.2214 155.394 23.4064V42.3462L146.8 38.3888V25.3117H146.809Z" fill="#F0047F"/>
<path d="M169.72 43.1106C160.372 43.1106 155.396 37.0716 155.396 27.7119C155.396 18.7832 160.693 12.47 169.827 12.47C179.607 12.47 183.717 18.9449 183.717 27.4915V29.7788H164.044C164.423 35.0047 166.369 37.292 169.987 37.292C173.392 37.292 174.471 35.6023 175.011 33.8635H183.44C182.579 39.5156 177.555 43.1106 169.72 43.1106ZM174.962 24.4402C174.69 20.3064 173.071 17.8575 169.827 17.8575C166.315 17.8575 164.477 20.3603 164.044 24.8222H174.962V24.4402Z" fill="#F0047F"/>
<path d="M9.42387 28.0889V38.389L0.5625 42.3464V0.710205H14.9391C23.9075 0.710205 30.7164 4.52069 30.7164 14.1547C30.7164 24.2784 23.4211 28.0889 14.1804 28.0889H9.42387ZM14.7786 21.5014C19.3698 21.5014 22.0204 19.1063 22.0204 14.2624C22.0204 9.14421 19.3747 7.13122 14.8905 7.13122H9.42387V21.5014H14.7786Z" fill="#2B51E0"/>
<path d="M29.042 21.8295C29.3678 16.006 33.959 12.5237 41.5267 12.5237C50.8744 12.5237 54.1184 16.388 54.1184 24.1706V34.2356C54.1184 35.8127 54.6047 36.4102 56.4432 36.4102L52.5134 42.3953H53.5785C49.4202 42.3953 47.4213 41.5774 46.5021 38.3694H46.3951C44.5567 41.0925 41.7455 42.6696 37.6407 42.6696C31.5856 42.6696 27.8066 39.4567 27.8066 34.0152C27.8066 30.6406 29.3192 28.2456 32.1838 26.7224C35.2624 25.0914 39.6445 24.8172 45.8017 24.5478V22.9707C45.8017 19.7577 44.4497 18.0729 41.5315 18.0729C38.7204 18.0729 37.3684 19.65 37.2614 21.8295H29.042ZM45.8504 30.0431V29.1174C41.3127 29.3917 39.0414 29.7737 37.6893 30.6945C36.7166 31.3459 36.2838 32.4381 36.2838 33.6332C36.2838 35.7588 37.7428 37.2233 40.1211 37.2233C43.0927 37.2282 45.8504 34.8919 45.8504 30.0431Z" fill="#2B51E0"/>
<path d="M69.4291 42.508L69.6431 43.2132C70.4553 45.8238 71.9679 46.7494 75.2119 46.7494C76.4521 46.7494 81.5685 46.5878 82.0597 46.4801L78.13 52.7933C77.9695 52.8472 76.6709 53.1754 73.8598 53.1754C66.3505 53.1754 63.5394 50.0751 61.2146 43.272L51.0547 13.175H59.4297L63.9139 28.5198C64.8331 31.6789 65.1541 34.2356 65.1541 34.2356H65.3146C65.3146 34.2356 65.6404 31.6789 66.6131 28.5198L71.3697 13.175H80.2311L69.4291 42.508Z" fill="#2B51E0"/>
</g>
<defs>
<clipPath id="clip0_528_15346">
<rect width="193.204" height="54.1304" fill="white"/>
</clipPath>
</defs>
</svg>
