<svg width="196" height="49" viewBox="0 0 196 49" fill="none" xmlns="http://www.w3.org/2000/svg">
<g clip-path="url(#clip0_528_14787)">
<path d="M36.9164 23.2518C36.372 15.5445 29.8424 9.63166 22.117 9.63166H11.6547C11.0494 9.63166 10.4886 9.91949 10.135 10.3915C9.94745 10.6415 9.7583 10.8915 9.56587 11.1383C9.53462 11.1843 9.50008 11.2287 9.46225 11.2682C9.45896 11.2731 9.45567 11.2764 9.45074 11.2813C9.17606 11.5873 8.77639 11.7797 8.33395 11.7797C7.78789 11.7797 7.30763 11.4853 7.04447 11.0461C7.04118 11.0396 7.03789 11.0363 7.03624 11.0297C7.01486 10.9919 6.99348 10.954 6.97539 10.9146C6.97539 10.9113 6.97539 10.9096 6.9721 10.908L5.67603 8.48033L2.68094 3.06253C2.88818 2.91121 3.06253 2.71548 3.18424 2.48686C3.30595 2.25824 3.37832 1.99837 3.38325 1.7237C3.39805 0.825665 2.68423 0.0509873 1.78784 0.0032895C1.62337 -0.006579 1.45889 0.00986851 1.30429 0.0444083L1.28455 0V0.0493425C0.916126 0.141449 0.593755 0.355266 0.365135 0.643098C0.136514 0.930929 0 1.29606 0 1.69245C0 2.08883 0.136514 2.45397 0.366779 2.7418C0.5954 3.02963 0.916126 3.2418 1.28455 3.33391V25.4114C1.28455 32.8753 7.39151 38.9789 14.8537 38.9789H22.2798C26.3144 38.9789 29.9838 37.3276 32.6434 34.6697C35.5332 31.7766 37.2306 27.6992 36.9164 23.2518ZM32.9805 24.3045C32.9805 29.6072 28.6433 33.9444 23.3407 33.9444H14.7172C9.41455 33.9444 5.07734 29.6072 5.07734 24.3045C5.07734 19.0018 9.41455 14.6646 14.7172 14.6646H23.3407C28.6433 14.6646 32.9805 19.0018 32.9805 24.3045Z" fill="url(#paint0_linear_528_14787)"/>
<path d="M23.1938 26.6876C24.51 26.6876 25.577 25.6206 25.577 24.3044C25.577 22.9882 24.51 21.9211 23.1938 21.9211C21.8776 21.9211 20.8105 22.9882 20.8105 24.3044C20.8105 25.6206 21.8776 26.6876 23.1938 26.6876Z" fill="white"/>
<path d="M14.8618 26.6876C16.178 26.6876 17.245 25.6206 17.245 24.3044C17.245 22.9882 16.178 21.9211 14.8618 21.9211C13.5455 21.9211 12.4785 22.9882 12.4785 24.3044C12.4785 25.6206 13.5455 26.6876 14.8618 26.6876Z" fill="white"/>
<path d="M58.2765 25.7814C58.2765 29.3867 55.4706 32.3094 52.01 32.3094C50.8159 32.3094 49.6991 31.9624 48.7501 31.3587C48.5116 31.9179 47.9557 32.3094 47.3077 32.3094C46.4425 32.3094 45.7402 31.6071 45.7402 30.742V16.1185C45.7402 15.2533 46.4425 14.551 47.3077 14.551C48.1728 14.551 48.8751 15.2533 48.8751 16.1185V20.1251C49.7978 19.5692 50.8669 19.2517 52.0084 19.2517C55.4689 19.2517 58.2749 22.1761 58.2749 25.7814H58.2765ZM55.1416 25.7814C55.1416 23.9064 53.737 22.3866 52.0084 22.3866C50.2797 22.3866 48.8751 23.9064 48.8751 25.7814C48.8751 27.6564 50.2781 29.1761 52.0084 29.1761C53.7387 29.1761 55.1416 27.6564 55.1416 25.7814Z" fill="white"/>
<path d="M59.8398 25.7814C59.8398 22.1761 62.6458 19.2534 66.1063 19.2534C69.5669 19.2534 72.3728 22.1761 72.3728 25.7814C72.3728 29.3867 69.5669 32.3095 66.1063 32.3095C62.6458 32.3095 59.8398 29.3867 59.8398 25.7814ZM69.2412 25.7814C69.2412 23.9064 67.8383 22.3867 66.108 22.3867C64.3777 22.3867 62.9747 23.9064 62.9747 25.7814C62.9747 27.6564 64.3794 29.1762 66.108 29.1762C67.8366 29.1762 69.2412 27.6564 69.2412 25.7814Z" fill="white"/>
<path d="M83.4169 31.553C82.685 32.048 81.8248 32.3096 80.9613 32.3096C78.5057 32.3096 76.5221 30.2734 76.5221 27.7914V22.3868H75.2491C74.3839 22.3868 73.6816 21.6845 73.6816 20.8193C73.6816 19.9542 74.3839 19.2519 75.2491 19.2519H76.5221V16.6417C76.5221 15.7815 77.2277 15.0742 78.0896 15.0742C78.9514 15.0742 79.657 15.7798 79.657 16.6417V19.2519H82.1192C82.9843 19.2519 83.6867 19.9542 83.6867 20.8193C83.6867 21.6845 82.9843 22.3868 82.1192 22.3868H79.6554V27.7931C79.6554 28.5497 80.2294 29.1763 80.9613 29.1763C81.1965 29.1763 81.4564 29.0974 81.6669 28.9674C82.3725 28.4724 83.338 28.6549 83.8347 29.3852C84.3051 30.0924 84.1225 31.0826 83.4169 31.5546V31.553Z" fill="white"/>
<path d="M85.8008 16.2484C85.8008 15.3109 86.5607 14.551 87.4982 14.551C88.4357 14.551 89.1955 15.3109 89.1955 16.2484C89.1955 17.1859 88.4357 17.9458 87.4982 17.9458C86.5607 17.9458 85.8008 17.1859 85.8008 16.2484ZM85.9307 30.742V20.8192C85.9307 19.954 86.633 19.2517 87.4982 19.2517C88.3633 19.2517 89.0656 19.954 89.0656 20.8192V30.742C89.0656 31.6071 88.3633 32.3094 87.4982 32.3094C86.633 32.3094 85.9307 31.6071 85.9307 30.742Z" fill="white"/>
<path d="M123.367 38.4756C123.367 38.2634 123.54 38.0907 123.742 38.0907H125.708C127.828 38.0907 129.292 39.5463 129.292 41.4443V41.4641C129.292 43.3621 127.828 44.8358 125.708 44.8358H123.742C123.54 44.8358 123.367 44.6631 123.367 44.451V38.4772V38.4756ZM125.708 44.1302C127.413 44.1302 128.502 42.974 128.502 41.4805V41.4608C128.502 39.9674 127.413 38.793 125.708 38.793H124.127V44.1302H125.708Z" fill="white"/>
<path d="M130.68 38.2913C130.68 38.0512 130.872 37.8966 131.114 37.8966C131.356 37.8966 131.556 38.0512 131.556 38.2913V38.4163C131.556 38.6483 131.364 38.8111 131.114 38.8111C130.864 38.8111 130.68 38.6466 130.68 38.4163V38.2913ZM130.747 40.1812C130.747 39.9789 130.912 39.8045 131.114 39.8045C131.316 39.8045 131.491 39.969 131.491 40.1812V44.5069C131.491 44.719 131.336 44.8835 131.124 44.8835C130.912 44.8835 130.749 44.719 130.749 44.5069V40.1812H130.747Z" fill="white"/>
<path d="M133.245 45.8078C133.13 45.7502 133.052 45.6351 133.052 45.4986C133.052 45.3341 133.217 45.1713 133.39 45.1713C133.457 45.1713 133.505 45.191 133.554 45.219C134.074 45.566 134.671 45.7584 135.317 45.7584C136.416 45.7584 137.128 45.1515 137.128 43.9854V43.3982C136.694 43.9755 136.087 44.4476 135.173 44.4476C133.978 44.4476 132.832 43.5512 132.832 42.1153V42.0956C132.832 40.64 133.988 39.7452 135.173 39.7452C136.107 39.7452 136.714 40.2074 137.118 40.7469V40.1778C137.118 39.9755 137.273 39.8012 137.485 39.8012C137.697 39.8012 137.862 39.9739 137.862 40.1778V43.964C137.862 44.7354 137.63 45.3226 137.225 45.7272C136.781 46.1713 136.117 46.3917 135.327 46.3917C134.538 46.3917 133.872 46.1894 133.247 45.8045L133.245 45.8078ZM137.146 42.1071V42.0874C137.146 41.066 136.26 40.4015 135.316 40.4015C134.372 40.4015 133.59 41.0561 133.59 42.0775V42.0972C133.59 43.0989 134.39 43.793 135.316 43.793C136.242 43.793 137.146 43.1088 137.146 42.1071Z" fill="white"/>
<path d="M139.42 38.2913C139.42 38.0512 139.612 37.8966 139.854 37.8966C140.096 37.8966 140.297 38.0512 140.297 38.2913V38.4163C140.297 38.6483 140.104 38.8111 139.854 38.8111C139.604 38.8111 139.42 38.6466 139.42 38.4163V38.2913ZM139.487 40.1812C139.487 39.9789 139.652 39.8045 139.854 39.8045C140.056 39.8045 140.229 39.969 140.229 40.1812V44.5069C140.229 44.719 140.075 44.8835 139.862 44.8835C139.65 44.8835 139.486 44.719 139.486 44.5069V40.1812H139.487Z" fill="white"/>
<path d="M142.117 43.5135V40.5069H141.712C141.539 40.5069 141.385 40.3523 141.385 40.1796C141.385 39.9971 141.539 39.8523 141.712 39.8523H142.117V38.6763C142.117 38.474 142.271 38.2997 142.483 38.2997C142.696 38.2997 142.858 38.4724 142.858 38.6763V39.8523H144.15C144.332 39.8523 144.487 40.0069 144.487 40.1796C144.487 40.3622 144.332 40.5069 144.15 40.5069H142.858V43.4165C142.858 44.0234 143.196 44.2455 143.697 44.2455C143.957 44.2455 144.092 44.178 144.15 44.178C144.322 44.178 144.467 44.3228 144.467 44.4955C144.467 44.6303 144.38 44.7356 144.255 44.7849C144.043 44.8721 143.812 44.9198 143.523 44.9198C142.724 44.9198 142.117 44.5251 142.117 43.5135Z" fill="white"/>
<path d="M145.279 43.3883V43.3686C145.279 42.3192 146.146 41.76 147.409 41.76C148.045 41.76 148.498 41.8472 148.94 41.9722V41.7995C148.94 40.9031 148.391 40.4409 147.457 40.4409C146.955 40.4409 146.532 40.5561 146.166 40.7205C146.118 40.7403 146.068 40.7501 146.031 40.7501C145.858 40.7501 145.703 40.6054 145.703 40.4327C145.703 40.2781 145.809 40.163 145.906 40.1251C146.397 39.913 146.897 39.788 147.534 39.788C148.238 39.788 148.777 39.9705 149.143 40.3373C149.48 40.6745 149.652 41.1564 149.652 41.7929V44.5199C149.652 44.7321 149.498 44.8867 149.295 44.8867C149.093 44.8867 148.939 44.7321 148.939 44.5396V44.0873C148.592 44.5396 148.014 44.9443 147.136 44.9443C146.212 44.9443 145.277 44.4146 145.277 43.3933L145.279 43.3883ZM148.95 43.0034V42.5215C148.583 42.4163 148.093 42.3094 147.486 42.3094C146.552 42.3094 146.031 42.714 146.031 43.3406V43.3604C146.031 43.987 146.608 44.3521 147.284 44.3521C148.2 44.3521 148.95 43.7929 148.95 43.0034Z" fill="white"/>
<path d="M151.205 38.1286C151.205 37.9263 151.37 37.752 151.572 37.752C151.774 37.752 151.949 37.9247 151.949 38.1286V44.5069C151.949 44.7191 151.794 44.8836 151.582 44.8836C151.37 44.8836 151.207 44.7191 151.207 44.5069V38.1286H151.205Z" fill="white"/>
<path d="M156.494 44.4493V38.4756C156.494 38.2634 156.667 38.0907 156.869 38.0907H161.06C161.252 38.0907 161.407 38.2453 161.407 38.4377C161.407 38.6302 161.252 38.7848 161.06 38.7848H157.254V41.0874H160.626C160.818 41.0874 160.973 41.2519 160.973 41.4345C160.973 41.6269 160.818 41.7815 160.626 41.7815H157.254V44.1417H161.108C161.3 44.1417 161.455 44.2963 161.455 44.4888C161.455 44.6812 161.3 44.8358 161.108 44.8358H156.869C156.667 44.8358 156.494 44.6631 156.494 44.451V44.4493Z" fill="white"/>
<path d="M162.728 40.1813C162.728 39.979 162.893 39.8046 163.095 39.8046C163.297 39.8046 163.47 39.9691 163.47 40.1813V40.7208C163.797 40.1813 164.319 39.7471 165.176 39.7471C166.38 39.7471 167.084 40.5563 167.084 41.7405V44.5053C167.084 44.7175 166.919 44.882 166.717 44.882C166.514 44.882 166.342 44.7175 166.342 44.5053V41.9231C166.342 40.9987 165.84 40.4198 164.963 40.4198C164.087 40.4198 163.47 41.0464 163.47 41.9806V44.5053C163.47 44.7175 163.315 44.882 163.103 44.882C162.891 44.882 162.727 44.7175 162.727 44.5053V40.1796L162.728 40.1813Z" fill="white"/>
<path d="M168.191 43.3883V43.3686C168.191 42.3192 169.058 41.76 170.321 41.76C170.958 41.76 171.41 41.8472 171.853 41.9722V41.7995C171.853 40.9031 171.303 40.4409 170.369 40.4409C169.867 40.4409 169.445 40.5561 169.078 40.7205C169.03 40.7403 168.981 40.7501 168.943 40.7501C168.77 40.7501 168.616 40.6054 168.616 40.4327C168.616 40.2781 168.721 40.163 168.818 40.1251C169.31 39.913 169.81 39.788 170.446 39.788C171.15 39.788 171.69 39.9705 172.055 40.3373C172.392 40.6745 172.565 41.1564 172.565 41.7929V44.5199C172.565 44.7321 172.41 44.8867 172.208 44.8867C172.006 44.8867 171.851 44.7321 171.851 44.5396V44.0873C171.504 44.5396 170.927 44.9443 170.05 44.9443C169.126 44.9443 168.191 44.4146 168.191 43.3933V43.3883ZM171.863 43.0034V42.5215C171.496 42.4163 171.006 42.3094 170.399 42.3094C169.464 42.3094 168.943 42.714 168.943 43.3406V43.3604C168.943 43.987 169.52 44.3521 170.196 44.3521C171.112 44.3521 171.863 43.7929 171.863 43.0034Z" fill="white"/>
<path d="M174.051 38.1286C174.051 37.9164 174.215 37.752 174.418 37.752C174.62 37.752 174.793 37.9164 174.793 38.1286V40.8556C175.197 40.2586 175.784 39.747 176.7 39.747C177.895 39.747 179.08 40.6911 179.08 42.3293V42.349C179.08 43.9773 177.904 44.9412 176.7 44.9412C175.776 44.9412 175.179 44.4395 174.793 43.8819V44.5086C174.793 44.7109 174.638 44.8852 174.426 44.8852C174.214 44.8852 174.051 44.7125 174.051 44.5086V38.1302V38.1286ZM178.319 42.3573V42.3375C178.319 41.1615 177.51 40.4099 176.566 40.4099C175.622 40.4099 174.763 41.1911 174.763 42.3277V42.3474C174.763 43.5036 175.64 44.2734 176.566 44.2734C177.492 44.2734 178.319 43.5612 178.319 42.3556V42.3573Z" fill="white"/>
<path d="M180.418 38.1286C180.418 37.9263 180.582 37.752 180.785 37.752C180.987 37.752 181.16 37.9247 181.16 38.1286V44.5069C181.16 44.7191 181.005 44.8836 180.793 44.8836C180.581 44.8836 180.418 44.7191 180.418 44.5069V38.1286Z" fill="white"/>
<path d="M184.966 44.9492C183.597 44.9492 182.48 43.8999 182.48 42.3571V42.3374C182.48 40.9015 183.492 39.7452 184.87 39.7452C186.344 39.7452 187.183 40.9492 187.183 42.2699C187.183 42.4722 187.018 42.617 186.836 42.617H183.232C183.337 43.6959 184.099 44.3028 184.985 44.3028C185.602 44.3028 186.055 44.0627 186.421 43.7255C186.479 43.6778 186.546 43.6384 186.633 43.6384C186.816 43.6384 186.961 43.7831 186.961 43.9558C186.961 44.043 186.923 44.1285 186.846 44.1959C186.374 44.6482 185.814 44.9476 184.967 44.9476L184.966 44.9492ZM186.439 42.0693C186.362 41.163 185.842 40.3735 184.849 40.3735C183.982 40.3735 183.328 41.0956 183.23 42.0693H186.439Z" fill="white"/>
<path d="M188.398 40.1812C188.398 39.9789 188.563 39.8046 188.765 39.8046C188.968 39.8046 189.14 39.9691 189.14 40.1812V41.1155C189.507 40.2865 190.229 39.7865 190.856 39.7865C191.078 39.7865 191.222 39.951 191.222 40.1631C191.222 40.3753 191.088 40.5102 190.895 40.5382C189.931 40.6533 189.142 41.377 189.142 42.8112V44.5069C189.142 44.7092 188.987 44.8836 188.775 44.8836C188.563 44.8836 188.4 44.7191 188.4 44.5069V40.1812H188.398Z" fill="white"/>
<path d="M191.934 44.3045C191.866 44.2568 191.799 44.1597 191.799 44.0347C191.799 43.862 191.944 43.7173 192.126 43.7173C192.194 43.7173 192.261 43.737 192.309 43.7749C192.82 44.1219 193.35 44.3045 193.889 44.3045C194.486 44.3045 194.921 43.9953 194.921 43.515V43.4953C194.921 42.9936 194.333 42.8012 193.677 42.6186C192.898 42.3966 192.029 42.1268 192.029 41.2123V41.1926C192.029 40.3357 192.741 39.7666 193.725 39.7666C194.254 39.7666 194.833 39.9311 195.315 40.1909C195.411 40.2485 195.498 40.3538 195.498 40.4985C195.498 40.6712 195.353 40.816 195.171 40.816C195.103 40.816 195.046 40.7962 195.006 40.7781C194.582 40.538 194.129 40.3933 193.705 40.3933C193.118 40.3933 192.741 40.7025 192.741 41.1153V41.135C192.741 41.6071 193.358 41.7896 194.023 41.9919C194.794 42.2239 195.621 42.5216 195.621 43.418V43.4377C195.621 44.3818 194.84 44.9311 193.848 44.9311C193.194 44.9311 192.47 44.691 191.93 44.3045H191.934Z" fill="white"/>
<path d="M93.9379 32.5809C93.6632 32.5809 93.433 32.4871 93.2438 32.298C93.0547 32.1088 92.9609 31.8786 92.9609 31.6039V16.9245C92.9609 16.6498 93.0547 16.4196 93.2438 16.2304C93.433 16.0413 93.6632 15.9475 93.9379 15.9475H103.887C104.418 15.9475 104.685 16.1876 104.685 16.6679V16.8225C104.685 17.3028 104.418 17.5429 103.887 17.5429H94.7093V23.2765H102.061C102.593 23.2765 102.859 23.5167 102.859 23.9969V24.0989C102.859 24.5792 102.593 24.8193 102.061 24.8193H94.7093V30.9888H104.042C104.573 30.9888 104.839 31.2207 104.839 31.6828V31.8374C104.839 32.3342 104.573 32.5825 104.042 32.5825H93.9379V32.5809Z" fill="white"/>
<path d="M115.764 15.2535C115.764 15.219 115.82 15.1811 115.932 15.1384C116.044 15.0956 116.175 15.0742 116.33 15.0742C116.621 15.0742 116.877 15.1762 117.101 15.3834C117.323 15.589 117.435 16.0265 117.435 16.6943V31.8885C117.435 32.1977 117.366 32.4066 117.229 32.5184C117.091 32.6303 116.912 32.6862 116.69 32.6862H116.511C116.287 32.6862 116.113 32.6303 115.984 32.5184C115.856 32.4066 115.792 32.1977 115.792 31.8885V30.5513C115.243 31.3063 114.601 31.8836 113.864 32.2865C113.127 32.6895 112.244 32.8902 111.216 32.8902C110.41 32.8902 109.657 32.7405 108.955 32.4395C108.252 32.1402 107.639 31.7109 107.116 31.1533C106.593 30.5974 106.182 29.923 105.882 29.1352C105.583 28.3474 105.432 27.4641 105.432 26.4871C105.432 25.5102 105.576 24.6483 105.869 23.8523C106.16 23.0545 106.571 22.3736 107.103 21.8078C107.634 21.242 108.259 20.8045 108.979 20.497C109.7 20.1877 110.479 20.0348 111.318 20.0348C112.415 20.0348 113.345 20.2535 114.108 20.691C114.871 21.1285 115.423 21.6302 115.766 22.1943V15.2535H115.764ZM115.79 24.3802C115.396 23.4888 114.843 22.7865 114.132 22.2716C113.42 21.7568 112.525 21.5003 111.446 21.5003C110.795 21.5003 110.203 21.6203 109.672 21.8605C109.141 22.1006 108.687 22.4394 108.31 22.8753C107.933 23.3128 107.642 23.8358 107.437 24.4427C107.231 25.0513 107.127 25.724 107.127 26.4608C107.127 27.1977 107.234 27.8457 107.448 28.4526C107.662 29.0612 107.958 29.5842 108.335 30.0201C108.711 30.4576 109.162 30.7997 109.685 31.048C110.208 31.2964 110.777 31.4214 111.394 31.4214C111.96 31.4214 112.507 31.3194 113.039 31.1122C113.57 30.9066 114.042 30.6204 114.453 30.2503C114.864 29.8819 115.19 29.4444 115.43 28.9395C115.67 28.4345 115.79 27.8901 115.79 27.3079V24.3769V24.3802Z" fill="white"/>
<path d="M129.183 30.6778C128.754 31.3291 128.193 31.8604 127.499 32.2716C126.805 32.6828 125.978 32.8884 125.019 32.8884C124.213 32.8884 123.506 32.7601 122.899 32.5035C122.29 32.2469 121.784 31.8818 121.382 31.4114C120.979 30.941 120.675 30.3703 120.469 29.7025C120.264 29.0347 120.16 28.2979 120.16 27.4919V21.0396C120.16 20.7304 120.229 20.5215 120.366 20.4096C120.502 20.2978 120.683 20.2419 120.905 20.2419H121.085C121.307 20.2419 121.487 20.2978 121.624 20.4096C121.76 20.5215 121.83 20.7304 121.83 21.0396V27.39C121.83 28.6235 122.126 29.5874 122.716 30.2814C123.307 30.9755 124.152 31.3226 125.249 31.3226C126.14 31.3226 126.923 31.0824 127.601 30.6022C128.279 30.1219 128.797 29.4969 129.157 28.7255V21.0379C129.157 20.7287 129.226 20.5198 129.363 20.408C129.499 20.2962 129.68 20.2402 129.902 20.2402H130.081C130.303 20.2402 130.484 20.2962 130.621 20.408C130.757 20.5198 130.826 20.7287 130.826 21.0379V32.5035C130.826 32.538 130.77 32.5759 130.659 32.6186C130.547 32.6614 130.415 32.6828 130.261 32.6828C129.969 32.6828 129.716 32.5808 129.502 32.3736C129.289 32.168 129.182 31.7305 129.182 31.0627V30.6778H129.183Z" fill="white"/>
<path d="M139.132 32.8886C138.24 32.8886 137.41 32.7257 136.638 32.4001C135.867 32.0744 135.199 31.6254 134.633 31.0497C134.068 30.4757 133.627 29.7948 133.309 29.0053C132.992 28.2175 132.834 27.3606 132.834 26.4346C132.834 25.5086 132.992 24.6566 133.309 23.877C133.627 23.0974 134.068 22.4197 134.633 21.8457C135.199 21.2717 135.867 20.826 136.638 20.5085C137.41 20.1911 138.24 20.0332 139.132 20.0332C140.023 20.0332 140.798 20.1582 141.459 20.4066C142.119 20.6549 142.668 20.9592 143.104 21.3194C143.541 21.6796 143.867 22.053 144.081 22.4378C144.295 22.8227 144.402 23.1533 144.402 23.428C144.402 23.6171 144.346 23.7668 144.234 23.8786C144.122 23.9905 143.999 24.076 143.86 24.1352C143.724 24.1961 143.599 24.229 143.487 24.2372C143.375 24.2454 143.311 24.2421 143.295 24.224C143.14 23.8474 142.943 23.4954 142.702 23.1697C142.462 22.8441 142.176 22.5579 141.841 22.3079C141.507 22.0595 141.117 21.8671 140.671 21.7289C140.225 21.5924 139.711 21.5233 139.128 21.5233C138.477 21.5233 137.869 21.6434 137.303 21.8835C136.737 22.1237 136.248 22.4625 135.837 22.8984C135.426 23.3359 135.104 23.854 134.873 24.4543C134.642 25.0546 134.526 25.7142 134.526 26.4346C134.526 27.155 134.642 27.8145 134.873 28.4149C135.105 29.0152 135.426 29.5382 135.837 29.9823C136.248 30.428 136.732 30.7751 137.29 31.0234C137.846 31.2718 138.459 31.3968 139.128 31.3968C139.711 31.3968 140.225 31.3277 140.671 31.1912C141.117 31.0547 141.507 30.8622 141.841 30.6122C142.175 30.3639 142.462 30.0761 142.702 29.7504C142.943 29.4247 143.14 29.0728 143.295 28.6961C143.311 28.6616 143.375 28.6533 143.487 28.6698C143.599 28.6879 143.722 28.7257 143.86 28.7849C143.997 28.8458 144.122 28.9313 144.234 29.0415C144.346 29.1533 144.402 29.303 144.402 29.4922C144.402 29.7668 144.295 30.0958 144.081 30.4823C143.867 30.8672 143.541 31.2405 143.104 31.6007C142.666 31.9609 142.119 32.2652 141.459 32.5136C140.8 32.7619 140.023 32.8869 139.132 32.8869V32.8886Z" fill="white"/>
<path d="M154.351 24.8423C154.351 23.7798 154.054 22.9706 153.464 22.413C152.874 21.8571 152.02 21.5775 150.906 21.5775C149.913 21.5775 149.097 21.7963 148.464 22.2338C147.829 22.6713 147.341 23.2075 146.998 23.8407C146.793 23.8061 146.635 23.7601 146.523 23.6992C146.411 23.64 146.304 23.5413 146.202 23.4032C146.1 23.2667 146.048 23.0857 146.048 22.8637C146.048 22.6417 146.155 22.3719 146.369 22.0545C146.582 21.737 146.9 21.4295 147.319 21.1285C147.739 20.8291 148.262 20.5726 148.887 20.3571C149.512 20.1433 150.227 20.0364 151.033 20.0364C152.592 20.0364 153.809 20.4558 154.684 21.2963C155.558 22.1367 155.995 23.3012 155.995 24.793V32.5052C155.995 32.5398 155.939 32.5776 155.827 32.6204C155.716 32.6631 155.584 32.6845 155.429 32.6845C155.138 32.6845 154.89 32.5825 154.684 32.3753C154.479 32.1681 154.375 31.7322 154.375 31.0644V30.6023C153.895 31.3227 153.257 31.8786 152.461 32.2733C151.663 32.6681 150.776 32.8654 149.799 32.8654C148.462 32.8654 147.426 32.5529 146.689 31.9263C145.952 31.3013 145.584 30.474 145.584 29.446C145.584 28.0068 146.291 26.969 147.706 26.3358C149.12 25.7025 151.249 25.3506 154.094 25.2815H154.351V24.844V24.8423ZM149.954 31.4756C150.587 31.4756 151.171 31.3819 151.702 31.1927C152.234 31.0036 152.696 30.7421 153.091 30.4082C153.485 30.0743 153.793 29.6796 154.017 29.2256C154.239 28.7716 154.351 28.27 154.351 27.7223V26.5907L153.63 26.617C151.522 26.7026 149.936 26.9509 148.873 27.3621C147.811 27.7733 147.28 28.4674 147.28 29.4444C147.28 30.0611 147.515 30.5546 147.987 30.923C148.459 31.2914 149.114 31.4756 149.954 31.4756Z" fill="white"/>
<path d="M158.104 21.834C157.795 21.834 157.586 21.7781 157.474 21.6663C157.363 21.5544 157.307 21.3883 157.307 21.1646V21.01C157.307 20.788 157.363 20.6202 157.474 20.5084C157.586 20.3965 157.795 20.3406 158.104 20.3406H159.236V18.2074C159.236 17.8982 159.305 17.6893 159.442 17.5774C159.578 17.4656 159.759 17.4097 159.981 17.4097H160.16C160.382 17.4097 160.558 17.4656 160.688 17.5774C160.817 17.6893 160.881 17.8982 160.881 18.2074V20.3406H164.146C164.455 20.3406 164.664 20.3965 164.775 20.5084C164.887 20.6202 164.943 20.7863 164.943 21.01V21.1646C164.943 21.3883 164.887 21.5544 164.775 21.6663C164.664 21.7781 164.455 21.834 164.146 21.834H160.881V28.8012C160.881 29.7091 161.014 30.3785 161.279 30.8062C161.544 31.2354 162.02 31.4493 162.705 31.4493C163.132 31.4493 163.502 31.3687 163.81 31.2042C164.119 31.0414 164.384 30.8226 164.608 30.5479C164.642 30.5134 164.744 30.5611 164.917 30.6894C165.088 30.8177 165.173 31.0446 165.173 31.3703C165.173 31.7141 164.96 32.0512 164.53 32.3851C164.101 32.719 163.476 32.8868 162.654 32.8868C161.455 32.8868 160.585 32.5562 160.044 31.8966C159.504 31.2371 159.234 30.2634 159.234 28.9788V21.8324H158.103L158.104 21.834Z" fill="white"/>
<path d="M167.694 17.2848C166.973 17.2848 166.613 16.9163 166.613 16.1795C166.613 15.4426 166.99 15.0742 167.745 15.0742C168.5 15.0742 168.824 15.4426 168.824 16.1795C168.824 16.9163 168.447 17.2848 167.692 17.2848H167.694ZM167.618 32.6829C167.395 32.6829 167.215 32.627 167.079 32.5152C166.942 32.4033 166.873 32.1944 166.873 31.8852V21.0364C166.873 20.7272 166.942 20.5183 167.079 20.4065C167.215 20.2947 167.396 20.2387 167.618 20.2387H167.798C168.02 20.2387 168.2 20.2947 168.337 20.4065C168.473 20.5183 168.543 20.7272 168.543 21.0364V31.8852C168.543 32.1944 168.473 32.4033 168.337 32.5152C168.2 32.627 168.02 32.6829 167.798 32.6829H167.618Z" fill="white"/>
<path d="M177 32.8886C176.074 32.8886 175.225 32.7257 174.456 32.4001C173.684 32.0744 173.02 31.6254 172.464 31.0497C171.906 30.4757 171.471 29.7948 171.153 29.0053C170.836 28.2175 170.678 27.3606 170.678 26.4346C170.678 25.5086 170.836 24.6566 171.153 23.877C171.471 23.0974 171.906 22.4197 172.464 21.8457C173.02 21.2717 173.684 20.826 174.456 20.5085C175.227 20.1911 176.076 20.0332 177 20.0332C177.925 20.0332 178.749 20.196 179.52 20.5217C180.291 20.8474 180.956 21.298 181.512 21.872C182.068 22.4461 182.505 23.127 182.823 23.9165C183.14 24.7043 183.298 25.5612 183.298 26.4872C183.298 27.4132 183.14 28.2652 182.823 29.0448C182.505 29.8244 182.068 30.502 181.512 31.0761C180.954 31.6501 180.291 32.0958 179.52 32.4132C178.749 32.7307 177.908 32.8886 177 32.8886ZM177 31.4231C177.651 31.4231 178.26 31.2997 178.826 31.0497C179.392 30.8014 179.88 30.4576 180.291 30.0218C180.703 29.5859 181.025 29.0662 181.255 28.4658C181.487 27.8655 181.602 27.206 181.602 26.4856C181.602 25.7652 181.487 25.1023 181.255 24.4938C181.023 23.8852 180.703 23.3589 180.291 22.9132C179.88 22.4674 179.395 22.1204 178.839 21.872C178.281 21.6237 177.67 21.4987 177 21.4987C176.331 21.4987 175.714 21.6237 175.15 21.872C174.584 22.1204 174.096 22.4625 173.684 22.9C173.273 23.3375 172.951 23.8556 172.721 24.4559C172.489 25.0563 172.373 25.7158 172.373 26.4362C172.373 27.1566 172.489 27.8211 172.721 28.428C172.952 29.0366 173.273 29.5629 173.684 30.0086C174.096 30.4543 174.584 30.8014 175.15 31.0497C175.716 31.2981 176.332 31.4231 177 31.4231Z" fill="white"/>
<path d="M186.975 22.2452C187.403 21.5939 187.966 21.0626 188.66 20.6514C189.354 20.2403 190.181 20.0347 191.14 20.0347C191.946 20.0347 192.653 20.163 193.262 20.4195C193.87 20.6761 194.375 21.0413 194.778 21.5117C195.181 21.9837 195.485 22.5528 195.691 23.2205C195.897 23.8883 196 24.6252 196 25.4311V31.8835C196 32.1927 195.931 32.4015 195.795 32.5134C195.656 32.6252 195.477 32.6812 195.255 32.6812H195.076C194.852 32.6812 194.673 32.6252 194.536 32.5134C194.4 32.4015 194.331 32.1927 194.331 31.8835V25.5331C194.331 24.2995 194.043 23.3357 193.469 22.6416C192.895 21.9475 192.084 21.6005 191.04 21.6005C190.079 21.6005 189.257 21.8406 188.573 22.3209C187.887 22.8011 187.364 23.4261 187.003 24.1975V31.8835C187.003 32.1927 186.934 32.4015 186.798 32.5134C186.661 32.6252 186.48 32.6812 186.258 32.6812H186.079C185.855 32.6812 185.676 32.6252 185.54 32.5134C185.403 32.4015 185.334 32.1927 185.334 31.8835V20.4179C185.334 20.3834 185.39 20.3455 185.502 20.3028C185.614 20.26 185.747 20.2386 185.9 20.2386C186.191 20.2386 186.444 20.3406 186.658 20.5478C186.872 20.7534 186.979 21.1909 186.979 21.8587V22.2436L186.975 22.2452Z" fill="white"/>
<path d="M72.4408 32.3555C72.0608 31.969 71.4539 31.9213 71.0214 32.2486C70.069 32.969 68.37 33.9394 66.1101 33.9394C63.8502 33.9394 62.1496 32.9707 61.1989 32.2486C60.768 31.9213 60.1594 31.9706 59.7811 32.3555C59.3255 32.8177 59.3782 33.5776 59.8946 33.9707C61.1413 34.9213 63.2598 36.0973 66.1134 36.0973C68.9671 36.0973 71.0855 34.9213 72.3322 33.9707C72.847 33.5776 72.898 32.821 72.4441 32.3555H72.4408Z" fill="url(#paint1_linear_528_14787)"/>
</g>
<defs>
<linearGradient id="paint0_linear_528_14787" x1="0" y1="19.4903" x2="36.9543" y2="19.4903" gradientUnits="userSpaceOnUse">
<stop stop-color="#FB7725"/>
<stop offset="1" stop-color="#EA2287"/>
</linearGradient>
<linearGradient id="paint1_linear_528_14787" x1="59.4686" y1="34.0644" x2="72.75" y2="34.0644" gradientUnits="userSpaceOnUse">
<stop stop-color="#FB7725"/>
<stop offset="1" stop-color="#EA2287"/>
</linearGradient>
<clipPath id="clip0_528_14787">
<rect width="196" height="46.3951" fill="white"/>
</clipPath>
</defs>
</svg>
