<svg width="539" height="77" viewBox="0 0 539 77" fill="none" xmlns="http://www.w3.org/2000/svg">
<path d="M13.5455 15.4545V62H3.86364V15.4545H13.5455ZM27.9148 15.4545V20.3636C27.9148 21.7576 27.642 23.1818 27.0966 24.6364C26.5663 26.0758 25.8542 27.4394 24.9602 28.7273C24.0663 30 23.089 31.0833 22.0284 31.9773L17.7557 29.4545C18.5133 28.2576 19.1799 26.9318 19.7557 25.4773C20.3466 24.0227 20.642 22.3333 20.642 20.4091V15.4545H27.9148ZM44.7727 62.6818C41.1818 62.6818 38.0909 61.9545 35.5 60.5C32.9242 59.0303 30.9394 56.9545 29.5455 54.2727C28.1515 51.5758 27.4545 48.3864 27.4545 44.7045C27.4545 41.1136 28.1515 37.9621 29.5455 35.25C30.9394 32.5379 32.9015 30.4242 35.4318 28.9091C37.9773 27.3939 40.9621 26.6364 44.3864 26.6364C46.6894 26.6364 48.8333 27.0076 50.8182 27.75C52.8182 28.4773 54.5606 29.5758 56.0455 31.0455C57.5455 32.5152 58.7121 34.3636 59.5455 36.5909C60.3788 38.803 60.7955 41.3939 60.7955 44.3636V47.0227H31.3182V41.0227H51.6818C51.6818 39.6288 51.3788 38.3939 50.7727 37.3182C50.1667 36.2424 49.3258 35.4015 48.25 34.7955C47.1894 34.1742 45.9545 33.8636 44.5455 33.8636C43.0758 33.8636 41.7727 34.2045 40.6364 34.8864C39.5152 35.553 38.6364 36.4545 38 37.5909C37.3636 38.7121 37.0379 39.9621 37.0227 41.3409V47.0455C37.0227 48.7727 37.3409 50.2652 37.9773 51.5227C38.6288 52.7803 39.5455 53.75 40.7273 54.4318C41.9091 55.1136 43.3106 55.4545 44.9318 55.4545C46.0076 55.4545 46.9924 55.303 47.8864 55C48.7803 54.697 49.5455 54.2424 50.1818 53.6364C50.8182 53.0303 51.303 52.2879 51.6364 51.4091L60.5909 52C60.1364 54.1515 59.2045 56.0303 57.7955 57.6364C56.4015 59.2273 54.5985 60.4697 52.3864 61.3636C50.1894 62.2424 47.6515 62.6818 44.7727 62.6818ZM40.6818 22.5909L45.5 12.25H54.4545L47.5227 22.5909H40.6818ZM81.3864 62.6818C77.8106 62.6818 74.7348 61.9242 72.1591 60.4091C69.5985 58.8788 67.6288 56.7576 66.25 54.0455C64.8864 51.3333 64.2045 48.2121 64.2045 44.6818C64.2045 41.1061 64.8939 37.9697 66.2727 35.2727C67.6667 32.5606 69.6439 30.447 72.2045 28.9318C74.7652 27.4015 77.8106 26.6364 81.3409 26.6364C84.3864 26.6364 87.053 27.1894 89.3409 28.2955C91.6288 29.4015 93.4394 30.9545 94.7727 32.9545C96.1061 34.9545 96.8409 37.303 96.9773 40H87.8409C87.5833 38.2576 86.9015 36.8561 85.7955 35.7955C84.7045 34.7197 83.2727 34.1818 81.5 34.1818C80 34.1818 78.6894 34.5909 77.5682 35.4091C76.4621 36.2121 75.5985 37.3864 74.9773 38.9318C74.3561 40.4773 74.0455 42.3485 74.0455 44.5455C74.0455 46.7727 74.3485 48.6667 74.9545 50.2273C75.5758 51.7879 76.447 52.9773 77.5682 53.7955C78.6894 54.6136 80 55.0227 81.5 55.0227C82.6061 55.0227 83.5985 54.7955 84.4773 54.3409C85.3712 53.8864 86.1061 53.2273 86.6818 52.3636C87.2727 51.4848 87.6591 50.4318 87.8409 49.2045H96.9773C96.8258 51.8712 96.0985 54.2197 94.7955 56.25C93.5076 58.2652 91.7273 59.8409 89.4545 60.9773C87.1818 62.1136 84.4924 62.6818 81.3864 62.6818ZM117.449 62.6818C113.919 62.6818 110.866 61.9318 108.29 60.4318C105.729 58.9167 103.752 56.8106 102.358 54.1136C100.964 51.4015 100.267 48.2576 100.267 44.6818C100.267 41.0758 100.964 37.9242 102.358 35.2273C103.752 32.5152 105.729 30.4091 108.29 28.9091C110.866 27.3939 113.919 26.6364 117.449 26.6364C120.979 26.6364 124.025 27.3939 126.585 28.9091C129.161 30.4091 131.146 32.5152 132.54 35.2273C133.934 37.9242 134.631 41.0758 134.631 44.6818C134.631 48.2576 133.934 51.4015 132.54 54.1136C131.146 56.8106 129.161 58.9167 126.585 60.4318C124.025 61.9318 120.979 62.6818 117.449 62.6818ZM117.494 55.1818C119.1 55.1818 120.441 54.7273 121.517 53.8182C122.593 52.8939 123.403 51.6364 123.949 50.0455C124.509 48.4545 124.79 46.6439 124.79 44.6136C124.79 42.5833 124.509 40.7727 123.949 39.1818C123.403 37.5909 122.593 36.3333 121.517 35.4091C120.441 34.4848 119.1 34.0227 117.494 34.0227C115.873 34.0227 114.509 34.4848 113.403 35.4091C112.313 36.3333 111.487 37.5909 110.926 39.1818C110.381 40.7727 110.108 42.5833 110.108 44.6136C110.108 46.6439 110.381 48.4545 110.926 50.0455C111.487 51.6364 112.313 52.8939 113.403 53.8182C114.509 54.7273 115.873 55.1818 117.494 55.1818ZM168.472 37.0455L159.608 37.5909C159.456 36.8333 159.131 36.1515 158.631 35.5455C158.131 34.9242 157.472 34.4318 156.653 34.0682C155.85 33.6894 154.888 33.5 153.767 33.5C152.267 33.5 151.002 33.8182 149.972 34.4545C148.941 35.0758 148.426 35.9091 148.426 36.9545C148.426 37.7879 148.759 38.4924 149.426 39.0682C150.093 39.6439 151.237 40.1061 152.858 40.4545L159.176 41.7273C162.57 42.4242 165.1 43.5455 166.767 45.0909C168.434 46.6364 169.267 48.6667 169.267 51.1818C169.267 53.4697 168.593 55.4773 167.244 57.2045C165.911 58.9318 164.078 60.2803 161.744 61.25C159.426 62.2045 156.752 62.6818 153.722 62.6818C149.1 62.6818 145.419 61.7197 142.676 59.7955C139.949 57.8561 138.35 55.2197 137.881 51.8864L147.403 51.3864C147.691 52.7955 148.388 53.8712 149.494 54.6136C150.6 55.3409 152.017 55.7045 153.744 55.7045C155.441 55.7045 156.805 55.3788 157.835 54.7273C158.881 54.0606 159.411 53.2045 159.426 52.1591C159.411 51.2803 159.04 50.5606 158.312 50C157.585 49.4242 156.464 48.9848 154.949 48.6818L148.903 47.4773C145.494 46.7955 142.956 45.6136 141.29 43.9318C139.638 42.25 138.812 40.1061 138.812 37.5C138.812 35.2576 139.419 33.3258 140.631 31.7045C141.858 30.0833 143.578 28.8333 145.79 27.9545C148.017 27.0758 150.623 26.6364 153.608 26.6364C158.017 26.6364 161.487 27.5682 164.017 29.4318C166.563 31.2955 168.047 33.8333 168.472 37.0455ZM179.841 75.0909C178.614 75.0909 177.462 74.9924 176.386 74.7955C175.326 74.6136 174.447 74.3788 173.75 74.0909L175.932 66.8636C177.068 67.2121 178.091 67.4015 179 67.4318C179.924 67.4621 180.72 67.25 181.386 66.7955C182.068 66.3409 182.621 65.5682 183.045 64.4773L183.614 63L171.091 27.0909H181.273L188.5 52.7273H188.864L196.159 27.0909H206.409L192.841 65.7727C192.189 67.6515 191.303 69.2879 190.182 70.6818C189.076 72.0909 187.674 73.1742 185.977 73.9318C184.28 74.7045 182.235 75.0909 179.841 75.0909ZM238.909 37.0455L230.045 37.5909C229.894 36.8333 229.568 36.1515 229.068 35.5455C228.568 34.9242 227.909 34.4318 227.091 34.0682C226.288 33.6894 225.326 33.5 224.205 33.5C222.705 33.5 221.439 33.8182 220.409 34.4545C219.379 35.0758 218.864 35.9091 218.864 36.9545C218.864 37.7879 219.197 38.4924 219.864 39.0682C220.53 39.6439 221.674 40.1061 223.295 40.4545L229.614 41.7273C233.008 42.4242 235.538 43.5455 237.205 45.0909C238.871 46.6364 239.705 48.6667 239.705 51.1818C239.705 53.4697 239.03 55.4773 237.682 57.2045C236.348 58.9318 234.515 60.2803 232.182 61.25C229.864 62.2045 227.189 62.6818 224.159 62.6818C219.538 62.6818 215.856 61.7197 213.114 59.7955C210.386 57.8561 208.788 55.2197 208.318 51.8864L217.841 51.3864C218.129 52.7955 218.826 53.8712 219.932 54.6136C221.038 55.3409 222.455 55.7045 224.182 55.7045C225.879 55.7045 227.242 55.3788 228.273 54.7273C229.318 54.0606 229.848 53.2045 229.864 52.1591C229.848 51.2803 229.477 50.5606 228.75 50C228.023 49.4242 226.902 48.9848 225.386 48.6818L219.341 47.4773C215.932 46.7955 213.394 45.6136 211.727 43.9318C210.076 42.25 209.25 40.1061 209.25 37.5C209.25 35.2576 209.856 33.3258 211.068 31.7045C212.295 30.0833 214.015 28.8333 216.227 27.9545C218.455 27.0758 221.061 26.6364 224.045 26.6364C228.455 26.6364 231.924 27.5682 234.455 29.4318C237 31.2955 238.485 33.8333 238.909 37.0455ZM262.869 27.0909V34.3636H241.847V27.0909H262.869ZM246.619 18.7273H256.301V51.2727C256.301 52.1667 256.438 52.8636 256.71 53.3636C256.983 53.8485 257.362 54.1894 257.847 54.3864C258.347 54.5833 258.922 54.6818 259.574 54.6818C260.028 54.6818 260.483 54.6439 260.938 54.5682C261.392 54.4773 261.741 54.4091 261.983 54.3636L263.506 61.5682C263.021 61.7197 262.339 61.8939 261.46 62.0909C260.581 62.303 259.513 62.4318 258.256 62.4773C255.922 62.5682 253.877 62.2576 252.119 61.5455C250.377 60.8333 249.021 59.7273 248.051 58.2273C247.081 56.7273 246.604 54.8333 246.619 52.5455V18.7273ZM283.21 62.6818C279.619 62.6818 276.528 61.9545 273.938 60.5C271.362 59.0303 269.377 56.9545 267.983 54.2727C266.589 51.5758 265.892 48.3864 265.892 44.7045C265.892 41.1136 266.589 37.9621 267.983 35.25C269.377 32.5379 271.339 30.4242 273.869 28.9091C276.415 27.3939 279.4 26.6364 282.824 26.6364C285.127 26.6364 287.271 27.0076 289.256 27.75C291.256 28.4773 292.998 29.5758 294.483 31.0455C295.983 32.5152 297.15 34.3636 297.983 36.5909C298.816 38.803 299.233 41.3939 299.233 44.3636V47.0227H269.756V41.0227H290.119C290.119 39.6288 289.816 38.3939 289.21 37.3182C288.604 36.2424 287.763 35.4015 286.688 34.7955C285.627 34.1742 284.392 33.8636 282.983 33.8636C281.513 33.8636 280.21 34.2045 279.074 34.8864C277.953 35.553 277.074 36.4545 276.438 37.5909C275.801 38.7121 275.475 39.9621 275.46 41.3409V47.0455C275.46 48.7727 275.778 50.2652 276.415 51.5227C277.066 52.7803 277.983 53.75 279.165 54.4318C280.347 55.1136 281.748 55.4545 283.369 55.4545C284.445 55.4545 285.43 55.303 286.324 55C287.218 54.697 287.983 54.2424 288.619 53.6364C289.256 53.0303 289.741 52.2879 290.074 51.4091L299.028 52C298.574 54.1515 297.642 56.0303 296.233 57.6364C294.839 59.2273 293.036 60.4697 290.824 61.3636C288.627 62.2424 286.089 62.6818 283.21 62.6818ZM279.256 22.5909L272.324 12.25H281.256L286.097 22.5909H279.256ZM304.051 62V27.0909H313.278V33.25H313.688C314.415 31.2045 315.627 29.5909 317.324 28.4091C319.021 27.2273 321.051 26.6364 323.415 26.6364C325.809 26.6364 327.847 27.2348 329.528 28.4318C331.21 29.6136 332.331 31.2197 332.892 33.25H333.256C333.968 31.25 335.256 29.6515 337.119 28.4545C338.998 27.2424 341.218 26.6364 343.778 26.6364C347.036 26.6364 349.68 27.6742 351.71 29.75C353.756 31.8106 354.778 34.7348 354.778 38.5227V62H345.119V40.4318C345.119 38.4924 344.604 37.0379 343.574 36.0682C342.544 35.0985 341.256 34.6136 339.71 34.6136C337.953 34.6136 336.581 35.1742 335.597 36.2955C334.612 37.4015 334.119 38.8636 334.119 40.6818V62H324.733V40.2273C324.733 38.5152 324.241 37.1515 323.256 36.1364C322.286 35.1212 321.006 34.6136 319.415 34.6136C318.339 34.6136 317.369 34.8864 316.506 35.4318C315.657 35.9621 314.983 36.7121 314.483 37.6818C313.983 38.6364 313.733 39.7576 313.733 41.0455V62H304.051ZM376.835 62.6818C373.244 62.6818 370.153 61.9545 367.562 60.5C364.987 59.0303 363.002 56.9545 361.608 54.2727C360.214 51.5758 359.517 48.3864 359.517 44.7045C359.517 41.1136 360.214 37.9621 361.608 35.25C363.002 32.5379 364.964 30.4242 367.494 28.9091C370.04 27.3939 373.025 26.6364 376.449 26.6364C378.752 26.6364 380.896 27.0076 382.881 27.75C384.881 28.4773 386.623 29.5758 388.108 31.0455C389.608 32.5152 390.775 34.3636 391.608 36.5909C392.441 38.803 392.858 41.3939 392.858 44.3636V47.0227H363.381V41.0227H383.744C383.744 39.6288 383.441 38.3939 382.835 37.3182C382.229 36.2424 381.388 35.4015 380.312 34.7955C379.252 34.1742 378.017 33.8636 376.608 33.8636C375.138 33.8636 373.835 34.2045 372.699 34.8864C371.578 35.553 370.699 36.4545 370.062 37.5909C369.426 38.7121 369.1 39.9621 369.085 41.3409V47.0455C369.085 48.7727 369.403 50.2652 370.04 51.5227C370.691 52.7803 371.608 53.75 372.79 54.4318C373.972 55.1136 375.373 55.4545 376.994 55.4545C378.07 55.4545 379.055 55.303 379.949 55C380.843 54.697 381.608 54.2424 382.244 53.6364C382.881 53.0303 383.366 52.2879 383.699 51.4091L392.653 52C392.199 54.1515 391.267 56.0303 389.858 57.6364C388.464 59.2273 386.661 60.4697 384.449 61.3636C382.252 62.2424 379.714 62.6818 376.835 62.6818Z" fill="#241759"/>
<path d="M448.812 43.5924C448.812 54.0458 440.59 62.5362 430.429 62.5362C426.919 62.5362 423.639 61.532 420.868 59.7974C420.175 61.395 418.559 62.5362 416.619 62.5362C414.078 62.5362 412 60.4821 412 57.9715V15.5648C412 13.0541 414.078 11 416.619 11C419.159 11 421.238 13.0541 421.238 15.5648V27.2049C423.963 25.6073 427.103 24.6943 430.429 24.6943C440.59 24.6487 448.812 33.1391 448.812 43.5924ZM439.62 43.5924C439.62 38.1604 435.51 33.7325 430.429 33.7325C425.348 33.7325 421.238 38.1604 421.238 43.5924C421.238 49.0245 425.348 53.4523 430.429 53.4523C435.51 53.4523 439.62 49.0245 439.62 43.5924Z" fill="#171557"/>
<path d="M453.412 43.6703C453.412 33.2599 461.644 24.8043 471.818 24.8043C481.992 24.8043 490.224 33.2599 490.224 43.6703C490.224 54.0806 481.992 62.5362 471.818 62.5362C461.644 62.5362 453.412 54.0806 453.412 43.6703ZM481.021 43.6703C481.021 38.2605 476.905 33.8509 471.818 33.8509C466.731 33.8509 462.615 38.2605 462.615 43.6703C462.615 49.08 466.731 53.4896 471.818 53.4896C476.905 53.4896 481.021 49.08 481.021 43.6703Z" fill="#171557"/>
<path d="M522.3 60.3598C520.144 61.7654 517.667 62.5362 515.144 62.5362C507.989 62.5362 502.209 56.687 502.209 49.5229V33.9703H498.493C495.97 33.9703 493.906 31.9299 493.906 29.436C493.906 26.9422 495.97 24.9017 498.493 24.9017H502.209V17.3749C502.209 14.881 504.273 12.8406 506.796 12.8406C509.319 12.8406 511.383 14.881 511.383 17.3749V24.9017H518.539C521.062 24.9017 523.126 26.9422 523.126 29.436C523.126 31.9299 521.062 33.9703 518.539 33.9703H511.337V49.5682C511.337 51.7447 513.034 53.5584 515.144 53.5584C515.833 53.5584 516.612 53.3316 517.209 52.9689C519.273 51.5633 522.071 52.0621 523.539 54.1478C524.869 56.1429 524.364 58.9995 522.3 60.3598Z" fill="#171557"/>
<path d="M528.877 15.9299C528.877 13.1911 531.127 11 533.939 11C536.751 11 539 13.1911 539 15.9299C539 18.6688 536.751 20.8599 533.939 20.8599C531.127 20.8599 528.877 18.6688 528.877 15.9299ZM529.252 57.9715V29.2134C529.252 26.7028 531.361 24.6487 533.939 24.6487C536.516 24.6487 538.625 26.7028 538.625 29.2134V57.9715C538.625 60.4821 536.516 62.5362 533.939 62.5362C531.361 62.5362 529.252 60.4821 529.252 57.9715Z" fill="#171557"/>
<path d="M490.233 62.5839C489.133 61.4289 487.347 61.2903 486.11 62.2605C483.362 64.3857 478.415 67.204 471.818 67.204C465.222 67.204 460.275 64.3395 457.526 62.2605C456.29 61.2903 454.503 61.4289 453.404 62.5839C452.075 63.9237 452.213 66.1875 453.724 67.3426C457.343 70.1146 463.527 73.5796 471.818 73.5796C480.109 73.5796 486.293 70.1146 489.912 67.3426C491.424 66.1413 491.561 63.9237 490.233 62.5839Z" fill="url(#paint0_linear_528_15314)"/>
<defs>
<linearGradient id="paint0_linear_528_15314" x1="452.492" y1="67.5892" x2="491.15" y2="67.5892" gradientUnits="userSpaceOnUse">
<stop stop-color="#FB7725"/>
<stop offset="1" stop-color="#EA2287"/>
</linearGradient>
</defs>
</svg>
