<svg width="381" height="141" viewBox="0 0 381 141" fill="none" xmlns="http://www.w3.org/2000/svg">
<g filter="url(#filter0_d_528_15215)">
<path d="M44.3008 66.3C44.3008 51.9406 55.9414 40.3 70.3008 40.3H310.301C324.66 40.3 336.301 51.9406 336.301 66.3C336.301 80.6594 324.66 92.3 310.301 92.3H70.3008C55.9414 92.3 44.3008 80.6594 44.3008 66.3Z" fill="white" shape-rendering="crispEdges"/>
<rect x="54.3008" y="50.3" width="32" height="32" rx="16" fill="#E6FFF1"/>
<path d="M75.7016 71.7C77.6898 71.7 79.3015 68.4764 79.3015 64.5C79.3015 60.5236 77.6898 57.3 75.7016 57.3C73.7133 57.3 72.1016 60.5236 72.1016 64.5C72.1016 68.4764 73.7133 71.7 75.7016 71.7Z" stroke="#28EB83" stroke-width="1.35" stroke-linecap="round" stroke-linejoin="round"/>
<path d="M75.7007 57.3C72.9081 57.3 67.1193 59.4402 63.7947 60.7686C62.2719 61.377 61.3008 62.8602 61.3008 64.5C61.3008 66.1398 62.2728 67.623 63.7947 68.2314C67.1193 69.5598 72.9081 71.7 75.7007 71.7M69.4008 75.3L67.6521 74.337C66.7185 73.8203 65.9612 73.0356 65.478 72.0843C64.9948 71.133 64.8078 70.0586 64.9413 69" stroke="#28EB83" stroke-width="1.35" stroke-linecap="round" stroke-linejoin="round"/>
<path d="M99.6637 71.8H97.8001L101.988 60.1636H104.016L108.203 71.8H106.34L103.05 62.2773H102.959L99.6637 71.8ZM99.9762 67.2432H106.022V68.7205H99.9762V67.2432ZM113.283 71.9761C112.438 71.9761 111.711 71.7849 111.101 71.4023C110.495 71.0159 110.029 70.4837 109.703 69.8057C109.378 69.1277 109.215 68.3511 109.215 67.4761C109.215 66.5898 109.382 65.8076 109.715 65.1295C110.048 64.4477 110.518 63.9155 111.124 63.533C111.73 63.1504 112.444 62.9591 113.266 62.9591C113.929 62.9591 114.52 63.0822 115.039 63.3284C115.558 63.5708 115.976 63.9117 116.294 64.3511C116.616 64.7905 116.808 65.3038 116.868 65.8909H115.215C115.124 65.4818 114.916 65.1295 114.59 64.8341C114.268 64.5386 113.836 64.3909 113.294 64.3909C112.821 64.3909 112.406 64.5159 112.05 64.7659C111.698 65.0121 111.423 65.3644 111.226 65.8227C111.029 66.2773 110.931 66.8152 110.931 67.4364C110.931 68.0727 111.027 68.622 111.221 69.0841C111.414 69.5462 111.686 69.9042 112.039 70.158C112.395 70.4117 112.813 70.5386 113.294 70.5386C113.616 70.5386 113.908 70.4799 114.169 70.3625C114.435 70.2413 114.656 70.0689 114.834 69.8455C115.016 69.622 115.143 69.353 115.215 69.0386H116.868C116.808 69.603 116.624 70.1068 116.317 70.55C116.01 70.9932 115.599 71.3417 115.084 71.5955C114.573 71.8492 113.972 71.9761 113.283 71.9761ZM122.361 71.9761C121.516 71.9761 120.789 71.7849 120.179 71.4023C119.573 71.0159 119.107 70.4837 118.782 69.8057C118.456 69.1277 118.293 68.3511 118.293 67.4761C118.293 66.5898 118.46 65.8076 118.793 65.1295C119.126 64.4477 119.596 63.9155 120.202 63.533C120.808 63.1504 121.522 62.9591 122.344 62.9591C123.007 62.9591 123.598 63.0822 124.117 63.3284C124.636 63.5708 125.054 63.9117 125.373 64.3511C125.694 64.7905 125.886 65.3038 125.946 65.8909H124.293C124.202 65.4818 123.994 65.1295 123.668 64.8341C123.346 64.5386 122.914 64.3909 122.373 64.3909C121.899 64.3909 121.484 64.5159 121.128 64.7659C120.776 65.0121 120.501 65.3644 120.304 65.8227C120.107 66.2773 120.009 66.8152 120.009 67.4364C120.009 68.0727 120.105 68.622 120.299 69.0841C120.492 69.5462 120.765 69.9042 121.117 70.158C121.473 70.4117 121.891 70.5386 122.373 70.5386C122.694 70.5386 122.986 70.4799 123.248 70.3625C123.513 70.2413 123.734 70.0689 123.912 69.8455C124.094 69.622 124.221 69.353 124.293 69.0386H125.946C125.886 69.603 125.702 70.1068 125.395 70.55C125.088 70.9932 124.677 71.3417 124.162 71.5955C123.651 71.8492 123.051 71.9761 122.361 71.9761ZM131.439 71.9761C130.621 71.9761 129.907 71.7886 129.297 71.4136C128.687 71.0386 128.214 70.514 127.877 69.8398C127.54 69.1655 127.371 68.3777 127.371 67.4761C127.371 66.5708 127.54 65.7792 127.877 65.1011C128.214 64.4231 128.687 63.8966 129.297 63.5216C129.907 63.1466 130.621 62.9591 131.439 62.9591C132.257 62.9591 132.971 63.1466 133.581 63.5216C134.191 63.8966 134.665 64.4231 135.002 65.1011C135.339 65.7792 135.507 66.5708 135.507 67.4761C135.507 68.3777 135.339 69.1655 135.002 69.8398C134.665 70.514 134.191 71.0386 133.581 71.4136C132.971 71.7886 132.257 71.9761 131.439 71.9761ZM131.445 70.55C131.975 70.55 132.415 70.4099 132.763 70.1295C133.112 69.8492 133.369 69.4761 133.536 69.0102C133.706 68.5443 133.792 68.0311 133.792 67.4705C133.792 66.9136 133.706 66.4023 133.536 65.9364C133.369 65.4667 133.112 65.0898 132.763 64.8057C132.415 64.5216 131.975 64.3795 131.445 64.3795C130.911 64.3795 130.468 64.5216 130.115 64.8057C129.767 65.0898 129.507 65.4667 129.337 65.9364C129.17 66.4023 129.087 66.9136 129.087 67.4705C129.087 68.0311 129.17 68.5443 129.337 69.0102C129.507 69.4761 129.767 69.8492 130.115 70.1295C130.468 70.4099 130.911 70.55 131.445 70.55ZM137.404 71.8V63.0727H139.034V64.4932H139.142C139.324 64.0121 139.622 63.6371 140.034 63.3682C140.447 63.0955 140.942 62.9591 141.517 62.9591C142.101 62.9591 142.589 63.0955 142.983 63.3682C143.381 63.6409 143.675 64.0159 143.864 64.4932H143.955C144.163 64.0273 144.495 63.6561 144.949 63.3795C145.404 63.0992 145.945 62.9591 146.574 62.9591C147.366 62.9591 148.012 63.2072 148.512 63.7034C149.016 64.1996 149.267 64.9477 149.267 65.9477V71.8H147.569V66.1068C147.569 65.5159 147.408 65.0879 147.086 64.8227C146.764 64.5576 146.379 64.425 145.932 64.425C145.379 64.425 144.949 64.5955 144.642 64.9364C144.336 65.2735 144.182 65.7072 144.182 66.2375V71.8H142.489V65.9989C142.489 65.5254 142.341 65.1447 142.046 64.8568C141.75 64.5689 141.366 64.425 140.892 64.425C140.57 64.425 140.273 64.5102 140 64.6807C139.731 64.8474 139.514 65.0803 139.347 65.3795C139.184 65.6788 139.103 66.0254 139.103 66.4193V71.8H137.404ZM151.544 75.0727V63.0727H153.203V64.4875H153.346C153.444 64.3057 153.586 64.0955 153.772 63.8568C153.957 63.6182 154.215 63.4099 154.544 63.2318C154.874 63.05 155.31 62.9591 155.851 62.9591C156.556 62.9591 157.185 63.1371 157.738 63.4932C158.291 63.8492 158.724 64.3625 159.039 65.033C159.357 65.7034 159.516 66.5102 159.516 67.4534C159.516 68.3966 159.359 69.2053 159.044 69.8795C158.73 70.55 158.298 71.067 157.749 71.4307C157.2 71.7905 156.573 71.9705 155.868 71.9705C155.338 71.9705 154.904 71.8814 154.567 71.7034C154.234 71.5254 153.972 71.317 153.783 71.0784C153.594 70.8398 153.448 70.6277 153.346 70.442H153.243V75.0727H151.544ZM153.209 67.4364C153.209 68.05 153.298 68.5879 153.476 69.05C153.654 69.5121 153.912 69.8739 154.249 70.1352C154.586 70.3928 154.999 70.5216 155.488 70.5216C155.995 70.5216 156.419 70.3871 156.76 70.1182C157.101 69.8455 157.359 69.4761 157.533 69.0102C157.711 68.5443 157.8 68.0197 157.8 67.4364C157.8 66.8606 157.713 66.3436 157.539 65.8852C157.368 65.4269 157.111 65.0652 156.766 64.8C156.425 64.5349 155.999 64.4023 155.488 64.4023C154.995 64.4023 154.578 64.5292 154.238 64.783C153.9 65.0367 153.645 65.3909 153.471 65.8455C153.296 66.3 153.209 66.8303 153.209 67.4364ZM163.959 71.9932C163.406 71.9932 162.906 71.8909 162.459 71.6864C162.012 71.478 161.658 71.1769 161.397 70.783C161.139 70.389 161.01 69.9061 161.01 69.3341C161.01 68.8417 161.105 68.4364 161.294 68.1182C161.484 67.8 161.739 67.5481 162.061 67.3625C162.383 67.1769 162.743 67.0367 163.141 66.942C163.539 66.8474 163.944 66.7754 164.357 66.7261C164.88 66.6655 165.304 66.6163 165.63 66.5784C165.955 66.5367 166.192 66.4705 166.34 66.3795C166.488 66.2886 166.561 66.1409 166.561 65.9364V65.8966C166.561 65.4004 166.421 65.0159 166.141 64.7432C165.864 64.4705 165.452 64.3341 164.902 64.3341C164.33 64.3341 163.88 64.461 163.55 64.7148C163.224 64.9648 162.999 65.2432 162.874 65.55L161.277 65.1864C161.467 64.6561 161.743 64.228 162.107 63.9023C162.474 63.5727 162.897 63.3341 163.374 63.1864C163.851 63.0349 164.353 62.9591 164.88 62.9591C165.228 62.9591 165.597 63.0008 165.988 63.0841C166.382 63.1636 166.749 63.3114 167.09 63.5273C167.435 63.7432 167.717 64.0519 167.936 64.4534C168.156 64.8511 168.266 65.3682 168.266 66.0045V71.8H166.607V70.6068H166.539C166.429 70.8265 166.264 71.0424 166.044 71.2545C165.825 71.4667 165.542 71.6428 165.198 71.783C164.853 71.9231 164.44 71.9932 163.959 71.9932ZM164.328 70.6295C164.798 70.6295 165.2 70.5367 165.533 70.3511C165.87 70.1655 166.126 69.9231 166.3 69.6239C166.478 69.3208 166.567 68.997 166.567 68.6523V67.5273C166.507 67.5879 166.389 67.6447 166.215 67.6977C166.044 67.747 165.849 67.7905 165.63 67.8284C165.41 67.8625 165.196 67.8947 164.988 67.925C164.779 67.9515 164.605 67.9742 164.465 67.9932C164.135 68.0349 163.834 68.1049 163.561 68.2034C163.292 68.3019 163.077 68.4439 162.914 68.6295C162.755 68.8114 162.675 69.0538 162.675 69.3568C162.675 69.7773 162.83 70.0955 163.141 70.3114C163.452 70.5235 163.847 70.6295 164.328 70.6295ZM174.188 75.2545C173.495 75.2545 172.898 75.1636 172.398 74.9818C171.902 74.8 171.497 74.5595 171.182 74.2602C170.868 73.961 170.633 73.6333 170.478 73.2773L171.938 72.675C172.04 72.8417 172.176 73.0178 172.347 73.2034C172.521 73.3928 172.756 73.5538 173.051 73.6864C173.351 73.8189 173.735 73.8852 174.205 73.8852C174.849 73.8852 175.381 73.728 175.801 73.4136C176.222 73.103 176.432 72.6068 176.432 71.925V70.2091H176.324C176.222 70.3947 176.074 70.6011 175.881 70.8284C175.692 71.0557 175.43 71.2527 175.097 71.4193C174.764 71.586 174.33 71.6693 173.796 71.6693C173.106 71.6693 172.485 71.5083 171.932 71.1864C171.383 70.8606 170.947 70.3814 170.625 69.7489C170.307 69.1125 170.148 68.3303 170.148 67.4023C170.148 66.4742 170.305 65.6788 170.62 65.0159C170.938 64.353 171.373 63.8455 171.926 63.4932C172.48 63.1371 173.106 62.9591 173.807 62.9591C174.349 62.9591 174.786 63.05 175.12 63.2318C175.453 63.4099 175.712 63.6182 175.898 63.8568C176.087 64.0955 176.233 64.3057 176.336 64.4875H176.461V63.0727H178.125V71.9932C178.125 72.7432 177.951 73.3587 177.603 73.8398C177.254 74.3208 176.783 74.6769 176.188 74.908C175.597 75.139 174.93 75.2545 174.188 75.2545ZM174.171 70.2602C174.659 70.2602 175.072 70.1466 175.409 69.9193C175.75 69.6883 176.008 69.3587 176.182 68.9307C176.36 68.4989 176.449 67.9818 176.449 67.3795C176.449 66.7924 176.362 66.2754 176.188 65.8284C176.014 65.3814 175.758 65.033 175.421 64.783C175.084 64.5292 174.667 64.4023 174.171 64.4023C173.659 64.4023 173.233 64.5349 172.892 64.8C172.551 65.0614 172.294 65.4174 172.12 65.8682C171.949 66.3189 171.864 66.8227 171.864 67.3795C171.864 67.9515 171.951 68.4534 172.125 68.8852C172.3 69.317 172.557 69.6542 172.898 69.8966C173.243 70.139 173.667 70.2602 174.171 70.2602ZM182.103 66.6182V71.8H180.404V63.0727H182.034V64.4932H182.142C182.343 64.0311 182.658 63.6599 183.086 63.3795C183.517 63.0992 184.061 62.9591 184.716 62.9591C185.311 62.9591 185.832 63.0841 186.279 63.3341C186.726 63.5803 187.072 63.9477 187.319 64.4364C187.565 64.925 187.688 65.5292 187.688 66.2489V71.8H185.989V66.4534C185.989 65.8208 185.824 65.3265 185.495 64.9705C185.165 64.6106 184.712 64.4307 184.137 64.4307C183.743 64.4307 183.392 64.5159 183.086 64.6864C182.783 64.8568 182.542 65.1068 182.364 65.4364C182.19 65.7621 182.103 66.1561 182.103 66.6182ZM193.728 71.9761C192.868 71.9761 192.127 71.7924 191.506 71.425C190.889 71.0538 190.411 70.533 190.074 69.8625C189.741 69.1883 189.574 68.3985 189.574 67.4932C189.574 66.5992 189.741 65.8114 190.074 65.1295C190.411 64.4477 190.881 63.9155 191.483 63.533C192.089 63.1504 192.798 62.9591 193.608 62.9591C194.101 62.9591 194.578 63.0405 195.04 63.2034C195.502 63.3663 195.917 63.622 196.284 63.9705C196.652 64.3189 196.942 64.7716 197.154 65.3284C197.366 65.8814 197.472 66.5538 197.472 67.3455V67.9477H190.534V66.675H195.807C195.807 66.228 195.716 65.8322 195.534 65.4875C195.353 65.139 195.097 64.8644 194.767 64.6636C194.442 64.4629 194.059 64.3625 193.62 64.3625C193.142 64.3625 192.726 64.4799 192.37 64.7148C192.017 64.9458 191.745 65.2489 191.551 65.6239C191.362 65.9951 191.267 66.3985 191.267 66.8341V67.8284C191.267 68.4117 191.37 68.908 191.574 69.317C191.783 69.7261 192.072 70.0386 192.444 70.2545C192.815 70.4667 193.248 70.5727 193.745 70.5727C194.067 70.5727 194.36 70.5273 194.625 70.4364C194.891 70.3417 195.12 70.2015 195.313 70.0159C195.506 69.8303 195.654 69.6011 195.756 69.3284L197.364 69.6182C197.235 70.0917 197.004 70.5064 196.671 70.8625C196.341 71.2148 195.926 71.4894 195.426 71.6864C194.93 71.8795 194.364 71.9761 193.728 71.9761ZM199.357 71.8V63.0727H200.988V64.4932H201.096C201.277 64.0121 201.575 63.6371 201.988 63.3682C202.4 63.0955 202.895 62.9591 203.471 62.9591C204.054 62.9591 204.542 63.0955 204.936 63.3682C205.334 63.6409 205.628 64.0159 205.817 64.4932H205.908C206.116 64.0273 206.448 63.6561 206.902 63.3795C207.357 63.0992 207.899 62.9591 208.527 62.9591C209.319 62.9591 209.965 63.2072 210.465 63.7034C210.969 64.1996 211.221 64.9477 211.221 65.9477V71.8H209.522V66.1068C209.522 65.5159 209.361 65.0879 209.039 64.8227C208.717 64.5576 208.332 64.425 207.885 64.425C207.332 64.425 206.902 64.5955 206.596 64.9364C206.289 65.2735 206.135 65.7072 206.135 66.2375V71.8H204.442V65.9989C204.442 65.5254 204.294 65.1447 203.999 64.8568C203.703 64.5689 203.319 64.425 202.846 64.425C202.524 64.425 202.226 64.5102 201.953 64.6807C201.685 64.8474 201.467 65.0803 201.3 65.3795C201.137 65.6788 201.056 66.0254 201.056 66.4193V71.8H199.357ZM217.259 71.9761C216.399 71.9761 215.658 71.7924 215.037 71.425C214.42 71.0538 213.943 70.533 213.605 69.8625C213.272 69.1883 213.105 68.3985 213.105 67.4932C213.105 66.5992 213.272 65.8114 213.605 65.1295C213.943 64.4477 214.412 63.9155 215.015 63.533C215.621 63.1504 216.329 62.9591 217.14 62.9591C217.632 62.9591 218.109 63.0405 218.571 63.2034C219.033 63.3663 219.448 63.622 219.816 63.9705C220.183 64.3189 220.473 64.7716 220.685 65.3284C220.897 65.8814 221.003 66.5538 221.003 67.3455V67.9477H214.066V66.675H219.338C219.338 66.228 219.248 65.8322 219.066 65.4875C218.884 65.139 218.628 64.8644 218.299 64.6636C217.973 64.4629 217.59 64.3625 217.151 64.3625C216.674 64.3625 216.257 64.4799 215.901 64.7148C215.549 64.9458 215.276 65.2489 215.083 65.6239C214.893 65.9951 214.799 66.3985 214.799 66.8341V67.8284C214.799 68.4117 214.901 68.908 215.105 69.317C215.314 69.7261 215.604 70.0386 215.975 70.2545C216.346 70.4667 216.78 70.5727 217.276 70.5727C217.598 70.5727 217.891 70.5273 218.157 70.4364C218.422 70.3417 218.651 70.2015 218.844 70.0159C219.037 69.8303 219.185 69.6011 219.287 69.3284L220.895 69.6182C220.766 70.0917 220.535 70.5064 220.202 70.8625C219.873 71.2148 219.458 71.4894 218.958 71.6864C218.462 71.8795 217.895 71.9761 217.259 71.9761ZM224.587 66.6182V71.8H222.888V63.0727H224.519V64.4932H224.627C224.828 64.0311 225.142 63.6599 225.57 63.3795C226.002 63.0992 226.545 62.9591 227.201 62.9591C227.795 62.9591 228.316 63.0841 228.763 63.3341C229.21 63.5803 229.557 63.9477 229.803 64.4364C230.049 64.925 230.172 65.5292 230.172 66.2489V71.8H228.473V66.4534C228.473 65.8208 228.309 65.3265 227.979 64.9705C227.65 64.6106 227.197 64.4307 226.621 64.4307C226.227 64.4307 225.877 64.5159 225.57 64.6864C225.267 64.8568 225.026 65.1068 224.848 65.4364C224.674 65.7621 224.587 66.1561 224.587 66.6182ZM236.525 63.0727V64.4364H231.757V63.0727H236.525ZM233.036 60.9818H234.735V69.2375C234.735 69.567 234.784 69.8152 234.882 69.9818C234.981 70.1447 235.108 70.2564 235.263 70.317C235.422 70.3739 235.595 70.4023 235.78 70.4023C235.917 70.4023 236.036 70.3928 236.138 70.3739C236.24 70.3549 236.32 70.3398 236.377 70.3284L236.684 71.7318C236.585 71.7697 236.445 71.8076 236.263 71.8455C236.081 71.8871 235.854 71.9099 235.581 71.9136C235.134 71.9212 234.718 71.8417 234.331 71.675C233.945 71.5083 233.632 71.2508 233.394 70.9023C233.155 70.5538 233.036 70.1163 233.036 69.5898V60.9818ZM242.638 71.8V63.0727H244.269V64.4932H244.377C244.559 64.0121 244.856 63.6371 245.269 63.3682C245.682 63.0955 246.176 62.9591 246.752 62.9591C247.335 62.9591 247.824 63.0955 248.218 63.3682C248.615 63.6409 248.909 64.0159 249.098 64.4932H249.189C249.398 64.0273 249.729 63.6561 250.184 63.3795C250.638 63.0992 251.18 62.9591 251.809 62.9591C252.6 62.9591 253.246 63.2072 253.746 63.7034C254.25 64.1996 254.502 64.9477 254.502 65.9477V71.8H252.803V66.1068C252.803 65.5159 252.642 65.0879 252.32 64.8227C251.998 64.5576 251.614 64.425 251.167 64.425C250.614 64.425 250.184 64.5955 249.877 64.9364C249.57 65.2735 249.417 65.7072 249.417 66.2375V71.8H247.723V65.9989C247.723 65.5254 247.576 65.1447 247.28 64.8568C246.985 64.5689 246.6 64.425 246.127 64.425C245.805 64.425 245.507 64.5102 245.235 64.6807C244.966 64.8474 244.748 65.0803 244.581 65.3795C244.418 65.6788 244.337 66.0254 244.337 66.4193V71.8H242.638ZM259.319 71.9932C258.766 71.9932 258.266 71.8909 257.819 71.6864C257.372 71.478 257.017 71.1769 256.756 70.783C256.498 70.389 256.37 69.9061 256.37 69.3341C256.37 68.8417 256.464 68.4364 256.654 68.1182C256.843 67.8 257.099 67.5481 257.421 67.3625C257.743 67.1769 258.103 67.0367 258.5 66.942C258.898 66.8474 259.303 66.7754 259.716 66.7261C260.239 66.6655 260.663 66.6163 260.989 66.5784C261.315 66.5367 261.551 66.4705 261.699 66.3795C261.847 66.2886 261.921 66.1409 261.921 65.9364V65.8966C261.921 65.4004 261.781 65.0159 261.5 64.7432C261.224 64.4705 260.811 64.3341 260.262 64.3341C259.69 64.3341 259.239 64.461 258.909 64.7148C258.584 64.9648 258.358 65.2432 258.233 65.55L256.637 65.1864C256.826 64.6561 257.103 64.228 257.466 63.9023C257.834 63.5727 258.256 63.3341 258.733 63.1864C259.211 63.0349 259.712 62.9591 260.239 62.9591C260.587 62.9591 260.957 63.0008 261.347 63.0841C261.741 63.1636 262.108 63.3114 262.449 63.5273C262.794 63.7432 263.076 64.0519 263.296 64.4534C263.516 64.8511 263.625 65.3682 263.625 66.0045V71.8H261.966V70.6068H261.898C261.788 70.8265 261.623 71.0424 261.404 71.2545C261.184 71.4667 260.902 71.6428 260.557 71.783C260.212 71.9231 259.8 71.9932 259.319 71.9932ZM259.688 70.6295C260.158 70.6295 260.559 70.5367 260.892 70.3511C261.23 70.1655 261.485 69.9231 261.659 69.6239C261.837 69.3208 261.926 68.997 261.926 68.6523V67.5273C261.866 67.5879 261.748 67.6447 261.574 67.6977C261.404 67.747 261.209 67.7905 260.989 67.8284C260.769 67.8625 260.555 67.8947 260.347 67.925C260.139 67.9515 259.964 67.9742 259.824 67.9932C259.495 68.0349 259.194 68.1049 258.921 68.2034C258.652 68.3019 258.436 68.4439 258.273 68.6295C258.114 68.8114 258.034 69.0538 258.034 69.3568C258.034 69.7773 258.19 70.0955 258.5 70.3114C258.811 70.5235 259.207 70.6295 259.688 70.6295ZM265.888 71.8V63.0727H267.53V64.4591H267.621C267.78 63.9894 268.06 63.6201 268.462 63.3511C268.867 63.0784 269.326 62.942 269.837 62.942C269.943 62.942 270.068 62.9458 270.212 62.9534C270.36 62.961 270.475 62.9705 270.559 62.9818V64.6068C270.49 64.5879 270.369 64.567 270.195 64.5443C270.021 64.5178 269.846 64.5045 269.672 64.5045C269.271 64.5045 268.913 64.5898 268.598 64.7602C268.288 64.9269 268.042 65.1599 267.86 65.4591C267.678 65.7545 267.587 66.0917 267.587 66.4705V71.8H265.888ZM273.591 68.8398L273.58 66.7659H273.875L277.353 63.0727H279.387L275.421 67.2773H275.154L273.591 68.8398ZM272.029 71.8V60.1636H273.728V71.8H272.029ZM277.54 71.8L274.415 67.6523L275.586 66.4648L279.625 71.8H277.54ZM284.337 71.9761C283.477 71.9761 282.737 71.7924 282.115 71.425C281.498 71.0538 281.021 70.533 280.684 69.8625C280.35 69.1883 280.184 68.3985 280.184 67.4932C280.184 66.5992 280.35 65.8114 280.684 65.1295C281.021 64.4477 281.49 63.9155 282.093 63.533C282.699 63.1504 283.407 62.9591 284.218 62.9591C284.71 62.9591 285.187 63.0405 285.65 63.2034C286.112 63.3663 286.526 63.622 286.894 63.9705C287.261 64.3189 287.551 64.7716 287.763 65.3284C287.975 65.8814 288.081 66.5538 288.081 67.3455V67.9477H281.144V66.675H286.417C286.417 66.228 286.326 65.8322 286.144 65.4875C285.962 65.139 285.706 64.8644 285.377 64.6636C285.051 64.4629 284.668 64.3625 284.229 64.3625C283.752 64.3625 283.335 64.4799 282.979 64.7148C282.627 64.9458 282.354 65.2489 282.161 65.6239C281.971 65.9951 281.877 66.3985 281.877 66.8341V67.8284C281.877 68.4117 281.979 68.908 282.184 69.317C282.392 69.7261 282.682 70.0386 283.053 70.2545C283.424 70.4667 283.858 70.5727 284.354 70.5727C284.676 70.5727 284.97 70.5273 285.235 70.4364C285.5 70.3417 285.729 70.2015 285.922 70.0159C286.115 69.8303 286.263 69.6011 286.365 69.3284L287.973 69.6182C287.845 70.0917 287.614 70.5064 287.28 70.8625C286.951 71.2148 286.536 71.4894 286.036 71.6864C285.54 71.8795 284.973 71.9761 284.337 71.9761ZM294.04 63.0727V64.4364H289.273V63.0727H294.04ZM290.551 60.9818H292.25V69.2375C292.25 69.567 292.3 69.8152 292.398 69.9818C292.497 70.1447 292.623 70.2564 292.779 70.317C292.938 70.3739 293.11 70.4023 293.296 70.4023C293.432 70.4023 293.551 70.3928 293.654 70.3739C293.756 70.3549 293.836 70.3398 293.892 70.3284L294.199 71.7318C294.101 71.7697 293.961 71.8076 293.779 71.8455C293.597 71.8871 293.37 71.9099 293.097 71.9136C292.65 71.9212 292.233 71.8417 291.847 71.675C291.461 71.5083 291.148 71.2508 290.909 70.9023C290.671 70.5538 290.551 70.1163 290.551 69.5898V60.9818ZM295.919 71.8V63.0727H297.618V71.8H295.919ZM296.777 61.7261C296.482 61.7261 296.228 61.6277 296.016 61.4307C295.808 61.2299 295.703 60.9913 295.703 60.7148C295.703 60.4345 295.808 60.1958 296.016 59.9989C296.228 59.7981 296.482 59.6977 296.777 59.6977C297.073 59.6977 297.325 59.7981 297.533 59.9989C297.745 60.1958 297.851 60.4345 297.851 60.7148C297.851 60.9913 297.745 61.2299 297.533 61.4307C297.325 61.6277 297.073 61.7261 296.777 61.7261ZM301.603 66.6182V71.8H299.904V63.0727H301.534V64.4932H301.642C301.843 64.0311 302.158 63.6599 302.586 63.3795C303.017 63.0992 303.561 62.9591 304.216 62.9591C304.811 62.9591 305.332 63.0841 305.779 63.3341C306.226 63.5803 306.572 63.9477 306.819 64.4364C307.065 64.925 307.188 65.5292 307.188 66.2489V71.8H305.489V66.4534C305.489 65.8208 305.324 65.3265 304.995 64.9705C304.665 64.6106 304.212 64.4307 303.637 64.4307C303.243 64.4307 302.892 64.5159 302.586 64.6864C302.283 64.8568 302.042 65.1068 301.864 65.4364C301.69 65.7621 301.603 66.1561 301.603 66.6182ZM313.125 75.2545C312.432 75.2545 311.836 75.1636 311.336 74.9818C310.839 74.8 310.434 74.5595 310.12 74.2602C309.805 73.961 309.57 73.6333 309.415 73.2773L310.875 72.675C310.978 72.8417 311.114 73.0178 311.284 73.2034C311.459 73.3928 311.694 73.5538 311.989 73.6864C312.288 73.8189 312.673 73.8852 313.142 73.8852C313.786 73.8852 314.319 73.728 314.739 73.4136C315.159 73.103 315.37 72.6068 315.37 71.925V70.2091H315.262C315.159 70.3947 315.012 70.6011 314.819 70.8284C314.629 71.0557 314.368 71.2527 314.034 71.4193C313.701 71.586 313.267 71.6693 312.733 71.6693C312.044 71.6693 311.423 71.5083 310.87 71.1864C310.32 70.8606 309.885 70.3814 309.563 69.7489C309.245 69.1125 309.086 68.3303 309.086 67.4023C309.086 66.4742 309.243 65.6788 309.557 65.0159C309.875 64.353 310.311 63.8455 310.864 63.4932C311.417 63.1371 312.044 62.9591 312.745 62.9591C313.286 62.9591 313.724 63.05 314.057 63.2318C314.391 63.4099 314.65 63.6182 314.836 63.8568C315.025 64.0955 315.171 64.3057 315.273 64.4875H315.398V63.0727H317.063V71.9932C317.063 72.7432 316.889 73.3587 316.54 73.8398C316.192 74.3208 315.72 74.6769 315.125 74.908C314.534 75.139 313.868 75.2545 313.125 75.2545ZM313.108 70.2602C313.597 70.2602 314.01 70.1466 314.347 69.9193C314.688 69.6883 314.945 69.3587 315.12 68.9307C315.298 68.4989 315.387 67.9818 315.387 67.3795C315.387 66.7924 315.3 66.2754 315.125 65.8284C314.951 65.3814 314.695 65.033 314.358 64.783C314.021 64.5292 313.605 64.4023 313.108 64.4023C312.597 64.4023 312.171 64.5349 311.83 64.8C311.489 65.0614 311.231 65.4174 311.057 65.8682C310.887 66.3189 310.801 66.8227 310.801 67.3795C310.801 67.9515 310.889 68.4534 311.063 68.8852C311.237 69.317 311.495 69.6542 311.836 69.8966C312.18 70.139 312.605 70.2602 313.108 70.2602Z" fill="#556DB1"/>
</g>
<defs>
<filter id="filter0_d_528_15215" x="0.000782013" y="3.8147e-06" width="380.6" height="140.6" filterUnits="userSpaceOnUse" color-interpolation-filters="sRGB">
<feFlood flood-opacity="0" result="BackgroundImageFix"/>
<feColorMatrix in="SourceAlpha" type="matrix" values="0 0 0 0 0 0 0 0 0 0 0 0 0 0 0 0 0 0 127 0" result="hardAlpha"/>
<feOffset dy="4"/>
<feGaussianBlur stdDeviation="22.15"/>
<feComposite in2="hardAlpha" operator="out"/>
<feColorMatrix type="matrix" values="0 0 0 0 0 0 0 0 0 0 0 0 0 0 0 0 0 0 0.12 0"/>
<feBlend mode="normal" in2="BackgroundImageFix" result="effect1_dropShadow_528_15215"/>
<feBlend mode="normal" in="SourceGraphic" in2="effect1_dropShadow_528_15215" result="shape"/>
</filter>
</defs>
</svg>
