<svg width="368" height="141" viewBox="0 0 368 141" fill="none" xmlns="http://www.w3.org/2000/svg">
<g filter="url(#filter0_d_528_15207)">
<path d="M44.3008 66.3C44.3008 51.9406 55.9414 40.3 70.3008 40.3H297.301C311.66 40.3 323.301 51.9406 323.301 66.3C323.301 80.6594 311.66 92.3 297.301 92.3H70.3008C55.9414 92.3 44.3008 80.6594 44.3008 66.3Z" fill="white" shape-rendering="crispEdges"/>
<rect x="54.3008" y="50.3" width="32" height="32" rx="16" fill="#FFEDF2"/>
<path d="M63.5508 75.3001L67.1509 71.7001M68.9509 71.7001L72.5509 75.3001M74.8009 65.175L74.9143 65.1066C76.8188 63.9636 77.771 63.393 78.536 63.6684C79.301 63.9447 79.301 64.8591 79.301 66.6879V67.7121C79.301 69.5409 79.301 70.4553 78.536 70.7316C77.771 71.0079 76.8188 70.4355 74.9143 69.2934L74.8009 69.225M61.3008 66.6375C61.3008 64.7817 61.3008 63.8529 62.2233 63.2769C63.1458 62.7009 64.6308 62.7 67.6009 62.7H68.5009C71.4709 62.7 72.9559 62.7 73.8784 63.276C74.8009 63.8538 74.8009 64.7826 74.8009 66.6384V67.7634C74.8009 69.6192 74.8009 70.548 73.8784 71.1241C72.9559 71.7001 71.4709 71.7001 68.5009 71.7001H67.6009C64.6308 71.7001 63.1458 71.7001 62.2233 71.1241C61.3008 70.5462 61.3008 69.6174 61.3008 67.7616V66.6375Z" stroke="#FF2663" stroke-width="0.94738" stroke-linecap="round" stroke-linejoin="round"/>
<path d="M70.75 62.7C71.9927 62.7 73.0001 61.6926 73.0001 60.4499C73.0001 59.2073 71.9927 58.1999 70.75 58.1999C69.5074 58.1999 68.5 59.2073 68.5 60.4499C68.5 61.6926 69.5074 62.7 70.75 62.7Z" stroke="#FF2663" stroke-width="0.94738" stroke-linecap="round" stroke-linejoin="round"/>
<path d="M65.8016 62.7C67.2928 62.7 68.5016 61.4911 68.5016 59.9999C68.5016 58.5088 67.2928 57.2999 65.8016 57.2999C64.3104 57.2999 63.1016 58.5088 63.1016 59.9999C63.1016 61.4911 64.3104 62.7 65.8016 62.7Z" stroke="#FF2663" stroke-width="0.94738" stroke-linecap="round" stroke-linejoin="round"/>
<path d="M98.3647 61.675V60.1636H107.37V61.675H103.74V71.8H101.99V61.675H98.3647ZM111.635 71.9761C110.816 71.9761 110.102 71.7886 109.493 71.4136C108.883 71.0386 108.409 70.514 108.072 69.8398C107.735 69.1655 107.566 68.3777 107.566 67.4761C107.566 66.5708 107.735 65.7792 108.072 65.1011C108.409 64.4231 108.883 63.8966 109.493 63.5216C110.102 63.1466 110.816 62.9591 111.635 62.9591C112.453 62.9591 113.167 63.1466 113.777 63.5216C114.386 63.8966 114.86 64.4231 115.197 65.1011C115.534 65.7792 115.703 66.5708 115.703 67.4761C115.703 68.3777 115.534 69.1655 115.197 69.8398C114.86 70.514 114.386 71.0386 113.777 71.4136C113.167 71.7886 112.453 71.9761 111.635 71.9761ZM111.64 70.55C112.171 70.55 112.61 70.4099 112.958 70.1295C113.307 69.8492 113.565 69.4761 113.731 69.0102C113.902 68.5443 113.987 68.0311 113.987 67.4705C113.987 66.9136 113.902 66.4023 113.731 65.9364C113.565 65.4667 113.307 65.0898 112.958 64.8057C112.61 64.5216 112.171 64.3795 111.64 64.3795C111.106 64.3795 110.663 64.5216 110.311 64.8057C109.962 65.0898 109.703 65.4667 109.532 65.9364C109.366 66.4023 109.282 66.9136 109.282 67.4705C109.282 68.0311 109.366 68.5443 109.532 69.0102C109.703 69.4761 109.962 69.8492 110.311 70.1295C110.663 70.4099 111.106 70.55 111.64 70.55ZM123.127 68.1807V63.0727H124.832V71.8H123.162V70.2886H123.071C122.87 70.7545 122.548 71.1428 122.105 71.4534C121.665 71.7602 121.118 71.9136 120.463 71.9136C119.902 71.9136 119.406 71.7905 118.974 71.5443C118.546 71.2943 118.209 70.925 117.963 70.4364C117.72 69.9477 117.599 69.3436 117.599 68.6239V63.0727H119.298V68.4193C119.298 69.014 119.463 69.4875 119.792 69.8398C120.122 70.192 120.55 70.3682 121.076 70.3682C121.395 70.3682 121.711 70.2886 122.025 70.1295C122.343 69.9705 122.607 69.7299 122.815 69.408C123.027 69.086 123.131 68.6769 123.127 68.1807ZM127.115 71.8V63.0727H128.757V64.4591H128.848C129.007 63.9894 129.287 63.6201 129.689 63.3511C130.094 63.0784 130.552 62.942 131.064 62.942C131.17 62.942 131.295 62.9458 131.439 62.9534C131.586 62.961 131.702 62.9705 131.785 62.9818V64.6068C131.717 64.5879 131.596 64.567 131.422 64.5443C131.247 64.5178 131.073 64.5045 130.899 64.5045C130.497 64.5045 130.139 64.5898 129.825 64.7602C129.514 64.9269 129.268 65.1599 129.086 65.4591C128.904 65.7545 128.814 66.0917 128.814 66.4705V71.8H127.115ZM134.954 66.6182V71.8H133.255V63.0727H134.886V64.4932H134.994C135.195 64.0311 135.509 63.6599 135.937 63.3795C136.369 63.0992 136.913 62.9591 137.568 62.9591C138.163 62.9591 138.683 63.0841 139.13 63.3341C139.577 63.5803 139.924 63.9477 140.17 64.4364C140.416 64.925 140.539 65.5292 140.539 66.2489V71.8H138.841V66.4534C138.841 65.8208 138.676 65.3265 138.346 64.9705C138.017 64.6106 137.564 64.4307 136.988 64.4307C136.594 64.4307 136.244 64.5159 135.937 64.6864C135.634 64.8568 135.394 65.1068 135.216 65.4364C135.041 65.7621 134.954 66.1561 134.954 66.6182ZM145.358 71.9932C144.805 71.9932 144.305 71.8909 143.858 71.6864C143.411 71.478 143.056 71.1769 142.795 70.783C142.538 70.389 142.409 69.9061 142.409 69.3341C142.409 68.8417 142.503 68.4364 142.693 68.1182C142.882 67.8 143.138 67.5481 143.46 67.3625C143.782 67.1769 144.142 67.0367 144.539 66.942C144.937 66.8474 145.342 66.7754 145.755 66.7261C146.278 66.6655 146.702 66.6163 147.028 66.5784C147.354 66.5367 147.591 66.4705 147.738 66.3795C147.886 66.2886 147.96 66.1409 147.96 65.9364V65.8966C147.96 65.4004 147.82 65.0159 147.539 64.7432C147.263 64.4705 146.85 64.3341 146.301 64.3341C145.729 64.3341 145.278 64.461 144.949 64.7148C144.623 64.9648 144.397 65.2432 144.272 65.55L142.676 65.1864C142.865 64.6561 143.142 64.228 143.505 63.9023C143.873 63.5727 144.295 63.3341 144.772 63.1864C145.25 63.0349 145.752 62.9591 146.278 62.9591C146.627 62.9591 146.996 63.0008 147.386 63.0841C147.78 63.1636 148.147 63.3114 148.488 63.5273C148.833 63.7432 149.115 64.0519 149.335 64.4534C149.555 64.8511 149.664 65.3682 149.664 66.0045V71.8H148.005V70.6068H147.937C147.827 70.8265 147.663 71.0424 147.443 71.2545C147.223 71.4667 146.941 71.6428 146.596 71.783C146.252 71.9231 145.839 71.9932 145.358 71.9932ZM145.727 70.6295C146.197 70.6295 146.598 70.5367 146.931 70.3511C147.269 70.1655 147.524 69.9231 147.699 69.6239C147.877 69.3208 147.966 68.997 147.966 68.6523V67.5273C147.905 67.5879 147.788 67.6447 147.613 67.6977C147.443 67.747 147.248 67.7905 147.028 67.8284C146.808 67.8625 146.594 67.8947 146.386 67.925C146.178 67.9515 146.003 67.9742 145.863 67.9932C145.534 68.0349 145.233 68.1049 144.96 68.2034C144.691 68.3019 144.475 68.4439 144.312 68.6295C144.153 68.8114 144.074 69.0538 144.074 69.3568C144.074 69.7773 144.229 70.0955 144.539 70.3114C144.85 70.5235 145.246 70.6295 145.727 70.6295ZM155.586 75.2545C154.893 75.2545 154.297 75.1636 153.797 74.9818C153.3 74.8 152.895 74.5595 152.581 74.2602C152.266 73.961 152.031 73.6333 151.876 73.2773L153.336 72.675C153.439 72.8417 153.575 73.0178 153.745 73.2034C153.92 73.3928 154.154 73.5538 154.45 73.6864C154.749 73.8189 155.134 73.8852 155.603 73.8852C156.247 73.8852 156.779 73.728 157.2 73.4136C157.62 73.103 157.831 72.6068 157.831 71.925V70.2091H157.723C157.62 70.3947 157.473 70.6011 157.279 70.8284C157.09 71.0557 156.829 71.2527 156.495 71.4193C156.162 71.586 155.728 71.6693 155.194 71.6693C154.505 71.6693 153.884 71.5083 153.331 71.1864C152.781 70.8606 152.346 70.3814 152.024 69.7489C151.706 69.1125 151.547 68.3303 151.547 67.4023C151.547 66.4742 151.704 65.6788 152.018 65.0159C152.336 64.353 152.772 63.8455 153.325 63.4932C153.878 63.1371 154.505 62.9591 155.206 62.9591C155.747 62.9591 156.185 63.05 156.518 63.2318C156.851 63.4099 157.111 63.6182 157.297 63.8568C157.486 64.0955 157.632 64.3057 157.734 64.4875H157.859V63.0727H159.524V71.9932C159.524 72.7432 159.35 73.3587 159.001 73.8398C158.653 74.3208 158.181 74.6769 157.586 74.908C156.995 75.139 156.329 75.2545 155.586 75.2545ZM155.569 70.2602C156.058 70.2602 156.471 70.1466 156.808 69.9193C157.149 69.6883 157.406 69.3587 157.581 68.9307C157.759 68.4989 157.848 67.9818 157.848 67.3795C157.848 66.7924 157.761 66.2754 157.586 65.8284C157.412 65.3814 157.156 65.033 156.819 64.783C156.482 64.5292 156.065 64.4023 155.569 64.4023C155.058 64.4023 154.632 64.5349 154.291 64.8C153.95 65.0614 153.692 65.4174 153.518 65.8682C153.348 66.3189 153.262 66.8227 153.262 67.3795C153.262 67.9515 153.35 68.4534 153.524 68.8852C153.698 69.317 153.956 69.6542 154.297 69.8966C154.641 70.139 155.065 70.2602 155.569 70.2602ZM165.564 71.9761C164.704 71.9761 163.963 71.7924 163.342 71.425C162.725 71.0538 162.247 70.533 161.91 69.8625C161.577 69.1883 161.41 68.3985 161.41 67.4932C161.41 66.5992 161.577 65.8114 161.91 65.1295C162.247 64.4477 162.717 63.9155 163.319 63.533C163.925 63.1504 164.634 62.9591 165.444 62.9591C165.937 62.9591 166.414 63.0405 166.876 63.2034C167.338 63.3663 167.753 63.622 168.12 63.9705C168.488 64.3189 168.778 64.7716 168.99 65.3284C169.202 65.8814 169.308 66.5538 169.308 67.3455V67.9477H162.37V66.675H167.643C167.643 66.228 167.552 65.8322 167.37 65.4875C167.189 65.139 166.933 64.8644 166.603 64.6636C166.278 64.4629 165.895 64.3625 165.456 64.3625C164.978 64.3625 164.562 64.4799 164.206 64.7148C163.853 64.9458 163.581 65.2489 163.387 65.6239C163.198 65.9951 163.103 66.3985 163.103 66.8341V67.8284C163.103 68.4117 163.206 68.908 163.41 69.317C163.618 69.7261 163.908 70.0386 164.279 70.2545C164.651 70.4667 165.084 70.5727 165.581 70.5727C165.903 70.5727 166.196 70.5273 166.461 70.4364C166.726 70.3417 166.956 70.2015 167.149 70.0159C167.342 69.8303 167.49 69.6011 167.592 69.3284L169.2 69.6182C169.071 70.0917 168.84 70.5064 168.507 70.8625C168.177 71.2148 167.762 71.4894 167.262 71.6864C166.766 71.8795 166.2 71.9761 165.564 71.9761ZM178.814 71.9648C178.033 71.9648 177.361 71.8227 176.797 71.5386C176.236 71.2545 175.804 70.8682 175.501 70.3795C175.198 69.8871 175.047 69.3303 175.047 68.7091C175.047 68.2356 175.145 67.8152 175.342 67.4477C175.539 67.0765 175.814 66.7337 176.166 66.4193C176.518 66.1049 176.925 65.7886 177.387 65.4705L179.262 64.1466C179.581 63.9383 179.829 63.7186 180.007 63.4875C180.185 63.2527 180.274 62.9629 180.274 62.6182C180.274 62.3455 180.156 62.0841 179.922 61.8341C179.687 61.5841 179.372 61.4591 178.978 61.4591C178.706 61.4591 178.465 61.5254 178.257 61.658C178.052 61.7905 177.891 61.961 177.774 62.1693C177.66 62.3739 177.603 62.5898 177.603 62.817C177.603 63.0822 177.675 63.3492 177.819 63.6182C177.967 63.8871 178.156 64.1655 178.387 64.4534C178.618 64.7375 178.861 65.033 179.115 65.3398L184.518 71.8H182.598L178.126 66.5443C177.751 66.1011 177.403 65.6845 177.081 65.2943C176.759 64.9004 176.497 64.5027 176.297 64.1011C176.1 63.6958 176.001 63.2583 176.001 62.7886C176.001 62.2545 176.122 61.7811 176.365 61.3682C176.611 60.9515 176.954 60.6258 177.393 60.3909C177.833 60.1561 178.348 60.0386 178.939 60.0386C179.537 60.0386 180.05 60.1561 180.478 60.3909C180.91 60.622 181.242 60.9307 181.473 61.317C181.708 61.6996 181.825 62.1182 181.825 62.5727C181.825 63.1258 181.687 63.6144 181.41 64.0386C181.137 64.4591 180.761 64.8455 180.279 65.1977L177.944 66.9193C177.49 67.2527 177.173 67.5822 176.995 67.908C176.821 68.2299 176.734 68.4818 176.734 68.6636C176.734 68.997 176.819 69.3057 176.99 69.5898C177.164 69.8739 177.406 70.1011 177.717 70.2716C178.031 70.442 178.399 70.5273 178.819 70.5273C179.251 70.5273 179.672 70.4345 180.081 70.2489C180.493 70.0595 180.867 69.7886 181.2 69.4364C181.537 69.0841 181.804 68.6617 182.001 68.1693C182.198 67.6769 182.297 67.1258 182.297 66.5159H183.831C183.831 67.2659 183.745 67.9004 183.575 68.4193C183.404 68.9345 183.198 69.3549 182.956 69.6807C182.717 70.0027 182.492 70.2545 182.279 70.4364C182.211 70.497 182.147 70.5576 182.086 70.6182C182.026 70.6788 181.961 70.7394 181.893 70.8C181.499 71.1977 181.022 71.4913 180.461 71.6807C179.904 71.8701 179.355 71.9648 178.814 71.9648ZM190.083 71.8V63.0727H191.714V64.4932H191.822C192.004 64.0121 192.301 63.6371 192.714 63.3682C193.127 63.0955 193.621 62.9591 194.197 62.9591C194.78 62.9591 195.269 63.0955 195.663 63.3682C196.061 63.6409 196.354 64.0159 196.544 64.4932H196.635C196.843 64.0273 197.174 63.6561 197.629 63.3795C198.083 63.0992 198.625 62.9591 199.254 62.9591C200.046 62.9591 200.691 63.2072 201.191 63.7034C201.695 64.1996 201.947 64.9477 201.947 65.9477V71.8H200.248V66.1068C200.248 65.5159 200.087 65.0879 199.765 64.8227C199.443 64.5576 199.059 64.425 198.612 64.425C198.059 64.425 197.629 64.5955 197.322 64.9364C197.015 65.2735 196.862 65.7072 196.862 66.2375V71.8H195.169V65.9989C195.169 65.5254 195.021 65.1447 194.725 64.8568C194.43 64.5689 194.046 64.425 193.572 64.425C193.25 64.425 192.953 64.5102 192.68 64.6807C192.411 64.8474 192.193 65.0803 192.027 65.3795C191.864 65.6788 191.782 66.0254 191.782 66.4193V71.8H190.083ZM207.9 71.9761C207.082 71.9761 206.368 71.7886 205.758 71.4136C205.148 71.0386 204.675 70.514 204.338 69.8398C204.001 69.1655 203.832 68.3777 203.832 67.4761C203.832 66.5708 204.001 65.7792 204.338 65.1011C204.675 64.4231 205.148 63.8966 205.758 63.5216C206.368 63.1466 207.082 62.9591 207.9 62.9591C208.718 62.9591 209.432 63.1466 210.042 63.5216C210.652 63.8966 211.126 64.4231 211.463 65.1011C211.8 65.7792 211.968 66.5708 211.968 67.4761C211.968 68.3777 211.8 69.1655 211.463 69.8398C211.126 70.514 210.652 71.0386 210.042 71.4136C209.432 71.7886 208.718 71.9761 207.9 71.9761ZM207.906 70.55C208.436 70.55 208.876 70.4099 209.224 70.1295C209.573 69.8492 209.83 69.4761 209.997 69.0102C210.167 68.5443 210.252 68.0311 210.252 67.4705C210.252 66.9136 210.167 66.4023 209.997 65.9364C209.83 65.4667 209.573 65.0898 209.224 64.8057C208.876 64.5216 208.436 64.3795 207.906 64.3795C207.372 64.3795 206.929 64.5216 206.576 64.8057C206.228 65.0898 205.968 65.4667 205.798 65.9364C205.631 66.4023 205.548 66.9136 205.548 67.4705C205.548 68.0311 205.631 68.5443 205.798 69.0102C205.968 69.4761 206.228 69.8492 206.576 70.1295C206.929 70.4099 207.372 70.55 207.906 70.55ZM215.564 66.6182V71.8H213.865V63.0727H215.495V64.4932H215.603C215.804 64.0311 216.118 63.6599 216.547 63.3795C216.978 63.0992 217.522 62.9591 218.177 62.9591C218.772 62.9591 219.293 63.0841 219.74 63.3341C220.187 63.5803 220.533 63.9477 220.779 64.4364C221.026 64.925 221.149 65.5292 221.149 66.2489V71.8H219.45V66.4534C219.45 65.8208 219.285 65.3265 218.956 64.9705C218.626 64.6106 218.173 64.4307 217.598 64.4307C217.204 64.4307 216.853 64.5159 216.547 64.6864C216.243 64.8568 216.003 65.1068 215.825 65.4364C215.651 65.7621 215.564 66.1561 215.564 66.6182ZM227.501 63.0727V64.4364H222.734V63.0727H227.501ZM224.012 60.9818H225.711V69.2375C225.711 69.567 225.761 69.8152 225.859 69.9818C225.958 70.1447 226.084 70.2564 226.24 70.317C226.399 70.3739 226.571 70.4023 226.757 70.4023C226.893 70.4023 227.012 70.3928 227.115 70.3739C227.217 70.3549 227.297 70.3398 227.353 70.3284L227.66 71.7318C227.562 71.7697 227.422 71.8076 227.24 71.8455C227.058 71.8871 226.831 71.9099 226.558 71.9136C226.111 71.9212 225.694 71.8417 225.308 71.675C224.922 71.5083 224.609 71.2508 224.37 70.9023C224.132 70.5538 224.012 70.1163 224.012 69.5898V60.9818ZM231.92 71.9932C231.367 71.9932 230.867 71.8909 230.42 71.6864C229.973 71.478 229.619 71.1769 229.358 70.783C229.1 70.389 228.971 69.9061 228.971 69.3341C228.971 68.8417 229.066 68.4364 229.255 68.1182C229.445 67.8 229.7 67.5481 230.022 67.3625C230.344 67.1769 230.704 67.0367 231.102 66.942C231.5 66.8474 231.905 66.7754 232.318 66.7261C232.841 66.6655 233.265 66.6163 233.591 66.5784C233.916 66.5367 234.153 66.4705 234.301 66.3795C234.449 66.2886 234.522 66.1409 234.522 65.9364V65.8966C234.522 65.4004 234.382 65.0159 234.102 64.7432C233.825 64.4705 233.413 64.3341 232.863 64.3341C232.291 64.3341 231.841 64.461 231.511 64.7148C231.185 64.9648 230.96 65.2432 230.835 65.55L229.238 65.1864C229.428 64.6561 229.704 64.228 230.068 63.9023C230.435 63.5727 230.858 63.3341 231.335 63.1864C231.812 63.0349 232.314 62.9591 232.841 62.9591C233.189 62.9591 233.558 63.0008 233.949 63.0841C234.342 63.1636 234.71 63.3114 235.051 63.5273C235.395 63.7432 235.678 64.0519 235.897 64.4534C236.117 64.8511 236.227 65.3682 236.227 66.0045V71.8H234.568V70.6068H234.5C234.39 70.8265 234.225 71.0424 234.005 71.2545C233.786 71.4667 233.503 71.6428 233.159 71.783C232.814 71.9231 232.401 71.9932 231.92 71.9932ZM232.289 70.6295C232.759 70.6295 233.161 70.5367 233.494 70.3511C233.831 70.1655 234.087 69.9231 234.261 69.6239C234.439 69.3208 234.528 68.997 234.528 68.6523V67.5273C234.467 67.5879 234.35 67.6447 234.176 67.6977C234.005 67.747 233.81 67.7905 233.591 67.8284C233.371 67.8625 233.157 67.8947 232.949 67.925C232.74 67.9515 232.566 67.9742 232.426 67.9932C232.096 68.0349 231.795 68.1049 231.522 68.2034C231.253 68.3019 231.038 68.4439 230.875 68.6295C230.716 68.8114 230.636 69.0538 230.636 69.3568C230.636 69.7773 230.791 70.0955 231.102 70.3114C231.413 70.5235 231.808 70.6295 232.289 70.6295ZM242.149 75.2545C241.456 75.2545 240.859 75.1636 240.359 74.9818C239.863 74.8 239.458 74.5595 239.143 74.2602C238.829 73.961 238.594 73.6333 238.439 73.2773L239.899 72.675C240.001 72.8417 240.137 73.0178 240.308 73.2034C240.482 73.3928 240.717 73.5538 241.012 73.6864C241.312 73.8189 241.696 73.8852 242.166 73.8852C242.81 73.8852 243.342 73.728 243.762 73.4136C244.183 73.103 244.393 72.6068 244.393 71.925V70.2091H244.285C244.183 70.3947 244.035 70.6011 243.842 70.8284C243.653 71.0557 243.391 71.2527 243.058 71.4193C242.725 71.586 242.291 71.6693 241.757 71.6693C241.067 71.6693 240.446 71.5083 239.893 71.1864C239.344 70.8606 238.908 70.3814 238.586 69.7489C238.268 69.1125 238.109 68.3303 238.109 67.4023C238.109 66.4742 238.266 65.6788 238.581 65.0159C238.899 64.353 239.334 63.8455 239.887 63.4932C240.44 63.1371 241.067 62.9591 241.768 62.9591C242.31 62.9591 242.747 63.05 243.081 63.2318C243.414 63.4099 243.673 63.6182 243.859 63.8568C244.048 64.0955 244.194 64.3057 244.297 64.4875H244.422V63.0727H246.086V71.9932C246.086 72.7432 245.912 73.3587 245.564 73.8398C245.215 74.3208 244.743 74.6769 244.149 74.908C243.558 75.139 242.891 75.2545 242.149 75.2545ZM242.132 70.2602C242.62 70.2602 243.033 70.1466 243.37 69.9193C243.711 69.6883 243.969 69.3587 244.143 68.9307C244.321 68.4989 244.41 67.9818 244.41 67.3795C244.41 66.7924 244.323 66.2754 244.149 65.8284C243.975 65.3814 243.719 65.033 243.382 64.783C243.045 64.5292 242.628 64.4023 242.132 64.4023C241.62 64.4023 241.194 64.5349 240.853 64.8C240.512 65.0614 240.255 65.4174 240.081 65.8682C239.91 66.3189 239.825 66.8227 239.825 67.3795C239.825 67.9515 239.912 68.4534 240.086 68.8852C240.261 69.317 240.518 69.6542 240.859 69.8966C241.204 70.139 241.628 70.2602 242.132 70.2602ZM252.126 71.9761C251.266 71.9761 250.526 71.7924 249.904 71.425C249.287 71.0538 248.81 70.533 248.473 69.8625C248.139 69.1883 247.973 68.3985 247.973 67.4932C247.973 66.5992 248.139 65.8114 248.473 65.1295C248.81 64.4477 249.279 63.9155 249.882 63.533C250.488 63.1504 251.196 62.9591 252.007 62.9591C252.499 62.9591 252.976 63.0405 253.439 63.2034C253.901 63.3663 254.315 63.622 254.683 63.9705C255.05 64.3189 255.34 64.7716 255.552 65.3284C255.764 65.8814 255.87 66.5538 255.87 67.3455V67.9477H248.933V66.675H254.206C254.206 66.228 254.115 65.8322 253.933 65.4875C253.751 65.139 253.495 64.8644 253.166 64.6636C252.84 64.4629 252.458 64.3625 252.018 64.3625C251.541 64.3625 251.124 64.4799 250.768 64.7148C250.416 64.9458 250.143 65.2489 249.95 65.6239C249.761 65.9951 249.666 66.3985 249.666 66.8341V67.8284C249.666 68.4117 249.768 68.908 249.973 69.317C250.181 69.7261 250.471 70.0386 250.842 70.2545C251.213 70.4667 251.647 70.5727 252.143 70.5727C252.465 70.5727 252.759 70.5273 253.024 70.4364C253.289 70.3417 253.518 70.2015 253.711 70.0159C253.904 69.8303 254.052 69.6011 254.154 69.3284L255.762 69.6182C255.634 70.0917 255.403 70.5064 255.069 70.8625C254.74 71.2148 254.325 71.4894 253.825 71.6864C253.329 71.8795 252.762 71.9761 252.126 71.9761ZM269.456 63.0727L266.291 71.8H264.473L261.302 63.0727H263.126L265.336 69.7886H265.427L267.632 63.0727H269.456ZM271.052 71.8V63.0727H272.751V71.8H271.052ZM271.91 61.7261C271.615 61.7261 271.361 61.6277 271.149 61.4307C270.94 61.2299 270.836 60.9913 270.836 60.7148C270.836 60.4345 270.94 60.1958 271.149 59.9989C271.361 59.7981 271.615 59.6977 271.91 59.6977C272.206 59.6977 272.458 59.7981 272.666 59.9989C272.878 60.1958 272.984 60.4345 272.984 60.7148C272.984 60.9913 272.878 61.2299 272.666 61.4307C272.458 61.6277 272.206 61.7261 271.91 61.7261ZM278.304 71.9705C277.599 71.9705 276.97 71.7905 276.417 71.4307C275.868 71.067 275.436 70.55 275.122 69.8795C274.811 69.2053 274.656 68.3966 274.656 67.4534C274.656 66.5102 274.813 65.7034 275.127 65.033C275.446 64.3625 275.881 63.8492 276.434 63.4932C276.987 63.1371 277.614 62.9591 278.315 62.9591C278.857 62.9591 279.292 63.05 279.622 63.2318C279.955 63.4099 280.213 63.6182 280.395 63.8568C280.58 64.0955 280.724 64.3057 280.826 64.4875H280.929V60.1636H282.627V71.8H280.968V70.442H280.826C280.724 70.6277 280.576 70.8398 280.383 71.0784C280.194 71.317 279.932 71.5254 279.599 71.7034C279.266 71.8814 278.834 71.9705 278.304 71.9705ZM278.679 70.5216C279.167 70.5216 279.58 70.3928 279.917 70.1352C280.258 69.8739 280.516 69.5121 280.69 69.05C280.868 68.5879 280.957 68.05 280.957 67.4364C280.957 66.8303 280.87 66.3 280.696 65.8455C280.521 65.3909 280.266 65.0367 279.929 64.783C279.592 64.5292 279.175 64.4023 278.679 64.4023C278.167 64.4023 277.741 64.5349 277.4 64.8C277.059 65.0652 276.802 65.4269 276.627 65.8852C276.457 66.3436 276.372 66.8606 276.372 67.4364C276.372 68.0197 276.459 68.5443 276.633 69.0102C276.807 69.4761 277.065 69.8455 277.406 70.1182C277.751 70.3871 278.175 70.5216 278.679 70.5216ZM288.814 71.9761C287.954 71.9761 287.213 71.7924 286.592 71.425C285.975 71.0538 285.497 70.533 285.16 69.8625C284.827 69.1883 284.66 68.3985 284.66 67.4932C284.66 66.5992 284.827 65.8114 285.16 65.1295C285.497 64.4477 285.967 63.9155 286.569 63.533C287.175 63.1504 287.884 62.9591 288.694 62.9591C289.187 62.9591 289.664 63.0405 290.126 63.2034C290.588 63.3663 291.003 63.622 291.37 63.9705C291.738 64.3189 292.028 64.7716 292.24 65.3284C292.452 65.8814 292.558 66.5538 292.558 67.3455V67.9477H285.62V66.675H290.893C290.893 66.228 290.802 65.8322 290.62 65.4875C290.439 65.139 290.183 64.8644 289.853 64.6636C289.528 64.4629 289.145 64.3625 288.706 64.3625C288.228 64.3625 287.812 64.4799 287.456 64.7148C287.103 64.9458 286.831 65.2489 286.637 65.6239C286.448 65.9951 286.353 66.3985 286.353 66.8341V67.8284C286.353 68.4117 286.456 68.908 286.66 69.317C286.868 69.7261 287.158 70.0386 287.529 70.2545C287.901 70.4667 288.334 70.5727 288.831 70.5727C289.153 70.5727 289.446 70.5273 289.711 70.4364C289.976 70.3417 290.206 70.2015 290.399 70.0159C290.592 69.8303 290.74 69.6011 290.842 69.3284L292.45 69.6182C292.321 70.0917 292.09 70.5064 291.757 70.8625C291.427 71.2148 291.012 71.4894 290.512 71.6864C290.016 71.8795 289.45 71.9761 288.814 71.9761ZM287.927 61.908L289.257 59.2886H291.047L289.285 61.908H287.927ZM298.119 71.9761C297.301 71.9761 296.587 71.7886 295.977 71.4136C295.367 71.0386 294.894 70.514 294.556 69.8398C294.219 69.1655 294.051 68.3777 294.051 67.4761C294.051 66.5708 294.219 65.7792 294.556 65.1011C294.894 64.4231 295.367 63.8966 295.977 63.5216C296.587 63.1466 297.301 62.9591 298.119 62.9591C298.937 62.9591 299.651 63.1466 300.261 63.5216C300.871 63.8966 301.344 64.4231 301.681 65.1011C302.019 65.7792 302.187 66.5708 302.187 67.4761C302.187 68.3777 302.019 69.1655 301.681 69.8398C301.344 70.514 300.871 71.0386 300.261 71.4136C299.651 71.7886 298.937 71.9761 298.119 71.9761ZM298.125 70.55C298.655 70.55 299.094 70.4099 299.443 70.1295C299.791 69.8492 300.049 69.4761 300.216 69.0102C300.386 68.5443 300.471 68.0311 300.471 67.4705C300.471 66.9136 300.386 66.4023 300.216 65.9364C300.049 65.4667 299.791 65.0898 299.443 64.8057C299.094 64.5216 298.655 64.3795 298.125 64.3795C297.591 64.3795 297.147 64.5216 296.795 64.8057C296.447 65.0898 296.187 65.4667 296.017 65.9364C295.85 66.4023 295.767 66.9136 295.767 67.4705C295.767 68.0311 295.85 68.5443 296.017 69.0102C296.187 69.4761 296.447 69.8492 296.795 70.1295C297.147 70.4099 297.591 70.55 298.125 70.55Z" fill="#556DB1"/>
</g>
<defs>
<filter id="filter0_d_528_15207" x="0.000782013" y="3.8147e-06" width="367.6" height="140.6" filterUnits="userSpaceOnUse" color-interpolation-filters="sRGB">
<feFlood flood-opacity="0" result="BackgroundImageFix"/>
<feColorMatrix in="SourceAlpha" type="matrix" values="0 0 0 0 0 0 0 0 0 0 0 0 0 0 0 0 0 0 127 0" result="hardAlpha"/>
<feOffset dy="4"/>
<feGaussianBlur stdDeviation="22.15"/>
<feComposite in2="hardAlpha" operator="out"/>
<feColorMatrix type="matrix" values="0 0 0 0 0 0 0 0 0 0 0 0 0 0 0 0 0 0 0.12 0"/>
<feBlend mode="normal" in2="BackgroundImageFix" result="effect1_dropShadow_528_15207"/>
<feBlend mode="normal" in="SourceGraphic" in2="effect1_dropShadow_528_15207" result="shape"/>
</filter>
</defs>
</svg>
