<svg width="168" height="97" viewBox="0 0 168 97" fill="none" xmlns="http://www.w3.org/2000/svg">
<rect y="0.790244" width="166.947" height="95.5757" rx="7.44746" transform="rotate(-0.271211 0 0.790244)" fill="url(#paint0_linear_347_7256)"/>
<mask id="mask0_347_7256" style="mask-type:alpha" maskUnits="userSpaceOnUse" x="0" y="0" width="168" height="97">
<rect y="0.790244" width="166.947" height="95.5757" rx="7.44746" transform="rotate(-0.271211 0 0.790244)" fill="url(#paint1_linear_347_7256)"/>
</mask>
<g mask="url(#mask0_347_7256)">
<rect x="39.543" y="18.0568" width="136.593" height="90.3033" rx="4.55311" transform="rotate(-0.271211 39.543 18.0568)" fill="white"/>
<rect x="38.0181" y="16.5463" width="139.629" height="93.3387" rx="6.07081" transform="rotate(-0.271211 38.0181 16.5463)" stroke="white" stroke-opacity="0.12" stroke-width="3.0354"/>
<g clip-path="url(#clip0_347_7256)">
<path d="M49.1565 24.4027C49.089 23.5424 48.3308 22.8857 47.437 22.8899L46.2271 22.8956C46.158 22.896 46.093 22.9277 46.0518 22.9813C46.0301 23.0088 46.0083 23.0364 45.9862 23.0639C45.9826 23.0689 45.9786 23.0738 45.9744 23.0785L45.973 23.0785C45.9103 23.1484 45.8007 23.1561 45.7283 23.0956C45.7151 23.0845 45.7037 23.0716 45.6945 23.0573L45.6945 23.0554C45.6919 23.0513 45.6896 23.0469 45.6874 23.0428L45.536 22.7724L45.1857 22.1667C45.2101 22.1499 45.2301 22.1278 45.2442 22.1022C45.2583 22.0757 45.2659 22.0464 45.2663 22.0165C45.2661 21.9157 45.1851 21.8322 45.0809 21.8253C45.0618 21.8242 45.0426 21.8258 45.024 21.8302L45.0226 21.8256L45.0226 21.8311C44.9807 21.8414 44.9434 21.8649 44.9166 21.8977C44.8493 21.9793 44.8632 22.098 44.9476 22.163C44.9701 22.1803 44.9963 22.1927 45.0244 22.1991L45.036 24.6631C45.0426 25.4989 45.7472 26.1725 46.613 26.1708L47.4719 26.1667C48.4117 26.1597 49.168 25.4186 49.1611 24.5114C49.1608 24.475 49.1593 24.4387 49.1565 24.4024L49.1565 24.4027ZM48.7022 24.5225C48.703 25.1163 48.2071 25.5994 47.592 25.6041L46.5942 25.6088C45.9792 25.6099 45.4788 25.1315 45.4741 24.5378C45.473 23.944 45.9689 23.4607 46.584 23.456L47.5818 23.4513C48.197 23.4502 48.6975 23.9287 48.7022 24.5225Z" fill="url(#paint2_linear_347_7256)"/>
<path d="M47.5722 24.7947C47.7245 24.794 47.8474 24.6742 47.8467 24.5272C47.846 24.3802 47.722 24.2616 47.5697 24.2623C47.4174 24.263 47.2945 24.3828 47.2952 24.5298C47.2959 24.6768 47.4199 24.7954 47.5722 24.7947Z" fill="#171656"/>
<path d="M46.6074 24.7992C46.7597 24.7985 46.8826 24.6787 46.8819 24.5317C46.8812 24.3847 46.7572 24.2661 46.6049 24.2668C46.4526 24.2676 46.3297 24.3873 46.3304 24.5343C46.3311 24.6814 46.4551 24.7999 46.6074 24.7992Z" fill="#171656"/>
<path d="M51.8205 24.6728C51.8224 25.0757 51.4993 25.4035 51.0988 25.4054C50.9652 25.406 50.8342 25.3698 50.7213 25.301C50.6821 25.39 50.5756 25.4315 50.4834 25.3937C50.4169 25.3664 50.3735 25.3035 50.373 25.2337L50.3653 23.6009C50.3608 23.5043 50.4384 23.4225 50.5385 23.4182C50.6385 23.4139 50.7232 23.4887 50.7277 23.5853C50.7279 23.59 50.7279 23.5946 50.7277 23.5992L50.7298 24.0465C50.8389 23.9822 50.9641 23.9479 51.0919 23.9474C51.4924 23.9455 51.8186 24.2702 51.8205 24.6728ZM51.4578 24.6745C51.4568 24.4651 51.2937 24.2963 51.0935 24.2973C50.8934 24.2982 50.7318 24.4686 50.7328 24.678C50.7338 24.8873 50.897 25.0564 51.0971 25.0555C51.2972 25.0546 51.4588 24.8839 51.4578 24.6745Z" fill="#171656"/>
<path d="M52.0015 24.6721C51.9996 24.2695 52.3224 23.9417 52.723 23.9398C53.1235 23.9379 53.4495 24.2626 53.4514 24.6652C53.4533 25.0678 53.1302 25.3959 52.7299 25.3978C52.3296 25.3997 52.0034 25.0749 52.0015 24.6721ZM53.0889 24.6669C53.0879 24.4575 52.9248 24.2887 52.7246 24.2897C52.5245 24.2906 52.3641 24.461 52.3651 24.6703C52.3661 24.8797 52.5292 25.0488 52.7294 25.0479C52.9295 25.0469 53.0899 24.8763 53.0889 24.6669L53.0889 24.6669Z" fill="#171656"/>
<path d="M54.7318 25.3037C54.6482 25.359 54.5493 25.389 54.4479 25.3895C54.1621 25.3879 53.9315 25.1635 53.9321 24.8876L53.9292 24.2838L53.7822 24.2845C53.6822 24.2888 53.5974 24.214 53.593 24.1174C53.5886 24.0208 53.6661 23.939 53.7662 23.9347C53.771 23.9345 53.7758 23.9345 53.7806 23.9346L53.9278 23.9339L53.9265 23.6422C53.93 23.5456 54.014 23.47 54.1141 23.4733C54.2086 23.4765 54.2848 23.5493 54.2889 23.6405L54.2903 23.9322L54.5746 23.9309C54.6747 23.9342 54.753 24.0153 54.7495 24.1119C54.7462 24.2032 54.6708 24.2767 54.5763 24.2808L54.292 24.2821L54.2948 24.8859C54.2927 24.9687 54.3605 25.0376 54.4464 25.0396C54.4464 25.0396 54.4465 25.0396 54.4465 25.0396C54.4754 25.039 54.5035 25.0308 54.528 25.0159C54.6081 24.9612 54.719 24.9795 54.7757 25.0568C54.7768 25.0583 54.7779 25.0598 54.779 25.0614C54.8341 25.1411 54.8131 25.2487 54.7318 25.3037Z" fill="#171656"/>
<path d="M54.9999 23.5935C54.9994 23.4888 55.087 23.4035 55.1955 23.403C55.304 23.4024 55.3923 23.4869 55.3928 23.5917C55.3933 23.6964 55.3058 23.7817 55.1973 23.7822C55.1972 23.7822 55.1971 23.7822 55.197 23.7822C55.0886 23.7827 55.0004 23.6984 54.9999 23.5938C54.9999 23.5937 54.9999 23.5936 54.9999 23.5935ZM55.0227 25.2125L55.0174 24.1036C55.0209 24.007 55.1049 23.9313 55.205 23.9347C55.2996 23.9379 55.3757 24.0106 55.3799 24.1019L55.3851 25.21C55.3895 25.3066 55.312 25.3884 55.2119 25.3927C55.1118 25.397 55.0271 25.3222 55.0227 25.2256C55.0225 25.221 55.0225 25.2163 55.0226 25.2117L55.0227 25.2125Z" fill="#171656"/>
<path d="M55.693 25.2044C55.6676 25.1833 55.6648 25.1464 55.6867 25.1219C55.7072 25.099 55.7424 25.095 55.7679 25.1126C55.8883 25.2048 56.0671 25.2591 56.228 25.2641C56.4617 25.2713 56.6853 25.1818 56.6895 24.9861C56.6944 24.7636 56.5109 24.7364 56.2242 24.7103C55.8829 24.6793 55.6427 24.6223 55.6495 24.316C55.6554 24.0481 55.9333 23.9148 56.237 23.9238C56.4281 23.9293 56.613 23.9908 56.7669 24.1002C56.7931 24.1201 56.7977 24.1567 56.7771 24.1821C56.7565 24.2074 56.7185 24.2118 56.6923 24.1919C56.5599 24.098 56.401 24.0451 56.2367 24.0404C56.0007 24.0325 55.774 24.1225 55.7695 24.317C55.7646 24.5399 55.9481 24.5668 56.2348 24.5928C56.5778 24.6239 56.8163 24.6812 56.8095 24.9872C56.8037 25.2562 56.5271 25.3865 56.2277 25.3791C56.0403 25.3762 55.8339 25.3118 55.693 25.2044Z" fill="#171656"/>
<path d="M57.0747 24.648C57.0729 24.2493 57.3951 23.9176 57.8045 23.9157C57.9895 23.9147 58.1677 23.9827 58.302 24.1054C58.3249 24.1289 58.3238 24.1659 58.2994 24.1881C58.2772 24.2082 58.2429 24.2093 58.2194 24.1906C58.1076 24.0881 57.9592 24.0312 57.805 24.0318C57.4676 24.0334 57.194 24.3091 57.1956 24.6469C57.1972 24.9847 57.4734 25.2581 57.8108 25.2565C57.965 25.2556 58.1129 25.1973 58.2237 25.0937C58.2478 25.0715 58.286 25.0723 58.309 25.0955C58.332 25.1188 58.3312 25.1556 58.3071 25.1779C58.1739 25.3018 57.9964 25.3715 57.8114 25.3723C57.4023 25.3756 57.0766 25.0479 57.0747 24.648Z" fill="#171656"/>
<path d="M60.0683 24.6338L60.0714 25.3044C60.0739 25.3366 60.0488 25.3647 60.0155 25.367C59.9821 25.3694 59.9531 25.3452 59.9507 25.313C59.9505 25.3104 59.9505 25.3077 59.9506 25.305L59.9475 24.6343C59.9459 24.2962 59.6742 24.0234 59.3404 24.0249C59.0067 24.0265 58.7376 24.3022 58.7392 24.64L58.7424 25.3107C58.7448 25.3429 58.7198 25.371 58.6864 25.3733C58.6531 25.3757 58.6241 25.3515 58.6216 25.3193C58.6214 25.3167 58.6214 25.314 58.6216 25.3113L58.6127 23.4452C58.6103 23.413 58.6354 23.385 58.6687 23.3826C58.7021 23.3803 58.7311 23.4045 58.7335 23.4367C58.7337 23.4393 58.7337 23.442 58.7336 23.4447L58.7373 24.2369C58.8666 24.035 59.094 23.911 59.3399 23.9083C59.7405 23.9064 60.0664 24.2312 60.0683 24.6338Z" fill="#171656"/>
<path d="M60.3345 24.6326C60.3326 24.2301 60.6557 23.9022 61.056 23.9003C61.4563 23.8984 61.7825 24.2232 61.7844 24.6258C61.7863 25.0284 61.4632 25.3565 61.0629 25.3584C60.6626 25.3602 60.3364 25.0355 60.3345 24.6326ZM61.6636 24.6263C61.662 24.2883 61.3903 24.0154 61.0565 24.017C60.7228 24.0185 60.4537 24.2943 60.4553 24.6321C60.4569 24.9699 60.7286 25.2433 61.0623 25.2417C61.3961 25.2401 61.6652 24.9647 61.6636 24.6263Z" fill="#171656"/>
<path d="M62.0201 24.6246C62.0181 24.222 62.3413 23.8942 62.7415 23.8923C63.1418 23.8904 63.468 24.2151 63.4699 24.6177C63.4718 25.0203 63.149 25.3484 62.7484 25.3503C62.3479 25.3522 62.022 25.0274 62.0201 24.6246ZM63.3491 24.6183C63.3475 24.2802 63.0758 24.0073 62.7421 24.0089C62.4083 24.0105 62.1393 24.2862 62.1409 24.624C62.1425 24.9618 62.4141 25.2352 62.7479 25.2337C63.0816 25.2321 63.3507 24.9567 63.3491 24.6183Z" fill="#171656"/>
<path d="M63.7397 25.2871L63.7309 23.4211C63.7285 23.3889 63.7535 23.3608 63.7869 23.3585C63.8202 23.3561 63.8493 23.3803 63.8517 23.4125C63.8519 23.4151 63.8519 23.4178 63.8517 23.4205L63.8606 25.2866C63.863 25.3188 63.8379 25.3468 63.8046 25.3492C63.7712 25.3515 63.7422 25.3273 63.7398 25.2951C63.7396 25.2925 63.7396 25.2898 63.7397 25.2871Z" fill="#171656"/>
<path d="M53.4623 25.3998C53.4182 25.3568 53.348 25.3521 53.2982 25.3888C52.9653 25.6424 52.4963 25.6446 52.161 25.3942C52.1109 25.358 52.0407 25.3633 51.997 25.4067C51.9489 25.4543 51.9498 25.5306 51.9991 25.5771C52.0028 25.5806 52.0068 25.5839 52.011 25.587C52.436 25.9015 53.0277 25.8987 53.4498 25.5802C53.5044 25.5396 53.5146 25.4639 53.4726 25.4112C53.4694 25.4072 53.466 25.4034 53.4623 25.3998Z" fill="url(#paint3_linear_347_7256)"/>
</g>
<rect x="61.6504" y="39.2002" width="10.6239" height="10.6239" rx="1.5177" transform="rotate(-0.271211 61.6504 39.2002)" fill="#F0F0F0"/>
<rect x="75.3096" y="39.1356" width="43.2545" height="3.79425" rx="1.5177" transform="rotate(-0.271211 75.3096 39.1356)" fill="#F0F0F0"/>
<rect x="75.335" y="44.4475" width="18.2124" height="3.79425" rx="1.5177" transform="rotate(-0.271211 75.335 44.4475)" fill="#F0F0F0"/>
<rect x="61.7217" y="54.377" width="10.6239" height="10.6239" rx="1.5177" transform="rotate(-0.271211 61.7217 54.377)" fill="#F0F0F0"/>
<rect x="75.3809" y="54.3123" width="43.2545" height="3.79425" rx="1.5177" transform="rotate(-0.271211 75.3809 54.3123)" fill="#F0F0F0"/>
<rect x="75.4062" y="59.6242" width="18.2124" height="3.79425" rx="1.5177" transform="rotate(-0.271211 75.4062 59.6242)" fill="#F0F0F0"/>
<rect x="61.7969" y="70.3127" width="10.6239" height="10.6239" rx="1.5177" transform="rotate(-0.271211 61.7969 70.3127)" fill="#F0F0F0"/>
<rect x="75.4561" y="70.2481" width="43.2545" height="3.79425" rx="1.5177" transform="rotate(-0.271211 75.4561 70.2481)" fill="#F0F0F0"/>
<rect x="75.4814" y="75.5599" width="18.2124" height="3.79425" rx="1.5177" transform="rotate(-0.271211 75.4814 75.5599)" fill="#F0F0F0"/>
<rect x="139.804" y="37.3126" width="22.7655" height="16.6947" rx="0.758851" transform="rotate(-0.271211 139.804 37.3126)" fill="#F0F0F0"/>
<rect x="132.974" y="37.3448" width="2.27655" height="16.6947" rx="0.758851" transform="rotate(-0.271211 132.974 37.3448)" fill="#F0F0F0"/>
<rect x="139.904" y="58.5601" width="22.7655" height="16.6947" rx="0.758851" transform="rotate(-0.271211 139.904 58.5601)" fill="#F0F0F0"/>
</g>
<defs>
<linearGradient id="paint0_linear_347_7256" x1="3.41483" y1="2.68738" x2="55.0167" y2="53.5304" gradientUnits="userSpaceOnUse">
<stop stop-color="#8D66F7"/>
<stop offset="0.546333" stop-color="#40238F"/>
</linearGradient>
<linearGradient id="paint1_linear_347_7256" x1="1.13828" y1="3.44622" x2="83.4736" y2="96.366" gradientUnits="userSpaceOnUse">
<stop stop-color="#A58BEA"/>
<stop offset="1" stop-color="#40238F"/>
</linearGradient>
<linearGradient id="paint2_linear_347_7256" x1="44.8833" y1="24.0024" x2="49.1586" y2="23.9822" gradientUnits="userSpaceOnUse">
<stop stop-color="#FB7725"/>
<stop offset="1" stop-color="#EA2287"/>
</linearGradient>
<linearGradient id="paint3_linear_347_7256" x1="51.962" y1="25.5977" x2="53.499" y2="25.5904" gradientUnits="userSpaceOnUse">
<stop stop-color="#FB7725"/>
<stop offset="1" stop-color="#EA2287"/>
</linearGradient>
<clipPath id="clip0_347_7256">
<rect width="18.9713" height="4.35406" fill="white" transform="translate(44.873 21.8259) rotate(-0.271211)"/>
</clipPath>
</defs>
</svg>
