<svg width="191" height="45" viewBox="0 0 191 45" fill="none" xmlns="http://www.w3.org/2000/svg">
<g clip-path="url(#clip0_528_15369)">
<path d="M92.4961 40.4755L92.701 39.8293L91.1645 37.2103L90.4134 35.4416V34.2852L89.1842 31.8022C89.1842 31.8022 89.2183 30.1696 89.8329 28.8431C90.2085 27.1085 89.8329 26.7003 89.8329 26.7003C89.7988 24.9316 87.7502 22.7208 87.4429 22.3807C88.2623 20.1358 88.0233 18.6733 86.0088 19.3535C84.6431 17.857 83.9602 17.925 81.5702 19.0814C79.7264 18.8433 78.5655 18.7753 78.2241 19.3535C75.356 17.7549 75.117 16.9386 74.7415 16.5305C73.0684 14.8298 73.1367 14.1836 73.1367 14.1836C72.6928 13.6394 73.2391 12.5509 73.2391 12.5509C73.3757 10.6122 72.727 9.76189 73.4781 8.53743C75.2195 6.05449 76.0389 5.51028 76.2779 5.61232C76.9608 5.06811 77.0632 4.96607 77.0632 4.96607C77.0632 3.67358 77.4388 3.60556 78.7021 2.04097C79.2143 0.918541 79.0436 1.15663 79.0436 1.15663C79.7947 1.80288 80.2386 2.04097 82.3213 1.05459C85.1211 0.238283 87.2039 0.612425 87.4429 0.578412C88.0233 0.340322 88.1599 0.306309 88.4672 0.748477C88.7745 1.19064 88.7062 1.93893 88.4672 2.48313C89.2183 2.89129 90.4816 3.12938 91.267 3.46951C92.0523 3.80964 92.4961 4.04773 92.4961 4.04773L93.3497 4.45588C93.7594 3.57155 94.0667 2.9253 95.0569 2.99333C96.0471 3.06135 97.7884 3.94569 98.6761 4.04773C99.9736 3.9797 100.861 3.94569 100.964 4.04773C101.851 3.80964 101.954 3.50352 101.954 3.50352C102.534 4.762 102.398 5.13614 102.261 5.78238C102.125 6.42863 101.612 6.66672 101.612 6.66672C102.5 7.75513 103.012 8.91157 103.012 8.91157L103.9 10.068V11.0884L104.549 11.7346L104.89 12.653L105.402 13.5033L106.393 14.2176L106.802 14.6257L107.041 15.5101L107.451 15.7482L108.441 15.6121L110.422 15.442L111.173 15.238V17.1087C109.875 19.4556 109.329 19.9658 109.09 20.2038C107.11 21.8365 106.154 22.7888 105.368 23.4011C104.583 24.6595 104.412 25.1017 104.515 25.2037C104.617 25.3058 104.822 26.5302 105.027 27.0404C105.232 27.5506 105.471 28.1969 105.607 29.0132C105.846 30.0676 105.129 31.156 103.968 31.8022C102.876 32.4485 102.603 32.6866 102.568 32.9247C102.534 33.1628 102.978 34.7954 102.568 35.4416C101.749 36.0198 101.476 35.8838 101.271 36.5981C101.066 37.3123 99.7346 39.5912 98.9151 40.2374C97.686 41.1218 97.2421 41.5299 96.0471 41.5299C94.6472 41.5299 94.1009 41.632 93.7594 41.802C93.418 41.9721 93.1448 41.5979 93.1448 41.5979" fill="#CCCCCC"/>
<path d="M64.7367 32.0402C64.8733 32.0402 64.9757 32.1423 64.9416 32.3123C64.9074 32.8906 64.1563 33.4008 63.5076 33.5028C63.7807 32.6865 64.327 32.0402 64.7367 32.0402ZM63.61 35.6456C64.4294 35.6456 64.9757 34.8633 65.2147 34.4211L65.0782 34.3531C64.8392 34.7273 64.3953 35.1014 64.0539 35.1014C63.6441 35.1014 63.4393 34.7613 63.4734 34.115C63.4734 33.979 63.5076 33.8429 63.5417 33.7069C64.6002 33.5368 65.7269 32.9926 65.761 32.3123C65.761 31.9722 65.522 31.7341 65.1465 31.7341C64.7026 31.7341 64.2246 32.0062 63.9173 32.2783C63.3027 32.7885 62.7564 33.5708 62.7223 34.4892C62.654 35.1014 62.9271 35.6456 63.61 35.6456ZM58.8299 34.7273C58.625 35.4075 58.864 35.6456 59.1713 35.6456C59.9908 35.6456 60.6395 34.4551 61.0834 33.7409H61.1175L60.7419 34.9994C60.6054 35.4415 60.7419 35.6456 61.0151 35.6456C61.3907 35.6456 62.0394 34.9313 62.3808 34.2511L62.2442 34.183C62.0394 34.4892 61.7321 34.8293 61.4931 34.9994H61.4589L62.2784 31.8702L62.2101 31.8021L61.5614 31.9042L61.3907 32.6185C61.1517 33.5028 60.1615 35.1014 59.6152 35.1014C59.5469 35.1014 59.4445 35.0334 59.5128 34.8633L60.0932 32.6185C60.2298 32.0742 60.1273 31.8021 59.7518 31.8021C59.3762 31.8021 59.0689 32.0402 58.8299 32.2443V32.3464C59.103 32.2783 59.3762 32.2783 59.4786 32.3804L58.8299 34.7273ZM55.8935 35.1014C55.7228 35.1014 55.5862 34.9653 55.6204 34.5572C55.6887 33.3327 56.474 31.9722 57.1568 31.9722C57.3617 31.9722 57.5666 32.1083 57.7031 32.3464L57.6007 32.7545C57.3617 33.7409 56.3033 35.1014 55.8935 35.1014ZM56.5081 37.0741L55.7911 37.2442L55.757 37.4143H57.8397L57.8739 37.1422L57.191 37.1082L58.5567 31.7341H58.0446L57.9422 31.9722C57.7714 31.8702 57.5324 31.7341 57.2251 31.7341C56.0984 31.7341 54.8692 33.2987 54.8009 34.7273C54.7668 35.4415 55.1424 35.6796 55.4838 35.6796C56.2008 35.6796 56.9861 34.4892 57.2593 33.979H57.2934C57.2934 33.979 57.191 34.2511 57.1227 34.5232L56.5081 37.0741ZM53.8791 30.2716C53.8791 30.5097 54.0839 30.7137 54.3229 30.7137C54.5619 30.7137 54.7668 30.5097 54.7668 30.2716C54.7668 30.0335 54.5619 29.8294 54.3229 29.8294C54.0839 29.8294 53.9132 30.0335 53.8791 30.2716ZM53.7084 32.3123L52.923 34.9994C52.8206 35.4415 52.923 35.6456 53.1962 35.6456C53.5718 35.6456 54.2546 34.8973 54.5619 34.2511L54.3912 34.183C54.2205 34.4892 53.9132 34.8293 53.6742 34.9994H53.6401L54.3229 32.5504C54.4595 32.0062 54.2546 31.7681 53.9474 31.7681C53.5376 31.7681 53.2303 32.0062 53.0255 32.2103V32.3123C53.2986 32.2103 53.5718 32.2103 53.7084 32.3123ZM49.7477 35.5436L49.8501 35.6456L50.4647 35.4755L50.7037 34.7613C51.0452 33.7409 51.8305 32.3804 52.1377 32.3804C52.3085 32.3804 52.3085 32.5844 52.1377 32.8565H52.3085C52.5816 32.6865 52.8548 32.3804 52.8548 32.0402C52.8548 31.8362 52.7182 31.6661 52.4792 31.6661C52.0353 31.6661 51.6256 32.2783 50.8403 33.7749H50.772L51.2159 32.4144C51.3866 31.9382 51.2159 31.6661 50.8744 31.6661C50.4647 31.6661 50.1916 31.9042 49.9526 32.1083V32.2103C50.3623 32.1083 50.5671 32.2103 50.6354 32.2443C50.6354 32.2443 50.294 33.3667 49.9867 34.5572L49.7477 35.5436ZM47.6649 32.1423H48.3478L47.5625 35.9857C47.3918 36.8361 47.2552 37.2102 47.0162 37.2102C46.8113 37.2102 46.5723 37.0061 46.3675 36.598C46.2309 36.666 46.0602 36.8361 46.0602 37.0741C46.0602 37.3462 46.3675 37.5163 46.6065 37.5163C47.4601 37.5163 48.2112 36.5639 48.4844 35.2374L49.099 32.1083H50.0208L50.1233 31.8021H49.2014C49.5428 30.3396 49.9867 30.0335 50.2257 30.0335C50.5671 30.0335 50.8403 30.3056 51.0793 30.6117C51.2159 30.5097 51.3866 30.3056 51.3866 30.0675C51.3866 29.8634 51.0793 29.6253 50.6696 29.6253C49.816 29.6253 48.7917 30.6457 48.4502 31.7681H47.7332L47.6649 32.1423ZM45.2066 31.0539L45.548 33.3667H43.9774L45.2066 31.0539ZM41.963 35.5436H43.6701L43.7043 35.3735L42.9531 35.1694L43.7384 33.7409H45.5822L45.787 35.2034L45.1042 35.3735L45.07 35.5436H47.0504L47.0845 35.3735L46.5723 35.1694L45.8553 30.2035L45.548 30.2716L45.309 30.3396L42.5093 35.2374L41.9971 35.3735L41.963 35.5436ZM42.919 30.6457C42.919 30.9518 42.68 31.2579 42.3044 31.5641C42.3385 31.5641 42.3727 31.6661 42.3727 31.6661C42.919 31.394 43.4653 30.8838 43.4653 30.2376C43.4653 29.7954 43.1921 29.5913 42.9873 29.5913C42.68 29.5913 42.5093 29.7954 42.5093 30.1355C42.7824 30.2716 42.919 30.4076 42.919 30.6457ZM40.3923 32.7545C40.1192 33.7409 39.0949 35.1014 38.6852 35.1014C38.5486 35.1014 38.3779 34.9653 38.412 34.5572C38.4803 33.3327 39.1973 31.9382 39.9485 31.9382C40.1533 31.9382 40.3582 32.0742 40.4948 32.3123L40.3923 32.7545ZM40.0168 31.7341C38.7876 31.7341 37.6609 33.2987 37.5926 34.7273C37.5584 35.4415 37.8999 35.6796 38.2413 35.6796C38.9583 35.6796 39.7436 34.4892 40.0509 33.979H40.0851L39.7778 34.9994C39.6412 35.4075 39.7778 35.6456 40.0509 35.6456C40.4265 35.6456 41.0752 34.9653 41.4167 34.2511L41.2801 34.183C41.0752 34.4892 40.7679 34.8293 40.5289 34.9994H40.4948L41.8605 29.7274L40.4948 30.0335L40.4606 30.1015L40.9728 30.4416L40.5972 31.9042C40.4948 31.7681 40.2899 31.7341 40.0168 31.7341ZM34.0758 32.1423H34.7928L34.0075 35.1354C33.9051 35.4415 34.0758 35.6456 34.3148 35.6456C34.9294 35.6456 35.6464 34.7273 36.0561 34.013L35.8854 33.9109C35.6464 34.2511 35.1001 34.8633 34.7587 34.9653H34.7245L35.4757 32.1423H36.5341L36.6024 31.8362H35.544L35.783 30.7477H35.3732L34.8952 31.8362L34.1099 31.9382L34.0758 32.1423ZM32.9149 32.0402C33.0515 32.0402 33.1539 32.1423 33.1198 32.3123C33.0856 32.8906 32.3345 33.4008 31.6857 33.5028C31.9589 32.6865 32.5393 32.0402 32.9149 32.0402ZM31.7882 35.6456C32.6076 35.6456 33.1539 34.8633 33.3929 34.4211L33.2563 34.3531C33.0173 34.7273 32.5735 35.1014 32.232 35.1014C31.8223 35.1014 31.6174 34.7613 31.6516 34.115C31.6516 33.979 31.6857 33.8429 31.7199 33.7069C32.7783 33.5368 33.9051 32.9926 33.9392 32.3123C33.9392 31.9722 33.7002 31.7341 33.3246 31.7341C32.8808 31.7341 32.4369 32.0062 32.0955 32.2783C31.4809 32.7885 30.9346 33.5708 30.9004 34.4892C30.8321 35.1014 31.1053 35.6456 31.7882 35.6456ZM28.4421 32.1423C28.7494 32.1423 29.0908 32.4144 29.364 32.6865C29.3981 32.6525 29.6371 32.4144 29.6371 32.2103C29.6371 31.9382 29.3298 31.7341 28.9884 31.7341C28.5787 31.7341 28.1348 31.9722 27.8275 32.2103C26.9739 32.8565 26.5642 33.7749 26.5301 34.6592C26.5301 35.2034 26.8373 35.6796 27.4178 35.6796C28.2714 35.6796 28.8518 34.7953 29.125 34.2851L28.9884 34.183C28.647 34.6592 28.2372 35.1354 27.7934 35.1354C27.5202 35.1354 27.3154 34.9313 27.3495 34.4552C27.3836 33.4008 27.8958 32.1423 28.4421 32.1423ZM25.1302 31.7341C23.7986 31.7341 22.9791 33.0946 22.9108 34.149C22.8767 34.9313 23.2181 35.6456 24.0376 35.6456C25.3692 35.6456 26.1886 34.2851 26.2569 33.1627C26.2569 32.4484 25.9496 31.7341 25.1302 31.7341ZM25.0277 31.9042C25.4375 31.9042 25.5057 32.4484 25.4716 32.8906C25.4033 33.979 24.7204 35.4415 24.0717 35.4415C23.7303 35.4415 23.662 34.9994 23.662 34.4552C23.7303 33.4688 24.3449 31.9042 25.0277 31.9042ZM19.9062 35.5436L20.0086 35.6456L20.6232 35.4755L20.8622 34.7613C21.2037 33.7409 21.989 32.3804 22.2962 32.3804C22.467 32.3804 22.467 32.5844 22.2962 32.8565H22.5353C22.8084 32.6865 23.0815 32.3804 23.0815 32.0402C23.0815 31.8362 22.945 31.6661 22.706 31.6661C22.2621 31.6661 21.8524 32.2783 21.0671 33.7749H20.9988L21.4427 32.4144C21.6134 31.9382 21.4427 31.6661 21.1012 31.6661C20.6915 31.6661 20.4183 31.9042 20.1793 32.1083V32.2103C20.5891 32.1083 20.7939 32.2103 20.8622 32.2443C20.8622 32.2443 20.5208 33.3667 20.2135 34.5572L19.9062 35.5436ZM16.9357 35.0674C16.7991 35.0674 16.6967 34.9653 16.7308 34.6592C16.7991 33.4688 17.6527 32.0402 18.3014 32.0402C18.5063 32.0402 18.677 32.1423 18.8136 32.3464L18.6429 32.8565C18.3697 33.5368 17.3796 35.0674 16.9357 35.0674ZM19.2233 31.53L19.0185 31.9042C18.8819 31.8021 18.677 31.7681 18.438 31.7681C17.5503 31.7681 15.9455 33.2307 15.8773 34.8633C15.8431 35.4075 16.1163 35.6456 16.4918 35.6456C17.1406 35.6456 17.8576 34.5572 18.2673 33.9109H18.3356L17.96 34.9994C17.8576 35.2715 17.8576 35.6456 18.2332 35.6456C18.6087 35.6456 19.2916 34.9313 19.5989 34.2511L19.4282 34.183C19.2233 34.4892 18.9502 34.8293 18.677 34.9994H18.6429L19.5989 31.5641L19.2233 31.53ZM8.9461 35.5436H10.5167L10.5509 35.3735L9.93627 35.2034L10.9947 30.9178L11.78 34.8633L11.8483 35.3395H12.1215L12.3605 34.8293L14.6822 31.0198L13.9994 35.2034L13.3506 35.3735L13.3165 35.5436H15.331L15.3651 35.3735L14.8188 35.2034L15.5017 30.6797L16.0821 30.5097L16.1163 30.3396H14.7164L14.6139 30.5777L12.3946 34.2511L11.6776 30.3736H10.2436L10.2094 30.5437L10.7557 30.7477L9.56069 35.2034L8.98025 35.3735L8.9461 35.5436ZM4.30258 34.7273C4.09771 35.4075 4.33672 35.6456 4.64401 35.6456C5.46346 35.6456 6.11219 34.4551 6.55605 33.7409H6.5902L6.21462 34.9994C6.07804 35.4415 6.21462 35.6456 6.48777 35.6456C6.86334 35.6456 7.51207 34.9313 7.85351 34.2511L7.71693 34.183C7.51207 34.4892 7.20478 34.8293 6.96578 34.9994H6.93163L7.75108 31.8702L7.68279 31.8021L7.03406 31.9042L6.86334 32.6185C6.62434 33.5028 5.63418 35.1014 5.08788 35.1014C5.01959 35.1014 4.91716 35.0334 4.98545 34.8633L5.56589 32.6185C5.70246 32.0742 5.60003 31.8021 5.22445 31.8021C4.84887 31.8021 4.54158 32.0402 4.30258 32.2443V32.3464C4.57572 32.2783 4.84887 32.2783 4.9513 32.3804L4.30258 34.7273ZM2.8344 32.7545C2.56125 33.7409 1.53694 35.1014 1.12722 35.1014C0.990648 35.1014 0.81993 34.9653 0.854073 34.5572C0.92236 33.3327 1.63938 31.9382 2.39053 31.9382C2.5954 31.9382 2.80026 32.0742 2.93683 32.3123L2.8344 32.7545ZM2.49297 31.7341C1.2638 31.7341 0.137058 33.2987 0.0687708 34.7273C0.0346272 35.4415 0.376063 35.6796 0.717499 35.6796C1.43451 35.6796 2.21982 34.4892 2.52711 33.979H2.56125L2.25396 34.9994C2.11739 35.4075 2.25396 35.6456 2.52711 35.6456C2.90269 35.6456 3.55142 34.9653 3.89285 34.2511L3.75628 34.183C3.55142 34.4892 3.24412 34.8293 3.00512 34.9994H2.97098L4.33672 29.7274L2.97098 30.0335L2.93683 30.1015L3.44899 30.4416L3.07341 31.9042C2.93683 31.7681 2.73197 31.7341 2.49297 31.7341Z" fill="black"/>
<path d="M6.52142 8.50365L9.15048 7.89142V7.00708H0V7.92543L2.32176 8.57167V25.6802L0 26.1903V27.1087H15.467L16.9352 19.6939H15.9792L12.6673 25.9523H8.36518C7.51159 25.9182 6.93115 25.6802 6.52142 25.17" fill="black"/>
<path d="M18.0962 13.0269C20.2131 11.9045 22.0569 9.99979 22.0569 7.75494C22.0569 5.74818 20.8618 4.82983 19.701 4.82983C18.3352 4.82983 17.5158 5.78219 17.7206 7.24475C18.9157 7.41481 19.94 8.06106 19.94 9.25151C19.94 10.442 19.0181 11.5304 17.6523 12.3807L18.0962 13.0269Z" fill="black"/>
<path d="M34.7924 6.80274C29.3636 5.44223 23.3202 8.36734 21.7496 14.5577C20.179 20.8501 24.0372 25.986 29.5685 27.3805C34.9973 28.7411 41.0749 25.986 42.7479 19.3195C44.1136 13.8774 41.0066 8.36734 34.7924 6.80274ZM30.3538 26.4282C26.3248 25.4418 25.164 19.8297 26.3931 14.9318C27.6223 9.96594 30.4221 6.83676 34.1096 7.7551C37.8995 8.70746 39.3335 14.1155 38.0702 19.1494C36.8411 24.0473 34.0754 27.3465 30.3538 26.4282Z" fill="black"/>
<path d="M51.5911 14.1836C53.7763 14.1836 55.7907 16.7346 55.7907 20.4079C55.7907 24.2854 54.0836 26.2241 51.9667 26.2241C50.4643 26.2241 49.6449 25.5099 49.2352 24.8296V15.1019C49.7473 14.6938 50.4985 14.1836 51.5911 14.1836ZM50.5668 27.5506C54.9372 27.5506 59.7173 23.8092 59.7173 18.8774C59.7173 13.9455 56.8151 12.0748 53.947 12.0748C51.6594 12.0748 50.0205 13.5373 49.2352 14.3877V4.52393L43.5332 6.22457V6.66674L45.4111 7.6191V26.2922L46.5037 26.7683C47.5963 27.2105 49.0645 27.5506 50.5668 27.5506Z" fill="black"/>
<path d="M66.2043 27.4486C69.6869 27.4486 72.6916 25.3738 72.6916 22.2786C72.6916 20.2379 71.6331 19.1835 69.1748 18.2311L67.57 17.5848C66.136 17.0066 65.3507 16.3944 65.3507 15.1359C65.3507 13.8774 66.2726 12.9251 67.7066 12.9251C68.5602 12.9251 69.2431 13.2992 69.7552 13.6734L71.2917 16.9046H71.9746L72.0087 12.789C70.9161 12.2788 69.5162 11.8367 68.0822 11.8367C64.4971 11.8367 61.9363 13.7414 61.9363 16.5304C61.9363 18.5712 62.9948 19.8977 65.0434 20.68L67.0579 21.4283C68.5602 22.0065 69.1748 22.7548 69.1748 23.9112C69.1748 25.2718 68.1505 26.3602 66.4092 26.3602C65.4531 26.3602 64.6678 25.952 64.224 25.4758L62.4826 21.8024H61.7656L61.9363 26.4282C63.0631 26.9384 64.4971 27.4486 66.2043 27.4486Z" fill="black"/>
<path d="M80.5444 13.197C82.1492 13.197 83.0369 14.7616 83.31 17.2105H77.6764C77.9154 14.5915 79.0421 13.197 80.5444 13.197ZM80.9541 27.5164C84.3344 27.5164 86.2805 25.3056 87.578 23.4348L87.1 22.9927C86.1781 23.6729 84.7782 24.6933 82.9345 24.6933C79.9981 24.6933 77.6081 22.4485 77.6081 18.503V18.2309H87.3731C86.8951 14.2174 84.9831 12.0405 81.4663 12.0405C77.9495 12.0405 74.1937 15.5439 74.1937 19.9995C74.1596 23.979 76.652 27.5164 80.9541 27.5164Z" fill="black"/>
<path d="M88.7734 27.0742H97.002V26.2239L94.4754 25.7137V17.4486C94.9193 16.1901 95.9094 15.2377 96.4557 15.0677L98.3336 16.1901C99.6652 15.884 100.382 15.1357 100.382 13.9452C100.382 12.7548 99.4262 12.0405 98.3678 12.0405C96.9679 12.0405 96.0802 12.7208 94.7827 15.2037L94.373 15.986H94.2364L94.0998 12.0405H93.9633L88.7734 13.7072V14.1493L90.6172 15.3058V25.7137L88.7734 26.2239V27.0742Z" fill="black"/>
<path d="M110.352 27.6527L115.645 13.9115L117.318 13.4353V12.585H112.23V13.4013L114.279 14.0135L111.206 22.6528L110.899 23.5031H110.83L110.591 22.6868L107.518 13.9115L109.499 13.4353V12.585H101.816V13.4353L103.387 13.9115L108.748 27.6527H110.352Z" fill="black"/>
<path d="M124.215 25.3059C122.781 25.3059 122.03 24.2515 122.03 22.959C122.03 21.8026 122.679 20.8842 124.352 20.34L126.366 19.6597V24.1494C125.888 24.7617 125.137 25.3059 124.215 25.3059ZM122.167 27.5847C124.25 27.5847 125.376 26.3263 126.366 25.0678H126.503C126.605 26.7004 127.391 27.4827 129.03 27.4827C130.498 27.4827 132.546 26.3263 132.546 26.3263V25.714H131.249C130.464 25.714 130.225 25.544 130.225 24.7277V16.7006C130.225 13.5034 128.62 12.1089 125.445 12.1089C121.791 12.1089 118.752 14.2517 118.752 15.9183C118.752 16.8707 119.435 17.4149 120.494 17.4149C121.177 17.4149 121.723 17.2788 122.167 17.1428L122.303 13.8095C122.645 13.5714 123.157 13.3674 123.84 13.3674C125.445 13.3674 126.401 14.7279 126.435 16.7346V18.7414L123.498 19.4557C120.118 20.306 118.377 21.4284 118.377 23.8773C118.309 26.2242 120.118 27.5847 122.167 27.5847Z" fill="black"/>
<path d="M138.828 27.4485C141.32 27.4485 143.028 26.2581 143.574 25.8839L143.403 25.2037C143.301 25.2377 142.447 25.5438 141.559 25.5438C140.33 25.5438 139.374 25.1357 139.033 23.7751V14.1495H143.301V12.4829H139.033V8.6394H138.384L135.277 12.3808L133.023 13.0611V14.0475H135.277L135.209 23.5711C135.174 25.986 136.165 27.4485 138.828 27.4485Z" fill="black"/>
<path d="M151.39 13.197C152.995 13.197 153.883 14.7616 154.156 17.2105H148.522C148.761 14.5915 149.888 13.197 151.39 13.197ZM151.8 27.5164C155.18 27.5164 157.126 25.3056 158.424 23.4348L157.946 22.9927C157.024 23.6729 155.624 24.6933 153.78 24.6933C150.844 24.6933 148.454 22.4485 148.454 18.503V18.2309H158.219C157.741 14.2174 155.829 12.0405 152.312 12.0405C148.795 12.0405 145.039 15.5439 145.039 19.9995C145.005 23.979 147.498 27.5164 151.8 27.5164Z" fill="black"/>
<path d="M170.444 27.5508L175.941 26.7005V26.0203L173.927 25.374V12.2791L167.986 13.2654V13.8777L170.034 14.6259V24.2516C169.454 24.6938 168.532 25.238 167.337 25.238C165.527 25.238 164.639 24.1836 164.639 22.1428V12.3471L158.938 13.2994V13.8777L160.815 14.694V22.9251C160.815 26.1223 162.591 27.6529 165.117 27.6529C167.371 27.6529 169.146 26.1223 170.102 25.1019L170.444 27.5508Z" fill="black"/>
<path d="M177.342 27.0742H185.57V26.2239L183.044 25.7137V17.4486C183.488 16.1901 184.478 15.2377 185.024 15.0677L186.902 16.1901C188.234 15.884 188.951 15.1357 188.951 13.9452C188.951 12.7548 187.995 12.0405 186.936 12.0405C185.536 12.0405 184.649 12.7208 183.351 15.2037L182.941 15.986H182.805L182.668 12.0405H182.532L177.342 13.7072V14.1493L179.186 15.3058V25.7137L177.342 26.2239V27.0742Z" fill="black"/>
</g>
<defs>
<clipPath id="clip0_528_15369">
<rect width="190.508" height="44.1249" fill="white"/>
</clipPath>
</defs>
</svg>
