<svg width="1163" height="275" viewBox="0 0 1163 275" fill="none" xmlns="http://www.w3.org/2000/svg">
<g opacity="0.23">
<path d="M0 270.155V0H106.585C127.075 0 144.531 3.91338 158.954 11.7402C173.376 19.479 184.369 30.2518 191.932 44.0585C199.583 57.7773 203.408 73.6068 203.408 91.5468C203.408 109.487 199.539 125.316 191.8 139.035C184.061 152.754 172.848 163.439 158.162 171.09C143.564 178.74 125.888 182.566 105.134 182.566H37.1991V136.792H95.8998C106.892 136.792 115.95 134.902 123.074 131.12C130.285 127.251 135.649 121.93 139.167 115.159C142.772 108.3 144.575 100.429 144.575 91.5468C144.575 82.5768 142.772 74.75 139.167 68.0665C135.649 61.295 130.285 56.0625 123.074 52.369C115.862 48.5875 106.717 46.6968 95.636 46.6968H57.1178V270.155H0Z" fill="url(#paint0_linear_528_15362)"/>
<path d="M230.747 270.155V67.5388H285.226V102.891H287.337C291.03 90.3156 297.23 80.8179 305.936 74.3982C314.643 67.8906 324.668 64.6368 336.012 64.6368C338.826 64.6368 341.86 64.8126 345.114 65.1644C348.368 65.5162 351.226 65.9999 353.688 66.6154V116.478C351.05 115.687 347.401 114.983 342.74 114.368C338.079 113.752 333.814 113.444 329.944 113.444C321.678 113.444 314.291 115.247 307.783 118.852C301.363 122.37 296.263 127.295 292.481 133.627C288.788 139.958 286.941 147.257 286.941 155.524V270.155H230.747Z" fill="url(#paint1_linear_528_15362)"/>
<path d="M456.942 274.113C436.1 274.113 418.16 269.891 403.122 261.449C388.172 252.919 376.652 240.871 368.561 225.305C360.471 209.652 356.426 191.14 356.426 169.77C356.426 148.928 360.471 130.637 368.561 114.895C376.652 99.1537 388.04 86.8859 402.727 78.0918C417.501 69.2976 434.825 64.9006 454.7 64.9006C468.067 64.9006 480.511 67.0551 492.031 71.3643C503.639 75.5854 513.752 81.9612 522.371 90.4915C531.077 99.0218 537.848 109.751 542.685 122.678C547.522 135.517 549.94 150.555 549.94 167.792V183.225H378.851V148.401H497.044C497.044 140.31 495.285 133.143 491.767 126.899C488.249 120.655 483.369 115.775 477.125 112.257C470.969 108.651 463.802 106.849 455.623 106.849C447.093 106.849 439.53 108.827 432.934 112.785C426.427 116.654 421.326 121.886 417.633 128.482C413.939 134.99 412.048 142.245 411.96 150.247V183.357C411.96 193.383 413.807 202.045 417.501 209.344C421.282 216.643 426.603 222.271 433.462 226.229C440.321 230.186 448.456 232.165 457.866 232.165C464.11 232.165 469.826 231.285 475.014 229.526C480.203 227.768 484.644 225.129 488.337 221.612C492.031 218.094 494.845 213.785 496.78 208.684L548.753 212.114C546.115 224.602 540.706 235.506 532.528 244.828C524.437 254.062 513.972 261.273 501.133 266.462C488.381 271.562 473.651 274.113 456.942 274.113Z" fill="url(#paint2_linear_528_15362)"/>
<path d="M746.489 125.316L695.043 128.482C694.164 124.085 692.273 120.128 689.371 116.61C686.469 113.004 682.643 110.146 677.895 108.036C673.234 105.837 667.649 104.738 661.142 104.738C652.436 104.738 645.092 106.585 639.112 110.278C633.132 113.884 630.142 118.721 630.142 124.789C630.142 129.625 632.077 133.715 635.947 137.056C639.816 140.398 646.456 143.08 655.865 145.103L692.537 152.49C712.236 156.535 726.922 163.043 736.595 172.013C746.269 180.983 751.106 192.767 751.106 207.365C751.106 220.644 747.192 232.297 739.365 242.322C731.627 252.347 720.986 260.174 707.443 265.802C693.988 271.342 678.466 274.113 660.878 274.113C634.056 274.113 612.686 268.528 596.769 257.36C580.939 246.103 571.662 230.802 568.935 211.455L624.206 208.553C625.877 216.731 629.923 222.975 636.342 227.284C642.762 231.505 650.984 233.616 661.01 233.616C670.859 233.616 678.774 231.725 684.754 227.944C690.822 224.074 693.9 219.105 693.988 213.037C693.9 207.937 691.745 203.76 687.524 200.506C683.303 197.164 676.795 194.614 668.001 192.855L632.913 185.864C613.126 181.906 598.396 175.047 588.722 165.285C579.137 155.524 574.344 143.08 574.344 127.954C574.344 114.939 577.861 103.727 584.897 94.3169C592.02 84.9072 602.001 77.6521 614.841 72.5515C627.768 67.4509 642.894 64.9006 660.218 64.9006C685.809 64.9006 705.948 70.309 720.634 81.1257C735.408 91.9425 744.026 106.673 746.489 125.316Z" fill="url(#paint3_linear_528_15362)"/>
<path d="M946.368 125.316L894.922 128.482C894.043 124.085 892.152 120.128 889.25 116.61C886.348 113.004 882.523 110.146 877.774 108.036C873.113 105.837 867.529 104.738 861.021 104.738C852.315 104.738 844.972 106.585 838.992 110.278C833.012 113.884 830.022 118.721 830.022 124.789C830.022 129.625 831.956 133.715 835.826 137.056C839.695 140.398 846.335 143.08 855.745 145.103L892.416 152.49C912.115 156.535 926.801 163.043 936.475 172.013C946.148 180.983 950.985 192.767 950.985 207.365C950.985 220.644 947.071 232.297 939.245 242.322C931.506 252.347 920.865 260.174 907.322 265.802C893.867 271.342 878.345 274.113 860.757 274.113C833.935 274.113 812.565 268.528 796.648 257.36C780.819 246.103 771.541 230.802 768.815 211.455L824.086 208.553C825.757 216.731 829.802 222.975 836.222 227.284C842.641 231.505 850.864 233.616 860.889 233.616C870.739 233.616 878.653 231.725 884.633 227.944C890.701 224.074 893.779 219.105 893.867 213.037C893.779 207.937 891.625 203.76 887.403 200.506C883.182 197.164 876.675 194.614 867.88 192.855L832.792 185.864C813.005 181.906 798.275 175.047 788.601 165.285C779.016 155.524 774.223 143.08 774.223 127.954C774.223 114.939 777.741 103.727 784.776 94.3169C791.899 84.9072 801.881 77.6521 814.72 72.5515C827.647 67.4509 842.773 64.9006 860.098 64.9006C885.689 64.9006 905.827 70.309 920.513 81.1257C935.287 91.9425 943.906 106.673 946.368 125.316Z" fill="url(#paint4_linear_528_15362)"/>
<path d="M1070 274.113C1049.16 274.113 1031.22 269.891 1016.18 261.449C1001.23 252.919 989.712 240.871 981.621 225.305C973.531 209.652 969.485 191.14 969.485 169.77C969.485 148.928 973.531 130.637 981.621 114.895C989.712 99.1537 1001.1 86.8859 1015.79 78.0918C1030.56 69.2976 1047.89 64.9006 1067.76 64.9006C1081.13 64.9006 1093.57 67.0551 1105.09 71.3643C1116.7 75.5854 1126.81 81.9612 1135.43 90.4915C1144.14 99.0218 1150.91 109.751 1155.74 122.678C1160.58 135.517 1163 150.555 1163 167.792V183.225H991.911V148.401H1110.1C1110.1 140.31 1108.34 133.143 1104.83 126.899C1101.31 120.655 1096.43 115.775 1090.18 112.257C1084.03 108.651 1076.86 106.849 1068.68 106.849C1060.15 106.849 1052.59 108.827 1045.99 112.785C1039.49 116.654 1034.39 121.886 1030.69 128.482C1027 134.99 1025.11 142.245 1025.02 150.247V183.357C1025.02 193.383 1026.87 202.045 1030.56 209.344C1034.34 216.643 1039.66 222.271 1046.52 226.229C1053.38 230.186 1061.52 232.165 1070.93 232.165C1077.17 232.165 1082.89 231.285 1088.07 229.526C1093.26 227.768 1097.7 225.129 1101.4 221.612C1105.09 218.094 1107.9 213.785 1109.84 208.684L1161.81 212.114C1159.17 224.602 1153.77 235.506 1145.59 244.828C1137.5 254.062 1127.03 261.273 1114.19 266.462C1101.44 271.562 1086.71 274.113 1070 274.113Z" fill="url(#paint5_linear_528_15362)"/>
</g>
<defs>
<linearGradient id="paint0_linear_528_15362" x1="576.522" y1="171.578" x2="576.91" y2="102.489" gradientUnits="userSpaceOnUse">
<stop offset="0.0769231" stop-color="#7478F4"/>
<stop offset="1" stop-color="#9FA2FF"/>
</linearGradient>
<linearGradient id="paint1_linear_528_15362" x1="576.522" y1="171.578" x2="576.91" y2="102.489" gradientUnits="userSpaceOnUse">
<stop offset="0.0769231" stop-color="#7478F4"/>
<stop offset="1" stop-color="#9FA2FF"/>
</linearGradient>
<linearGradient id="paint2_linear_528_15362" x1="576.522" y1="171.578" x2="576.91" y2="102.489" gradientUnits="userSpaceOnUse">
<stop offset="0.0769231" stop-color="#7478F4"/>
<stop offset="1" stop-color="#9FA2FF"/>
</linearGradient>
<linearGradient id="paint3_linear_528_15362" x1="576.522" y1="171.578" x2="576.91" y2="102.489" gradientUnits="userSpaceOnUse">
<stop offset="0.0769231" stop-color="#7478F4"/>
<stop offset="1" stop-color="#9FA2FF"/>
</linearGradient>
<linearGradient id="paint4_linear_528_15362" x1="576.522" y1="171.578" x2="576.91" y2="102.489" gradientUnits="userSpaceOnUse">
<stop offset="0.0769231" stop-color="#7478F4"/>
<stop offset="1" stop-color="#9FA2FF"/>
</linearGradient>
<linearGradient id="paint5_linear_528_15362" x1="576.522" y1="171.578" x2="576.91" y2="102.489" gradientUnits="userSpaceOnUse">
<stop offset="0.0769231" stop-color="#7478F4"/>
<stop offset="1" stop-color="#9FA2FF"/>
</linearGradient>
</defs>
</svg>
