<svg width="304" height="141" viewBox="0 0 304 141" fill="none" xmlns="http://www.w3.org/2000/svg">
<g filter="url(#filter0_d_528_15223)">
<path d="M44.3008 66.3C44.3008 51.9406 55.9414 40.3 70.3008 40.3H233.301C247.66 40.3 259.301 51.9406 259.301 66.3C259.301 80.6594 247.66 92.3 233.301 92.3H70.3008C55.9414 92.3 44.3008 80.6594 44.3008 66.3Z" fill="white" shape-rendering="crispEdges"/>
<rect x="54.3008" y="50.3" width="32" height="32" rx="16" fill="#E7F5FF"/>
<path d="M62.1536 71.1678C62.0949 71.1515 61.9531 70.9463 61.9703 70.8645L61.9741 59.0475C60.9127 58.6738 61.1585 57.1716 62.2733 57.1137H78.3278C79.4491 57.1695 79.6852 58.6754 78.627 59.048L78.6308 70.8651C78.6588 70.9403 78.4847 71.1683 78.4475 71.1683H75.5569L77.1359 75.1691C77.1359 75.3082 77.0329 75.4268 76.903 75.4653C76.4609 75.4523 75.9709 75.5097 75.5343 75.475C75.4216 75.4658 75.3175 75.4414 75.2313 75.3635L72.7262 71.1683H70.6442L70.5838 71.229V72.0006C70.9785 72.1923 71.3035 72.5411 71.2679 73.0116C71.1774 74.2084 69.4502 74.1997 69.3337 73.0528C69.2841 72.5643 69.6059 72.1988 70.0178 72.0001V71.2284L69.9574 71.1678H67.8755L65.3704 75.3629C65.2841 75.4409 65.1795 75.4658 65.0674 75.4745C64.6307 75.5091 64.1412 75.4517 63.6987 75.4647C63.5687 75.4263 63.4658 75.3077 63.4658 75.1685L65.0448 71.1678H62.1536ZM62.1617 57.7327C61.8065 57.8664 61.7887 58.3153 62.1315 58.4783L78.4982 58.4653C78.7909 58.3002 78.7909 57.9206 78.4982 57.7554L62.1617 57.7327ZM78.0232 59.1054H62.5784V70.5992H78.0232V59.1054ZM67.1876 71.1678H65.7116L64.1957 74.8636H65.0043L67.1876 71.1678ZM76.406 74.8636L74.8901 71.1678H73.414L75.5973 74.8636H76.406ZM70.2076 72.5974C69.7661 72.6976 69.903 73.4248 70.3936 73.3127C70.8351 73.2125 70.6981 72.4853 70.2076 72.5974Z" fill="#199DFF"/>
<path d="M75.5477 63.5827C75.5844 63.6201 75.6329 63.7755 75.6394 63.8356L75.607 69.1268C75.5488 69.2399 75.4593 69.2881 75.3359 69.3011C74.5499 69.3829 73.628 69.2362 72.8264 69.3011C72.6577 69.2936 72.531 69.1668 72.5235 68.9968L72.5553 63.665C72.5979 63.5746 72.6895 63.5356 72.7865 63.5318C73.6194 63.5794 74.5116 63.4728 75.3364 63.5312C75.3979 63.5356 75.5051 63.5394 75.5477 63.5827ZM75.0313 64.1009H73.131V68.6903H75.0313V64.1009Z" fill="#199DFF"/>
<path d="M74.7175 62.2641C74.696 62.2424 74.6302 62.0849 74.6297 62.0513C74.628 61.9267 74.7855 61.7859 74.7283 61.6646L65.3073 65.687C64.8388 65.7163 64.8787 65.1601 65.2997 65.0681L74.5461 61.1361C74.5558 61.0376 74.5504 61.0706 74.4884 61.0527C74.3677 61.0181 74.1601 60.9363 74.1192 60.8139C74.0437 60.5859 74.158 60.3937 74.4033 60.4029C74.5326 60.4078 75.2771 60.7229 75.4232 60.8031C75.6572 60.9314 75.6604 61.0722 75.5758 61.2986C75.5197 61.4496 75.2237 62.1829 75.1537 62.2554C75.0437 62.3691 74.8237 62.3719 74.7165 62.2641H74.7175Z" fill="#199DFF"/>
<path d="M71.7859 69.208C71.7503 69.2492 71.6361 69.2957 71.5768 69.3022C70.7854 69.3905 69.8344 69.2302 69.0253 69.3022L68.8026 69.1918C68.7692 69.1306 68.7676 69.0651 68.7627 68.9974C68.6792 67.8271 68.8307 66.5594 68.7627 65.3789L68.7854 65.2798C68.8619 65.1726 68.9789 65.1293 69.1078 65.1163C69.8619 65.0426 70.7282 65.1732 71.4948 65.1163C71.6231 65.1287 71.7406 65.1715 71.8172 65.2798L71.8398 65.3789C71.7719 66.56 71.9223 67.8271 71.8398 68.9974C71.835 69.0667 71.8339 69.1528 71.7859 69.208ZM71.2711 65.7255H69.3304V68.6903H71.2711V65.7255Z" fill="#199DFF"/>
<path d="M65.194 66.749L67.877 66.7593C68.0312 66.8259 68.0662 66.9266 68.0786 67.0847C68.1266 67.6993 68.0382 68.3752 68.0786 68.9968C68.056 69.2118 67.9385 69.286 67.7352 69.3017C66.9417 69.3645 66.0684 69.2503 65.2657 69.3017C65.097 69.2941 64.9703 69.1669 64.9627 68.9974C65.0134 68.3735 64.8997 67.6576 64.9627 67.0452C64.9784 66.8957 65.0501 66.7961 65.1945 66.7501L65.194 66.749ZM67.4706 67.3501H65.5703V68.6903H67.4706V67.3501Z" fill="#199DFF"/>
<path d="M65.235 61.1041L68.7429 61.0976C69.1094 61.1702 69.1353 61.6662 68.7456 61.7063L65.2286 61.7036C64.8744 61.6213 64.8706 61.181 65.235 61.1041Z" fill="#199DFF"/>
<path d="M65.1531 62.2403L68.8474 62.2511C69.1073 62.335 69.0825 62.7222 68.8248 62.8013H65.186C64.9089 62.6838 64.8954 62.3941 65.1531 62.2403Z" fill="#199DFF"/>
<path d="M65.194 60.007L66.8016 60.0005C67.1267 60.0477 67.1455 60.5502 66.7197 60.6049C66.4264 60.6428 65.6027 60.6433 65.3099 60.6049C64.9051 60.5518 64.8237 60.1749 65.194 60.007Z" fill="#199DFF"/>
<path d="M105.199 63.2205C105.139 62.6826 104.889 62.2659 104.449 61.9705C104.01 61.6712 103.457 61.5216 102.79 61.5216C102.313 61.5216 101.9 61.5974 101.551 61.7489C101.203 61.8966 100.932 62.1011 100.739 62.3625C100.55 62.6201 100.455 62.9136 100.455 63.2432C100.455 63.5197 100.519 63.7583 100.648 63.9591C100.781 64.1599 100.953 64.3284 101.165 64.4648C101.381 64.5974 101.612 64.7091 101.858 64.8C102.105 64.8871 102.341 64.9591 102.569 65.0159L103.705 65.3114C104.076 65.4023 104.457 65.5254 104.847 65.6807C105.237 65.836 105.599 66.0405 105.932 66.2943C106.266 66.5481 106.534 66.8625 106.739 67.2375C106.947 67.6125 107.051 68.0614 107.051 68.5841C107.051 69.2432 106.881 69.8284 106.54 70.3398C106.203 70.8511 105.712 71.2545 105.069 71.55C104.428 71.8455 103.654 71.9932 102.745 71.9932C101.873 71.9932 101.12 71.8549 100.483 71.5784C99.8469 71.3019 99.3488 70.9099 98.989 70.4023C98.6291 69.8909 98.4303 69.2849 98.3924 68.5841H100.154C100.188 69.0045 100.324 69.3549 100.563 69.6352C100.805 69.9117 101.114 70.1182 101.489 70.2545C101.868 70.3871 102.283 70.4534 102.733 70.4534C103.23 70.4534 103.671 70.3758 104.057 70.2205C104.447 70.0614 104.754 69.8417 104.978 69.5614C105.201 69.2773 105.313 68.9458 105.313 68.567C105.313 68.2224 105.214 67.9402 105.017 67.7205C104.824 67.5008 104.561 67.3189 104.228 67.175C103.898 67.0311 103.525 66.9042 103.108 66.7943L101.733 66.4193C100.801 66.1655 100.063 65.7924 99.5174 65.3C98.9757 64.8076 98.7049 64.1561 98.7049 63.3455C98.7049 62.675 98.8867 62.0898 99.2504 61.5898C99.614 61.0898 100.106 60.7015 100.728 60.425C101.349 60.1447 102.05 60.0045 102.83 60.0045C103.618 60.0045 104.313 60.1428 104.915 60.4193C105.521 60.6958 105.998 61.0765 106.347 61.5614C106.695 62.0424 106.877 62.5955 106.892 63.2205H105.199ZM113.087 63.0727V64.4364H108.32V63.0727H113.087ZM109.598 60.9818H111.297V69.2375C111.297 69.567 111.346 69.8152 111.445 69.9818C111.543 70.1447 111.67 70.2564 111.826 70.317C111.985 70.3739 112.157 70.4023 112.343 70.4023C112.479 70.4023 112.598 70.3928 112.701 70.3739C112.803 70.3549 112.882 70.3398 112.939 70.3284L113.246 71.7318C113.148 71.7697 113.007 71.8076 112.826 71.8455C112.644 71.8871 112.417 71.9099 112.144 71.9136C111.697 71.9212 111.28 71.8417 110.894 71.675C110.507 71.5083 110.195 71.2508 109.956 70.9023C109.718 70.5538 109.598 70.1163 109.598 69.5898V60.9818ZM114.966 71.8V63.0727H116.608V64.4591H116.699C116.858 63.9894 117.139 63.6201 117.54 63.3511C117.945 63.0784 118.404 62.942 118.915 62.942C119.021 62.942 119.146 62.9458 119.29 62.9534C119.438 62.961 119.553 62.9705 119.637 62.9818V64.6068C119.569 64.5879 119.447 64.567 119.273 64.5443C119.099 64.5178 118.925 64.5045 118.75 64.5045C118.349 64.5045 117.991 64.5898 117.676 64.7602C117.366 64.9269 117.12 65.1599 116.938 65.4591C116.756 65.7545 116.665 66.0917 116.665 66.4705V71.8H114.966ZM123.569 71.9932C123.016 71.9932 122.516 71.8909 122.069 71.6864C121.622 71.478 121.267 71.1769 121.006 70.783C120.748 70.389 120.62 69.9061 120.62 69.3341C120.62 68.8417 120.714 68.4364 120.904 68.1182C121.093 67.8 121.349 67.5481 121.671 67.3625C121.993 67.1769 122.353 67.0367 122.75 66.942C123.148 66.8474 123.553 66.7754 123.966 66.7261C124.489 66.6655 124.913 66.6163 125.239 66.5784C125.565 66.5367 125.801 66.4705 125.949 66.3795C126.097 66.2886 126.171 66.1409 126.171 65.9364V65.8966C126.171 65.4004 126.031 65.0159 125.75 64.7432C125.474 64.4705 125.061 64.3341 124.512 64.3341C123.94 64.3341 123.489 64.461 123.159 64.7148C122.834 64.9648 122.608 65.2432 122.483 65.55L120.887 65.1864C121.076 64.6561 121.353 64.228 121.716 63.9023C122.084 63.5727 122.506 63.3341 122.983 63.1864C123.461 63.0349 123.962 62.9591 124.489 62.9591C124.837 62.9591 125.207 63.0008 125.597 63.0841C125.991 63.1636 126.358 63.3114 126.699 63.5273C127.044 63.7432 127.326 64.0519 127.546 64.4534C127.766 64.8511 127.875 65.3682 127.875 66.0045V71.8H126.216V70.6068H126.148C126.038 70.8265 125.873 71.0424 125.654 71.2545C125.434 71.4667 125.152 71.6428 124.807 71.783C124.462 71.9231 124.05 71.9932 123.569 71.9932ZM123.938 70.6295C124.408 70.6295 124.809 70.5367 125.142 70.3511C125.48 70.1655 125.735 69.9231 125.909 69.6239C126.087 69.3208 126.176 68.997 126.176 68.6523V67.5273C126.116 67.5879 125.998 67.6447 125.824 67.6977C125.654 67.747 125.459 67.7905 125.239 67.8284C125.019 67.8625 124.805 67.8947 124.597 67.925C124.389 67.9515 124.214 67.9742 124.074 67.9932C123.745 68.0349 123.444 68.1049 123.171 68.2034C122.902 68.3019 122.686 68.4439 122.523 68.6295C122.364 68.8114 122.284 69.0538 122.284 69.3568C122.284 69.7773 122.44 70.0955 122.75 70.3114C123.061 70.5235 123.457 70.6295 123.938 70.6295ZM134.212 63.0727V64.4364H129.445V63.0727H134.212ZM130.723 60.9818H132.422V69.2375C132.422 69.567 132.471 69.8152 132.57 69.9818C132.668 70.1447 132.795 70.2564 132.951 70.317C133.11 70.3739 133.282 70.4023 133.468 70.4023C133.604 70.4023 133.723 70.3928 133.826 70.3739C133.928 70.3549 134.007 70.3398 134.064 70.3284L134.371 71.7318C134.273 71.7697 134.132 71.8076 133.951 71.8455C133.769 71.8871 133.542 71.9099 133.269 71.9136C132.822 71.9212 132.405 71.8417 132.019 71.675C131.632 71.5083 131.32 71.2508 131.081 70.9023C130.843 70.5538 130.723 70.1163 130.723 69.5898V60.9818ZM139.759 71.9761C138.899 71.9761 138.158 71.7924 137.537 71.425C136.92 71.0538 136.443 70.533 136.105 69.8625C135.772 69.1883 135.605 68.3985 135.605 67.4932C135.605 66.5992 135.772 65.8114 136.105 65.1295C136.443 64.4477 136.912 63.9155 137.515 63.533C138.121 63.1504 138.829 62.9591 139.64 62.9591C140.132 62.9591 140.609 63.0405 141.071 63.2034C141.533 63.3663 141.948 63.622 142.316 63.9705C142.683 64.3189 142.973 64.7716 143.185 65.3284C143.397 65.8814 143.503 66.5538 143.503 67.3455V67.9477H136.566V66.675H141.838C141.838 66.228 141.748 65.8322 141.566 65.4875C141.384 65.139 141.128 64.8644 140.799 64.6636C140.473 64.4629 140.09 64.3625 139.651 64.3625C139.174 64.3625 138.757 64.4799 138.401 64.7148C138.049 64.9458 137.776 65.2489 137.583 65.6239C137.393 65.9951 137.299 66.3985 137.299 66.8341V67.8284C137.299 68.4117 137.401 68.908 137.605 69.317C137.814 69.7261 138.104 70.0386 138.475 70.2545C138.846 70.4667 139.28 70.5727 139.776 70.5727C140.098 70.5727 140.391 70.5273 140.657 70.4364C140.922 70.3417 141.151 70.2015 141.344 70.0159C141.537 69.8303 141.685 69.6011 141.787 69.3284L143.395 69.6182C143.266 70.0917 143.035 70.5064 142.702 70.8625C142.373 71.2148 141.958 71.4894 141.458 71.6864C140.962 71.8795 140.395 71.9761 139.759 71.9761ZM138.873 61.908L140.202 59.2886H141.992L140.23 61.908H138.873ZM149.047 75.2545C148.354 75.2545 147.757 75.1636 147.257 74.9818C146.761 74.8 146.356 74.5595 146.042 74.2602C145.727 73.961 145.492 73.6333 145.337 73.2773L146.797 72.675C146.9 72.8417 147.036 73.0178 147.206 73.2034C147.381 73.3928 147.615 73.5538 147.911 73.6864C148.21 73.8189 148.595 73.8852 149.064 73.8852C149.708 73.8852 150.24 73.728 150.661 73.4136C151.081 73.103 151.292 72.6068 151.292 71.925V70.2091H151.184C151.081 70.3947 150.934 70.6011 150.74 70.8284C150.551 71.0557 150.29 71.2527 149.956 71.4193C149.623 71.586 149.189 71.6693 148.655 71.6693C147.966 71.6693 147.345 71.5083 146.792 71.1864C146.242 70.8606 145.807 70.3814 145.485 69.7489C145.167 69.1125 145.007 68.3303 145.007 67.4023C145.007 66.4742 145.165 65.6788 145.479 65.0159C145.797 64.353 146.233 63.8455 146.786 63.4932C147.339 63.1371 147.966 62.9591 148.667 62.9591C149.208 62.9591 149.646 63.05 149.979 63.2318C150.312 63.4099 150.572 63.6182 150.757 63.8568C150.947 64.0955 151.093 64.3057 151.195 64.4875H151.32V63.0727H152.985V71.9932C152.985 72.7432 152.81 73.3587 152.462 73.8398C152.114 74.3208 151.642 74.6769 151.047 74.908C150.456 75.139 149.79 75.2545 149.047 75.2545ZM149.03 70.2602C149.519 70.2602 149.932 70.1466 150.269 69.9193C150.61 69.6883 150.867 69.3587 151.042 68.9307C151.22 68.4989 151.309 67.9818 151.309 67.3795C151.309 66.7924 151.221 66.2754 151.047 65.8284C150.873 65.3814 150.617 65.033 150.28 64.783C149.943 64.5292 149.526 64.4023 149.03 64.4023C148.519 64.4023 148.093 64.5349 147.752 64.8C147.411 65.0614 147.153 65.4174 146.979 65.8682C146.809 66.3189 146.723 66.8227 146.723 67.3795C146.723 67.9515 146.81 68.4534 146.985 68.8852C147.159 69.317 147.417 69.6542 147.757 69.8966C148.102 70.139 148.526 70.2602 149.03 70.2602ZM155.263 71.8V63.0727H156.962V71.8H155.263ZM156.121 61.7261C155.826 61.7261 155.572 61.6277 155.36 61.4307C155.151 61.2299 155.047 60.9913 155.047 60.7148C155.047 60.4345 155.151 60.1958 155.36 59.9989C155.572 59.7981 155.826 59.6977 156.121 59.6977C156.417 59.6977 156.668 59.7981 156.877 59.9989C157.089 60.1958 157.195 60.4345 157.195 60.7148C157.195 60.9913 157.089 61.2299 156.877 61.4307C156.668 61.6277 156.417 61.7261 156.121 61.7261ZM163.009 71.9761C162.149 71.9761 161.408 71.7924 160.787 71.425C160.17 71.0538 159.693 70.533 159.355 69.8625C159.022 69.1883 158.855 68.3985 158.855 67.4932C158.855 66.5992 159.022 65.8114 159.355 65.1295C159.693 64.4477 160.162 63.9155 160.765 63.533C161.371 63.1504 162.079 62.9591 162.89 62.9591C163.382 62.9591 163.859 63.0405 164.321 63.2034C164.783 63.3663 165.198 63.622 165.566 63.9705C165.933 64.3189 166.223 64.7716 166.435 65.3284C166.647 65.8814 166.753 66.5538 166.753 67.3455V67.9477H159.816V66.675H165.088C165.088 66.228 164.998 65.8322 164.816 65.4875C164.634 65.139 164.378 64.8644 164.049 64.6636C163.723 64.4629 163.34 64.3625 162.901 64.3625C162.424 64.3625 162.007 64.4799 161.651 64.7148C161.299 64.9458 161.026 65.2489 160.833 65.6239C160.643 65.9951 160.549 66.3985 160.549 66.8341V67.8284C160.549 68.4117 160.651 68.908 160.855 69.317C161.064 69.7261 161.354 70.0386 161.725 70.2545C162.096 70.4667 162.53 70.5727 163.026 70.5727C163.348 70.5727 163.641 70.5273 163.907 70.4364C164.172 70.3417 164.401 70.2015 164.594 70.0159C164.787 69.8303 164.935 69.6011 165.037 69.3284L166.645 69.6182C166.516 70.0917 166.285 70.5064 165.952 70.8625C165.623 71.2148 165.208 71.4894 164.708 71.6864C164.212 71.8795 163.645 71.9761 163.009 71.9761ZM176.14 71.9705C175.435 71.9705 174.806 71.7905 174.253 71.4307C173.704 71.067 173.272 70.55 172.958 69.8795C172.647 69.2053 172.492 68.3966 172.492 67.4534C172.492 66.5102 172.649 65.7034 172.963 65.033C173.282 64.3625 173.717 63.8492 174.27 63.4932C174.823 63.1371 175.45 62.9591 176.151 62.9591C176.693 62.9591 177.128 63.05 177.458 63.2318C177.791 63.4099 178.049 63.6182 178.23 63.8568C178.416 64.0955 178.56 64.3057 178.662 64.4875H178.765V60.1636H180.463V71.8H178.804V70.442H178.662C178.56 70.6277 178.412 70.8398 178.219 71.0784C178.03 71.317 177.768 71.5254 177.435 71.7034C177.102 71.8814 176.67 71.9705 176.14 71.9705ZM176.515 70.5216C177.003 70.5216 177.416 70.3928 177.753 70.1352C178.094 69.8739 178.352 69.5121 178.526 69.05C178.704 68.5879 178.793 68.05 178.793 67.4364C178.793 66.8303 178.706 66.3 178.532 65.8455C178.357 65.3909 178.102 65.0367 177.765 64.783C177.427 64.5292 177.011 64.4023 176.515 64.4023C176.003 64.4023 175.577 64.5349 175.236 64.8C174.895 65.0652 174.638 65.4269 174.463 65.8852C174.293 66.3436 174.208 66.8606 174.208 67.4364C174.208 68.0197 174.295 68.5443 174.469 69.0102C174.643 69.4761 174.901 69.8455 175.242 70.1182C175.587 70.3871 176.011 70.5216 176.515 70.5216ZM182.888 71.8V63.0727H184.587V71.8H182.888ZM183.746 61.7261C183.451 61.7261 183.197 61.6277 182.985 61.4307C182.776 61.2299 182.672 60.9913 182.672 60.7148C182.672 60.4345 182.776 60.1958 182.985 59.9989C183.197 59.7981 183.451 59.6977 183.746 59.6977C184.042 59.6977 184.293 59.7981 184.502 59.9989C184.714 60.1958 184.82 60.4345 184.82 60.7148C184.82 60.9913 184.714 61.2299 184.502 61.4307C184.293 61.6277 184.042 61.7261 183.746 61.7261ZM190.532 75.2545C189.838 75.2545 189.242 75.1636 188.742 74.9818C188.246 74.8 187.84 74.5595 187.526 74.2602C187.212 73.961 186.977 73.6333 186.821 73.2773L188.282 72.675C188.384 72.8417 188.52 73.0178 188.691 73.2034C188.865 73.3928 189.1 73.5538 189.395 73.6864C189.694 73.8189 190.079 73.8852 190.549 73.8852C191.193 73.8852 191.725 73.728 192.145 73.4136C192.566 73.103 192.776 72.6068 192.776 71.925V70.2091H192.668C192.566 70.3947 192.418 70.6011 192.225 70.8284C192.035 71.0557 191.774 71.2527 191.441 71.4193C191.107 71.586 190.674 71.6693 190.14 71.6693C189.45 71.6693 188.829 71.5083 188.276 71.1864C187.727 70.8606 187.291 70.3814 186.969 69.7489C186.651 69.1125 186.492 68.3303 186.492 67.4023C186.492 66.4742 186.649 65.6788 186.963 65.0159C187.282 64.353 187.717 63.8455 188.27 63.4932C188.823 63.1371 189.45 62.9591 190.151 62.9591C190.693 62.9591 191.13 63.05 191.463 63.2318C191.797 63.4099 192.056 63.6182 192.242 63.8568C192.431 64.0955 192.577 64.3057 192.679 64.4875H192.804V63.0727H194.469V71.9932C194.469 72.7432 194.295 73.3587 193.946 73.8398C193.598 74.3208 193.126 74.6769 192.532 74.908C191.941 75.139 191.274 75.2545 190.532 75.2545ZM190.515 70.2602C191.003 70.2602 191.416 70.1466 191.753 69.9193C192.094 69.6883 192.352 69.3587 192.526 68.9307C192.704 68.4989 192.793 67.9818 192.793 67.3795C192.793 66.7924 192.706 66.2754 192.532 65.8284C192.357 65.3814 192.102 65.033 191.765 64.783C191.427 64.5292 191.011 64.4023 190.515 64.4023C190.003 64.4023 189.577 64.5349 189.236 64.8C188.895 65.0614 188.638 65.4174 188.463 65.8682C188.293 66.3189 188.208 66.8227 188.208 67.3795C188.208 67.9515 188.295 68.4534 188.469 68.8852C188.643 69.317 188.901 69.6542 189.242 69.8966C189.587 70.139 190.011 70.2602 190.515 70.2602ZM196.748 71.8V63.0727H198.446V71.8H196.748ZM197.605 61.7261C197.31 61.7261 197.056 61.6277 196.844 61.4307C196.636 61.2299 196.532 60.9913 196.532 60.7148C196.532 60.4345 196.636 60.1958 196.844 59.9989C197.056 59.7981 197.31 59.6977 197.605 59.6977C197.901 59.6977 198.153 59.7981 198.361 59.9989C198.573 60.1958 198.679 60.4345 198.679 60.7148C198.679 60.9913 198.573 61.2299 198.361 61.4307C198.153 61.6277 197.901 61.7261 197.605 61.7261ZM204.806 63.0727V64.4364H200.039V63.0727H204.806ZM201.317 60.9818H203.016V69.2375C203.016 69.567 203.065 69.8152 203.164 69.9818C203.262 70.1447 203.389 70.2564 203.544 70.317C203.703 70.3739 203.876 70.4023 204.061 70.4023C204.198 70.4023 204.317 70.3928 204.419 70.3739C204.522 70.3549 204.601 70.3398 204.658 70.3284L204.965 71.7318C204.866 71.7697 204.726 71.8076 204.544 71.8455C204.363 71.8871 204.135 71.9099 203.863 71.9136C203.416 71.9212 202.999 71.8417 202.613 71.675C202.226 71.5083 201.914 71.2508 201.675 70.9023C201.436 70.5538 201.317 70.1163 201.317 69.5898V60.9818ZM209.225 71.9932C208.672 71.9932 208.172 71.8909 207.725 71.6864C207.278 71.478 206.924 71.1769 206.662 70.783C206.405 70.389 206.276 69.9061 206.276 69.3341C206.276 68.8417 206.371 68.4364 206.56 68.1182C206.749 67.8 207.005 67.5481 207.327 67.3625C207.649 67.1769 208.009 67.0367 208.407 66.942C208.804 66.8474 209.21 66.7754 209.623 66.7261C210.145 66.6655 210.569 66.6163 210.895 66.5784C211.221 66.5367 211.458 66.4705 211.605 66.3795C211.753 66.2886 211.827 66.1409 211.827 65.9364V65.8966C211.827 65.4004 211.687 65.0159 211.407 64.7432C211.13 64.4705 210.717 64.3341 210.168 64.3341C209.596 64.3341 209.145 64.461 208.816 64.7148C208.49 64.9648 208.265 65.2432 208.14 65.55L206.543 65.1864C206.732 64.6561 207.009 64.228 207.373 63.9023C207.74 63.5727 208.162 63.3341 208.64 63.1864C209.117 63.0349 209.619 62.9591 210.145 62.9591C210.494 62.9591 210.863 63.0008 211.253 63.0841C211.647 63.1636 212.015 63.3114 212.355 63.5273C212.7 63.7432 212.982 64.0519 213.202 64.4534C213.422 64.8511 213.532 65.3682 213.532 66.0045V71.8H211.873V70.6068H211.804C211.694 70.8265 211.53 71.0424 211.31 71.2545C211.09 71.4667 210.808 71.6428 210.463 71.783C210.119 71.9231 209.706 71.9932 209.225 71.9932ZM209.594 70.6295C210.064 70.6295 210.465 70.5367 210.799 70.3511C211.136 70.1655 211.391 69.9231 211.566 69.6239C211.744 69.3208 211.833 68.997 211.833 68.6523V67.5273C211.772 67.5879 211.655 67.6447 211.48 67.6977C211.31 67.747 211.115 67.7905 210.895 67.8284C210.676 67.8625 210.462 67.8947 210.253 67.925C210.045 67.9515 209.871 67.9742 209.73 67.9932C209.401 68.0349 209.1 68.1049 208.827 68.2034C208.558 68.3019 208.342 68.4439 208.179 68.6295C208.02 68.8114 207.941 69.0538 207.941 69.3568C207.941 69.7773 208.096 70.0955 208.407 70.3114C208.717 70.5235 209.113 70.6295 209.594 70.6295ZM217.493 60.1636V71.8H215.794V60.1636H217.493ZM223.54 71.9761C222.68 71.9761 221.94 71.7924 221.319 71.425C220.701 71.0538 220.224 70.533 219.887 69.8625C219.553 69.1883 219.387 68.3985 219.387 67.4932C219.387 66.5992 219.553 65.8114 219.887 65.1295C220.224 64.4477 220.694 63.9155 221.296 63.533C221.902 63.1504 222.61 62.9591 223.421 62.9591C223.913 62.9591 224.391 63.0405 224.853 63.2034C225.315 63.3663 225.73 63.622 226.097 63.9705C226.464 64.3189 226.754 64.7716 226.966 65.3284C227.178 65.8814 227.284 66.5538 227.284 67.3455V67.9477H220.347V66.675H225.62C225.62 66.228 225.529 65.8322 225.347 65.4875C225.165 65.139 224.909 64.8644 224.58 64.6636C224.254 64.4629 223.872 64.3625 223.432 64.3625C222.955 64.3625 222.538 64.4799 222.182 64.7148C221.83 64.9458 221.557 65.2489 221.364 65.6239C221.175 65.9951 221.08 66.3985 221.08 66.8341V67.8284C221.08 68.4117 221.182 68.908 221.387 69.317C221.595 69.7261 221.885 70.0386 222.256 70.2545C222.627 70.4667 223.061 70.5727 223.557 70.5727C223.879 70.5727 224.173 70.5273 224.438 70.4364C224.703 70.3417 224.932 70.2015 225.125 70.0159C225.319 69.8303 225.466 69.6011 225.569 69.3284L227.176 69.6182C227.048 70.0917 226.817 70.5064 226.483 70.8625C226.154 71.2148 225.739 71.4894 225.239 71.6864C224.743 71.8795 224.176 71.9761 223.54 71.9761Z" fill="#556DB1"/>
</g>
<defs>
<filter id="filter0_d_528_15223" x="0.000782013" y="3.8147e-06" width="303.6" height="140.6" filterUnits="userSpaceOnUse" color-interpolation-filters="sRGB">
<feFlood flood-opacity="0" result="BackgroundImageFix"/>
<feColorMatrix in="SourceAlpha" type="matrix" values="0 0 0 0 0 0 0 0 0 0 0 0 0 0 0 0 0 0 127 0" result="hardAlpha"/>
<feOffset dy="4"/>
<feGaussianBlur stdDeviation="22.15"/>
<feComposite in2="hardAlpha" operator="out"/>
<feColorMatrix type="matrix" values="0 0 0 0 0 0 0 0 0 0 0 0 0 0 0 0 0 0 0.12 0"/>
<feBlend mode="normal" in2="BackgroundImageFix" result="effect1_dropShadow_528_15223"/>
<feBlend mode="normal" in="SourceGraphic" in2="effect1_dropShadow_528_15223" result="shape"/>
</filter>
</defs>
</svg>
