<svg width="324" height="141" viewBox="0 0 324 141" fill="none" xmlns="http://www.w3.org/2000/svg">
<g filter="url(#filter0_d_528_15183)">
<path d="M44.3008 66.3C44.3008 51.9406 55.9414 40.3 70.3008 40.3H253.301C267.66 40.3 279.301 51.9406 279.301 66.3C279.301 80.6594 267.66 92.3 253.301 92.3H70.3008C55.9414 92.3 44.3008 80.6594 44.3008 66.3Z" fill="white" shape-rendering="crispEdges"/>
<rect x="54.3008" y="50.3" width="32" height="32" rx="16" fill="#FFF2EF"/>
<g clip-path="url(#clip0_528_15183)">
<path d="M81.3012 66.1729V66.4306C81.2128 66.5396 81.1387 66.6475 80.9803 66.6464L76.8737 66.6257C76.538 66.4736 76.604 65.9898 76.9822 65.9559H80.9803C81.1393 65.9553 81.2128 66.0627 81.3012 66.1717V66.1729Z" fill="#FF7A38"/>
<path d="M70.4305 77.3H70.1728C70.0638 77.2116 69.9559 77.1375 69.957 76.9791L69.9777 72.8725C70.1298 72.5368 70.6136 72.6028 70.6475 72.981V76.9791C70.6481 77.1381 70.5407 77.2116 70.4317 77.3H70.4305Z" fill="#FF7A38"/>
<path d="M79.9132 67.1698C80.0773 67.1325 80.2547 67.175 80.3339 67.3328C80.4481 67.5613 80.2042 68.5565 80.129 68.8458C79.1757 72.5001 76.229 75.3738 72.5374 76.2049C72.2739 76.264 71.5123 76.4414 71.3097 76.3134C71.0727 76.1636 71.1157 75.7825 71.378 75.6895C71.6013 75.6103 72.0593 75.5856 72.3302 75.5248C76.2881 74.6397 79.2204 71.4147 79.6876 67.3724C79.718 67.2795 79.8179 67.1905 79.9132 67.1687V67.1698Z" fill="#FF7A38"/>
<path d="M71.3632 56.2562C71.6616 56.1667 72.7085 56.4307 73.0523 56.5277C76.5098 57.5017 79.2234 60.2853 80.1291 63.7571C80.2117 64.0745 80.4316 64.9624 80.3478 65.2408C80.2697 65.5008 79.8111 65.5197 79.7003 65.2592C79.2297 61.2197 76.2991 57.9505 72.3303 57.077C72.0284 57.0104 71.6921 56.9914 71.4068 56.9266C71.086 56.8531 71.0802 56.3406 71.3632 56.2556V56.2562Z" fill="#FF7A38"/>
<path d="M60.4499 67.1687C60.6239 67.1153 60.858 67.1928 60.9171 67.373C61.3654 71.3872 64.3361 74.6673 68.2746 75.5254C68.5472 75.5845 69.0023 75.6069 69.2267 75.6907C69.489 75.7882 69.5338 76.163 69.295 76.314C69.093 76.442 68.3314 76.2646 68.0674 76.2055C64.4613 75.3933 61.5295 72.6063 60.528 69.0518C60.431 68.708 60.167 67.6611 60.2565 67.3627C60.2703 67.3162 60.4035 67.1836 60.4499 67.1693V67.1687Z" fill="#FF7A38"/>
<path d="M68.7896 56.2602C68.9962 56.2396 69.3176 56.1919 69.4215 56.4203C69.4909 56.5724 69.4358 56.806 69.2877 56.8875C68.9549 56.9759 68.6111 57.0046 68.2747 57.0775C64.6399 57.8633 61.8924 60.6618 61.0786 64.2737C61.02 64.5331 60.9713 65.3068 60.7543 65.4101C60.3686 65.5937 60.2303 65.2281 60.2475 64.9033C60.3221 63.4839 61.272 61.459 62.1042 60.3163C63.5678 58.3063 66.274 56.5116 68.7896 56.2602Z" fill="#FF7A38"/>
<path d="M71.4065 58.3196C71.6091 58.2748 72.1882 58.4343 72.4172 58.4946C75.2674 59.2465 77.577 61.6427 78.1945 64.532C78.2273 64.6846 78.2961 64.9349 78.2973 65.0778C78.2996 65.4721 77.8467 65.5742 77.6298 65.2689C77.1655 62.2964 75.0688 59.9117 72.1509 59.1478C71.9488 59.095 71.4461 59.0473 71.31 58.9578C71.077 58.804 71.1206 58.3833 71.4065 58.3201V58.3196Z" fill="#FF7A38"/>
<path d="M77.8505 67.1693C78.464 67.0298 78.2568 67.7817 78.1862 68.1071C77.5394 71.0773 75.076 73.5395 72.107 74.1863C71.8298 74.2466 71.2581 74.4417 71.1691 74.0474C71.0492 73.5125 71.797 73.5469 72.15 73.4557C74.6335 72.8129 76.6647 70.8879 77.3787 68.4159C77.4653 68.1157 77.5113 67.6095 77.6163 67.3644C77.6524 67.28 77.7621 67.1888 77.8505 67.1687V67.1693Z" fill="#FF7A38"/>
<path d="M68.9598 58.3224C69.4247 58.2731 69.6067 58.6209 69.2939 58.9572C68.7613 59.0967 68.2189 59.192 67.7012 59.3837C65.162 60.3255 63.3868 62.6024 62.9741 65.2683C62.7572 65.5737 62.3049 65.4715 62.3066 65.0772C62.3084 64.711 62.5638 63.896 62.6958 63.5293C63.6078 61.0005 66.2204 58.614 68.9593 58.3219L68.9598 58.3224Z" fill="#FF7A38"/>
<path d="M62.5557 67.1692C62.7314 67.1296 62.8714 67.1933 62.9742 67.3351C63.4545 70.5922 66.0132 73.1469 69.2681 73.629C69.5734 73.8459 69.4712 74.2982 69.0769 74.2965C68.9266 74.2959 68.6562 74.2213 68.4961 74.1863C65.7176 73.5814 63.338 71.3516 62.5466 68.6219C62.4742 68.3722 62.2814 67.6628 62.3118 67.443C62.329 67.3185 62.4318 67.1973 62.5557 67.1698V67.1692Z" fill="#FF7A38"/>
<path d="M66.8979 61.1572C68.6984 60.8995 69.6684 63.0902 68.284 64.2186C66.8939 65.3516 64.8564 63.7818 65.6542 62.1047C65.8666 61.6582 66.4003 61.2283 66.8979 61.1572ZM67.1143 61.8447C65.6129 61.9877 66.1019 64.3523 67.5838 63.8191C68.6554 63.4334 68.3058 61.7311 67.1143 61.8447Z" fill="#FF7A38"/>
<path d="M73.0851 61.1572C74.8856 60.8995 75.8555 63.0902 74.4712 64.2186C73.0868 65.347 71.0436 63.7818 71.8413 62.1047C72.0537 61.6582 72.5875 61.2283 73.0851 61.1572ZM73.3015 61.8447C71.8 61.9877 72.289 64.3523 73.771 63.8191C74.8425 63.4334 74.493 61.7311 73.3015 61.8447Z" fill="#FF7A38"/>
<path d="M69.9917 65.4532C71.7922 65.1954 72.7621 67.3862 71.3778 68.5146C69.9877 69.6476 67.9502 68.0778 68.7479 66.4007C68.9603 65.9542 69.4941 65.5243 69.9917 65.4532ZM70.2075 66.1407C68.706 66.2837 69.1951 68.6483 70.677 68.1151C71.7485 67.7294 71.399 66.0271 70.2075 66.1407Z" fill="#FF7A38"/>
<path d="M69.1315 69.4059C69.6234 69.3353 70.8878 69.3468 71.398 69.395C72.0242 69.4541 72.6676 70.0309 72.8254 70.6313C72.9155 70.9734 72.9104 71.7568 72.8817 72.1253C72.8421 72.6286 72.236 72.5976 72.1912 72.1677C72.1178 71.4618 72.4271 70.4499 71.5054 70.1469C71.1507 70.0304 69.884 70.051 69.4621 70.0809C68.8887 70.1222 68.4755 70.4706 68.4158 71.0537C68.3814 71.3901 68.4789 71.9984 68.3923 72.2762C68.2958 72.5856 67.7776 72.5598 67.7259 72.2074C67.684 71.9238 67.6984 71.2202 67.7219 70.9188C67.7764 70.2175 68.4319 69.5064 69.1309 69.4065L69.1315 69.4059Z" fill="#FF7A38"/>
<path d="M66.0379 65.1093L68.1661 65.107C68.5145 65.2075 68.4898 65.7309 68.1299 65.7837C67.1772 65.9232 65.4461 65.3223 65.3176 66.795C65.2895 67.1176 65.383 67.7087 65.2986 67.9791C65.2011 68.2919 64.6713 68.2752 64.6288 67.8706C64.502 66.6492 64.6644 65.425 66.0373 65.1093H66.0379Z" fill="#FF7A38"/>
<path d="M72.4372 65.1071C73.1001 65.1432 73.8807 65.0261 74.5298 65.1025C75.1376 65.1736 75.7644 65.7493 75.9188 66.3342C76.0049 66.6602 76.0106 67.5216 75.9745 67.8706C75.9291 68.3062 75.3299 68.3057 75.2846 67.8706C75.2289 67.3397 75.4229 66.6837 75.09 66.2176C74.562 65.4767 73.1908 65.9129 72.4051 65.7665C72.1003 65.6311 72.1198 65.2104 72.4378 65.1071H72.4372Z" fill="#FF7A38"/>
<path d="M70.2038 55.3115C70.3754 55.273 70.5304 55.3304 70.6136 55.486L70.6475 59.6218C70.6142 60.0001 70.1304 60.0661 69.9777 59.7303L69.957 55.6237C69.9593 55.4825 70.0644 55.3425 70.2033 55.3109L70.2038 55.3115Z" fill="#FF7A38"/>
<path d="M59.549 65.9668L63.6625 65.9599C64.0568 66.0179 64.0373 66.6234 63.6229 66.6464L59.5851 66.6429C59.2247 66.5901 59.2006 66.0667 59.549 65.9663V65.9668Z" fill="#FF7A38"/>
</g>
<path d="M98.4897 61.675V60.1636H107.495V61.675H103.865V71.8H102.115V61.675H98.4897ZM108.443 71.8V63.0727H110.085V64.4591H110.176C110.335 63.9894 110.615 63.6201 111.017 63.3511C111.422 63.0784 111.88 62.942 112.392 62.942C112.498 62.942 112.623 62.9458 112.767 62.9534C112.914 62.961 113.03 62.9705 113.113 62.9818V64.6068C113.045 64.5879 112.924 64.567 112.75 64.5443C112.575 64.5178 112.401 64.5045 112.227 64.5045C111.825 64.5045 111.467 64.5898 111.153 64.7602C110.842 64.9269 110.596 65.1599 110.414 65.4591C110.233 65.7545 110.142 66.0917 110.142 66.4705V71.8H108.443ZM117.045 71.9932C116.492 71.9932 115.992 71.8909 115.545 71.6864C115.098 71.478 114.744 71.1769 114.483 70.783C114.225 70.389 114.096 69.9061 114.096 69.3341C114.096 68.8417 114.191 68.4364 114.38 68.1182C114.57 67.8 114.825 67.5481 115.147 67.3625C115.469 67.1769 115.829 67.0367 116.227 66.942C116.625 66.8474 117.03 66.7754 117.443 66.7261C117.966 66.6655 118.39 66.6163 118.716 66.5784C119.041 66.5367 119.278 66.4705 119.426 66.3795C119.574 66.2886 119.647 66.1409 119.647 65.9364V65.8966C119.647 65.4004 119.507 65.0159 119.227 64.7432C118.95 64.4705 118.538 64.3341 117.988 64.3341C117.416 64.3341 116.966 64.461 116.636 64.7148C116.31 64.9648 116.085 65.2432 115.96 65.55L114.363 65.1864C114.553 64.6561 114.829 64.228 115.193 63.9023C115.56 63.5727 115.983 63.3341 116.46 63.1864C116.937 63.0349 117.439 62.9591 117.966 62.9591C118.314 62.9591 118.683 63.0008 119.074 63.0841C119.467 63.1636 119.835 63.3114 120.176 63.5273C120.52 63.7432 120.803 64.0519 121.022 64.4534C121.242 64.8511 121.352 65.3682 121.352 66.0045V71.8H119.693V70.6068H119.625C119.515 70.8265 119.35 71.0424 119.13 71.2545C118.911 71.4667 118.628 71.6428 118.284 71.783C117.939 71.9231 117.526 71.9932 117.045 71.9932ZM117.414 70.6295C117.884 70.6295 118.286 70.5367 118.619 70.3511C118.956 70.1655 119.212 69.9231 119.386 69.6239C119.564 69.3208 119.653 68.997 119.653 68.6523V67.5273C119.592 67.5879 119.475 67.6447 119.301 67.6977C119.13 67.747 118.935 67.7905 118.716 67.8284C118.496 67.8625 118.282 67.8947 118.074 67.925C117.865 67.9515 117.691 67.9742 117.551 67.9932C117.221 68.0349 116.92 68.1049 116.647 68.2034C116.378 68.3019 116.163 68.4439 116 68.6295C115.841 68.8114 115.761 69.0538 115.761 69.3568C115.761 69.7773 115.916 70.0955 116.227 70.3114C116.538 70.5235 116.933 70.6295 117.414 70.6295ZM127.768 63.0727V64.4364H122.836V63.0727H127.768ZM124.189 71.8V62.0614C124.189 61.5159 124.308 61.0633 124.547 60.7034C124.785 60.3398 125.101 60.0689 125.495 59.8909C125.889 59.7091 126.317 59.6182 126.779 59.6182C127.12 59.6182 127.412 59.6466 127.654 59.7034C127.897 59.7564 128.077 59.8057 128.194 59.8511L127.797 61.2261C127.717 61.2034 127.615 61.1769 127.49 61.1466C127.365 61.1125 127.213 61.0955 127.035 61.0955C126.622 61.0955 126.327 61.1977 126.149 61.4023C125.975 61.6068 125.887 61.9023 125.887 62.2886V71.8H124.189ZM133.674 63.0727V64.4364H128.743V63.0727H133.674ZM130.095 71.8V62.0614C130.095 61.5159 130.214 61.0633 130.453 60.7034C130.691 60.3398 131.008 60.0689 131.402 59.8909C131.796 59.7091 132.224 59.6182 132.686 59.6182C133.027 59.6182 133.318 59.6466 133.561 59.7034C133.803 59.7564 133.983 59.8057 134.1 59.8511L133.703 61.2261C133.623 61.2034 133.521 61.1769 133.396 61.1466C133.271 61.1125 133.119 61.0955 132.941 61.0955C132.529 61.0955 132.233 61.1977 132.055 61.4023C131.881 61.6068 131.794 61.9023 131.794 62.2886V71.8H130.095ZM135.427 71.8V63.0727H137.126V71.8H135.427ZM136.285 61.7261C135.99 61.7261 135.736 61.6277 135.524 61.4307C135.315 61.2299 135.211 60.9913 135.211 60.7148C135.211 60.4345 135.315 60.1958 135.524 59.9989C135.736 59.7981 135.99 59.6977 136.285 59.6977C136.581 59.6977 136.833 59.7981 137.041 59.9989C137.253 60.1958 137.359 60.4345 137.359 60.7148C137.359 60.9913 137.253 61.2299 137.041 61.4307C136.833 61.6277 136.581 61.7261 136.285 61.7261ZM143.088 71.9761C142.243 71.9761 141.516 71.7849 140.906 71.4023C140.3 71.0159 139.834 70.4837 139.508 69.8057C139.182 69.1277 139.02 68.3511 139.02 67.4761C139.02 66.5898 139.186 65.8076 139.52 65.1295C139.853 64.4477 140.323 63.9155 140.929 63.533C141.535 63.1504 142.249 62.9591 143.071 62.9591C143.734 62.9591 144.324 63.0822 144.843 63.3284C145.362 63.5708 145.781 63.9117 146.099 64.3511C146.421 64.7905 146.612 65.3038 146.673 65.8909H145.02C144.929 65.4818 144.72 65.1295 144.395 64.8341C144.073 64.5386 143.641 64.3909 143.099 64.3909C142.626 64.3909 142.211 64.5159 141.855 64.7659C141.502 65.0121 141.228 65.3644 141.031 65.8227C140.834 66.2773 140.735 66.8152 140.735 67.4364C140.735 68.0727 140.832 68.622 141.025 69.0841C141.218 69.5462 141.491 69.9042 141.843 70.158C142.199 70.4117 142.618 70.5386 143.099 70.5386C143.421 70.5386 143.713 70.4799 143.974 70.3625C144.239 70.2413 144.461 70.0689 144.639 69.8455C144.821 69.622 144.948 69.353 145.02 69.0386H146.673C146.612 69.603 146.429 70.1068 146.122 70.55C145.815 70.9932 145.404 71.3417 144.889 71.5955C144.377 71.8492 143.777 71.9761 143.088 71.9761ZM152.724 71.8V63.0727H154.355V64.4932H154.463C154.645 64.0121 154.942 63.6371 155.355 63.3682C155.768 63.0955 156.262 62.9591 156.838 62.9591C157.421 62.9591 157.91 63.0955 158.304 63.3682C158.701 63.6409 158.995 64.0159 159.184 64.4932H159.275C159.484 64.0273 159.815 63.6561 160.27 63.3795C160.724 63.0992 161.266 62.9591 161.895 62.9591C162.686 62.9591 163.332 63.2072 163.832 63.7034C164.336 64.1996 164.588 64.9477 164.588 65.9477V71.8H162.889V66.1068C162.889 65.5159 162.728 65.0879 162.406 64.8227C162.084 64.5576 161.699 64.425 161.252 64.425C160.699 64.425 160.27 64.5955 159.963 64.9364C159.656 65.2735 159.502 65.7072 159.502 66.2375V71.8H157.809V65.9989C157.809 65.5254 157.662 65.1447 157.366 64.8568C157.071 64.5689 156.686 64.425 156.213 64.425C155.891 64.425 155.593 64.5102 155.321 64.6807C155.052 64.8474 154.834 65.0803 154.667 65.3795C154.504 65.6788 154.423 66.0254 154.423 66.4193V71.8H152.724ZM169.404 71.9932C168.851 71.9932 168.351 71.8909 167.904 71.6864C167.458 71.478 167.103 71.1769 166.842 70.783C166.584 70.389 166.456 69.9061 166.456 69.3341C166.456 68.8417 166.55 68.4364 166.74 68.1182C166.929 67.8 167.185 67.5481 167.507 67.3625C167.829 67.1769 168.189 67.0367 168.586 66.942C168.984 66.8474 169.389 66.7754 169.802 66.7261C170.325 66.6655 170.749 66.6163 171.075 66.5784C171.401 66.5367 171.637 66.4705 171.785 66.3795C171.933 66.2886 172.007 66.1409 172.007 65.9364V65.8966C172.007 65.4004 171.867 65.0159 171.586 64.7432C171.31 64.4705 170.897 64.3341 170.348 64.3341C169.776 64.3341 169.325 64.461 168.995 64.7148C168.67 64.9648 168.444 65.2432 168.319 65.55L166.723 65.1864C166.912 64.6561 167.189 64.228 167.552 63.9023C167.92 63.5727 168.342 63.3341 168.819 63.1864C169.297 63.0349 169.798 62.9591 170.325 62.9591C170.673 62.9591 171.043 63.0008 171.433 63.0841C171.827 63.1636 172.194 63.3114 172.535 63.5273C172.88 63.7432 173.162 64.0519 173.382 64.4534C173.601 64.8511 173.711 65.3682 173.711 66.0045V71.8H172.052V70.6068H171.984C171.874 70.8265 171.709 71.0424 171.49 71.2545C171.27 71.4667 170.988 71.6428 170.643 71.783C170.298 71.9231 169.886 71.9932 169.404 71.9932ZM169.774 70.6295C170.243 70.6295 170.645 70.5367 170.978 70.3511C171.315 70.1655 171.571 69.9231 171.745 69.6239C171.923 69.3208 172.012 68.997 172.012 68.6523V67.5273C171.952 67.5879 171.834 67.6447 171.66 67.6977C171.49 67.747 171.295 67.7905 171.075 67.8284C170.855 67.8625 170.641 67.8947 170.433 67.925C170.225 67.9515 170.05 67.9742 169.91 67.9932C169.581 68.0349 169.279 68.1049 169.007 68.2034C168.738 68.3019 168.522 68.4439 168.359 68.6295C168.2 68.8114 168.12 69.0538 168.12 69.3568C168.12 69.7773 168.276 70.0955 168.586 70.3114C168.897 70.5235 169.293 70.6295 169.774 70.6295ZM177.673 66.6182V71.8H175.974V63.0727H177.605V64.4932H177.713C177.913 64.0311 178.228 63.6599 178.656 63.3795C179.088 63.0992 179.631 62.9591 180.287 62.9591C180.881 62.9591 181.402 63.0841 181.849 63.3341C182.296 63.5803 182.643 63.9477 182.889 64.4364C183.135 64.925 183.258 65.5292 183.258 66.2489V71.8H181.559V66.4534C181.559 65.8208 181.395 65.3265 181.065 64.9705C180.735 64.6106 180.283 64.4307 179.707 64.4307C179.313 64.4307 178.963 64.5159 178.656 64.6864C178.353 64.8568 178.112 65.1068 177.934 65.4364C177.76 65.7621 177.673 66.1561 177.673 66.6182ZM188.076 71.9932C187.523 71.9932 187.023 71.8909 186.576 71.6864C186.129 71.478 185.775 71.1769 185.514 70.783C185.256 70.389 185.127 69.9061 185.127 69.3341C185.127 68.8417 185.222 68.4364 185.412 68.1182C185.601 67.8 185.857 67.5481 186.179 67.3625C186.501 67.1769 186.86 67.0367 187.258 66.942C187.656 66.8474 188.061 66.7754 188.474 66.7261C188.997 66.6655 189.421 66.6163 189.747 66.5784C190.073 66.5367 190.309 66.4705 190.457 66.3795C190.605 66.2886 190.679 66.1409 190.679 65.9364V65.8966C190.679 65.4004 190.538 65.0159 190.258 64.7432C189.982 64.4705 189.569 64.3341 189.02 64.3341C188.448 64.3341 187.997 64.461 187.667 64.7148C187.342 64.9648 187.116 65.2432 186.991 65.55L185.395 65.1864C185.584 64.6561 185.86 64.228 186.224 63.9023C186.592 63.5727 187.014 63.3341 187.491 63.1864C187.968 63.0349 188.47 62.9591 188.997 62.9591C189.345 62.9591 189.715 63.0008 190.105 63.0841C190.499 63.1636 190.866 63.3114 191.207 63.5273C191.552 63.7432 191.834 64.0519 192.054 64.4534C192.273 64.8511 192.383 65.3682 192.383 66.0045V71.8H190.724V70.6068H190.656C190.546 70.8265 190.381 71.0424 190.162 71.2545C189.942 71.4667 189.66 71.6428 189.315 71.783C188.97 71.9231 188.557 71.9932 188.076 71.9932ZM188.446 70.6295C188.915 70.6295 189.317 70.5367 189.65 70.3511C189.987 70.1655 190.243 69.9231 190.417 69.6239C190.595 69.3208 190.684 68.997 190.684 68.6523V67.5273C190.624 67.5879 190.506 67.6447 190.332 67.6977C190.162 67.747 189.967 67.7905 189.747 67.8284C189.527 67.8625 189.313 67.8947 189.105 67.925C188.896 67.9515 188.722 67.9742 188.582 67.9932C188.252 68.0349 187.951 68.1049 187.679 68.2034C187.41 68.3019 187.194 68.4439 187.031 68.6295C186.872 68.8114 186.792 69.0538 186.792 69.3568C186.792 69.7773 186.948 70.0955 187.258 70.3114C187.569 70.5235 187.965 70.6295 188.446 70.6295ZM198.305 75.2545C197.612 75.2545 197.015 75.1636 196.515 74.9818C196.019 74.8 195.614 74.5595 195.299 74.2602C194.985 73.961 194.75 73.6333 194.595 73.2773L196.055 72.675C196.157 72.8417 196.294 73.0178 196.464 73.2034C196.638 73.3928 196.873 73.5538 197.169 73.6864C197.468 73.8189 197.852 73.8852 198.322 73.8852C198.966 73.8852 199.498 73.728 199.919 73.4136C200.339 73.103 200.549 72.6068 200.549 71.925V70.2091H200.441C200.339 70.3947 200.191 70.6011 199.998 70.8284C199.809 71.0557 199.547 71.2527 199.214 71.4193C198.881 71.586 198.447 71.6693 197.913 71.6693C197.224 71.6693 196.602 71.5083 196.049 71.1864C195.5 70.8606 195.065 70.3814 194.743 69.7489C194.424 69.1125 194.265 68.3303 194.265 67.4023C194.265 66.4742 194.422 65.6788 194.737 65.0159C195.055 64.353 195.491 63.8455 196.044 63.4932C196.597 63.1371 197.224 62.9591 197.924 62.9591C198.466 62.9591 198.904 63.05 199.237 63.2318C199.57 63.4099 199.83 63.6182 200.015 63.8568C200.205 64.0955 200.35 64.3057 200.453 64.4875H200.578V63.0727H202.243V71.9932C202.243 72.7432 202.068 73.3587 201.72 73.8398C201.371 74.3208 200.9 74.6769 200.305 74.908C199.714 75.139 199.047 75.2545 198.305 75.2545ZM198.288 70.2602C198.777 70.2602 199.19 70.1466 199.527 69.9193C199.868 69.6883 200.125 69.3587 200.299 68.9307C200.477 68.4989 200.566 67.9818 200.566 67.3795C200.566 66.7924 200.479 66.2754 200.305 65.8284C200.131 65.3814 199.875 65.033 199.538 64.783C199.201 64.5292 198.784 64.4023 198.288 64.4023C197.777 64.4023 197.35 64.5349 197.01 64.8C196.669 65.0614 196.411 65.4174 196.237 65.8682C196.066 66.3189 195.981 66.8227 195.981 67.3795C195.981 67.9515 196.068 68.4534 196.243 68.8852C196.417 69.317 196.674 69.6542 197.015 69.8966C197.36 70.139 197.784 70.2602 198.288 70.2602ZM208.282 71.9761C207.422 71.9761 206.682 71.7924 206.061 71.425C205.443 71.0538 204.966 70.533 204.629 69.8625C204.296 69.1883 204.129 68.3985 204.129 67.4932C204.129 66.5992 204.296 65.8114 204.629 65.1295C204.966 64.4477 205.436 63.9155 206.038 63.533C206.644 63.1504 207.352 62.9591 208.163 62.9591C208.655 62.9591 209.133 63.0405 209.595 63.2034C210.057 63.3663 210.472 63.622 210.839 63.9705C211.207 64.3189 211.496 64.7716 211.708 65.3284C211.921 65.8814 212.027 66.5538 212.027 67.3455V67.9477H205.089V66.675H210.362C210.362 66.228 210.271 65.8322 210.089 65.4875C209.907 65.139 209.652 64.8644 209.322 64.6636C208.996 64.4629 208.614 64.3625 208.174 64.3625C207.697 64.3625 207.28 64.4799 206.924 64.7148C206.572 64.9458 206.299 65.2489 206.106 65.6239C205.917 65.9951 205.822 66.3985 205.822 66.8341V67.8284C205.822 68.4117 205.924 68.908 206.129 69.317C206.337 69.7261 206.627 70.0386 206.998 70.2545C207.369 70.4667 207.803 70.5727 208.299 70.5727C208.621 70.5727 208.915 70.5273 209.18 70.4364C209.445 70.3417 209.674 70.2015 209.868 70.0159C210.061 69.8303 210.208 69.6011 210.311 69.3284L211.919 69.6182C211.79 70.0917 211.559 70.5064 211.225 70.8625C210.896 71.2148 210.481 71.4894 209.981 71.6864C209.485 71.8795 208.919 71.9761 208.282 71.9761ZM213.912 71.8V63.0727H215.542V64.4932H215.65C215.832 64.0121 216.129 63.6371 216.542 63.3682C216.955 63.0955 217.449 62.9591 218.025 62.9591C218.609 62.9591 219.097 63.0955 219.491 63.3682C219.889 63.6409 220.182 64.0159 220.372 64.4932H220.463C220.671 64.0273 221.002 63.6561 221.457 63.3795C221.912 63.0992 222.453 62.9591 223.082 62.9591C223.874 62.9591 224.52 63.2072 225.02 63.7034C225.523 64.1996 225.775 64.9477 225.775 65.9477V71.8H224.076V66.1068C224.076 65.5159 223.915 65.0879 223.593 64.8227C223.271 64.5576 222.887 64.425 222.44 64.425C221.887 64.425 221.457 64.5955 221.15 64.9364C220.843 65.2735 220.69 65.7072 220.69 66.2375V71.8H218.997V65.9989C218.997 65.5254 218.849 65.1447 218.554 64.8568C218.258 64.5689 217.874 64.425 217.4 64.425C217.078 64.425 216.781 64.5102 216.508 64.6807C216.239 64.8474 216.021 65.0803 215.855 65.3795C215.692 65.6788 215.61 66.0254 215.61 66.4193V71.8H213.912ZM231.814 71.9761C230.954 71.9761 230.213 71.7924 229.592 71.425C228.975 71.0538 228.497 70.533 228.16 69.8625C227.827 69.1883 227.66 68.3985 227.66 67.4932C227.66 66.5992 227.827 65.8114 228.16 65.1295C228.497 64.4477 228.967 63.9155 229.569 63.533C230.175 63.1504 230.884 62.9591 231.694 62.9591C232.187 62.9591 232.664 63.0405 233.126 63.2034C233.588 63.3663 234.003 63.622 234.37 63.9705C234.738 64.3189 235.028 64.7716 235.24 65.3284C235.452 65.8814 235.558 66.5538 235.558 67.3455V67.9477H228.62V66.675H233.893C233.893 66.228 233.802 65.8322 233.62 65.4875C233.439 65.139 233.183 64.8644 232.853 64.6636C232.528 64.4629 232.145 64.3625 231.706 64.3625C231.228 64.3625 230.812 64.4799 230.456 64.7148C230.103 64.9458 229.831 65.2489 229.637 65.6239C229.448 65.9951 229.353 66.3985 229.353 66.8341V67.8284C229.353 68.4117 229.456 68.908 229.66 69.317C229.868 69.7261 230.158 70.0386 230.529 70.2545C230.901 70.4667 231.334 70.5727 231.831 70.5727C232.153 70.5727 232.446 70.5273 232.711 70.4364C232.976 70.3417 233.206 70.2015 233.399 70.0159C233.592 69.8303 233.74 69.6011 233.842 69.3284L235.45 69.6182C235.321 70.0917 235.09 70.5064 234.757 70.8625C234.427 71.2148 234.012 71.4894 233.512 71.6864C233.016 71.8795 232.45 71.9761 231.814 71.9761ZM239.142 66.6182V71.8H237.443V63.0727H239.074V64.4932H239.181C239.382 64.0311 239.697 63.6599 240.125 63.3795C240.556 63.0992 241.1 62.9591 241.755 62.9591C242.35 62.9591 242.871 63.0841 243.318 63.3341C243.765 63.5803 244.111 63.9477 244.358 64.4364C244.604 64.925 244.727 65.5292 244.727 66.2489V71.8H243.028V66.4534C243.028 65.8208 242.863 65.3265 242.534 64.9705C242.204 64.6106 241.752 64.4307 241.176 64.4307C240.782 64.4307 240.431 64.5159 240.125 64.6864C239.822 64.8568 239.581 65.1068 239.403 65.4364C239.229 65.7621 239.142 66.1561 239.142 66.6182ZM251.079 63.0727V64.4364H246.312V63.0727H251.079ZM247.591 60.9818H249.289V69.2375C249.289 69.567 249.339 69.8152 249.437 69.9818C249.536 70.1447 249.663 70.2564 249.818 70.317C249.977 70.3739 250.149 70.4023 250.335 70.4023C250.471 70.4023 250.591 70.3928 250.693 70.3739C250.795 70.3549 250.875 70.3398 250.931 70.3284L251.238 71.7318C251.14 71.7697 251 71.8076 250.818 71.8455C250.636 71.8871 250.409 71.9099 250.136 71.9136C249.689 71.9212 249.272 71.8417 248.886 71.675C248.5 71.5083 248.187 71.2508 247.949 70.9023C247.71 70.5538 247.591 70.1163 247.591 69.5898V60.9818Z" fill="#556DB1"/>
</g>
<defs>
<filter id="filter0_d_528_15183" x="0.000782013" y="3.8147e-06" width="323.6" height="140.6" filterUnits="userSpaceOnUse" color-interpolation-filters="sRGB">
<feFlood flood-opacity="0" result="BackgroundImageFix"/>
<feColorMatrix in="SourceAlpha" type="matrix" values="0 0 0 0 0 0 0 0 0 0 0 0 0 0 0 0 0 0 127 0" result="hardAlpha"/>
<feOffset dy="4"/>
<feGaussianBlur stdDeviation="22.15"/>
<feComposite in2="hardAlpha" operator="out"/>
<feColorMatrix type="matrix" values="0 0 0 0 0 0 0 0 0 0 0 0 0 0 0 0 0 0 0.12 0"/>
<feBlend mode="normal" in2="BackgroundImageFix" result="effect1_dropShadow_528_15183"/>
<feBlend mode="normal" in="SourceGraphic" in2="effect1_dropShadow_528_15183" result="shape"/>
</filter>
<clipPath id="clip0_528_15183">
<rect width="22" height="22" fill="white" transform="translate(59.3008 55.3)"/>
</clipPath>
</defs>
</svg>
