<svg width="774" height="603" viewBox="0 0 774 603" fill="none" xmlns="http://www.w3.org/2000/svg">
<path opacity="0.61" d="M273.009 329.255C153.185 329.255 55.1816 427.322 55.1816 547.223C55.1817 667.123 153.185 765.19 273.009 765.19H467.041C586.865 765.19 684.868 667.123 684.868 547.223C684.868 427.322 586.865 329.255 467.041 329.255H273.009ZM276.266 494.486C305.371 494.487 328.967 518.097 328.967 547.223C328.967 576.349 305.371 599.959 276.266 599.959C247.16 599.959 223.564 576.349 223.563 547.223C223.563 518.097 247.16 494.486 276.266 494.486ZM463.747 494.486C492.853 494.486 516.449 518.097 516.449 547.223C516.449 576.349 492.853 599.959 463.747 599.959C434.641 599.959 411.046 576.349 411.046 547.223C411.046 518.097 434.641 494.487 463.747 494.486ZM-28.3125 74.3438L-29.0117 74.1689C-36.8468 72.2089 -43.7012 67.7729 -48.6865 61.7471L-49.1631 61.1582L-49.165 61.1562L-49.6328 60.5586C-54.4033 54.3329 -57.2157 46.5436 -57.2158 38.1064C-57.2158 29.3969 -54.2188 21.3764 -49.2002 15.0537C-44.1789 8.72779 -37.0988 4.02897 -29.0117 2.00586L-28.5898 1.90039C-25.1846 1.13917 -21.5709 0.778784 -17.9668 0.995117H-17.96C1.70599 2.0423 17.3887 19.0634 17.0645 38.793C16.9562 44.8245 15.3678 50.5333 12.6943 55.5586C10.0247 60.5764 6.19649 64.8796 1.63965 68.209L0.983398 68.6885L1.37695 69.4004L68.7676 191.384L97.9238 246.031L97.9521 246.084L97.9727 246.129C98.3847 247.029 98.8675 247.886 99.3311 248.707C99.3735 248.825 99.4226 248.918 99.4629 248.987C99.4778 249.013 99.5172 249.078 99.5186 249.08C99.5301 249.099 99.5364 249.111 99.541 249.12L99.5566 249.151L99.5742 249.182C105.654 259.334 116.755 266.146 129.381 266.146C139.602 266.146 148.835 261.7 155.183 254.633C155.269 254.547 155.373 254.44 155.479 254.297C156.348 253.383 157.135 252.368 157.843 251.327C162.172 245.772 166.428 240.145 170.643 234.521H170.644C178.428 224.123 190.775 217.782 204.1 217.782H439.508C612.864 217.782 759.369 350.552 771.584 523.587C778.633 623.441 740.549 714.986 675.705 779.946C616.028 839.626 533.694 876.7 443.171 876.7H276.08C108.685 876.7 -28.3123 739.687 -28.3125 572.146V74.3438Z" stroke="white" stroke-opacity="0.12" stroke-width="1.84568"/>
</svg>
