<svg width="258" height="142" viewBox="0 0 258 142" fill="none" xmlns="http://www.w3.org/2000/svg">
<g filter="url(#filter0_d_528_15307)">
<path d="M70.8555 93.7882C57.6006 93.7882 46.8555 83.043 46.8555 69.7882C46.8555 56.5334 57.6006 45.7882 70.8555 45.7882L186.855 45.7882C200.11 45.7882 210.855 56.5334 210.855 69.7882C210.855 83.043 200.11 93.7882 186.855 93.7882L70.8555 93.7882Z" fill="#FF4C8E" shape-rendering="crispEdges"/>
<path d="M47.3154 69.7882C47.3154 56.7872 57.8544 46.2482 70.8555 46.2482L186.855 46.2482C199.857 46.2482 210.396 56.7872 210.396 69.7882C210.396 82.7892 199.857 93.3282 186.855 93.3282L70.8555 93.3282C57.8544 93.3282 47.3154 82.7892 47.3154 69.7882Z" stroke="white" stroke-width="0.919084" shape-rendering="crispEdges"/>
<path fill-rule="evenodd" clip-rule="evenodd" d="M128.855 61.371C127.578 61.371 126.089 61.401 124.637 61.4417L124.578 61.4439C123.1 61.4857 121.908 61.5189 120.968 61.6744C119.989 61.8363 119.177 62.1462 118.527 62.8142C117.875 63.4844 117.591 64.3133 117.457 65.3051C117.328 66.2594 117.328 67.4689 117.328 68.9723V70.6064C117.328 72.1076 117.328 73.3171 117.457 74.2725C117.59 75.2643 117.875 76.0932 118.527 76.7633C119.177 77.4324 119.989 77.7412 120.968 77.9031C121.908 78.0586 123.1 78.0919 124.578 78.1337L124.637 78.1358C126.09 78.1766 127.578 78.2066 128.855 78.2066C130.132 78.2066 131.621 78.1766 133.073 78.1358L133.132 78.1337C134.61 78.0919 135.802 78.0586 136.741 77.9031C137.72 77.7412 138.533 77.4313 139.183 76.7633C139.835 76.0932 140.12 75.2643 140.253 74.2725C140.382 73.3181 140.382 72.1086 140.382 70.6053V68.9712C140.382 67.4689 140.382 66.2594 140.253 65.3051C140.12 64.3133 139.835 63.4844 139.183 62.8142C138.533 62.1451 137.72 61.8363 136.741 61.6744C135.802 61.5189 134.61 61.4857 133.131 61.4439L133.073 61.4417C131.668 61.3991 130.261 61.3755 128.855 61.371ZM127.645 72.6308C127.523 72.7007 127.385 72.7372 127.244 72.7367C127.103 72.7362 126.965 72.6988 126.843 72.6281C126.721 72.5574 126.62 72.456 126.55 72.334C126.479 72.212 126.442 72.0736 126.442 71.9328V67.6437C126.442 67.5029 126.479 67.3645 126.55 67.2425C126.62 67.1205 126.721 67.0191 126.843 66.9484C126.965 66.8777 127.103 66.8403 127.244 66.8398C127.385 66.8393 127.523 66.8758 127.645 66.9457L131.398 69.0902C131.521 69.1606 131.624 69.2622 131.695 69.3848C131.766 69.5074 131.803 69.6465 131.803 69.7882C131.803 69.93 131.766 70.0691 131.695 70.1917C131.624 70.3143 131.521 70.4159 131.398 70.4863L127.645 72.6308Z" fill="white"/>
</g>
<defs>
<filter id="filter0_d_528_15307" x="-3.05176e-05" y="3.21865e-05" width="257.711" height="141.711" filterUnits="userSpaceOnUse" color-interpolation-filters="sRGB">
<feFlood flood-opacity="0" result="BackgroundImageFix"/>
<feColorMatrix in="SourceAlpha" type="matrix" values="0 0 0 0 0 0 0 0 0 0 0 0 0 0 0 0 0 0 127 0" result="hardAlpha"/>
<feOffset dy="1.06732"/>
<feGaussianBlur stdDeviation="23.4277"/>
<feComposite in2="hardAlpha" operator="out"/>
<feColorMatrix type="matrix" values="0 0 0 0 0.442077 0 0 0 0 0.336197 0 0 0 0 0.722146 0 0 0 0.18 0"/>
<feBlend mode="normal" in2="BackgroundImageFix" result="effect1_dropShadow_528_15307"/>
<feBlend mode="normal" in="SourceGraphic" in2="effect1_dropShadow_528_15307" result="shape"/>
</filter>
</defs>
</svg>
